G75*
G70*
%OFA0B0*%
%FSLAX24Y24*%
%IPPOS*%
%LPD*%
%AMOC8*
5,1,8,0,0,1.08239X$1,22.5*
%
%ADD10R,0.0870X0.0240*%
%ADD11R,0.0433X0.0394*%
%ADD12R,0.0394X0.0433*%
%ADD13R,0.0250X0.0500*%
%ADD14R,0.0594X0.0594*%
%ADD15C,0.0594*%
%ADD16R,0.0591X0.0512*%
%ADD17C,0.1266*%
%ADD18R,0.1181X0.0236*%
%ADD19R,0.0515X0.0515*%
%ADD20C,0.0515*%
%ADD21R,0.0591X0.0157*%
%ADD22R,0.0787X0.0945*%
%ADD23R,0.0197X0.0909*%
%ADD24C,0.0160*%
%ADD25C,0.0290*%
%ADD26C,0.0100*%
%ADD27C,0.0120*%
D10*
X016220Y024000D03*
X016220Y024500D03*
X016220Y025000D03*
X016220Y025500D03*
X018280Y025500D03*
X018280Y025000D03*
X018280Y024500D03*
X018280Y024000D03*
D11*
X020250Y023915D03*
X020250Y024585D03*
X017585Y033875D03*
X016915Y033875D03*
D12*
X016000Y036540D03*
X016000Y037210D03*
X020750Y037165D03*
X020750Y037835D03*
X020750Y038540D03*
X020750Y039210D03*
X017585Y026375D03*
X016915Y026375D03*
X016790Y023000D03*
X017460Y023000D03*
X017460Y022125D03*
X017460Y021250D03*
X016790Y021250D03*
X016790Y022125D03*
X019375Y023915D03*
X019375Y024585D03*
D13*
X018677Y022750D03*
X018323Y022750D03*
X018323Y021750D03*
X018677Y021750D03*
D14*
X022875Y018375D03*
X017625Y030375D03*
X003875Y018375D03*
D15*
X003875Y019375D03*
X003875Y020375D03*
X003875Y021375D03*
X003875Y022375D03*
X003875Y023375D03*
X003875Y024375D03*
X003875Y025375D03*
X003875Y026375D03*
X003875Y027375D03*
X003875Y028375D03*
X003875Y029375D03*
X003875Y030375D03*
X003875Y031375D03*
X003875Y032375D03*
X003875Y033375D03*
X003875Y034375D03*
X003875Y035375D03*
X003875Y036375D03*
X003875Y037375D03*
X003875Y038375D03*
X003875Y039375D03*
X003875Y040375D03*
X002875Y040375D03*
X002875Y039375D03*
X002875Y038375D03*
X002875Y037375D03*
X002875Y036375D03*
X002875Y035375D03*
X002875Y034375D03*
X002875Y033375D03*
X002875Y032375D03*
X002875Y031375D03*
X002875Y030375D03*
X002875Y029375D03*
X002875Y028375D03*
X002875Y027375D03*
X002875Y026375D03*
X002875Y025375D03*
X002875Y024375D03*
X002875Y023375D03*
X002875Y022375D03*
X002875Y021375D03*
X002875Y020375D03*
X002875Y019375D03*
X002875Y018375D03*
X018625Y030375D03*
X019625Y030375D03*
X021875Y030375D03*
X021875Y029375D03*
X021875Y028375D03*
X021875Y027375D03*
X021875Y026375D03*
X021875Y025375D03*
X021875Y024375D03*
X021875Y023375D03*
X021875Y022375D03*
X021875Y021375D03*
X021875Y020375D03*
X021875Y019375D03*
X021875Y018375D03*
X022875Y019375D03*
X022875Y020375D03*
X022875Y021375D03*
X022875Y022375D03*
X022875Y023375D03*
X022875Y024375D03*
X022875Y025375D03*
X022875Y026375D03*
X022875Y027375D03*
X022875Y028375D03*
X022875Y029375D03*
X022875Y030375D03*
X022875Y031375D03*
X022875Y032375D03*
X022875Y033375D03*
X022875Y034375D03*
X022875Y035375D03*
X022875Y036375D03*
X022875Y037375D03*
X022875Y038375D03*
X022875Y039375D03*
X022875Y040375D03*
X021875Y040375D03*
X021875Y039375D03*
X021875Y038375D03*
X021875Y037375D03*
X021875Y036375D03*
X021875Y035375D03*
X021875Y034375D03*
X021875Y033375D03*
X021875Y032375D03*
X021875Y031375D03*
D16*
X020375Y018749D03*
X020375Y018001D03*
X009375Y039626D03*
X009375Y040374D03*
D17*
X011300Y039825D03*
X012088Y038250D03*
X012875Y036675D03*
X013662Y038250D03*
X014450Y036675D03*
X014450Y039825D03*
X012875Y039825D03*
X011300Y036675D03*
X011300Y024575D03*
X012088Y023000D03*
X012875Y021425D03*
X013662Y023000D03*
X014450Y021425D03*
X014450Y024575D03*
X012875Y024575D03*
X011300Y021425D03*
D18*
X016358Y031428D03*
X016358Y031928D03*
X016358Y032428D03*
X016358Y032928D03*
X018642Y032928D03*
X018642Y032428D03*
X018642Y031928D03*
X018642Y031428D03*
D19*
X020625Y027375D03*
D20*
X020625Y028375D03*
X020625Y029375D03*
X020625Y030375D03*
X020625Y031375D03*
X020625Y032375D03*
D21*
X019677Y036462D03*
X019677Y036718D03*
X019677Y036973D03*
X019677Y037229D03*
X019677Y037485D03*
X019677Y037741D03*
X019677Y037997D03*
X019677Y038253D03*
X019677Y038509D03*
X019677Y038765D03*
X019677Y039021D03*
X019677Y039277D03*
X019677Y039532D03*
X019677Y039788D03*
X016823Y039788D03*
X016823Y039532D03*
X016823Y039277D03*
X016823Y039021D03*
X016823Y038765D03*
X016823Y038509D03*
X016823Y038253D03*
X016823Y037997D03*
X016823Y037741D03*
X016823Y037485D03*
X016823Y037229D03*
X016823Y036973D03*
X016823Y036718D03*
X016823Y036462D03*
D22*
X012107Y041747D03*
X012107Y043912D03*
X008643Y043912D03*
X008643Y041747D03*
D23*
X009745Y041525D03*
X010060Y041525D03*
X010375Y041525D03*
X010690Y041525D03*
X011005Y041525D03*
D24*
X002530Y018046D02*
X002530Y017030D01*
X006744Y017030D01*
X006853Y017507D01*
X006853Y017507D01*
X007113Y018046D01*
X007486Y018514D01*
X007486Y018514D01*
X007954Y018887D01*
X008493Y019147D01*
X009076Y019280D01*
X009076Y019280D01*
X016674Y019280D01*
X017257Y019147D01*
X017257Y019147D01*
X017796Y018887D01*
X017796Y018887D01*
X018264Y018514D01*
X018264Y018514D01*
X018264Y018514D01*
X018637Y018046D01*
X018637Y018046D01*
X018897Y017507D01*
X018897Y017507D01*
X019006Y017030D01*
X023220Y017030D01*
X023220Y017905D01*
X023196Y017898D01*
X022893Y017898D01*
X022893Y018357D01*
X022857Y018357D01*
X022857Y017898D01*
X022554Y017898D01*
X022509Y017910D01*
X022468Y017934D01*
X022434Y017968D01*
X022410Y018009D01*
X022398Y018054D01*
X022398Y018357D01*
X022857Y018357D01*
X022857Y018393D01*
X022398Y018393D01*
X022398Y018696D01*
X022410Y018741D01*
X022434Y018782D01*
X022468Y018816D01*
X022509Y018840D01*
X022554Y018852D01*
X022857Y018852D01*
X022857Y018393D01*
X022893Y018393D01*
X022893Y018852D01*
X023196Y018852D01*
X023220Y018845D01*
X023220Y019102D01*
X023122Y019005D01*
X022962Y018938D01*
X022788Y018938D01*
X022628Y019005D01*
X022505Y019128D01*
X022493Y019155D01*
X022257Y019155D01*
X022245Y019128D01*
X022122Y019005D01*
X021962Y018938D01*
X021788Y018938D01*
X021628Y019005D01*
X021505Y019128D01*
X021493Y019155D01*
X021091Y019155D01*
X020810Y018874D01*
X020810Y018435D01*
X020778Y018403D01*
X020781Y018401D01*
X020814Y018367D01*
X020838Y018326D01*
X020850Y018281D01*
X020850Y018049D01*
X020423Y018049D01*
X020423Y017953D01*
X020850Y017953D01*
X020850Y017721D01*
X020838Y017676D01*
X020814Y017635D01*
X020781Y017601D01*
X020740Y017577D01*
X020694Y017565D01*
X020423Y017565D01*
X020423Y017953D01*
X020327Y017953D01*
X019900Y017953D01*
X019900Y017721D01*
X019912Y017676D01*
X019936Y017635D01*
X019969Y017601D01*
X020010Y017577D01*
X020056Y017565D01*
X020327Y017565D01*
X020327Y017953D01*
X020327Y018049D01*
X019900Y018049D01*
X019900Y018281D01*
X019912Y018326D01*
X019936Y018367D01*
X019969Y018401D01*
X019972Y018403D01*
X019940Y018435D01*
X019940Y019063D01*
X020022Y019145D01*
X020459Y019145D01*
X020909Y019595D01*
X021094Y019595D01*
X021030Y019659D01*
X021030Y023695D01*
X020607Y023695D01*
X020607Y023661D01*
X020525Y023579D01*
X019975Y023579D01*
X019893Y023661D01*
X019893Y023695D01*
X019712Y023695D01*
X019712Y023641D01*
X019630Y023559D01*
X019120Y023559D01*
X019038Y023641D01*
X019038Y023695D01*
X018274Y023695D01*
X018229Y023740D01*
X017801Y023740D01*
X017680Y023619D01*
X017680Y023357D01*
X017714Y023357D01*
X017796Y023275D01*
X017796Y022725D01*
X017714Y022643D01*
X017650Y022643D01*
X017650Y022482D01*
X017714Y022482D01*
X017750Y022446D01*
X018058Y022754D01*
X018058Y023058D01*
X018140Y023140D01*
X018438Y023140D01*
X018442Y023144D01*
X018483Y023168D01*
X018528Y023180D01*
X018677Y023180D01*
X018677Y022750D01*
X018677Y022750D01*
X018677Y022750D01*
X018677Y022320D01*
X018528Y022320D01*
X018483Y022332D01*
X018442Y022356D01*
X018438Y022360D01*
X018202Y022360D01*
X018065Y022223D01*
X018065Y022065D01*
X018140Y022140D01*
X018438Y022140D01*
X018442Y022144D01*
X018483Y022168D01*
X018528Y022180D01*
X018677Y022180D01*
X018677Y021750D01*
X018677Y021750D01*
X018677Y021750D01*
X018677Y021320D01*
X018528Y021320D01*
X018513Y021324D01*
X018513Y020869D01*
X018429Y020785D01*
X018705Y020900D01*
X019013Y020900D01*
X019298Y020782D01*
X019515Y020564D01*
X019633Y020280D01*
X019633Y019972D01*
X019515Y019688D01*
X019298Y019470D01*
X019013Y019352D01*
X018705Y019352D01*
X018421Y019470D01*
X018203Y019688D01*
X018086Y019972D01*
X018086Y020280D01*
X018200Y020556D01*
X017954Y020310D01*
X017046Y020310D01*
X016935Y020421D01*
X016935Y020421D01*
X016712Y020645D01*
X016712Y020645D01*
X016600Y020756D01*
X016600Y020893D01*
X016536Y020893D01*
X016454Y020975D01*
X016454Y021060D01*
X015921Y021060D01*
X015810Y021171D01*
X015185Y021796D01*
X015185Y024330D01*
X015105Y024137D01*
X014888Y023919D01*
X014604Y023802D01*
X014296Y023802D01*
X014012Y023919D01*
X013882Y024049D01*
X013882Y023746D01*
X014100Y023655D01*
X014318Y023438D01*
X014435Y023154D01*
X014435Y022846D01*
X014318Y022562D01*
X014100Y022345D01*
X013816Y022227D01*
X013509Y022227D01*
X013224Y022345D01*
X013007Y022562D01*
X012889Y022846D01*
X012889Y023154D01*
X013007Y023438D01*
X013224Y023655D01*
X013442Y023746D01*
X013442Y024049D01*
X013313Y023919D01*
X013029Y023802D01*
X012721Y023802D01*
X012437Y023919D01*
X012308Y024049D01*
X012308Y023746D01*
X012526Y023655D01*
X012743Y023438D01*
X012861Y023154D01*
X012861Y022846D01*
X012743Y022562D01*
X012526Y022345D01*
X012241Y022227D01*
X011934Y022227D01*
X011650Y022345D01*
X011432Y022562D01*
X011315Y022846D01*
X011315Y023154D01*
X011432Y023438D01*
X011650Y023655D01*
X011868Y023746D01*
X011868Y024049D01*
X011738Y023919D01*
X011454Y023802D01*
X011146Y023802D01*
X010862Y023919D01*
X010645Y024137D01*
X010527Y024421D01*
X010527Y024729D01*
X010645Y025013D01*
X010862Y025230D01*
X011146Y025348D01*
X011454Y025348D01*
X011738Y025230D01*
X011868Y025101D01*
X011868Y029317D01*
X011846Y029339D01*
X011803Y029443D01*
X011803Y029557D01*
X011846Y029661D01*
X011868Y029683D01*
X011868Y036149D01*
X011738Y036020D01*
X011454Y035902D01*
X011146Y035902D01*
X010862Y036020D01*
X010645Y036237D01*
X010527Y036521D01*
X010527Y036829D01*
X010645Y037113D01*
X010862Y037331D01*
X011146Y037448D01*
X011454Y037448D01*
X011738Y037331D01*
X011868Y037201D01*
X011868Y037504D01*
X011650Y037595D01*
X011432Y037812D01*
X011315Y038096D01*
X011315Y038404D01*
X011432Y038688D01*
X011650Y038905D01*
X011934Y039023D01*
X012241Y039023D01*
X012526Y038905D01*
X012743Y038688D01*
X012861Y038404D01*
X012861Y038096D01*
X012743Y037812D01*
X012526Y037595D01*
X012308Y037504D01*
X012308Y037258D01*
X012338Y037288D01*
X012422Y037353D01*
X012515Y037406D01*
X012613Y037447D01*
X012716Y037474D01*
X012795Y037485D01*
X012795Y036755D01*
X012955Y036755D01*
X012955Y037485D01*
X013034Y037474D01*
X013137Y037447D01*
X013235Y037406D01*
X013328Y037353D01*
X013412Y037288D01*
X013442Y037258D01*
X013442Y037504D01*
X013224Y037595D01*
X013007Y037812D01*
X012889Y038096D01*
X012889Y038404D01*
X013007Y038688D01*
X013224Y038905D01*
X013509Y039023D01*
X013816Y039023D01*
X014100Y038905D01*
X014318Y038688D01*
X014435Y038404D01*
X014435Y038096D01*
X014318Y037812D01*
X014100Y037595D01*
X013882Y037504D01*
X013882Y037201D01*
X014012Y037331D01*
X014296Y037448D01*
X014604Y037448D01*
X014888Y037331D01*
X015105Y037113D01*
X015223Y036829D01*
X015223Y036521D01*
X015105Y036237D01*
X014888Y036020D01*
X014604Y035902D01*
X014296Y035902D01*
X014012Y036020D01*
X013882Y036149D01*
X013882Y032648D01*
X015672Y032648D01*
X015678Y032654D01*
X015657Y032666D01*
X015624Y032700D01*
X015600Y032741D01*
X015588Y032786D01*
X015588Y032928D01*
X016358Y032928D01*
X016358Y032928D01*
X015588Y032928D01*
X015588Y033070D01*
X015600Y033116D01*
X015624Y033157D01*
X015657Y033190D01*
X015698Y033214D01*
X015744Y033226D01*
X016358Y033226D01*
X016358Y032928D01*
X016358Y032928D01*
X016358Y032928D01*
X017129Y032928D01*
X017129Y032786D01*
X017117Y032741D01*
X017093Y032700D01*
X017059Y032666D01*
X017039Y032654D01*
X017089Y032604D01*
X017089Y032252D01*
X017015Y032178D01*
X017089Y032104D01*
X017089Y031752D01*
X017015Y031678D01*
X017089Y031604D01*
X017089Y031252D01*
X017007Y031170D01*
X015710Y031170D01*
X015628Y031252D01*
X015628Y031604D01*
X015702Y031678D01*
X015672Y031708D01*
X014255Y031708D01*
X014233Y031687D01*
X014129Y031643D01*
X014015Y031643D01*
X013910Y031687D01*
X013882Y031715D01*
X013882Y029683D01*
X013904Y029661D01*
X013947Y029557D01*
X013947Y029443D01*
X013904Y029339D01*
X013882Y029317D01*
X013882Y025101D01*
X014012Y025230D01*
X014296Y025348D01*
X014604Y025348D01*
X014888Y025230D01*
X015105Y025013D01*
X015223Y024729D01*
X015223Y024492D01*
X015296Y024565D01*
X015421Y024690D01*
X015657Y024690D01*
X015717Y024750D01*
X015645Y024822D01*
X015645Y025178D01*
X015693Y025226D01*
X015674Y025236D01*
X015641Y025269D01*
X015617Y025311D01*
X015605Y025356D01*
X015605Y025500D01*
X016220Y025500D01*
X016220Y025500D01*
X016220Y025800D01*
X016679Y025800D01*
X016724Y025788D01*
X016766Y025764D01*
X016799Y025731D01*
X016823Y025689D01*
X016835Y025644D01*
X016835Y025500D01*
X016220Y025500D01*
X016220Y025500D01*
X016220Y025500D01*
X016220Y025800D01*
X015761Y025800D01*
X015716Y025788D01*
X015674Y025764D01*
X015641Y025731D01*
X015617Y025689D01*
X015605Y025644D01*
X015605Y025500D01*
X016220Y025500D01*
X016835Y025500D01*
X016835Y025356D01*
X016823Y025311D01*
X016799Y025269D01*
X016766Y025236D01*
X016747Y025226D01*
X016783Y025190D01*
X016954Y025190D01*
X017030Y025114D01*
X017030Y025534D01*
X016695Y025869D01*
X016695Y026018D01*
X016661Y026018D01*
X016579Y026100D01*
X016579Y026650D01*
X016661Y026732D01*
X017170Y026732D01*
X017250Y026652D01*
X017330Y026732D01*
X017695Y026732D01*
X017613Y026814D01*
X017495Y027098D01*
X017495Y027406D01*
X017613Y027690D01*
X017830Y027908D01*
X018115Y028026D01*
X018288Y028026D01*
X016784Y029530D01*
X016655Y029659D01*
X016655Y030672D01*
X017365Y031381D01*
X017365Y033538D01*
X017310Y033538D01*
X017278Y033571D01*
X017276Y033568D01*
X017242Y033534D01*
X017201Y033510D01*
X017156Y033498D01*
X016934Y033498D01*
X016934Y033857D01*
X016897Y033857D01*
X016519Y033857D01*
X016519Y033654D01*
X016531Y033609D01*
X016555Y033568D01*
X016588Y033534D01*
X016629Y033510D01*
X016675Y033498D01*
X016897Y033498D01*
X016897Y033857D01*
X016897Y033893D01*
X016519Y033893D01*
X016519Y034096D01*
X016531Y034141D01*
X016555Y034182D01*
X016588Y034216D01*
X016629Y034240D01*
X016675Y034252D01*
X016897Y034252D01*
X016897Y033893D01*
X016934Y033893D01*
X016934Y034252D01*
X017156Y034252D01*
X017201Y034240D01*
X017242Y034216D01*
X017276Y034182D01*
X017278Y034179D01*
X017310Y034212D01*
X017365Y034212D01*
X017365Y035324D01*
X017034Y035655D01*
X015659Y035655D01*
X015530Y035784D01*
X015530Y035784D01*
X015409Y035905D01*
X015409Y035905D01*
X015280Y036034D01*
X015280Y037091D01*
X015490Y037301D01*
X015619Y037430D01*
X015663Y037430D01*
X015663Y037484D01*
X015745Y037566D01*
X016255Y037566D01*
X016337Y037484D01*
X016337Y037449D01*
X016388Y037449D01*
X016388Y037804D01*
X016384Y037808D01*
X016360Y037849D01*
X016348Y037895D01*
X016348Y037997D01*
X016823Y037997D01*
X016823Y037997D01*
X017298Y037997D01*
X017298Y037895D01*
X017286Y037849D01*
X017262Y037808D01*
X017258Y037804D01*
X017258Y037705D01*
X017481Y037705D01*
X018091Y037095D01*
X018409Y037095D01*
X018591Y037095D01*
X019242Y036444D01*
X019242Y036780D01*
X019238Y036784D01*
X019214Y036825D01*
X019202Y036871D01*
X019202Y036973D01*
X019348Y036973D01*
X019348Y036973D01*
X019202Y036973D01*
X019202Y037076D01*
X019209Y037101D01*
X019202Y037127D01*
X019202Y037229D01*
X019348Y037229D01*
X019348Y037229D01*
X019202Y037229D01*
X019202Y037332D01*
X019214Y037378D01*
X019238Y037419D01*
X019242Y037423D01*
X019242Y038060D01*
X019238Y038064D01*
X019214Y038105D01*
X019202Y038151D01*
X019202Y038253D01*
X019677Y038253D01*
X019677Y038253D01*
X019202Y038253D01*
X019202Y038355D01*
X019214Y038401D01*
X019238Y038442D01*
X019242Y038446D01*
X019242Y038827D01*
X019238Y038831D01*
X019214Y038872D01*
X019202Y038918D01*
X019202Y039021D01*
X019677Y039021D01*
X019677Y039057D01*
X019677Y039057D01*
X019677Y039021D01*
X019677Y039021D01*
X019677Y039021D01*
X019202Y039021D01*
X019202Y039123D01*
X019214Y039169D01*
X019238Y039210D01*
X019242Y039214D01*
X019242Y039332D01*
X019135Y039332D01*
X018792Y039675D01*
X018675Y039792D01*
X018675Y040042D01*
X018667Y040050D01*
X015667Y040050D01*
X015292Y040425D01*
X014943Y040425D01*
X015105Y040263D01*
X015223Y039979D01*
X015223Y039671D01*
X015105Y039387D01*
X014888Y039169D01*
X014604Y039052D01*
X014296Y039052D01*
X014012Y039169D01*
X013794Y039387D01*
X013677Y039671D01*
X013677Y039979D01*
X013794Y040263D01*
X013957Y040425D01*
X013368Y040425D01*
X013530Y040263D01*
X013648Y039979D01*
X013648Y039671D01*
X013530Y039387D01*
X013313Y039169D01*
X013029Y039052D01*
X012721Y039052D01*
X012437Y039169D01*
X012220Y039387D01*
X012102Y039671D01*
X012102Y039979D01*
X012220Y040263D01*
X012382Y040425D01*
X011793Y040425D01*
X011956Y040263D01*
X012073Y039979D01*
X012073Y039671D01*
X011956Y039387D01*
X011738Y039169D01*
X011454Y039052D01*
X011146Y039052D01*
X010862Y039169D01*
X010645Y039387D01*
X010527Y039671D01*
X010527Y039979D01*
X010645Y040263D01*
X010807Y040425D01*
X010167Y040425D01*
X010050Y040542D01*
X010050Y040542D01*
X009977Y040615D01*
X009977Y040615D01*
X009965Y040627D01*
X009965Y040529D01*
X009810Y040374D01*
X009810Y040060D01*
X009778Y040028D01*
X009781Y040026D01*
X009814Y039992D01*
X009838Y039951D01*
X009850Y039906D01*
X009850Y039674D01*
X009423Y039674D01*
X009423Y039578D01*
X009850Y039578D01*
X009850Y039346D01*
X009838Y039301D01*
X009814Y039260D01*
X009781Y039226D01*
X009740Y039202D01*
X009694Y039190D01*
X009423Y039190D01*
X009423Y039578D01*
X009327Y039578D01*
X008900Y039578D01*
X008900Y039346D01*
X008912Y039301D01*
X008936Y039260D01*
X008969Y039226D01*
X009010Y039202D01*
X009056Y039190D01*
X009327Y039190D01*
X009327Y039578D01*
X009327Y039674D01*
X008900Y039674D01*
X008900Y039906D01*
X008912Y039951D01*
X008936Y039992D01*
X008969Y040026D01*
X008972Y040028D01*
X008940Y040060D01*
X008940Y040688D01*
X009022Y040770D01*
X009525Y040770D01*
X009525Y040994D01*
X009507Y041013D01*
X009507Y042037D01*
X009525Y042056D01*
X009525Y042086D01*
X009593Y042154D01*
X009394Y042154D01*
X009182Y042242D01*
X009176Y042248D01*
X009176Y041217D01*
X009094Y041135D01*
X008191Y041135D01*
X008109Y041217D01*
X008109Y042036D01*
X007920Y041846D01*
X007635Y041728D01*
X007327Y041728D01*
X007043Y041846D01*
X006825Y042064D01*
X006708Y042348D01*
X006708Y042656D01*
X006825Y042940D01*
X007043Y043158D01*
X007327Y043276D01*
X007635Y043276D01*
X007920Y043158D01*
X008137Y042940D01*
X008255Y042656D01*
X008255Y042359D01*
X009065Y042359D01*
X009020Y042405D01*
X008932Y042617D01*
X008932Y042846D01*
X009020Y043058D01*
X009182Y043220D01*
X009394Y043308D01*
X009624Y043308D01*
X009836Y043220D01*
X009998Y043058D01*
X010030Y042981D01*
X010030Y043091D01*
X010405Y043466D01*
X010534Y043595D01*
X011574Y043595D01*
X011574Y044443D01*
X011601Y044470D01*
X009149Y044470D01*
X009176Y044443D01*
X009176Y043382D01*
X009094Y043300D01*
X008191Y043300D01*
X008109Y043382D01*
X008109Y044443D01*
X008136Y044470D01*
X007125Y044470D01*
X006764Y044456D01*
X006052Y044343D01*
X005367Y044120D01*
X004724Y043793D01*
X004141Y043369D01*
X003631Y042859D01*
X003207Y042276D01*
X002880Y041633D01*
X002657Y040948D01*
X002624Y040742D01*
X002628Y040745D01*
X002788Y040812D01*
X002962Y040812D01*
X003122Y040745D01*
X003245Y040622D01*
X003312Y040462D01*
X003312Y040288D01*
X003245Y040128D01*
X003122Y040005D01*
X002962Y039938D01*
X002788Y039938D01*
X002628Y040005D01*
X002539Y040094D01*
X002530Y039875D01*
X002530Y039648D01*
X002628Y039745D01*
X002788Y039812D01*
X002962Y039812D01*
X003122Y039745D01*
X003245Y039622D01*
X003312Y039462D01*
X003312Y039288D01*
X003245Y039128D01*
X003122Y039005D01*
X002962Y038938D01*
X002788Y038938D01*
X002628Y039005D01*
X002530Y039102D01*
X002530Y038648D01*
X002628Y038745D01*
X002788Y038812D01*
X002962Y038812D01*
X003122Y038745D01*
X003245Y038622D01*
X003312Y038462D01*
X003312Y038288D01*
X003245Y038128D01*
X003122Y038005D01*
X002962Y037938D01*
X002788Y037938D01*
X002628Y038005D01*
X002530Y038102D01*
X002530Y037648D01*
X002628Y037745D01*
X002788Y037812D01*
X002962Y037812D01*
X003122Y037745D01*
X003245Y037622D01*
X003312Y037462D01*
X003312Y037288D01*
X003245Y037128D01*
X003122Y037005D01*
X002962Y036938D01*
X002788Y036938D01*
X002628Y037005D01*
X002530Y037102D01*
X002530Y036648D01*
X002628Y036745D01*
X002788Y036812D01*
X002962Y036812D01*
X003122Y036745D01*
X003245Y036622D01*
X003312Y036462D01*
X003312Y036288D01*
X003245Y036128D01*
X003122Y036005D01*
X002962Y035938D01*
X002788Y035938D01*
X002628Y036005D01*
X002530Y036102D01*
X002530Y035648D01*
X002628Y035745D01*
X002788Y035812D01*
X002962Y035812D01*
X003122Y035745D01*
X003245Y035622D01*
X003312Y035462D01*
X003312Y035288D01*
X003245Y035128D01*
X003122Y035005D01*
X002962Y034938D01*
X002788Y034938D01*
X002628Y035005D01*
X002530Y035102D01*
X002530Y034648D01*
X002628Y034745D01*
X002788Y034812D01*
X002962Y034812D01*
X003122Y034745D01*
X003245Y034622D01*
X003312Y034462D01*
X003312Y034288D01*
X003245Y034128D01*
X003122Y034005D01*
X002962Y033938D01*
X002788Y033938D01*
X002628Y034005D01*
X002530Y034102D01*
X002530Y033648D01*
X002628Y033745D01*
X002788Y033812D01*
X002962Y033812D01*
X003122Y033745D01*
X003245Y033622D01*
X003312Y033462D01*
X003312Y033288D01*
X003245Y033128D01*
X003122Y033005D01*
X002962Y032938D01*
X002788Y032938D01*
X002628Y033005D01*
X002530Y033102D01*
X002530Y032648D01*
X002628Y032745D01*
X002788Y032812D01*
X002962Y032812D01*
X003122Y032745D01*
X003245Y032622D01*
X003312Y032462D01*
X003312Y032288D01*
X003245Y032128D01*
X003122Y032005D01*
X002962Y031938D01*
X002788Y031938D01*
X002628Y032005D01*
X002530Y032102D01*
X002530Y031648D01*
X002628Y031745D01*
X002788Y031812D01*
X002962Y031812D01*
X003122Y031745D01*
X003245Y031622D01*
X003312Y031462D01*
X003312Y031288D01*
X003245Y031128D01*
X003122Y031005D01*
X003628Y031005D01*
X003788Y030938D01*
X003962Y030938D01*
X004122Y031005D01*
X011868Y031005D01*
X011868Y031163D02*
X004260Y031163D01*
X004245Y031128D02*
X004312Y031288D01*
X004312Y031462D01*
X004245Y031622D01*
X004122Y031745D01*
X003962Y031812D01*
X003788Y031812D01*
X003628Y031745D01*
X003505Y031622D01*
X003438Y031462D01*
X003438Y031288D01*
X003505Y031128D01*
X003628Y031005D01*
X003490Y031163D02*
X003260Y031163D01*
X003312Y031322D02*
X003438Y031322D01*
X003446Y031480D02*
X003304Y031480D01*
X003229Y031639D02*
X003521Y031639D01*
X003752Y031797D02*
X002998Y031797D01*
X003004Y031956D02*
X003746Y031956D01*
X003788Y031938D02*
X003962Y031938D01*
X004122Y032005D01*
X004245Y032128D01*
X004312Y032288D01*
X004312Y032462D01*
X004245Y032622D01*
X004122Y032745D01*
X003962Y032812D01*
X003788Y032812D01*
X003628Y032745D01*
X003505Y032622D01*
X003438Y032462D01*
X003438Y032288D01*
X003505Y032128D01*
X003628Y032005D01*
X003788Y031938D01*
X004004Y031956D02*
X011868Y031956D01*
X011868Y032114D02*
X004232Y032114D01*
X004305Y032273D02*
X011868Y032273D01*
X011868Y032431D02*
X004312Y032431D01*
X004259Y032590D02*
X011868Y032590D01*
X011868Y032748D02*
X004116Y032748D01*
X003962Y032938D02*
X004122Y033005D01*
X004245Y033128D01*
X004312Y033288D01*
X004312Y033462D01*
X004245Y033622D01*
X004122Y033745D01*
X003962Y033812D01*
X003788Y033812D01*
X003628Y033745D01*
X003505Y033622D01*
X003438Y033462D01*
X003438Y033288D01*
X003505Y033128D01*
X003628Y033005D01*
X003788Y032938D01*
X003962Y032938D01*
X004183Y033065D02*
X011868Y033065D01*
X011868Y032907D02*
X002530Y032907D01*
X002530Y033065D02*
X002567Y033065D01*
X002530Y032748D02*
X002634Y032748D01*
X003116Y032748D02*
X003634Y032748D01*
X003491Y032590D02*
X003259Y032590D01*
X003312Y032431D02*
X003438Y032431D01*
X003445Y032273D02*
X003305Y032273D01*
X003232Y032114D02*
X003518Y032114D01*
X003998Y031797D02*
X011868Y031797D01*
X011868Y031639D02*
X004229Y031639D01*
X004304Y031480D02*
X011868Y031480D01*
X011868Y031322D02*
X004312Y031322D01*
X004245Y031128D02*
X004122Y031005D01*
X003962Y030812D02*
X003788Y030812D01*
X003628Y030745D01*
X003505Y030622D01*
X003438Y030462D01*
X003438Y030288D01*
X003505Y030128D01*
X003628Y030005D01*
X003788Y029938D01*
X003962Y029938D01*
X004122Y030005D01*
X004245Y030128D01*
X004312Y030288D01*
X004312Y030462D01*
X004245Y030622D01*
X004122Y030745D01*
X003962Y030812D01*
X004180Y030688D02*
X011868Y030688D01*
X011868Y030846D02*
X002530Y030846D01*
X002628Y030745D02*
X002530Y030648D01*
X002530Y031102D01*
X002628Y031005D01*
X002530Y031005D01*
X002628Y031005D02*
X002788Y030938D01*
X002962Y030938D01*
X003122Y031005D01*
X002962Y030812D02*
X002788Y030812D01*
X002628Y030745D01*
X002570Y030688D02*
X002530Y030688D01*
X002530Y030102D02*
X002628Y030005D01*
X002788Y029938D01*
X002962Y029938D01*
X003122Y030005D01*
X003245Y030128D01*
X003312Y030288D01*
X003312Y030462D01*
X003245Y030622D01*
X003122Y030745D01*
X002962Y030812D01*
X003180Y030688D02*
X003570Y030688D01*
X003466Y030529D02*
X003284Y030529D01*
X003312Y030371D02*
X003438Y030371D01*
X003470Y030212D02*
X003280Y030212D01*
X003171Y030054D02*
X003579Y030054D01*
X003628Y029745D02*
X003505Y029622D01*
X003438Y029462D01*
X003438Y029288D01*
X003505Y029128D01*
X003628Y029005D01*
X003788Y028938D01*
X003962Y028938D01*
X004122Y029005D01*
X004245Y029128D01*
X004312Y029288D01*
X004312Y029462D01*
X004245Y029622D01*
X004122Y029745D01*
X003962Y029812D01*
X003788Y029812D01*
X003628Y029745D01*
X003619Y029737D02*
X003131Y029737D01*
X003122Y029745D02*
X002962Y029812D01*
X002788Y029812D01*
X002628Y029745D01*
X002530Y029648D01*
X002530Y030102D01*
X002530Y030054D02*
X002579Y030054D01*
X002530Y029895D02*
X011868Y029895D01*
X011868Y029737D02*
X004131Y029737D01*
X004264Y029578D02*
X011811Y029578D01*
X011812Y029420D02*
X004312Y029420D01*
X004301Y029261D02*
X011868Y029261D01*
X011868Y029103D02*
X004220Y029103D01*
X003976Y028944D02*
X011868Y028944D01*
X011868Y028786D02*
X004025Y028786D01*
X003962Y028812D02*
X003788Y028812D01*
X003628Y028745D01*
X003505Y028622D01*
X003438Y028462D01*
X003438Y028288D01*
X003505Y028128D01*
X003628Y028005D01*
X003788Y027938D01*
X003962Y027938D01*
X004122Y028005D01*
X004245Y028128D01*
X004312Y028288D01*
X004312Y028462D01*
X004245Y028622D01*
X004122Y028745D01*
X003962Y028812D01*
X003774Y028944D02*
X002976Y028944D01*
X002962Y028938D02*
X003122Y029005D01*
X003245Y029128D01*
X003312Y029288D01*
X003312Y029462D01*
X003245Y029622D01*
X003122Y029745D01*
X003264Y029578D02*
X003486Y029578D01*
X003438Y029420D02*
X003312Y029420D01*
X003301Y029261D02*
X003449Y029261D01*
X003530Y029103D02*
X003220Y029103D01*
X002962Y028938D02*
X002788Y028938D01*
X002628Y029005D01*
X002530Y029102D01*
X002530Y028648D01*
X002628Y028745D01*
X002788Y028812D01*
X002962Y028812D01*
X003122Y028745D01*
X003245Y028622D01*
X003312Y028462D01*
X003312Y028288D01*
X003245Y028128D01*
X003122Y028005D01*
X002962Y027938D01*
X002788Y027938D01*
X002628Y028005D01*
X002530Y028102D01*
X002530Y027648D01*
X002628Y027745D01*
X002788Y027812D01*
X002962Y027812D01*
X003122Y027745D01*
X003245Y027622D01*
X003312Y027462D01*
X003312Y027288D01*
X003245Y027128D01*
X003122Y027005D01*
X002962Y026938D01*
X002788Y026938D01*
X002628Y027005D01*
X002530Y027102D01*
X002530Y026648D01*
X002628Y026745D01*
X002788Y026812D01*
X002962Y026812D01*
X003122Y026745D01*
X003245Y026622D01*
X003312Y026462D01*
X003312Y026288D01*
X003245Y026128D01*
X003122Y026005D01*
X002962Y025938D01*
X002788Y025938D01*
X002628Y026005D01*
X002530Y026102D01*
X002530Y025648D01*
X002628Y025745D01*
X002788Y025812D01*
X002962Y025812D01*
X003122Y025745D01*
X003245Y025622D01*
X003312Y025462D01*
X003312Y025288D01*
X003245Y025128D01*
X003122Y025005D01*
X002962Y024938D01*
X002788Y024938D01*
X002628Y025005D01*
X002530Y025102D01*
X002530Y024648D01*
X002628Y024745D01*
X002788Y024812D01*
X002962Y024812D01*
X003122Y024745D01*
X003245Y024622D01*
X003312Y024462D01*
X003312Y024288D01*
X003245Y024128D01*
X003122Y024005D01*
X002962Y023938D01*
X002788Y023938D01*
X002628Y024005D01*
X002530Y024102D01*
X002530Y023648D01*
X002628Y023745D01*
X002788Y023812D01*
X002962Y023812D01*
X003122Y023745D01*
X003245Y023622D01*
X003312Y023462D01*
X003312Y023288D01*
X003245Y023128D01*
X003122Y023005D01*
X002962Y022938D01*
X002788Y022938D01*
X002628Y023005D01*
X002530Y023102D01*
X002530Y022648D01*
X002628Y022745D01*
X002788Y022812D01*
X002962Y022812D01*
X003122Y022745D01*
X003245Y022622D01*
X003312Y022462D01*
X003312Y022288D01*
X003245Y022128D01*
X003122Y022005D01*
X002962Y021938D01*
X002788Y021938D01*
X002628Y022005D01*
X002530Y022102D01*
X002530Y021648D01*
X002628Y021745D01*
X002788Y021812D01*
X002962Y021812D01*
X003122Y021745D01*
X003245Y021622D01*
X003312Y021462D01*
X003312Y021288D01*
X003245Y021128D01*
X003122Y021005D01*
X002962Y020938D01*
X002788Y020938D01*
X002628Y021005D01*
X002530Y021102D01*
X002530Y020648D01*
X002628Y020745D01*
X002788Y020812D01*
X002962Y020812D01*
X003122Y020745D01*
X003245Y020622D01*
X003312Y020462D01*
X003312Y020288D01*
X003245Y020128D01*
X003122Y020005D01*
X002962Y019938D01*
X002788Y019938D01*
X002628Y020005D01*
X002530Y020102D01*
X002530Y019648D01*
X002628Y019745D01*
X002788Y019812D01*
X002962Y019812D01*
X003122Y019745D01*
X003245Y019622D01*
X003312Y019462D01*
X003312Y019288D01*
X003245Y019128D01*
X003122Y019005D01*
X002962Y018938D01*
X002788Y018938D01*
X002628Y019005D01*
X002530Y019102D01*
X002530Y018704D01*
X002564Y018739D01*
X002625Y018783D01*
X002692Y018817D01*
X002763Y018840D01*
X002837Y018852D01*
X002857Y018852D01*
X002857Y018393D01*
X002893Y018393D01*
X002893Y018852D01*
X002913Y018852D01*
X002987Y018840D01*
X003058Y018817D01*
X003125Y018783D01*
X003186Y018739D01*
X003239Y018686D01*
X003283Y018625D01*
X003317Y018558D01*
X003340Y018487D01*
X003352Y018413D01*
X003352Y018393D01*
X002893Y018393D01*
X002893Y018357D01*
X003352Y018357D01*
X003352Y018337D01*
X003340Y018263D01*
X003317Y018192D01*
X003283Y018125D01*
X003239Y018064D01*
X003186Y018011D01*
X003125Y017967D01*
X003058Y017933D01*
X002987Y017910D01*
X002913Y017898D01*
X002893Y017898D01*
X002893Y018357D01*
X002857Y018357D01*
X002857Y017898D01*
X002837Y017898D01*
X002763Y017910D01*
X002692Y017933D01*
X002625Y017967D01*
X002564Y018011D01*
X002530Y018046D01*
X002530Y018008D02*
X002570Y018008D01*
X002530Y017849D02*
X007018Y017849D01*
X007094Y018008D02*
X004339Y018008D01*
X004340Y018009D02*
X004352Y018054D01*
X004352Y018357D01*
X003893Y018357D01*
X003893Y018393D01*
X003857Y018393D01*
X003857Y018852D01*
X003554Y018852D01*
X003509Y018840D01*
X003468Y018816D01*
X003434Y018782D01*
X003410Y018741D01*
X003398Y018696D01*
X003398Y018393D01*
X003857Y018393D01*
X003857Y018357D01*
X003893Y018357D01*
X003893Y017898D01*
X004196Y017898D01*
X004241Y017910D01*
X004282Y017934D01*
X004316Y017968D01*
X004340Y018009D01*
X004352Y018166D02*
X007208Y018166D01*
X007334Y018325D02*
X004352Y018325D01*
X004352Y018393D02*
X004352Y018696D01*
X004340Y018741D01*
X004316Y018782D01*
X004282Y018816D01*
X004241Y018840D01*
X004196Y018852D01*
X003893Y018852D01*
X003893Y018393D01*
X004352Y018393D01*
X004352Y018483D02*
X007461Y018483D01*
X007645Y018642D02*
X004352Y018642D01*
X004298Y018800D02*
X007844Y018800D01*
X008101Y018959D02*
X004011Y018959D01*
X003962Y018938D02*
X004122Y019005D01*
X004245Y019128D01*
X004312Y019288D01*
X004312Y019462D01*
X004245Y019622D01*
X004122Y019745D01*
X003962Y019812D01*
X003788Y019812D01*
X003628Y019745D01*
X003505Y019622D01*
X003438Y019462D01*
X003438Y019288D01*
X003505Y019128D01*
X003628Y019005D01*
X003788Y018938D01*
X003962Y018938D01*
X003893Y018800D02*
X003857Y018800D01*
X003857Y018642D02*
X003893Y018642D01*
X003893Y018483D02*
X003857Y018483D01*
X003857Y018357D02*
X003398Y018357D01*
X003398Y018054D01*
X003410Y018009D01*
X003434Y017968D01*
X003468Y017934D01*
X003509Y017910D01*
X003554Y017898D01*
X003857Y017898D01*
X003857Y018357D01*
X003857Y018325D02*
X003893Y018325D01*
X003893Y018166D02*
X003857Y018166D01*
X003857Y018008D02*
X003893Y018008D01*
X003411Y018008D02*
X003180Y018008D01*
X003304Y018166D02*
X003398Y018166D01*
X003398Y018325D02*
X003350Y018325D01*
X003341Y018483D02*
X003398Y018483D01*
X003398Y018642D02*
X003271Y018642D01*
X003091Y018800D02*
X003452Y018800D01*
X003515Y019117D02*
X003235Y019117D01*
X003307Y019276D02*
X003443Y019276D01*
X003438Y019434D02*
X003312Y019434D01*
X003258Y019593D02*
X003492Y019593D01*
X003641Y019751D02*
X003109Y019751D01*
X003186Y020068D02*
X003564Y020068D01*
X003505Y020128D02*
X003628Y020005D01*
X003788Y019938D01*
X003962Y019938D01*
X004122Y020005D01*
X004245Y020128D01*
X004312Y020288D01*
X004312Y020462D01*
X004245Y020622D01*
X004122Y020745D01*
X003962Y020812D01*
X003788Y020812D01*
X003628Y020745D01*
X003505Y020622D01*
X003438Y020462D01*
X003438Y020288D01*
X003505Y020128D01*
X003464Y020227D02*
X003286Y020227D01*
X003312Y020385D02*
X003438Y020385D01*
X003472Y020544D02*
X003278Y020544D01*
X003166Y020702D02*
X003584Y020702D01*
X003628Y021005D02*
X003788Y020938D01*
X003962Y020938D01*
X004122Y021005D01*
X004245Y021128D01*
X004312Y021288D01*
X004312Y021462D01*
X004245Y021622D01*
X004122Y021745D01*
X003962Y021812D01*
X003788Y021812D01*
X003628Y021745D01*
X003505Y021622D01*
X003438Y021462D01*
X003438Y021288D01*
X003505Y021128D01*
X003628Y021005D01*
X003613Y021019D02*
X003137Y021019D01*
X003266Y021178D02*
X003484Y021178D01*
X003438Y021336D02*
X003312Y021336D01*
X003298Y021495D02*
X003452Y021495D01*
X003535Y021653D02*
X003215Y021653D01*
X002963Y021812D02*
X003787Y021812D01*
X003788Y021938D02*
X003962Y021938D01*
X004122Y022005D01*
X004245Y022128D01*
X004312Y022288D01*
X004312Y022462D01*
X004245Y022622D01*
X004122Y022745D01*
X003962Y022812D01*
X003788Y022812D01*
X003628Y022745D01*
X003505Y022622D01*
X003438Y022462D01*
X003438Y022288D01*
X003505Y022128D01*
X003628Y022005D01*
X003788Y021938D01*
X003711Y021970D02*
X003039Y021970D01*
X003246Y022129D02*
X003504Y022129D01*
X003439Y022287D02*
X003311Y022287D01*
X003312Y022446D02*
X003438Y022446D01*
X003497Y022604D02*
X003253Y022604D01*
X003081Y022763D02*
X003669Y022763D01*
X003788Y022938D02*
X003962Y022938D01*
X004122Y023005D01*
X004245Y023128D01*
X004312Y023288D01*
X004312Y023462D01*
X004245Y023622D01*
X004122Y023745D01*
X003962Y023812D01*
X003788Y023812D01*
X003628Y023745D01*
X003505Y023622D01*
X003438Y023462D01*
X003438Y023288D01*
X003505Y023128D01*
X003628Y023005D01*
X003788Y022938D01*
X003553Y023080D02*
X003197Y023080D01*
X003291Y023238D02*
X003459Y023238D01*
X003438Y023397D02*
X003312Y023397D01*
X003273Y023555D02*
X003477Y023555D01*
X003596Y023714D02*
X003154Y023714D01*
X003148Y024031D02*
X003602Y024031D01*
X003628Y024005D02*
X003788Y023938D01*
X003962Y023938D01*
X004122Y024005D01*
X004245Y024128D01*
X004312Y024288D01*
X004312Y024462D01*
X004245Y024622D01*
X004122Y024745D01*
X003962Y024812D01*
X003788Y024812D01*
X003628Y024745D01*
X003505Y024622D01*
X003438Y024462D01*
X003438Y024288D01*
X003505Y024128D01*
X003628Y024005D01*
X003479Y024189D02*
X003271Y024189D01*
X003312Y024348D02*
X003438Y024348D01*
X003456Y024506D02*
X003294Y024506D01*
X003203Y024665D02*
X003547Y024665D01*
X003683Y024982D02*
X003067Y024982D01*
X003251Y025140D02*
X003499Y025140D01*
X003505Y025128D02*
X003628Y025005D01*
X003788Y024938D01*
X003962Y024938D01*
X004122Y025005D01*
X004245Y025128D01*
X004312Y025288D01*
X004312Y025462D01*
X004245Y025622D01*
X004122Y025745D01*
X003962Y025812D01*
X003788Y025812D01*
X003628Y025745D01*
X003505Y025622D01*
X003438Y025462D01*
X003438Y025288D01*
X003505Y025128D01*
X003438Y025299D02*
X003312Y025299D01*
X003312Y025457D02*
X003438Y025457D01*
X003502Y025616D02*
X003248Y025616D01*
X003053Y025774D02*
X003697Y025774D01*
X003788Y025938D02*
X003962Y025938D01*
X004122Y026005D01*
X004245Y026128D01*
X004312Y026288D01*
X004312Y026462D01*
X004245Y026622D01*
X004122Y026745D01*
X003962Y026812D01*
X003788Y026812D01*
X003628Y026745D01*
X003505Y026622D01*
X003438Y026462D01*
X003438Y026288D01*
X003505Y026128D01*
X003628Y026005D01*
X003788Y025938D01*
X003541Y026091D02*
X003209Y026091D01*
X003296Y026250D02*
X003454Y026250D01*
X003438Y026408D02*
X003312Y026408D01*
X003269Y026567D02*
X003481Y026567D01*
X003607Y026725D02*
X003143Y026725D01*
X003160Y027042D02*
X003590Y027042D01*
X003628Y027005D02*
X003788Y026938D01*
X003962Y026938D01*
X004122Y027005D01*
X004245Y027128D01*
X004312Y027288D01*
X004312Y027462D01*
X004245Y027622D01*
X004122Y027745D01*
X003962Y027812D01*
X003788Y027812D01*
X003628Y027745D01*
X003505Y027622D01*
X003438Y027462D01*
X003438Y027288D01*
X003505Y027128D01*
X003628Y027005D01*
X003474Y027201D02*
X003276Y027201D01*
X003312Y027359D02*
X003438Y027359D01*
X003461Y027518D02*
X003289Y027518D01*
X003192Y027676D02*
X003558Y027676D01*
X003656Y027993D02*
X003094Y027993D01*
X003255Y028152D02*
X003495Y028152D01*
X003438Y028310D02*
X003312Y028310D01*
X003309Y028469D02*
X003441Y028469D01*
X003509Y028627D02*
X003241Y028627D01*
X003025Y028786D02*
X003725Y028786D01*
X004241Y028627D02*
X011868Y028627D01*
X011868Y028469D02*
X004309Y028469D01*
X004312Y028310D02*
X011868Y028310D01*
X011868Y028152D02*
X004255Y028152D01*
X004094Y027993D02*
X007249Y027993D01*
X007327Y028026D02*
X007043Y027908D01*
X006825Y027690D01*
X006708Y027406D01*
X006708Y027098D01*
X006825Y026814D01*
X007043Y026596D01*
X007327Y026478D01*
X007635Y026478D01*
X007920Y026596D01*
X008137Y026814D01*
X008255Y027098D01*
X008255Y027406D01*
X008137Y027690D01*
X007920Y027908D01*
X007635Y028026D01*
X007327Y028026D01*
X007714Y027993D02*
X011868Y027993D01*
X011868Y027835D02*
X007993Y027835D01*
X008143Y027676D02*
X011868Y027676D01*
X011868Y027518D02*
X008209Y027518D01*
X008255Y027359D02*
X011868Y027359D01*
X011868Y027201D02*
X008255Y027201D01*
X008232Y027042D02*
X011868Y027042D01*
X011868Y026884D02*
X008166Y026884D01*
X008049Y026725D02*
X011868Y026725D01*
X011868Y026567D02*
X007848Y026567D01*
X007114Y026567D02*
X004269Y026567D01*
X004312Y026408D02*
X011868Y026408D01*
X011868Y026250D02*
X004296Y026250D01*
X004209Y026091D02*
X011868Y026091D01*
X011868Y025933D02*
X002530Y025933D01*
X002530Y026091D02*
X002541Y026091D01*
X002530Y025774D02*
X002697Y025774D01*
X002683Y024982D02*
X002530Y024982D01*
X002530Y024823D02*
X010566Y024823D01*
X010527Y024665D02*
X004203Y024665D01*
X004294Y024506D02*
X010527Y024506D01*
X010558Y024348D02*
X004312Y024348D01*
X004271Y024189D02*
X010623Y024189D01*
X010751Y024031D02*
X004148Y024031D01*
X004154Y023714D02*
X011790Y023714D01*
X011868Y023872D02*
X011624Y023872D01*
X011849Y024031D02*
X011868Y024031D01*
X011549Y023555D02*
X004273Y023555D01*
X004312Y023397D02*
X011415Y023397D01*
X011349Y023238D02*
X004291Y023238D01*
X004197Y023080D02*
X011315Y023080D01*
X011315Y022921D02*
X002530Y022921D01*
X002530Y022763D02*
X002669Y022763D01*
X002553Y023080D02*
X002530Y023080D01*
X002530Y023714D02*
X002596Y023714D01*
X002530Y023872D02*
X010977Y023872D01*
X011349Y022763D02*
X004081Y022763D01*
X004253Y022604D02*
X011415Y022604D01*
X011549Y022446D02*
X004312Y022446D01*
X004311Y022287D02*
X011789Y022287D01*
X011738Y022081D02*
X011454Y022198D01*
X011146Y022198D01*
X010862Y022081D01*
X010645Y021863D01*
X010527Y021579D01*
X010527Y021271D01*
X010645Y020987D01*
X010862Y020770D01*
X011146Y020652D01*
X011454Y020652D01*
X011738Y020770D01*
X011956Y020987D01*
X012073Y021271D01*
X012073Y021286D01*
X012076Y021266D01*
X012103Y021163D01*
X012144Y021065D01*
X012198Y020973D01*
X012262Y020888D01*
X012338Y020813D01*
X012422Y020748D01*
X012515Y020694D01*
X012613Y020654D01*
X012716Y020626D01*
X012795Y020616D01*
X012795Y021345D01*
X012955Y021345D01*
X012955Y020616D01*
X013034Y020626D01*
X013137Y020654D01*
X013235Y020694D01*
X013328Y020748D01*
X013412Y020813D01*
X013488Y020888D01*
X013552Y020973D01*
X013606Y021065D01*
X013647Y021163D01*
X013674Y021266D01*
X013677Y021286D01*
X013677Y021271D01*
X013794Y020987D01*
X014012Y020770D01*
X014296Y020652D01*
X014604Y020652D01*
X014888Y020770D01*
X015105Y020987D01*
X015223Y021271D01*
X015223Y021579D01*
X015105Y021863D01*
X014888Y022081D01*
X014604Y022198D01*
X014296Y022198D01*
X014012Y022081D01*
X013794Y021863D01*
X013677Y021579D01*
X013677Y021565D01*
X013674Y021584D01*
X013647Y021687D01*
X013606Y021786D01*
X013552Y021878D01*
X013488Y021962D01*
X013412Y022038D01*
X013328Y022103D01*
X013235Y022156D01*
X013137Y022197D01*
X013034Y022224D01*
X012955Y022235D01*
X012955Y021505D01*
X012795Y021505D01*
X012795Y022235D01*
X012716Y022224D01*
X012613Y022197D01*
X012515Y022156D01*
X012422Y022103D01*
X012338Y022038D01*
X012262Y021962D01*
X012198Y021878D01*
X012144Y021786D01*
X012103Y021687D01*
X012076Y021584D01*
X012073Y021565D01*
X012073Y021579D01*
X011956Y021863D01*
X011738Y022081D01*
X011622Y022129D02*
X012467Y022129D01*
X012386Y022287D02*
X013364Y022287D01*
X013283Y022129D02*
X014128Y022129D01*
X013961Y022287D02*
X015185Y022287D01*
X015185Y022129D02*
X014772Y022129D01*
X014998Y021970D02*
X015185Y021970D01*
X015185Y021812D02*
X015127Y021812D01*
X015192Y021653D02*
X015328Y021653D01*
X015223Y021495D02*
X015487Y021495D01*
X015645Y021336D02*
X015223Y021336D01*
X015184Y021178D02*
X015804Y021178D01*
X016454Y021019D02*
X015118Y021019D01*
X014978Y020861D02*
X016600Y020861D01*
X016654Y020702D02*
X014724Y020702D01*
X014176Y020702D02*
X013249Y020702D01*
X013460Y020861D02*
X013921Y020861D01*
X013781Y021019D02*
X013579Y021019D01*
X013650Y021178D02*
X013716Y021178D01*
X013707Y021653D02*
X013656Y021653D01*
X013591Y021812D02*
X013773Y021812D01*
X013901Y021970D02*
X013480Y021970D01*
X012955Y021970D02*
X012795Y021970D01*
X012795Y021812D02*
X012955Y021812D01*
X012955Y021653D02*
X012795Y021653D01*
X012795Y021336D02*
X012955Y021336D01*
X012955Y021178D02*
X012795Y021178D01*
X012795Y021019D02*
X012955Y021019D01*
X012955Y020861D02*
X012795Y020861D01*
X012795Y020702D02*
X012955Y020702D01*
X012501Y020702D02*
X011574Y020702D01*
X011829Y020861D02*
X012290Y020861D01*
X012171Y021019D02*
X011969Y021019D01*
X012034Y021178D02*
X012100Y021178D01*
X012094Y021653D02*
X012043Y021653D01*
X011977Y021812D02*
X012159Y021812D01*
X012270Y021970D02*
X011849Y021970D01*
X012088Y023000D02*
X012088Y029500D01*
X012088Y031928D01*
X013322Y031928D01*
X013442Y032187D02*
X013379Y032213D01*
X013265Y032213D01*
X013160Y032170D01*
X013139Y032148D01*
X012308Y032148D01*
X012308Y036093D01*
X012338Y036063D01*
X012422Y035998D01*
X012515Y035944D01*
X012613Y035904D01*
X012716Y035876D01*
X012795Y035866D01*
X012795Y036595D01*
X012955Y036595D01*
X012955Y035866D01*
X013034Y035876D01*
X013137Y035904D01*
X013235Y035944D01*
X013328Y035998D01*
X013412Y036063D01*
X013442Y036093D01*
X013442Y032187D01*
X013442Y032273D02*
X012308Y032273D01*
X012308Y032431D02*
X013442Y032431D01*
X013442Y032590D02*
X012308Y032590D01*
X012308Y032748D02*
X013442Y032748D01*
X013442Y032907D02*
X012308Y032907D01*
X012308Y033065D02*
X013442Y033065D01*
X013442Y033224D02*
X012308Y033224D01*
X012308Y033382D02*
X013442Y033382D01*
X013442Y033541D02*
X012308Y033541D01*
X012308Y033699D02*
X013442Y033699D01*
X013442Y033858D02*
X012308Y033858D01*
X012308Y034016D02*
X013442Y034016D01*
X013442Y034175D02*
X012308Y034175D01*
X012308Y034333D02*
X013442Y034333D01*
X013442Y034492D02*
X012308Y034492D01*
X012308Y034650D02*
X013442Y034650D01*
X013442Y034809D02*
X012308Y034809D01*
X012308Y034967D02*
X013442Y034967D01*
X013442Y035126D02*
X012308Y035126D01*
X012308Y035284D02*
X013442Y035284D01*
X013442Y035443D02*
X012308Y035443D01*
X012308Y035601D02*
X013442Y035601D01*
X013442Y035760D02*
X012308Y035760D01*
X012308Y035918D02*
X012578Y035918D01*
X012795Y035918D02*
X012955Y035918D01*
X012955Y036077D02*
X012795Y036077D01*
X012795Y036235D02*
X012955Y036235D01*
X012955Y036394D02*
X012795Y036394D01*
X012795Y036552D02*
X012955Y036552D01*
X012955Y036869D02*
X012795Y036869D01*
X012795Y037028D02*
X012955Y037028D01*
X012955Y037186D02*
X012795Y037186D01*
X012795Y037345D02*
X012955Y037345D01*
X013158Y037662D02*
X012592Y037662D01*
X012746Y037820D02*
X013004Y037820D01*
X012938Y037979D02*
X012812Y037979D01*
X012861Y038137D02*
X012889Y038137D01*
X012889Y038296D02*
X012861Y038296D01*
X012840Y038454D02*
X012910Y038454D01*
X012976Y038613D02*
X012774Y038613D01*
X012660Y038771D02*
X013090Y038771D01*
X013283Y038930D02*
X012467Y038930D01*
X012634Y039088D02*
X011542Y039088D01*
X011708Y038930D02*
X002530Y038930D01*
X002530Y039088D02*
X002544Y039088D01*
X002530Y038771D02*
X002690Y038771D01*
X003060Y038771D02*
X003690Y038771D01*
X003628Y038745D02*
X003788Y038812D01*
X003962Y038812D01*
X004122Y038745D01*
X004245Y038622D01*
X004312Y038462D01*
X004312Y038288D01*
X004245Y038128D01*
X004122Y038005D01*
X003962Y037938D01*
X003788Y037938D01*
X003628Y038005D01*
X003505Y038128D01*
X003438Y038288D01*
X003438Y038462D01*
X003505Y038622D01*
X003628Y038745D01*
X003501Y038613D02*
X003249Y038613D01*
X003312Y038454D02*
X003438Y038454D01*
X003438Y038296D02*
X003312Y038296D01*
X003249Y038137D02*
X003501Y038137D01*
X003691Y037979D02*
X003059Y037979D01*
X003206Y037662D02*
X003544Y037662D01*
X003505Y037622D02*
X003438Y037462D01*
X003438Y037288D01*
X003505Y037128D01*
X003628Y037005D01*
X003788Y036938D01*
X003962Y036938D01*
X004122Y037005D01*
X004245Y037128D01*
X004312Y037288D01*
X004312Y037462D01*
X004245Y037622D01*
X004122Y037745D01*
X003962Y037812D01*
X003788Y037812D01*
X003628Y037745D01*
X003505Y037622D01*
X003455Y037503D02*
X003295Y037503D01*
X003312Y037345D02*
X003438Y037345D01*
X003480Y037186D02*
X003270Y037186D01*
X003145Y037028D02*
X003605Y037028D01*
X003788Y036812D02*
X003628Y036745D01*
X003505Y036622D01*
X003438Y036462D01*
X003438Y036288D01*
X003505Y036128D01*
X003628Y036005D01*
X003788Y035938D01*
X003962Y035938D01*
X004122Y036005D01*
X004245Y036128D01*
X004312Y036288D01*
X004312Y036462D01*
X004245Y036622D01*
X004122Y036745D01*
X003962Y036812D01*
X003788Y036812D01*
X003593Y036711D02*
X003157Y036711D01*
X003275Y036552D02*
X003475Y036552D01*
X003438Y036394D02*
X003312Y036394D01*
X003290Y036235D02*
X003460Y036235D01*
X003556Y036077D02*
X003194Y036077D01*
X003088Y035760D02*
X003662Y035760D01*
X003628Y035745D02*
X003788Y035812D01*
X003962Y035812D01*
X004122Y035745D01*
X004245Y035622D01*
X004312Y035462D01*
X004312Y035288D01*
X004245Y035128D01*
X004122Y035005D01*
X003962Y034938D01*
X003788Y034938D01*
X003628Y035005D01*
X003505Y035128D01*
X003438Y035288D01*
X003438Y035462D01*
X003505Y035622D01*
X003628Y035745D01*
X003496Y035601D02*
X003254Y035601D01*
X003312Y035443D02*
X003438Y035443D01*
X003440Y035284D02*
X003310Y035284D01*
X003243Y035126D02*
X003507Y035126D01*
X003718Y034967D02*
X003032Y034967D01*
X002970Y034809D02*
X003780Y034809D01*
X003788Y034812D02*
X003628Y034745D01*
X003505Y034622D01*
X003438Y034462D01*
X003438Y034288D01*
X003505Y034128D01*
X003628Y034005D01*
X003788Y033938D01*
X003962Y033938D01*
X004122Y034005D01*
X004245Y034128D01*
X004312Y034288D01*
X004312Y034462D01*
X004245Y034622D01*
X004122Y034745D01*
X003962Y034812D01*
X003788Y034812D01*
X003970Y034809D02*
X006364Y034809D01*
X006452Y034720D02*
X006737Y034602D01*
X007045Y034602D01*
X007329Y034720D01*
X007547Y034938D01*
X007664Y035222D01*
X007664Y035530D01*
X007547Y035814D01*
X007329Y036032D01*
X007045Y036150D01*
X006737Y036150D01*
X006452Y036032D01*
X006235Y035814D01*
X006117Y035530D01*
X006117Y035222D01*
X006235Y034938D01*
X006452Y034720D01*
X006622Y034650D02*
X004218Y034650D01*
X004300Y034492D02*
X011868Y034492D01*
X011868Y034650D02*
X007160Y034650D01*
X007417Y034809D02*
X011868Y034809D01*
X011868Y034967D02*
X007559Y034967D01*
X007624Y035126D02*
X011868Y035126D01*
X011868Y035284D02*
X007664Y035284D01*
X007664Y035443D02*
X011868Y035443D01*
X011868Y035601D02*
X007635Y035601D01*
X007569Y035760D02*
X011868Y035760D01*
X011868Y035918D02*
X011492Y035918D01*
X011795Y036077D02*
X011868Y036077D01*
X012308Y036077D02*
X012324Y036077D01*
X012308Y037345D02*
X012412Y037345D01*
X012308Y037503D02*
X013442Y037503D01*
X013442Y037345D02*
X013338Y037345D01*
X013662Y038250D02*
X013662Y032428D01*
X013662Y029500D01*
X013662Y023000D01*
X013365Y023714D02*
X012385Y023714D01*
X012308Y023872D02*
X012552Y023872D01*
X012326Y024031D02*
X012308Y024031D01*
X012626Y023555D02*
X013124Y023555D01*
X012990Y023397D02*
X012760Y023397D01*
X012826Y023238D02*
X012924Y023238D01*
X012889Y023080D02*
X012861Y023080D01*
X012861Y022921D02*
X012889Y022921D01*
X012924Y022763D02*
X012826Y022763D01*
X012760Y022604D02*
X012990Y022604D01*
X013124Y022446D02*
X012626Y022446D01*
X012795Y022129D02*
X012955Y022129D01*
X013198Y023872D02*
X013442Y023872D01*
X013442Y024031D02*
X013424Y024031D01*
X013882Y024031D02*
X013901Y024031D01*
X013882Y023872D02*
X014126Y023872D01*
X013960Y023714D02*
X015185Y023714D01*
X015185Y023872D02*
X014773Y023872D01*
X014999Y024031D02*
X015185Y024031D01*
X015185Y024189D02*
X015127Y024189D01*
X015223Y024506D02*
X015237Y024506D01*
X015223Y024665D02*
X015396Y024665D01*
X015184Y024823D02*
X015645Y024823D01*
X015645Y024982D02*
X015118Y024982D01*
X014978Y025140D02*
X015645Y025140D01*
X015624Y025299D02*
X014723Y025299D01*
X014177Y025299D02*
X013882Y025299D01*
X013882Y025457D02*
X015605Y025457D01*
X015605Y025616D02*
X013882Y025616D01*
X013882Y025774D02*
X015692Y025774D01*
X016220Y025774D02*
X016220Y025774D01*
X016220Y025616D02*
X016220Y025616D01*
X016748Y025774D02*
X016790Y025774D01*
X016835Y025616D02*
X016948Y025616D01*
X017030Y025457D02*
X016835Y025457D01*
X016816Y025299D02*
X017030Y025299D01*
X017030Y025140D02*
X017004Y025140D01*
X017250Y025625D02*
X017250Y023835D01*
X017460Y023625D01*
X017460Y023710D01*
X017750Y024000D01*
X018280Y024000D01*
X018365Y023915D01*
X019375Y023915D01*
X020250Y023915D01*
X021210Y023915D01*
X021250Y023875D01*
X021250Y019750D01*
X021625Y019375D01*
X021875Y019375D01*
X022875Y019375D01*
X022739Y018959D02*
X022011Y018959D01*
X021987Y018840D02*
X021913Y018852D01*
X021893Y018852D01*
X021893Y018393D01*
X021857Y018393D01*
X021857Y018357D01*
X021398Y018357D01*
X021398Y018337D01*
X021410Y018263D01*
X021433Y018192D01*
X021467Y018125D01*
X021511Y018064D01*
X021564Y018011D01*
X021625Y017967D01*
X021692Y017933D01*
X021763Y017910D01*
X021837Y017898D01*
X021857Y017898D01*
X021857Y018357D01*
X021893Y018357D01*
X021893Y018393D01*
X022352Y018393D01*
X022352Y018413D01*
X022340Y018487D01*
X022317Y018558D01*
X022283Y018625D01*
X022239Y018686D01*
X022186Y018739D01*
X022125Y018783D01*
X022058Y018817D01*
X021987Y018840D01*
X021893Y018800D02*
X021857Y018800D01*
X021857Y018852D02*
X021837Y018852D01*
X021763Y018840D01*
X021692Y018817D01*
X021625Y018783D01*
X021564Y018739D01*
X021511Y018686D01*
X021467Y018625D01*
X021433Y018558D01*
X021410Y018487D01*
X021398Y018413D01*
X021398Y018393D01*
X021857Y018393D01*
X021857Y018852D01*
X021739Y018959D02*
X020895Y018959D01*
X020810Y018800D02*
X021659Y018800D01*
X021479Y018642D02*
X020810Y018642D01*
X020810Y018483D02*
X021409Y018483D01*
X021400Y018325D02*
X020839Y018325D01*
X020850Y018166D02*
X021446Y018166D01*
X021570Y018008D02*
X020423Y018008D01*
X020327Y018008D02*
X018656Y018008D01*
X018732Y017849D02*
X019900Y017849D01*
X019908Y017691D02*
X018809Y017691D01*
X018885Y017532D02*
X023220Y017532D01*
X023220Y017374D02*
X018927Y017374D01*
X018964Y017215D02*
X023220Y017215D01*
X023220Y017057D02*
X019000Y017057D01*
X018542Y018166D02*
X019900Y018166D01*
X019911Y018325D02*
X018416Y018325D01*
X018289Y018483D02*
X019940Y018483D01*
X019940Y018642D02*
X018105Y018642D01*
X017906Y018800D02*
X019940Y018800D01*
X019940Y018959D02*
X017649Y018959D01*
X017319Y019117D02*
X019994Y019117D01*
X020375Y018750D02*
X021000Y019375D01*
X021625Y019375D01*
X021515Y019117D02*
X021053Y019117D01*
X020748Y019434D02*
X019210Y019434D01*
X019420Y019593D02*
X020906Y019593D01*
X021030Y019751D02*
X019541Y019751D01*
X019607Y019910D02*
X021030Y019910D01*
X021030Y020068D02*
X019633Y020068D01*
X019633Y020227D02*
X021030Y020227D01*
X021030Y020385D02*
X019589Y020385D01*
X019524Y020544D02*
X021030Y020544D01*
X021030Y020702D02*
X019377Y020702D01*
X019108Y020861D02*
X021030Y020861D01*
X021030Y021019D02*
X018513Y021019D01*
X018513Y021178D02*
X021030Y021178D01*
X021030Y021336D02*
X018878Y021336D01*
X018872Y021332D02*
X018913Y021356D01*
X018946Y021389D01*
X018970Y021431D01*
X018982Y021476D01*
X018982Y021750D01*
X018677Y021750D01*
X018677Y022180D01*
X018826Y022180D01*
X018872Y022168D01*
X018913Y022144D01*
X018946Y022111D01*
X018970Y022069D01*
X018982Y022024D01*
X018982Y021750D01*
X018677Y021750D01*
X018677Y021320D01*
X018826Y021320D01*
X018872Y021332D01*
X018677Y021336D02*
X018677Y021336D01*
X018677Y021495D02*
X018677Y021495D01*
X018677Y021653D02*
X018677Y021653D01*
X018677Y021750D02*
X018677Y021750D01*
X018677Y021812D02*
X018677Y021812D01*
X018677Y021970D02*
X018677Y021970D01*
X018677Y022129D02*
X018677Y022129D01*
X018677Y022320D02*
X018826Y022320D01*
X018872Y022332D01*
X018913Y022356D01*
X018946Y022389D01*
X018970Y022431D01*
X018982Y022476D01*
X018982Y022750D01*
X018677Y022750D01*
X018677Y023180D01*
X018826Y023180D01*
X018872Y023168D01*
X018913Y023144D01*
X018946Y023111D01*
X018970Y023069D01*
X018982Y023024D01*
X018982Y022750D01*
X018677Y022750D01*
X018677Y022320D01*
X018677Y022446D02*
X018677Y022446D01*
X018677Y022604D02*
X018677Y022604D01*
X018677Y022750D02*
X018677Y022750D01*
X018677Y022763D02*
X018677Y022763D01*
X018677Y022921D02*
X018677Y022921D01*
X018677Y023080D02*
X018677Y023080D01*
X018255Y023714D02*
X017775Y023714D01*
X017680Y023555D02*
X021030Y023555D01*
X021030Y023397D02*
X017680Y023397D01*
X017796Y023238D02*
X021030Y023238D01*
X021030Y023080D02*
X018964Y023080D01*
X018982Y022921D02*
X021030Y022921D01*
X021030Y022763D02*
X018982Y022763D01*
X018982Y022604D02*
X021030Y022604D01*
X021030Y022446D02*
X018974Y022446D01*
X018928Y022129D02*
X021030Y022129D01*
X021030Y022287D02*
X018129Y022287D01*
X018128Y022129D02*
X018065Y022129D01*
X017908Y022604D02*
X017650Y022604D01*
X017796Y022763D02*
X018058Y022763D01*
X018058Y022921D02*
X017796Y022921D01*
X017796Y023080D02*
X018079Y023080D01*
X017470Y024031D02*
X017530Y024091D01*
X017659Y024220D01*
X017747Y024220D01*
X017753Y024226D01*
X017734Y024236D01*
X017701Y024269D01*
X017677Y024311D01*
X017665Y024356D01*
X017665Y024500D01*
X018280Y024500D01*
X018895Y024500D01*
X018895Y024644D01*
X018883Y024689D01*
X018859Y024731D01*
X018826Y024764D01*
X018807Y024774D01*
X018813Y024780D01*
X018998Y024780D01*
X018998Y024603D01*
X019357Y024603D01*
X019357Y024566D01*
X018998Y024566D01*
X018998Y024344D01*
X019010Y024299D01*
X019034Y024258D01*
X019068Y024224D01*
X019071Y024222D01*
X019038Y024190D01*
X019038Y024135D01*
X018855Y024135D01*
X018855Y024178D01*
X018807Y024226D01*
X018826Y024236D01*
X018859Y024269D01*
X018883Y024311D01*
X018895Y024356D01*
X018895Y024500D01*
X018280Y024500D01*
X018280Y024500D01*
X018280Y024500D01*
X017665Y024500D01*
X017665Y024644D01*
X017677Y024689D01*
X017701Y024731D01*
X017734Y024764D01*
X017753Y024774D01*
X017705Y024822D01*
X017705Y025178D01*
X017777Y025250D01*
X017705Y025322D01*
X017705Y025484D01*
X017365Y025824D01*
X017365Y026018D01*
X017330Y026018D01*
X017250Y026098D01*
X017170Y026018D01*
X017168Y026018D01*
X017341Y025845D01*
X017470Y025716D01*
X017470Y024031D01*
X017470Y024189D02*
X017628Y024189D01*
X017667Y024348D02*
X017470Y024348D01*
X017470Y024506D02*
X017665Y024506D01*
X017671Y024665D02*
X017470Y024665D01*
X017470Y024823D02*
X017705Y024823D01*
X017705Y024982D02*
X017470Y024982D01*
X017470Y025140D02*
X017705Y025140D01*
X017728Y025299D02*
X017470Y025299D01*
X017470Y025457D02*
X017705Y025457D01*
X017573Y025616D02*
X017470Y025616D01*
X017415Y025774D02*
X017412Y025774D01*
X017365Y025933D02*
X017254Y025933D01*
X017243Y026091D02*
X017257Y026091D01*
X016915Y025960D02*
X017250Y025625D01*
X016915Y025960D02*
X016915Y026375D01*
X016579Y026408D02*
X013882Y026408D01*
X013882Y026250D02*
X016579Y026250D01*
X016588Y026091D02*
X013882Y026091D01*
X013882Y025933D02*
X016695Y025933D01*
X016579Y026567D02*
X013882Y026567D01*
X013882Y026725D02*
X016654Y026725D01*
X017177Y026725D02*
X017323Y026725D01*
X017584Y026884D02*
X013882Y026884D01*
X013882Y027042D02*
X017518Y027042D01*
X017495Y027201D02*
X013882Y027201D01*
X013882Y027359D02*
X017495Y027359D01*
X017541Y027518D02*
X013882Y027518D01*
X013882Y027676D02*
X017607Y027676D01*
X017757Y027835D02*
X013882Y027835D01*
X013882Y027993D02*
X018036Y027993D01*
X018162Y028152D02*
X013882Y028152D01*
X013882Y028310D02*
X018004Y028310D01*
X017845Y028469D02*
X013882Y028469D01*
X013882Y028627D02*
X017687Y028627D01*
X017528Y028786D02*
X013882Y028786D01*
X013882Y028944D02*
X017370Y028944D01*
X017211Y029103D02*
X013882Y029103D01*
X013882Y029261D02*
X017053Y029261D01*
X016894Y029420D02*
X013938Y029420D01*
X013939Y029578D02*
X016736Y029578D01*
X016655Y029737D02*
X013882Y029737D01*
X013882Y029895D02*
X016655Y029895D01*
X016655Y030054D02*
X013882Y030054D01*
X013882Y030212D02*
X016655Y030212D01*
X016655Y030371D02*
X013882Y030371D01*
X013882Y030529D02*
X016655Y030529D01*
X016671Y030688D02*
X013882Y030688D01*
X013882Y030846D02*
X016829Y030846D01*
X016988Y031005D02*
X013882Y031005D01*
X013882Y031163D02*
X017146Y031163D01*
X017089Y031322D02*
X017305Y031322D01*
X017365Y031480D02*
X017089Y031480D01*
X017055Y031639D02*
X017365Y031639D01*
X017365Y031797D02*
X017089Y031797D01*
X017089Y031956D02*
X017365Y031956D01*
X017365Y032114D02*
X017079Y032114D01*
X017089Y032273D02*
X017365Y032273D01*
X017365Y032431D02*
X017089Y032431D01*
X017089Y032590D02*
X017365Y032590D01*
X017365Y032748D02*
X017119Y032748D01*
X017129Y032907D02*
X017365Y032907D01*
X017365Y033065D02*
X017129Y033065D01*
X017129Y033070D02*
X017117Y033116D01*
X017093Y033157D01*
X017059Y033190D01*
X017018Y033214D01*
X016973Y033226D01*
X016358Y033226D01*
X016358Y032928D01*
X017129Y032928D01*
X017129Y033070D01*
X016983Y033224D02*
X017365Y033224D01*
X017365Y033382D02*
X013882Y033382D01*
X013882Y033224D02*
X015734Y033224D01*
X015588Y033065D02*
X013882Y033065D01*
X013882Y032907D02*
X015588Y032907D01*
X015598Y032748D02*
X013882Y032748D01*
X013662Y032428D02*
X016358Y032428D01*
X016358Y031928D02*
X014072Y031928D01*
X013882Y031639D02*
X015662Y031639D01*
X015628Y031480D02*
X013882Y031480D01*
X013882Y031322D02*
X015628Y031322D01*
X016358Y033065D02*
X016358Y033065D01*
X016358Y033224D02*
X016358Y033224D01*
X016582Y033541D02*
X013882Y033541D01*
X013882Y033699D02*
X016519Y033699D01*
X016519Y034016D02*
X013882Y034016D01*
X013882Y033858D02*
X016897Y033858D01*
X016897Y034016D02*
X016934Y034016D01*
X016934Y034175D02*
X016897Y034175D01*
X016550Y034175D02*
X013882Y034175D01*
X013882Y034333D02*
X017365Y034333D01*
X017365Y034492D02*
X013882Y034492D01*
X013882Y034650D02*
X017365Y034650D01*
X017365Y034809D02*
X013882Y034809D01*
X013882Y034967D02*
X017365Y034967D01*
X017365Y035126D02*
X013882Y035126D01*
X013882Y035284D02*
X017365Y035284D01*
X017246Y035443D02*
X013882Y035443D01*
X013882Y035601D02*
X017088Y035601D01*
X017125Y035875D02*
X015750Y035875D01*
X015500Y036125D01*
X015500Y037000D01*
X015710Y037210D01*
X016000Y037210D01*
X016020Y037229D01*
X016823Y037229D01*
X016823Y037485D02*
X017390Y037485D01*
X018000Y036875D01*
X018500Y036875D01*
X019625Y035750D01*
X019625Y035000D01*
X020125Y034500D01*
X020875Y034500D01*
X021375Y034000D01*
X021375Y031625D01*
X021125Y031375D01*
X020625Y031375D01*
X020769Y031005D02*
X021628Y031005D01*
X021788Y030938D01*
X021962Y030938D01*
X022122Y031005D01*
X022628Y031005D01*
X022788Y030938D01*
X022962Y030938D01*
X023122Y031005D01*
X023220Y031005D01*
X023220Y031102D02*
X023220Y030648D01*
X023122Y030745D01*
X022962Y030812D01*
X022788Y030812D01*
X022628Y030745D01*
X022505Y030622D01*
X022438Y030462D01*
X022438Y030288D01*
X022505Y030128D01*
X022628Y030005D01*
X022788Y029938D01*
X022962Y029938D01*
X023122Y030005D01*
X023220Y030102D01*
X023220Y029648D01*
X023122Y029745D01*
X022962Y029812D01*
X022788Y029812D01*
X022628Y029745D01*
X022505Y029622D01*
X022438Y029462D01*
X022438Y029288D01*
X022505Y029128D01*
X022628Y029005D01*
X022788Y028938D01*
X022962Y028938D01*
X023122Y029005D01*
X023220Y029102D01*
X023220Y028648D01*
X023122Y028745D01*
X022962Y028812D01*
X022788Y028812D01*
X022628Y028745D01*
X022505Y028622D01*
X022438Y028462D01*
X022438Y028288D01*
X022505Y028128D01*
X022628Y028005D01*
X022788Y027938D01*
X022962Y027938D01*
X023122Y028005D01*
X023220Y028102D01*
X023220Y027648D01*
X023122Y027745D01*
X022962Y027812D01*
X022788Y027812D01*
X022628Y027745D01*
X022505Y027622D01*
X022438Y027462D01*
X022438Y027288D01*
X022505Y027128D01*
X022628Y027005D01*
X022788Y026938D01*
X022962Y026938D01*
X023122Y027005D01*
X023220Y027102D01*
X023220Y026648D01*
X023122Y026745D01*
X022962Y026812D01*
X022788Y026812D01*
X022628Y026745D01*
X022505Y026622D01*
X022438Y026462D01*
X022438Y026288D01*
X022505Y026128D01*
X022628Y026005D01*
X022788Y025938D01*
X022962Y025938D01*
X023122Y026005D01*
X023220Y026102D01*
X023220Y025648D01*
X023122Y025745D01*
X022962Y025812D01*
X022788Y025812D01*
X022628Y025745D01*
X022505Y025622D01*
X022438Y025462D01*
X022438Y025288D01*
X022505Y025128D01*
X022628Y025005D01*
X022788Y024938D01*
X022962Y024938D01*
X023122Y025005D01*
X023220Y025102D01*
X023220Y024648D01*
X023122Y024745D01*
X022962Y024812D01*
X022788Y024812D01*
X022628Y024745D01*
X022505Y024622D01*
X022438Y024462D01*
X022438Y024288D01*
X022505Y024128D01*
X022628Y024005D01*
X022788Y023938D01*
X022962Y023938D01*
X023122Y024005D01*
X023220Y024102D01*
X023220Y023648D01*
X023122Y023745D01*
X022962Y023812D01*
X022788Y023812D01*
X022628Y023745D01*
X022505Y023622D01*
X022438Y023462D01*
X022438Y023288D01*
X022505Y023128D01*
X022628Y023005D01*
X022788Y022938D01*
X022962Y022938D01*
X023122Y023005D01*
X023220Y023102D01*
X023220Y022648D01*
X023122Y022745D01*
X022962Y022812D01*
X022788Y022812D01*
X022628Y022745D01*
X022505Y022622D01*
X022438Y022462D01*
X022438Y022288D01*
X022505Y022128D01*
X022628Y022005D01*
X022788Y021938D01*
X022962Y021938D01*
X023122Y022005D01*
X023220Y022102D01*
X023220Y021648D01*
X023122Y021745D01*
X022962Y021812D01*
X022788Y021812D01*
X022628Y021745D01*
X022505Y021622D01*
X022493Y021595D01*
X022257Y021595D01*
X022245Y021622D01*
X022122Y021745D01*
X021962Y021812D01*
X021788Y021812D01*
X021628Y021745D01*
X021505Y021622D01*
X021470Y021539D01*
X021470Y022211D01*
X021505Y022128D01*
X021628Y022005D01*
X021788Y021938D01*
X021962Y021938D01*
X022122Y022005D01*
X022245Y022128D01*
X022312Y022288D01*
X022312Y022462D01*
X022245Y022622D01*
X022122Y022745D01*
X021962Y022812D01*
X021788Y022812D01*
X021628Y022745D01*
X021505Y022622D01*
X021470Y022539D01*
X021470Y023211D01*
X021505Y023128D01*
X021628Y023005D01*
X021788Y022938D01*
X021962Y022938D01*
X022122Y023005D01*
X022245Y023128D01*
X022312Y023288D01*
X022312Y023462D01*
X022245Y023622D01*
X022122Y023745D01*
X021962Y023812D01*
X021788Y023812D01*
X021628Y023745D01*
X021505Y023622D01*
X021470Y023539D01*
X021470Y024211D01*
X021505Y024128D01*
X021628Y024005D01*
X021788Y023938D01*
X021962Y023938D01*
X022122Y024005D01*
X022245Y024128D01*
X022312Y024288D01*
X022312Y024462D01*
X022245Y024622D01*
X022122Y024745D01*
X021962Y024812D01*
X021788Y024812D01*
X021628Y024745D01*
X021505Y024622D01*
X021470Y024539D01*
X021470Y025211D01*
X021505Y025128D01*
X021628Y025005D01*
X021788Y024938D01*
X021962Y024938D01*
X022122Y025005D01*
X022245Y025128D01*
X022312Y025288D01*
X022312Y025462D01*
X022245Y025622D01*
X022122Y025745D01*
X021962Y025812D01*
X021788Y025812D01*
X021628Y025745D01*
X021505Y025622D01*
X021470Y025539D01*
X021470Y026211D01*
X021505Y026128D01*
X021628Y026005D01*
X021788Y025938D01*
X021962Y025938D01*
X022122Y026005D01*
X022245Y026128D01*
X022312Y026288D01*
X022312Y026462D01*
X022245Y026622D01*
X022122Y026745D01*
X021962Y026812D01*
X021788Y026812D01*
X021628Y026745D01*
X021505Y026622D01*
X021470Y026539D01*
X021470Y026716D01*
X021341Y026845D01*
X020091Y026845D01*
X017095Y029841D01*
X017095Y030490D01*
X017188Y030583D01*
X017188Y030020D01*
X017270Y029938D01*
X017980Y029938D01*
X018062Y030020D01*
X018062Y030730D01*
X017980Y030812D01*
X017417Y030812D01*
X017805Y031199D01*
X017805Y031708D01*
X017955Y031708D01*
X017985Y031678D01*
X017911Y031604D01*
X017911Y031252D01*
X017993Y031170D01*
X018644Y031170D01*
X018905Y030909D01*
X018905Y030761D01*
X018875Y030783D01*
X018808Y030817D01*
X018737Y030840D01*
X018663Y030852D01*
X018643Y030852D01*
X018643Y030393D01*
X018607Y030393D01*
X018607Y030357D01*
X018643Y030357D01*
X018643Y029898D01*
X018663Y029898D01*
X018737Y029910D01*
X018808Y029933D01*
X018875Y029967D01*
X018905Y029989D01*
X018905Y029284D01*
X019405Y028784D01*
X019534Y028655D01*
X020343Y028655D01*
X020288Y028600D01*
X020228Y028454D01*
X020228Y028296D01*
X020288Y028150D01*
X020400Y028038D01*
X020546Y027978D01*
X020704Y027978D01*
X020850Y028038D01*
X020962Y028150D01*
X021022Y028296D01*
X021022Y028454D01*
X020962Y028600D01*
X020907Y028655D01*
X021466Y028655D01*
X021761Y028950D01*
X021788Y028938D01*
X021962Y028938D01*
X022122Y029005D01*
X022245Y029128D01*
X022312Y029288D01*
X022312Y029462D01*
X022245Y029622D01*
X022122Y029745D01*
X021962Y029812D01*
X021788Y029812D01*
X021628Y029745D01*
X021505Y029622D01*
X021438Y029462D01*
X021438Y029288D01*
X021450Y029261D01*
X021284Y029095D01*
X020907Y029095D01*
X020962Y029150D01*
X021022Y029296D01*
X021022Y029454D01*
X020962Y029600D01*
X020907Y029655D01*
X021466Y029655D01*
X021595Y029784D01*
X021761Y029950D01*
X021788Y029938D01*
X021962Y029938D01*
X022122Y030005D01*
X022245Y030128D01*
X022312Y030288D01*
X022312Y030462D01*
X022245Y030622D01*
X022122Y030745D01*
X021962Y030812D01*
X021788Y030812D01*
X021628Y030745D01*
X021505Y030622D01*
X021438Y030462D01*
X021438Y030288D01*
X021450Y030261D01*
X021284Y030095D01*
X020907Y030095D01*
X020962Y030150D01*
X021022Y030296D01*
X021022Y030454D01*
X020962Y030600D01*
X020850Y030712D01*
X020845Y030714D01*
X020845Y030716D01*
X020584Y030978D01*
X020704Y030978D01*
X020850Y031038D01*
X020962Y031150D01*
X020964Y031155D01*
X021216Y031155D01*
X021438Y031377D01*
X021438Y031288D01*
X021505Y031128D01*
X021628Y031005D01*
X021490Y031163D02*
X021224Y031163D01*
X021383Y031322D02*
X021438Y031322D01*
X021595Y031713D02*
X021595Y032037D01*
X021628Y032005D01*
X021788Y031938D01*
X021962Y031938D01*
X022122Y032005D01*
X022245Y032128D01*
X022312Y032288D01*
X022312Y032462D01*
X022245Y032622D01*
X022122Y032745D01*
X021962Y032812D01*
X021788Y032812D01*
X021628Y032745D01*
X021595Y032713D01*
X021595Y033037D01*
X021628Y033005D01*
X021788Y032938D01*
X021962Y032938D01*
X022122Y033005D01*
X022245Y033128D01*
X022312Y033288D01*
X022312Y033462D01*
X022245Y033622D01*
X022122Y033745D01*
X021962Y033812D01*
X021788Y033812D01*
X021628Y033745D01*
X021595Y033713D01*
X021595Y034037D01*
X021628Y034005D01*
X021788Y033938D01*
X021962Y033938D01*
X022122Y034005D01*
X022245Y034128D01*
X022312Y034288D01*
X022312Y034462D01*
X022245Y034622D01*
X022122Y034745D01*
X021962Y034812D01*
X021788Y034812D01*
X021628Y034745D01*
X021505Y034622D01*
X021438Y034462D01*
X021438Y034288D01*
X021467Y034220D01*
X021095Y034591D01*
X021095Y034591D01*
X020966Y034720D01*
X020216Y034720D01*
X019845Y035091D01*
X019845Y035841D01*
X019716Y035970D01*
X019443Y036243D01*
X020030Y036243D01*
X020112Y036325D01*
X020112Y036780D01*
X020116Y036784D01*
X020140Y036825D01*
X020152Y036871D01*
X020152Y036973D01*
X020007Y036973D01*
X020152Y036973D01*
X020152Y037076D01*
X020146Y037101D01*
X020152Y037127D01*
X020152Y037229D01*
X020007Y037229D01*
X020007Y037229D01*
X020152Y037229D01*
X020152Y037332D01*
X020140Y037378D01*
X020116Y037419D01*
X020112Y037423D01*
X020112Y037826D01*
X020195Y037744D01*
X020195Y037744D01*
X020324Y037615D01*
X020413Y037615D01*
X020413Y037560D01*
X020446Y037528D01*
X020443Y037526D01*
X020409Y037492D01*
X020385Y037451D01*
X020373Y037406D01*
X020373Y037184D01*
X020732Y037184D01*
X020732Y037478D01*
X020768Y037478D01*
X020768Y037184D01*
X020732Y037184D01*
X020732Y037147D01*
X020768Y037147D01*
X020768Y036769D01*
X020971Y036769D01*
X021016Y036781D01*
X021057Y036805D01*
X021091Y036838D01*
X021115Y036879D01*
X021127Y036925D01*
X021127Y037147D01*
X020768Y037147D01*
X020768Y037184D01*
X021127Y037184D01*
X021127Y037406D01*
X021115Y037451D01*
X021091Y037492D01*
X021057Y037526D01*
X021054Y037528D01*
X021087Y037560D01*
X021087Y037615D01*
X021176Y037615D01*
X021341Y037780D01*
X021470Y037909D01*
X021470Y038211D01*
X021505Y038128D01*
X021628Y038005D01*
X021788Y037938D01*
X021962Y037938D01*
X022122Y038005D01*
X022245Y038128D01*
X022312Y038288D01*
X022312Y038462D01*
X022245Y038622D01*
X022122Y038745D01*
X021962Y038812D01*
X021788Y038812D01*
X021628Y038745D01*
X021505Y038622D01*
X021470Y038539D01*
X021470Y039121D01*
X021511Y039064D01*
X021564Y039011D01*
X021625Y038967D01*
X021692Y038933D01*
X021763Y038910D01*
X021837Y038898D01*
X021857Y038898D01*
X021857Y039357D01*
X021893Y039357D01*
X021893Y039393D01*
X021857Y039393D01*
X021857Y039852D01*
X021837Y039852D01*
X021763Y039840D01*
X021692Y039817D01*
X021625Y039783D01*
X021564Y039739D01*
X021511Y039686D01*
X021470Y039629D01*
X021470Y040121D01*
X021511Y040064D01*
X021564Y040011D01*
X021625Y039967D01*
X021692Y039933D01*
X021763Y039910D01*
X021837Y039898D01*
X021857Y039898D01*
X021857Y040357D01*
X021893Y040357D01*
X021893Y040393D01*
X021857Y040393D01*
X021857Y040852D01*
X021837Y040852D01*
X021763Y040840D01*
X021692Y040817D01*
X021625Y040783D01*
X021564Y040739D01*
X021511Y040686D01*
X021470Y040629D01*
X021470Y041966D01*
X019595Y043841D01*
X019466Y043970D01*
X013409Y043970D01*
X012534Y043095D01*
X012091Y043095D01*
X011886Y043300D01*
X012559Y043300D01*
X012641Y043382D01*
X012641Y044443D01*
X012614Y044470D01*
X018625Y044470D01*
X018986Y044456D01*
X019698Y044343D01*
X020383Y044120D01*
X021026Y043793D01*
X021609Y043369D01*
X022119Y042859D01*
X022543Y042276D01*
X022870Y041633D01*
X023093Y040948D01*
X023119Y040786D01*
X023058Y040817D01*
X022987Y040840D01*
X022913Y040852D01*
X022893Y040852D01*
X022893Y040393D01*
X023181Y040393D01*
X023187Y040357D01*
X022893Y040357D01*
X022893Y040393D01*
X022857Y040393D01*
X022857Y040357D01*
X022893Y040357D01*
X022893Y039898D01*
X022913Y039898D01*
X022987Y039910D01*
X023058Y039933D01*
X023125Y039967D01*
X023186Y040011D01*
X023214Y040039D01*
X023213Y040039D01*
X023214Y040039D02*
X023220Y039875D01*
X023220Y039704D01*
X023186Y039739D01*
X023125Y039783D01*
X023058Y039817D01*
X022987Y039840D01*
X022913Y039852D01*
X022893Y039852D01*
X022893Y039393D01*
X023220Y039393D01*
X023220Y039357D01*
X022893Y039357D01*
X022893Y039393D01*
X022857Y039393D01*
X022857Y039357D01*
X022893Y039357D01*
X022893Y038898D01*
X022913Y038898D01*
X022987Y038910D01*
X023058Y038933D01*
X023125Y038967D01*
X023186Y039011D01*
X023220Y039046D01*
X023220Y038648D01*
X023122Y038745D01*
X022962Y038812D01*
X022788Y038812D01*
X022628Y038745D01*
X022505Y038622D01*
X022438Y038462D01*
X022438Y038288D01*
X022505Y038128D01*
X022628Y038005D01*
X022788Y037938D01*
X022962Y037938D01*
X023122Y038005D01*
X023220Y038102D01*
X023220Y037648D01*
X023122Y037745D01*
X022962Y037812D01*
X022788Y037812D01*
X022628Y037745D01*
X022505Y037622D01*
X022438Y037462D01*
X022438Y037288D01*
X022505Y037128D01*
X022628Y037005D01*
X022788Y036938D01*
X022962Y036938D01*
X023122Y037005D01*
X023220Y037102D01*
X023220Y036648D01*
X023122Y036745D01*
X022962Y036812D01*
X022788Y036812D01*
X022628Y036745D01*
X022505Y036622D01*
X022438Y036462D01*
X022438Y036288D01*
X022505Y036128D01*
X022628Y036005D01*
X022788Y035938D01*
X022962Y035938D01*
X023122Y036005D01*
X023220Y036102D01*
X023220Y035648D01*
X023122Y035745D01*
X022962Y035812D01*
X022788Y035812D01*
X022628Y035745D01*
X022505Y035622D01*
X022438Y035462D01*
X022438Y035288D01*
X022505Y035128D01*
X022628Y035005D01*
X022788Y034938D01*
X022962Y034938D01*
X023122Y035005D01*
X023220Y035102D01*
X023220Y034648D01*
X023122Y034745D01*
X022962Y034812D01*
X022788Y034812D01*
X022628Y034745D01*
X022505Y034622D01*
X022438Y034462D01*
X022438Y034288D01*
X022505Y034128D01*
X022628Y034005D01*
X022788Y033938D01*
X022962Y033938D01*
X023122Y034005D01*
X023220Y034102D01*
X023220Y033648D01*
X023122Y033745D01*
X022962Y033812D01*
X022788Y033812D01*
X022628Y033745D01*
X022505Y033622D01*
X022438Y033462D01*
X022438Y033288D01*
X022505Y033128D01*
X022628Y033005D01*
X022788Y032938D01*
X022962Y032938D01*
X023122Y033005D01*
X023220Y033102D01*
X023220Y032648D01*
X023122Y032745D01*
X022962Y032812D01*
X022788Y032812D01*
X022628Y032745D01*
X022505Y032622D01*
X022438Y032462D01*
X022438Y032288D01*
X022505Y032128D01*
X022628Y032005D01*
X022788Y031938D01*
X022962Y031938D01*
X023122Y032005D01*
X023220Y032102D01*
X023220Y031648D01*
X023122Y031745D01*
X022962Y031812D01*
X022788Y031812D01*
X022628Y031745D01*
X022505Y031622D01*
X022438Y031462D01*
X022438Y031288D01*
X022505Y031128D01*
X022628Y031005D01*
X022490Y031163D02*
X022260Y031163D01*
X022245Y031128D02*
X022312Y031288D01*
X022312Y031462D01*
X022245Y031622D01*
X022122Y031745D01*
X021962Y031812D01*
X021788Y031812D01*
X021628Y031745D01*
X021595Y031713D01*
X021595Y031797D02*
X021752Y031797D01*
X021746Y031956D02*
X021595Y031956D01*
X022004Y031956D02*
X022746Y031956D01*
X022752Y031797D02*
X021998Y031797D01*
X022229Y031639D02*
X022521Y031639D01*
X022446Y031480D02*
X022304Y031480D01*
X022312Y031322D02*
X022438Y031322D01*
X022245Y031128D02*
X022122Y031005D01*
X022180Y030688D02*
X022570Y030688D01*
X022466Y030529D02*
X022284Y030529D01*
X022312Y030371D02*
X022438Y030371D01*
X022470Y030212D02*
X022280Y030212D01*
X022171Y030054D02*
X022579Y030054D01*
X022619Y029737D02*
X022131Y029737D01*
X022264Y029578D02*
X022486Y029578D01*
X022438Y029420D02*
X022312Y029420D01*
X022301Y029261D02*
X022449Y029261D01*
X022530Y029103D02*
X022220Y029103D01*
X021976Y028944D02*
X022774Y028944D01*
X022725Y028786D02*
X022025Y028786D01*
X021962Y028812D02*
X021788Y028812D01*
X021628Y028745D01*
X021505Y028622D01*
X021438Y028462D01*
X021438Y028288D01*
X021505Y028128D01*
X021628Y028005D01*
X021788Y027938D01*
X021962Y027938D01*
X022122Y028005D01*
X022245Y028128D01*
X022312Y028288D01*
X022312Y028462D01*
X022245Y028622D01*
X022122Y028745D01*
X021962Y028812D01*
X021774Y028944D02*
X021755Y028944D01*
X021725Y028786D02*
X021597Y028786D01*
X021509Y028627D02*
X020935Y028627D01*
X021016Y028469D02*
X021441Y028469D01*
X021438Y028310D02*
X021022Y028310D01*
X020963Y028152D02*
X021495Y028152D01*
X021656Y027993D02*
X020741Y027993D01*
X020625Y027812D02*
X020625Y027375D01*
X021062Y027375D01*
X021062Y027656D01*
X021050Y027702D01*
X021027Y027743D01*
X020993Y027777D01*
X020952Y027800D01*
X020906Y027812D01*
X020625Y027812D01*
X020344Y027812D01*
X020298Y027800D01*
X020257Y027777D01*
X020223Y027743D01*
X020200Y027702D01*
X020188Y027656D01*
X020188Y027375D01*
X020188Y027094D01*
X020200Y027048D01*
X020223Y027007D01*
X020257Y026973D01*
X020298Y026950D01*
X020344Y026938D01*
X020625Y026938D01*
X020906Y026938D01*
X020952Y026950D01*
X020993Y026973D01*
X021027Y027007D01*
X021050Y027048D01*
X021062Y027094D01*
X021062Y027375D01*
X020625Y027375D01*
X020625Y027375D01*
X020625Y027375D01*
X020625Y026938D01*
X020625Y027375D01*
X020625Y027375D01*
X020625Y027375D01*
X020188Y027375D01*
X020625Y027375D01*
X020625Y027812D01*
X020625Y027676D02*
X020625Y027676D01*
X020625Y027518D02*
X020625Y027518D01*
X020625Y027359D02*
X020625Y027359D01*
X020625Y027201D02*
X020625Y027201D01*
X020625Y027042D02*
X020625Y027042D01*
X020203Y027042D02*
X019894Y027042D01*
X019736Y027201D02*
X020188Y027201D01*
X020188Y027359D02*
X019577Y027359D01*
X019419Y027518D02*
X020188Y027518D01*
X020193Y027676D02*
X019260Y027676D01*
X019102Y027835D02*
X023220Y027835D01*
X023220Y027993D02*
X023094Y027993D01*
X023192Y027676D02*
X023220Y027676D01*
X023220Y027042D02*
X023160Y027042D01*
X023220Y026884D02*
X020053Y026884D01*
X020000Y026625D02*
X021250Y026625D01*
X021250Y023875D01*
X021470Y023872D02*
X023220Y023872D01*
X023220Y023714D02*
X023154Y023714D01*
X023148Y024031D02*
X023220Y024031D01*
X023203Y024665D02*
X023220Y024665D01*
X023220Y024823D02*
X021470Y024823D01*
X021470Y024665D02*
X021547Y024665D01*
X021470Y024982D02*
X021683Y024982D01*
X021499Y025140D02*
X021470Y025140D01*
X021470Y025616D02*
X021502Y025616D01*
X021470Y025774D02*
X021697Y025774D01*
X021470Y025933D02*
X023220Y025933D01*
X023209Y026091D02*
X023220Y026091D01*
X023220Y025774D02*
X023053Y025774D01*
X022697Y025774D02*
X022053Y025774D01*
X022248Y025616D02*
X022502Y025616D01*
X022438Y025457D02*
X022312Y025457D01*
X022312Y025299D02*
X022438Y025299D01*
X022499Y025140D02*
X022251Y025140D01*
X022067Y024982D02*
X022683Y024982D01*
X022547Y024665D02*
X022203Y024665D01*
X022294Y024506D02*
X022456Y024506D01*
X022438Y024348D02*
X022312Y024348D01*
X022271Y024189D02*
X022479Y024189D01*
X022602Y024031D02*
X022148Y024031D01*
X022154Y023714D02*
X022596Y023714D01*
X022477Y023555D02*
X022273Y023555D01*
X022312Y023397D02*
X022438Y023397D01*
X022459Y023238D02*
X022291Y023238D01*
X022197Y023080D02*
X022553Y023080D01*
X022669Y022763D02*
X022081Y022763D01*
X022253Y022604D02*
X022497Y022604D01*
X022438Y022446D02*
X022312Y022446D01*
X022311Y022287D02*
X022439Y022287D01*
X022504Y022129D02*
X022246Y022129D01*
X022039Y021970D02*
X022711Y021970D01*
X022787Y021812D02*
X021963Y021812D01*
X021787Y021812D02*
X021470Y021812D01*
X021470Y021970D02*
X021711Y021970D01*
X021504Y022129D02*
X021470Y022129D01*
X021470Y021653D02*
X021535Y021653D01*
X021875Y021375D02*
X022875Y021375D01*
X023215Y021653D02*
X023220Y021653D01*
X023220Y021812D02*
X022963Y021812D01*
X023039Y021970D02*
X023220Y021970D01*
X023220Y022763D02*
X023081Y022763D01*
X023220Y022921D02*
X021470Y022921D01*
X021470Y022763D02*
X021669Y022763D01*
X021497Y022604D02*
X021470Y022604D01*
X021470Y023080D02*
X021553Y023080D01*
X021477Y023555D02*
X021470Y023555D01*
X021470Y023714D02*
X021596Y023714D01*
X021602Y024031D02*
X021470Y024031D01*
X021470Y024189D02*
X021479Y024189D01*
X020250Y025250D02*
X020500Y025500D01*
X020500Y025875D01*
X020125Y025750D02*
X020125Y026250D01*
X020000Y026625D02*
X016875Y029750D01*
X016875Y030581D01*
X017585Y031290D01*
X017585Y032125D01*
X017781Y031928D01*
X018642Y031928D01*
X018642Y031428D02*
X018697Y031428D01*
X019125Y031000D01*
X019125Y029375D01*
X019625Y028875D01*
X021375Y028875D01*
X021875Y029375D01*
X021706Y029895D02*
X023220Y029895D01*
X023220Y029737D02*
X023131Y029737D01*
X023171Y030054D02*
X023220Y030054D01*
X023220Y030688D02*
X023180Y030688D01*
X023220Y030846D02*
X020715Y030846D01*
X020875Y030688D02*
X021570Y030688D01*
X021466Y030529D02*
X020991Y030529D01*
X021022Y030371D02*
X021438Y030371D01*
X021401Y030212D02*
X020988Y030212D01*
X021375Y029875D02*
X020375Y029875D01*
X020125Y030125D01*
X020125Y030625D01*
X019750Y031000D01*
X019750Y032625D01*
X019447Y032928D01*
X018642Y032928D01*
X018642Y032428D02*
X018642Y032428D01*
X018642Y032428D01*
X019412Y032428D01*
X019412Y032286D01*
X019400Y032241D01*
X019376Y032200D01*
X019343Y032166D01*
X019322Y032154D01*
X019372Y032104D01*
X019372Y031752D01*
X019298Y031678D01*
X019372Y031604D01*
X019372Y031252D01*
X019290Y031170D01*
X019266Y031170D01*
X019345Y031091D01*
X019345Y030713D01*
X019378Y030745D01*
X019538Y030812D01*
X019627Y030812D01*
X019530Y030909D01*
X019530Y032534D01*
X019356Y032708D01*
X019328Y032708D01*
X019322Y032702D01*
X019343Y032690D01*
X019376Y032657D01*
X019400Y032616D01*
X019412Y032570D01*
X019412Y032428D01*
X018642Y032428D01*
X017871Y032428D01*
X017871Y032286D01*
X017883Y032241D01*
X017907Y032200D01*
X017941Y032166D01*
X017961Y032154D01*
X017955Y032148D01*
X017873Y032148D01*
X017805Y032216D01*
X017805Y033538D01*
X017859Y033538D01*
X017941Y033620D01*
X017941Y034130D01*
X017859Y034212D01*
X017805Y034212D01*
X017805Y035506D01*
X017345Y035966D01*
X017216Y036095D01*
X015841Y036095D01*
X015792Y036144D01*
X015982Y036144D01*
X015982Y036522D01*
X016018Y036522D01*
X016018Y036144D01*
X016221Y036144D01*
X016266Y036156D01*
X016307Y036180D01*
X016341Y036213D01*
X016365Y036254D01*
X016377Y036300D01*
X016377Y036522D01*
X016018Y036522D01*
X016018Y036559D01*
X016377Y036559D01*
X016377Y036781D01*
X016365Y036826D01*
X016341Y036867D01*
X016307Y036901D01*
X016304Y036903D01*
X016337Y036935D01*
X016337Y037009D01*
X016388Y037009D01*
X016388Y036325D01*
X016470Y036243D01*
X016730Y036243D01*
X016732Y036242D01*
X017322Y036242D01*
X017905Y035659D01*
X017905Y034784D01*
X018659Y034030D01*
X020659Y034030D01*
X020905Y033784D01*
X020905Y032657D01*
X020850Y032712D01*
X020704Y032772D01*
X020546Y032772D01*
X020400Y032712D01*
X020288Y032600D01*
X020228Y032454D01*
X020228Y032296D01*
X020288Y032150D01*
X020343Y032095D01*
X020159Y032095D01*
X020030Y031966D01*
X019970Y031906D01*
X019970Y032716D01*
X019667Y033019D01*
X019538Y033148D01*
X019328Y033148D01*
X019290Y033186D01*
X017993Y033186D01*
X017911Y033104D01*
X017911Y032752D01*
X017961Y032702D01*
X017941Y032690D01*
X017907Y032657D01*
X017883Y032616D01*
X017871Y032570D01*
X017871Y032428D01*
X018642Y032428D01*
X019412Y032431D02*
X019530Y032431D01*
X019530Y032273D02*
X019409Y032273D01*
X019362Y032114D02*
X019530Y032114D01*
X019530Y031956D02*
X019372Y031956D01*
X019372Y031797D02*
X019530Y031797D01*
X019530Y031639D02*
X019338Y031639D01*
X019372Y031480D02*
X019530Y031480D01*
X019530Y031322D02*
X019372Y031322D01*
X019273Y031163D02*
X019530Y031163D01*
X019530Y031005D02*
X019345Y031005D01*
X019345Y030846D02*
X019593Y030846D01*
X020125Y031125D02*
X020125Y031750D01*
X020250Y031875D01*
X021000Y031875D01*
X021125Y032000D01*
X021125Y033875D01*
X020750Y034250D01*
X018750Y034250D01*
X018125Y034875D01*
X018125Y035750D01*
X017413Y036462D01*
X016823Y036462D01*
X017235Y036077D02*
X017487Y036077D01*
X017393Y035918D02*
X017646Y035918D01*
X017552Y035760D02*
X017804Y035760D01*
X017710Y035601D02*
X017905Y035601D01*
X017905Y035443D02*
X017805Y035443D01*
X017805Y035284D02*
X017905Y035284D01*
X017905Y035126D02*
X017805Y035126D01*
X017805Y034967D02*
X017905Y034967D01*
X017905Y034809D02*
X017805Y034809D01*
X017805Y034650D02*
X018039Y034650D01*
X018197Y034492D02*
X017805Y034492D01*
X017805Y034333D02*
X018356Y034333D01*
X018514Y034175D02*
X017896Y034175D01*
X017941Y034016D02*
X020673Y034016D01*
X020831Y033858D02*
X017941Y033858D01*
X017941Y033699D02*
X020905Y033699D01*
X020905Y033541D02*
X017862Y033541D01*
X017805Y033382D02*
X020905Y033382D01*
X020905Y033224D02*
X017805Y033224D01*
X017805Y033065D02*
X017911Y033065D01*
X017911Y032907D02*
X017805Y032907D01*
X017805Y032748D02*
X017915Y032748D01*
X017876Y032590D02*
X017805Y032590D01*
X017805Y032431D02*
X017871Y032431D01*
X017875Y032273D02*
X017805Y032273D01*
X017585Y032125D02*
X017585Y033875D01*
X017585Y035415D01*
X017125Y035875D01*
X017329Y036235D02*
X016353Y036235D01*
X016377Y036394D02*
X016388Y036394D01*
X016388Y036552D02*
X016018Y036552D01*
X016018Y036394D02*
X015982Y036394D01*
X015982Y036235D02*
X016018Y036235D01*
X016377Y036711D02*
X016388Y036711D01*
X016388Y036869D02*
X016339Y036869D01*
X016318Y037503D02*
X016388Y037503D01*
X016388Y037662D02*
X014167Y037662D01*
X014321Y037820D02*
X016376Y037820D01*
X016348Y037979D02*
X014387Y037979D01*
X014435Y038137D02*
X016358Y038137D01*
X016360Y038145D02*
X016348Y038099D01*
X016348Y037997D01*
X016823Y037997D01*
X017298Y037997D01*
X017298Y038099D01*
X017286Y038145D01*
X017262Y038186D01*
X017258Y038190D01*
X017258Y039925D01*
X017176Y040007D01*
X016470Y040007D01*
X016388Y039925D01*
X016388Y038190D01*
X016384Y038186D01*
X016360Y038145D01*
X016388Y038296D02*
X014435Y038296D01*
X014415Y038454D02*
X016388Y038454D01*
X016388Y038613D02*
X014349Y038613D01*
X014235Y038771D02*
X016388Y038771D01*
X016388Y038930D02*
X014042Y038930D01*
X014208Y039088D02*
X013116Y039088D01*
X013390Y039247D02*
X013935Y039247D01*
X013787Y039405D02*
X013538Y039405D01*
X013604Y039564D02*
X013721Y039564D01*
X013677Y039722D02*
X013648Y039722D01*
X013648Y039881D02*
X013677Y039881D01*
X013702Y040039D02*
X013623Y040039D01*
X013557Y040198D02*
X013767Y040198D01*
X013888Y040356D02*
X013437Y040356D01*
X012641Y041217D02*
X012641Y042277D01*
X012559Y042359D01*
X011685Y042359D01*
X011730Y042405D01*
X011818Y042617D01*
X011818Y042746D01*
X011909Y042655D01*
X012716Y042655D01*
X013591Y043530D01*
X019284Y043530D01*
X021030Y041784D01*
X021030Y039541D01*
X021005Y039566D01*
X020495Y039566D01*
X020426Y039497D01*
X020112Y039497D01*
X020112Y039925D01*
X020030Y040007D01*
X019877Y040007D01*
X019877Y040156D01*
X019760Y040273D01*
X019333Y040700D01*
X015958Y040700D01*
X015700Y040958D01*
X015583Y041075D01*
X011283Y041075D01*
X011283Y041525D01*
X011005Y041525D01*
X011283Y041525D01*
X011283Y042003D01*
X011271Y042049D01*
X011247Y042090D01*
X011214Y042123D01*
X011173Y042147D01*
X011145Y042154D01*
X011356Y042154D01*
X011568Y042242D01*
X011574Y042248D01*
X011574Y041217D01*
X011656Y041135D01*
X012559Y041135D01*
X012641Y041217D01*
X012641Y041307D02*
X021030Y041307D01*
X021030Y041149D02*
X012573Y041149D01*
X012641Y041466D02*
X021030Y041466D01*
X021030Y041624D02*
X012641Y041624D01*
X012641Y041783D02*
X017984Y041783D01*
X018115Y041728D02*
X017830Y041846D01*
X017613Y042064D01*
X017495Y042348D01*
X017495Y042656D01*
X017613Y042940D01*
X017830Y043158D01*
X018115Y043276D01*
X018423Y043276D01*
X018707Y043158D01*
X018925Y042940D01*
X019042Y042656D01*
X019042Y042348D01*
X018925Y042064D01*
X018707Y041846D01*
X018423Y041728D01*
X018115Y041728D01*
X017735Y041941D02*
X012641Y041941D01*
X012641Y042100D02*
X017598Y042100D01*
X017532Y042258D02*
X012641Y042258D01*
X012795Y042734D02*
X017527Y042734D01*
X017495Y042575D02*
X011801Y042575D01*
X011818Y042734D02*
X011830Y042734D01*
X012000Y042875D02*
X012625Y042875D01*
X013500Y043750D01*
X019375Y043750D01*
X021250Y041875D01*
X021250Y038000D01*
X021085Y037835D01*
X020750Y037835D01*
X020415Y037835D01*
X020250Y038000D01*
X020250Y038375D01*
X020116Y038509D01*
X019677Y038509D01*
X019677Y038289D02*
X019677Y038253D01*
X019677Y038289D01*
X019677Y038289D01*
X019677Y038253D02*
X019677Y038253D01*
X019677Y038216D01*
X019677Y038216D01*
X019677Y038253D01*
X019677Y038253D01*
X019674Y038250D01*
X019125Y038250D01*
X019000Y038125D01*
X019000Y037375D01*
X019146Y037229D01*
X019677Y037229D01*
X019677Y037229D01*
X019677Y036973D01*
X019677Y036973D01*
X019677Y037229D01*
X019677Y037232D01*
X019677Y037266D01*
X019677Y037266D01*
X019677Y037229D01*
X019677Y037229D01*
X019677Y037186D02*
X019677Y037186D01*
X019677Y037028D02*
X019677Y037028D01*
X019202Y037028D02*
X018659Y037028D01*
X018817Y036869D02*
X019202Y036869D01*
X019242Y036711D02*
X018976Y036711D01*
X019134Y036552D02*
X019242Y036552D01*
X019451Y036235D02*
X021460Y036235D01*
X021438Y036288D02*
X021505Y036128D01*
X021628Y036005D01*
X021788Y035938D01*
X021962Y035938D01*
X022122Y036005D01*
X022245Y036128D01*
X022312Y036288D01*
X022312Y036462D01*
X022245Y036622D01*
X022122Y036745D01*
X021962Y036812D01*
X021788Y036812D01*
X021628Y036745D01*
X021505Y036622D01*
X021438Y036462D01*
X021438Y036288D01*
X021438Y036394D02*
X020112Y036394D01*
X020112Y036552D02*
X021475Y036552D01*
X021593Y036711D02*
X020112Y036711D01*
X020152Y036869D02*
X020391Y036869D01*
X020385Y036879D02*
X020409Y036838D01*
X020443Y036805D01*
X020484Y036781D01*
X020529Y036769D01*
X020732Y036769D01*
X020732Y037147D01*
X020373Y037147D01*
X020373Y036925D01*
X020385Y036879D01*
X020373Y037028D02*
X020152Y037028D01*
X020007Y036973D02*
X020007Y036973D01*
X020152Y037186D02*
X020373Y037186D01*
X020373Y037345D02*
X020149Y037345D01*
X020112Y037503D02*
X020420Y037503D01*
X020277Y037662D02*
X020112Y037662D01*
X020112Y037820D02*
X020119Y037820D01*
X020030Y038253D02*
X019677Y038253D01*
X020030Y038253D01*
X020030Y038253D01*
X020341Y038595D02*
X020207Y038729D01*
X020112Y038729D01*
X020112Y038827D01*
X020116Y038831D01*
X020140Y038872D01*
X020152Y038918D01*
X020152Y039021D01*
X020152Y039057D01*
X020413Y039057D01*
X020413Y038935D01*
X020446Y038903D01*
X020443Y038901D01*
X020409Y038867D01*
X020385Y038826D01*
X020373Y038781D01*
X020373Y038563D01*
X020341Y038595D01*
X020324Y038613D02*
X020373Y038613D01*
X020373Y038771D02*
X020112Y038771D01*
X020152Y038930D02*
X020419Y038930D01*
X020732Y038853D02*
X020732Y038559D01*
X020768Y038559D01*
X020768Y038853D01*
X020732Y038853D01*
X020732Y038771D02*
X020768Y038771D01*
X020768Y038613D02*
X020732Y038613D01*
X020732Y038522D02*
X020732Y038191D01*
X020768Y038191D01*
X020768Y038522D01*
X020732Y038522D01*
X020732Y038454D02*
X020768Y038454D01*
X020768Y038296D02*
X020732Y038296D01*
X021080Y037503D02*
X021455Y037503D01*
X021438Y037462D02*
X021505Y037622D01*
X021628Y037745D01*
X021788Y037812D01*
X021962Y037812D01*
X022122Y037745D01*
X022245Y037622D01*
X022312Y037462D01*
X022312Y037288D01*
X022245Y037128D01*
X022122Y037005D01*
X021962Y036938D01*
X021788Y036938D01*
X021628Y037005D01*
X021505Y037128D01*
X021438Y037288D01*
X021438Y037462D01*
X021438Y037345D02*
X021127Y037345D01*
X021127Y037186D02*
X021480Y037186D01*
X021605Y037028D02*
X021127Y037028D01*
X021109Y036869D02*
X023220Y036869D01*
X023220Y036711D02*
X023157Y036711D01*
X023145Y037028D02*
X023220Y037028D01*
X022605Y037028D02*
X022145Y037028D01*
X022270Y037186D02*
X022480Y037186D01*
X022438Y037345D02*
X022312Y037345D01*
X022295Y037503D02*
X022455Y037503D01*
X022544Y037662D02*
X022206Y037662D01*
X022059Y037979D02*
X022691Y037979D01*
X022501Y038137D02*
X022249Y038137D01*
X022312Y038296D02*
X022438Y038296D01*
X022438Y038454D02*
X022312Y038454D01*
X022249Y038613D02*
X022501Y038613D01*
X022690Y038771D02*
X022060Y038771D01*
X021987Y038910D02*
X022058Y038933D01*
X022125Y038967D01*
X022186Y039011D01*
X022239Y039064D01*
X022283Y039125D01*
X022317Y039192D01*
X022340Y039263D01*
X022352Y039337D01*
X022352Y039357D01*
X021893Y039357D01*
X021893Y038898D01*
X021913Y038898D01*
X021987Y038910D01*
X022047Y038930D02*
X022703Y038930D01*
X022692Y038933D02*
X022763Y038910D01*
X022837Y038898D01*
X022857Y038898D01*
X022857Y039357D01*
X022398Y039357D01*
X022398Y039337D01*
X022410Y039263D01*
X022433Y039192D01*
X022467Y039125D01*
X022511Y039064D01*
X022564Y039011D01*
X022625Y038967D01*
X022692Y038933D01*
X022857Y038930D02*
X022893Y038930D01*
X023047Y038930D02*
X023220Y038930D01*
X023220Y038771D02*
X023060Y038771D01*
X022893Y039088D02*
X022857Y039088D01*
X022857Y039247D02*
X022893Y039247D01*
X022857Y039393D02*
X022398Y039393D01*
X022398Y039413D01*
X022410Y039487D01*
X022433Y039558D01*
X022467Y039625D01*
X022511Y039686D01*
X022564Y039739D01*
X022625Y039783D01*
X022692Y039817D01*
X022763Y039840D01*
X022837Y039852D01*
X022857Y039852D01*
X022857Y039393D01*
X022857Y039405D02*
X022893Y039405D01*
X022893Y039564D02*
X022857Y039564D01*
X022857Y039722D02*
X022893Y039722D01*
X022857Y039898D02*
X022837Y039898D01*
X022763Y039910D01*
X022692Y039933D01*
X022625Y039967D01*
X022564Y040011D01*
X022511Y040064D01*
X022467Y040125D01*
X022433Y040192D01*
X022410Y040263D01*
X022398Y040337D01*
X022398Y040357D01*
X022857Y040357D01*
X022857Y039898D01*
X022857Y040039D02*
X022893Y040039D01*
X022893Y040198D02*
X022857Y040198D01*
X022857Y040356D02*
X022893Y040356D01*
X022857Y040393D02*
X022398Y040393D01*
X022398Y040413D01*
X022410Y040487D01*
X022433Y040558D01*
X022467Y040625D01*
X022511Y040686D01*
X022564Y040739D01*
X022625Y040783D01*
X022692Y040817D01*
X022763Y040840D01*
X022837Y040852D01*
X022857Y040852D01*
X022857Y040393D01*
X022857Y040515D02*
X022893Y040515D01*
X022893Y040673D02*
X022857Y040673D01*
X022857Y040832D02*
X022893Y040832D01*
X023013Y040832D02*
X023111Y040832D01*
X023079Y040990D02*
X021470Y040990D01*
X021470Y040832D02*
X021737Y040832D01*
X021857Y040832D02*
X021893Y040832D01*
X021893Y040852D02*
X021893Y040393D01*
X022352Y040393D01*
X022352Y040413D01*
X022340Y040487D01*
X022317Y040558D01*
X022283Y040625D01*
X022239Y040686D01*
X022186Y040739D01*
X022125Y040783D01*
X022058Y040817D01*
X021987Y040840D01*
X021913Y040852D01*
X021893Y040852D01*
X022013Y040832D02*
X022737Y040832D01*
X022502Y040673D02*
X022248Y040673D01*
X022331Y040515D02*
X022419Y040515D01*
X022398Y040356D02*
X022352Y040356D01*
X022352Y040357D02*
X021893Y040357D01*
X021893Y039898D01*
X021913Y039898D01*
X021987Y039910D01*
X022058Y039933D01*
X022125Y039967D01*
X022186Y040011D01*
X022239Y040064D01*
X022283Y040125D01*
X022317Y040192D01*
X022340Y040263D01*
X022352Y040337D01*
X022352Y040357D01*
X022319Y040198D02*
X022431Y040198D01*
X022537Y040039D02*
X022213Y040039D01*
X022125Y039783D02*
X022058Y039817D01*
X021987Y039840D01*
X021913Y039852D01*
X021893Y039852D01*
X021893Y039393D01*
X022352Y039393D01*
X022352Y039413D01*
X022340Y039487D01*
X022317Y039558D01*
X022283Y039625D01*
X022239Y039686D01*
X022186Y039739D01*
X022125Y039783D01*
X022202Y039722D02*
X022548Y039722D01*
X022436Y039564D02*
X022314Y039564D01*
X022352Y039405D02*
X022398Y039405D01*
X022415Y039247D02*
X022335Y039247D01*
X022256Y039088D02*
X022494Y039088D01*
X021893Y039088D02*
X021857Y039088D01*
X021857Y038930D02*
X021893Y038930D01*
X021703Y038930D02*
X021470Y038930D01*
X021470Y039088D02*
X021494Y039088D01*
X021470Y039357D02*
X021470Y039393D01*
X021857Y039393D01*
X021857Y039357D01*
X021470Y039357D01*
X021470Y039722D02*
X021548Y039722D01*
X021470Y039881D02*
X023220Y039881D01*
X023220Y039722D02*
X023202Y039722D01*
X023220Y037979D02*
X023059Y037979D01*
X023220Y037820D02*
X021381Y037820D01*
X021470Y037979D02*
X021691Y037979D01*
X021501Y038137D02*
X021470Y038137D01*
X021470Y038613D02*
X021501Y038613D01*
X021470Y038771D02*
X021690Y038771D01*
X021857Y039247D02*
X021893Y039247D01*
X021893Y039405D02*
X021857Y039405D01*
X021857Y039564D02*
X021893Y039564D01*
X021893Y039722D02*
X021857Y039722D01*
X021857Y040039D02*
X021893Y040039D01*
X021893Y040198D02*
X021857Y040198D01*
X021857Y040356D02*
X021893Y040356D01*
X021857Y040357D02*
X021470Y040357D01*
X021470Y040393D01*
X021857Y040393D01*
X021857Y040357D01*
X021857Y040515D02*
X021893Y040515D01*
X021893Y040673D02*
X021857Y040673D01*
X021502Y040673D02*
X021470Y040673D01*
X021470Y041149D02*
X023028Y041149D01*
X022976Y041307D02*
X021470Y041307D01*
X021470Y041466D02*
X022925Y041466D01*
X022873Y041624D02*
X021470Y041624D01*
X021470Y041783D02*
X022794Y041783D01*
X022713Y041941D02*
X021470Y041941D01*
X021337Y042100D02*
X022633Y042100D01*
X022552Y042258D02*
X021178Y042258D01*
X021020Y042417D02*
X022441Y042417D01*
X022326Y042575D02*
X020861Y042575D01*
X020703Y042734D02*
X022210Y042734D01*
X022086Y042892D02*
X020544Y042892D01*
X020386Y043051D02*
X021928Y043051D01*
X021769Y043209D02*
X020227Y043209D01*
X020069Y043368D02*
X021611Y043368D01*
X021393Y043526D02*
X019910Y043526D01*
X019752Y043685D02*
X021175Y043685D01*
X020927Y043843D02*
X019593Y043843D01*
X019288Y043526D02*
X013587Y043526D01*
X013429Y043368D02*
X019446Y043368D01*
X019605Y043209D02*
X018583Y043209D01*
X018814Y043051D02*
X019763Y043051D01*
X019922Y042892D02*
X018945Y042892D01*
X019010Y042734D02*
X020080Y042734D01*
X020239Y042575D02*
X019042Y042575D01*
X019042Y042417D02*
X020397Y042417D01*
X020556Y042258D02*
X019005Y042258D01*
X018939Y042100D02*
X020714Y042100D01*
X020873Y041941D02*
X018802Y041941D01*
X018554Y041783D02*
X021030Y041783D01*
X021030Y040990D02*
X015668Y040990D01*
X015826Y040832D02*
X021030Y040832D01*
X021030Y040673D02*
X019360Y040673D01*
X019518Y040515D02*
X021030Y040515D01*
X021030Y040356D02*
X019677Y040356D01*
X019835Y040198D02*
X021030Y040198D01*
X021030Y040039D02*
X019877Y040039D01*
X020112Y039881D02*
X021030Y039881D01*
X021030Y039722D02*
X020112Y039722D01*
X020112Y039564D02*
X020493Y039564D01*
X020558Y039277D02*
X020750Y039210D01*
X020558Y039277D02*
X019677Y039277D01*
X019677Y039021D02*
X020152Y039021D01*
X019677Y039021D01*
X019677Y039021D01*
X019677Y038984D01*
X019677Y038984D01*
X019677Y039021D01*
X019677Y039021D01*
X019202Y039088D02*
X017258Y039088D01*
X017258Y038930D02*
X019202Y038930D01*
X019242Y038771D02*
X017258Y038771D01*
X017258Y038613D02*
X019242Y038613D01*
X019242Y038454D02*
X017258Y038454D01*
X017258Y038296D02*
X019202Y038296D01*
X019205Y038137D02*
X017288Y038137D01*
X017298Y037979D02*
X019242Y037979D01*
X019242Y037820D02*
X017269Y037820D01*
X017525Y037662D02*
X019242Y037662D01*
X019242Y037503D02*
X017683Y037503D01*
X017842Y037345D02*
X019205Y037345D01*
X019202Y037186D02*
X018000Y037186D01*
X017258Y039247D02*
X019242Y039247D01*
X019062Y039405D02*
X017258Y039405D01*
X017258Y039564D02*
X018904Y039564D01*
X018745Y039722D02*
X017258Y039722D01*
X017258Y039881D02*
X018675Y039881D01*
X018675Y040039D02*
X015198Y040039D01*
X015223Y039881D02*
X016388Y039881D01*
X016388Y039722D02*
X015223Y039722D01*
X015178Y039564D02*
X016388Y039564D01*
X016388Y039405D02*
X015113Y039405D01*
X014965Y039247D02*
X016388Y039247D01*
X016388Y039088D02*
X014691Y039088D01*
X015132Y040198D02*
X015520Y040198D01*
X015361Y040356D02*
X015012Y040356D01*
X015682Y037503D02*
X013882Y037503D01*
X013882Y037345D02*
X014046Y037345D01*
X013955Y036077D02*
X013882Y036077D01*
X013882Y035918D02*
X014258Y035918D01*
X013882Y035760D02*
X015554Y035760D01*
X015396Y035918D02*
X014642Y035918D01*
X014944Y036077D02*
X015280Y036077D01*
X015280Y036235D02*
X015103Y036235D01*
X015170Y036394D02*
X015280Y036394D01*
X015280Y036552D02*
X015223Y036552D01*
X015223Y036711D02*
X015280Y036711D01*
X015280Y036869D02*
X015206Y036869D01*
X015141Y037028D02*
X015280Y037028D01*
X015375Y037186D02*
X015032Y037186D01*
X014854Y037345D02*
X015533Y037345D01*
X016823Y037960D02*
X016823Y037997D01*
X016823Y037960D01*
X016823Y037960D01*
X016823Y037979D02*
X016823Y037979D01*
X016823Y037997D02*
X016823Y037997D01*
X016823Y038034D01*
X016823Y038034D01*
X016823Y037997D01*
X016823Y037997D01*
X016823Y037997D01*
X017495Y042417D02*
X011735Y042417D01*
X011574Y042100D02*
X011238Y042100D01*
X011115Y042159D02*
X011005Y042159D01*
X011005Y041525D01*
X011005Y041525D01*
X011005Y041525D01*
X011005Y041075D01*
X011005Y041075D01*
X011005Y041525D01*
X011005Y041525D01*
X011005Y042159D01*
X010883Y042159D01*
X010837Y042147D01*
X010796Y042123D01*
X010792Y042119D01*
X010534Y042119D01*
X010532Y042118D01*
X010531Y042119D01*
X010219Y042119D01*
X010218Y042118D01*
X010216Y042119D01*
X010180Y042119D01*
X010341Y042280D01*
X010470Y042409D01*
X010470Y042909D01*
X010716Y043155D01*
X010849Y043155D01*
X010752Y043058D01*
X010664Y042846D01*
X010664Y042617D01*
X010752Y042405D01*
X010914Y042242D01*
X011115Y042159D01*
X011005Y042100D02*
X011005Y042100D01*
X011005Y041941D02*
X011005Y041941D01*
X011005Y041783D02*
X011005Y041783D01*
X011005Y041624D02*
X011005Y041624D01*
X011005Y041525D02*
X010928Y041525D01*
X011005Y041525D01*
X011005Y041525D01*
X011005Y041466D02*
X011005Y041466D01*
X010928Y041525D02*
X010928Y041525D01*
X011005Y041307D02*
X011005Y041307D01*
X011005Y041149D02*
X011005Y041149D01*
X011283Y041149D02*
X011642Y041149D01*
X011574Y041307D02*
X011283Y041307D01*
X011283Y041466D02*
X011574Y041466D01*
X011574Y041624D02*
X011283Y041624D01*
X011283Y041783D02*
X011574Y041783D01*
X011574Y041941D02*
X011283Y041941D01*
X010899Y042258D02*
X010319Y042258D01*
X010470Y042417D02*
X010747Y042417D01*
X010681Y042575D02*
X010470Y042575D01*
X010470Y042734D02*
X010664Y042734D01*
X010683Y042892D02*
X010470Y042892D01*
X010612Y043051D02*
X010749Y043051D01*
X010625Y043375D02*
X011500Y043375D01*
X012000Y042875D01*
X011977Y043209D02*
X012648Y043209D01*
X012627Y043368D02*
X012806Y043368D01*
X012965Y043526D02*
X012641Y043526D01*
X012641Y043685D02*
X013123Y043685D01*
X013282Y043843D02*
X012641Y043843D01*
X012641Y044002D02*
X020616Y044002D01*
X020261Y044160D02*
X012641Y044160D01*
X012641Y044319D02*
X019773Y044319D01*
X017954Y043209D02*
X013270Y043209D01*
X013112Y043051D02*
X017723Y043051D01*
X017593Y042892D02*
X012953Y042892D01*
X012313Y040356D02*
X011862Y040356D01*
X011983Y040198D02*
X012193Y040198D01*
X012127Y040039D02*
X012048Y040039D01*
X012073Y039881D02*
X012102Y039881D01*
X012102Y039722D02*
X012073Y039722D01*
X012029Y039564D02*
X012146Y039564D01*
X012212Y039405D02*
X011963Y039405D01*
X011815Y039247D02*
X012360Y039247D01*
X012088Y038250D02*
X012088Y031928D01*
X011868Y033224D02*
X004285Y033224D01*
X004312Y033382D02*
X011868Y033382D01*
X011868Y033541D02*
X004279Y033541D01*
X004169Y033699D02*
X011868Y033699D01*
X011868Y033858D02*
X002530Y033858D01*
X002530Y034016D02*
X002616Y034016D01*
X002581Y033699D02*
X002530Y033699D01*
X003134Y034016D02*
X003616Y034016D01*
X003485Y034175D02*
X003265Y034175D01*
X003312Y034333D02*
X003438Y034333D01*
X003450Y034492D02*
X003300Y034492D01*
X003218Y034650D02*
X003532Y034650D01*
X004032Y034967D02*
X006223Y034967D01*
X006157Y035126D02*
X004243Y035126D01*
X004310Y035284D02*
X006117Y035284D01*
X006117Y035443D02*
X004312Y035443D01*
X004254Y035601D02*
X006147Y035601D01*
X006212Y035760D02*
X004088Y035760D01*
X004194Y036077D02*
X006560Y036077D01*
X006339Y035918D02*
X002530Y035918D01*
X002530Y035760D02*
X002662Y035760D01*
X002556Y036077D02*
X002530Y036077D01*
X002530Y036711D02*
X002593Y036711D01*
X002530Y036869D02*
X010544Y036869D01*
X010527Y036711D02*
X004157Y036711D01*
X004275Y036552D02*
X010527Y036552D01*
X010580Y036394D02*
X004312Y036394D01*
X004290Y036235D02*
X010647Y036235D01*
X010806Y036077D02*
X007221Y036077D01*
X007443Y035918D02*
X011108Y035918D01*
X010609Y037028D02*
X004145Y037028D01*
X004270Y037186D02*
X010718Y037186D01*
X010896Y037345D02*
X004312Y037345D01*
X004295Y037503D02*
X011868Y037503D01*
X011868Y037345D02*
X011704Y037345D01*
X011583Y037662D02*
X004206Y037662D01*
X004059Y037979D02*
X011363Y037979D01*
X011315Y038137D02*
X004249Y038137D01*
X004312Y038296D02*
X011315Y038296D01*
X011335Y038454D02*
X004312Y038454D01*
X004249Y038613D02*
X011401Y038613D01*
X011515Y038771D02*
X004060Y038771D01*
X003962Y038938D02*
X003788Y038938D01*
X003628Y039005D01*
X003505Y039128D01*
X003438Y039288D01*
X003438Y039462D01*
X003505Y039622D01*
X003628Y039745D01*
X003788Y039812D01*
X003962Y039812D01*
X004122Y039745D01*
X004245Y039622D01*
X004312Y039462D01*
X004312Y039288D01*
X004245Y039128D01*
X004122Y039005D01*
X003962Y038938D01*
X004206Y039088D02*
X011059Y039088D01*
X010785Y039247D02*
X009801Y039247D01*
X009850Y039405D02*
X010637Y039405D01*
X010572Y039564D02*
X009850Y039564D01*
X009850Y039722D02*
X010527Y039722D01*
X010527Y039881D02*
X009850Y039881D01*
X009789Y040039D02*
X010552Y040039D01*
X010618Y040198D02*
X009810Y040198D01*
X009810Y040356D02*
X010738Y040356D01*
X010078Y040515D02*
X009951Y040515D01*
X009745Y040620D02*
X009500Y040375D01*
X009376Y040375D01*
X009375Y040374D01*
X009525Y040832D02*
X002639Y040832D01*
X002671Y040990D02*
X009525Y040990D01*
X009507Y041149D02*
X009108Y041149D01*
X009176Y041307D02*
X009507Y041307D01*
X009507Y041466D02*
X009176Y041466D01*
X009176Y041624D02*
X009507Y041624D01*
X009507Y041783D02*
X009176Y041783D01*
X009176Y041941D02*
X009507Y041941D01*
X009538Y042100D02*
X009176Y042100D01*
X009015Y042417D02*
X008255Y042417D01*
X008255Y042575D02*
X008949Y042575D01*
X008932Y042734D02*
X008223Y042734D01*
X008157Y042892D02*
X008951Y042892D01*
X009017Y043051D02*
X008027Y043051D01*
X007796Y043209D02*
X009171Y043209D01*
X009162Y043368D02*
X010306Y043368D01*
X010465Y043526D02*
X009176Y043526D01*
X009176Y043685D02*
X011574Y043685D01*
X011574Y043843D02*
X009176Y043843D01*
X009176Y044002D02*
X011574Y044002D01*
X011574Y044160D02*
X009176Y044160D01*
X009176Y044319D02*
X011574Y044319D01*
X010625Y043375D02*
X010250Y043000D01*
X010250Y042500D01*
X009745Y041995D01*
X009745Y041525D01*
X009745Y040620D01*
X009423Y039564D02*
X009327Y039564D01*
X009327Y039405D02*
X009423Y039405D01*
X009423Y039247D02*
X009327Y039247D01*
X008949Y039247D02*
X004295Y039247D01*
X004312Y039405D02*
X008900Y039405D01*
X008900Y039564D02*
X004270Y039564D01*
X004146Y039722D02*
X008900Y039722D01*
X008900Y039881D02*
X002530Y039881D01*
X002536Y040039D02*
X002593Y040039D01*
X002604Y039722D02*
X002530Y039722D01*
X003146Y039722D02*
X003604Y039722D01*
X003480Y039564D02*
X003270Y039564D01*
X003312Y039405D02*
X003438Y039405D01*
X003455Y039247D02*
X003295Y039247D01*
X003206Y039088D02*
X003544Y039088D01*
X003788Y039938D02*
X003628Y040005D01*
X003505Y040128D01*
X003438Y040288D01*
X003438Y040462D01*
X003505Y040622D01*
X003628Y040745D01*
X003788Y040812D01*
X003962Y040812D01*
X004122Y040745D01*
X004245Y040622D01*
X004312Y040462D01*
X004312Y040288D01*
X004245Y040128D01*
X004122Y040005D01*
X003962Y039938D01*
X003788Y039938D01*
X003593Y040039D02*
X003157Y040039D01*
X003274Y040198D02*
X003476Y040198D01*
X003438Y040356D02*
X003312Y040356D01*
X003290Y040515D02*
X003460Y040515D01*
X003555Y040673D02*
X003195Y040673D01*
X002722Y041149D02*
X008177Y041149D01*
X008109Y041307D02*
X002774Y041307D01*
X002825Y041466D02*
X008109Y041466D01*
X008109Y041624D02*
X002877Y041624D01*
X002956Y041783D02*
X007196Y041783D01*
X006948Y041941D02*
X003037Y041941D01*
X003117Y042100D02*
X006811Y042100D01*
X006745Y042258D02*
X003198Y042258D01*
X003309Y042417D02*
X006708Y042417D01*
X006708Y042575D02*
X003424Y042575D01*
X003540Y042734D02*
X006740Y042734D01*
X006805Y042892D02*
X003664Y042892D01*
X003822Y043051D02*
X006936Y043051D01*
X007167Y043209D02*
X003981Y043209D01*
X004139Y043368D02*
X008123Y043368D01*
X008109Y043526D02*
X004357Y043526D01*
X004575Y043685D02*
X008109Y043685D01*
X008109Y043843D02*
X004823Y043843D01*
X005134Y044002D02*
X008109Y044002D01*
X008109Y044160D02*
X005489Y044160D01*
X005977Y044319D02*
X008109Y044319D01*
X008109Y041941D02*
X008015Y041941D01*
X008109Y041783D02*
X007766Y041783D01*
X008940Y040673D02*
X004195Y040673D01*
X004290Y040515D02*
X008940Y040515D01*
X008940Y040356D02*
X004312Y040356D01*
X004274Y040198D02*
X008940Y040198D01*
X008961Y040039D02*
X004157Y040039D01*
X002691Y037979D02*
X002530Y037979D01*
X002530Y037820D02*
X011429Y037820D01*
X013172Y035918D02*
X013442Y035918D01*
X013426Y036077D02*
X013442Y036077D01*
X011868Y034333D02*
X004312Y034333D01*
X004265Y034175D02*
X011868Y034175D01*
X011868Y034016D02*
X004134Y034016D01*
X003581Y033699D02*
X003169Y033699D01*
X003279Y033541D02*
X003471Y033541D01*
X003438Y033382D02*
X003312Y033382D01*
X003285Y033224D02*
X003465Y033224D01*
X003567Y033065D02*
X003183Y033065D01*
X002746Y031956D02*
X002530Y031956D01*
X002530Y031797D02*
X002752Y031797D01*
X002619Y029737D02*
X002530Y029737D01*
X002530Y028944D02*
X002774Y028944D01*
X002725Y028786D02*
X002530Y028786D01*
X002530Y027993D02*
X002656Y027993D01*
X002530Y027835D02*
X006970Y027835D01*
X006820Y027676D02*
X004192Y027676D01*
X004289Y027518D02*
X006754Y027518D01*
X006708Y027359D02*
X004312Y027359D01*
X004276Y027201D02*
X006708Y027201D01*
X006731Y027042D02*
X004160Y027042D01*
X004143Y026725D02*
X006914Y026725D01*
X006796Y026884D02*
X002530Y026884D01*
X002530Y027042D02*
X002590Y027042D01*
X002607Y026725D02*
X002530Y026725D01*
X002530Y027676D02*
X002558Y027676D01*
X004053Y025774D02*
X011868Y025774D01*
X011868Y025616D02*
X004248Y025616D01*
X004312Y025457D02*
X011868Y025457D01*
X011868Y025299D02*
X011573Y025299D01*
X011828Y025140D02*
X011868Y025140D01*
X011027Y025299D02*
X004312Y025299D01*
X004251Y025140D02*
X010772Y025140D01*
X010632Y024982D02*
X004067Y024982D01*
X002547Y024665D02*
X002530Y024665D01*
X002530Y024031D02*
X002602Y024031D01*
X002530Y021970D02*
X002711Y021970D01*
X002787Y021812D02*
X002530Y021812D01*
X002530Y021653D02*
X002535Y021653D01*
X002530Y021019D02*
X002613Y021019D01*
X002530Y020861D02*
X006642Y020861D01*
X006737Y020900D02*
X006452Y020782D01*
X006235Y020564D01*
X006117Y020280D01*
X006117Y019972D01*
X006235Y019688D01*
X006452Y019470D01*
X006737Y019352D01*
X007045Y019352D01*
X007329Y019470D01*
X007547Y019688D01*
X007664Y019972D01*
X007664Y020280D01*
X007547Y020564D01*
X007329Y020782D01*
X007045Y020900D01*
X006737Y020900D01*
X006373Y020702D02*
X004166Y020702D01*
X004278Y020544D02*
X006226Y020544D01*
X006161Y020385D02*
X004312Y020385D01*
X004286Y020227D02*
X006117Y020227D01*
X006117Y020068D02*
X004186Y020068D01*
X004109Y019751D02*
X006209Y019751D01*
X006143Y019910D02*
X002530Y019910D01*
X002530Y020068D02*
X002564Y020068D01*
X002530Y019751D02*
X002641Y019751D01*
X002739Y018959D02*
X002530Y018959D01*
X002530Y018800D02*
X002659Y018800D01*
X002857Y018800D02*
X002893Y018800D01*
X002893Y018642D02*
X002857Y018642D01*
X002857Y018483D02*
X002893Y018483D01*
X002857Y018393D02*
X002857Y018357D01*
X002530Y018357D01*
X002530Y018393D01*
X002857Y018393D01*
X002857Y018325D02*
X002893Y018325D01*
X002893Y018166D02*
X002857Y018166D01*
X002857Y018008D02*
X002893Y018008D01*
X002530Y017691D02*
X006941Y017691D01*
X006865Y017532D02*
X002530Y017532D01*
X002530Y017374D02*
X006823Y017374D01*
X006786Y017215D02*
X002530Y017215D01*
X002530Y017057D02*
X006750Y017057D01*
X006540Y019434D02*
X004312Y019434D01*
X004307Y019276D02*
X009056Y019276D01*
X008431Y019117D02*
X004235Y019117D01*
X004258Y019593D02*
X006330Y019593D01*
X007242Y019434D02*
X018508Y019434D01*
X018299Y019593D02*
X007451Y019593D01*
X007573Y019751D02*
X018177Y019751D01*
X018111Y019910D02*
X007639Y019910D01*
X007664Y020068D02*
X018086Y020068D01*
X018086Y020227D02*
X007664Y020227D01*
X007621Y020385D02*
X016971Y020385D01*
X016813Y020544D02*
X007555Y020544D01*
X007409Y020702D02*
X011026Y020702D01*
X010772Y020861D02*
X007139Y020861D01*
X004312Y021336D02*
X010527Y021336D01*
X010527Y021495D02*
X004298Y021495D01*
X004215Y021653D02*
X010558Y021653D01*
X010623Y021812D02*
X003963Y021812D01*
X004039Y021970D02*
X010752Y021970D01*
X010978Y022129D02*
X004246Y022129D01*
X004266Y021178D02*
X010566Y021178D01*
X010632Y021019D02*
X004137Y021019D01*
X003739Y018959D02*
X003011Y018959D01*
X002584Y020702D02*
X002530Y020702D01*
X004171Y030054D02*
X011868Y030054D01*
X011868Y030212D02*
X004280Y030212D01*
X004312Y030371D02*
X011868Y030371D01*
X011868Y030529D02*
X004284Y030529D01*
X002532Y034650D02*
X002530Y034650D01*
X002530Y034809D02*
X002780Y034809D01*
X002718Y034967D02*
X002530Y034967D01*
X002530Y037028D02*
X002605Y037028D01*
X002544Y037662D02*
X002530Y037662D01*
X009847Y043209D02*
X010148Y043209D01*
X010030Y043051D02*
X010001Y043051D01*
X016897Y033699D02*
X016934Y033699D01*
X016934Y033541D02*
X016897Y033541D01*
X017249Y033541D02*
X017308Y033541D01*
X017805Y031639D02*
X017945Y031639D01*
X017911Y031480D02*
X017805Y031480D01*
X017805Y031322D02*
X017911Y031322D01*
X017768Y031163D02*
X018651Y031163D01*
X018809Y031005D02*
X017610Y031005D01*
X017451Y030846D02*
X018551Y030846D01*
X018587Y030852D02*
X018513Y030840D01*
X018442Y030817D01*
X018375Y030783D01*
X018314Y030739D01*
X018261Y030686D01*
X018217Y030625D01*
X018183Y030558D01*
X018160Y030487D01*
X018148Y030413D01*
X018148Y030393D01*
X018607Y030393D01*
X018607Y030852D01*
X018587Y030852D01*
X018607Y030846D02*
X018643Y030846D01*
X018699Y030846D02*
X018905Y030846D01*
X018643Y030688D02*
X018607Y030688D01*
X018607Y030529D02*
X018643Y030529D01*
X018607Y030371D02*
X018062Y030371D01*
X018148Y030357D02*
X018148Y030337D01*
X018160Y030263D01*
X018183Y030192D01*
X018217Y030125D01*
X018261Y030064D01*
X018314Y030011D01*
X018375Y029967D01*
X018442Y029933D01*
X018513Y029910D01*
X018587Y029898D01*
X018607Y029898D01*
X018607Y030357D01*
X018148Y030357D01*
X018177Y030212D02*
X018062Y030212D01*
X018062Y030054D02*
X018272Y030054D01*
X018607Y030054D02*
X018643Y030054D01*
X018643Y030212D02*
X018607Y030212D01*
X018905Y029895D02*
X017095Y029895D01*
X017095Y030054D02*
X017188Y030054D01*
X017188Y030212D02*
X017095Y030212D01*
X017095Y030371D02*
X017188Y030371D01*
X017188Y030529D02*
X017134Y030529D01*
X017200Y029737D02*
X018905Y029737D01*
X018905Y029578D02*
X017358Y029578D01*
X017517Y029420D02*
X018905Y029420D01*
X018928Y029261D02*
X017675Y029261D01*
X017834Y029103D02*
X019086Y029103D01*
X019245Y028944D02*
X017992Y028944D01*
X018151Y028786D02*
X019403Y028786D01*
X018785Y028152D02*
X020287Y028152D01*
X020228Y028310D02*
X018626Y028310D01*
X018468Y028469D02*
X020234Y028469D01*
X020315Y028627D02*
X018309Y028627D01*
X018943Y027993D02*
X020508Y027993D01*
X021057Y027676D02*
X021558Y027676D01*
X021505Y027622D02*
X021438Y027462D01*
X021438Y027288D01*
X021505Y027128D01*
X021628Y027005D01*
X021788Y026938D01*
X021962Y026938D01*
X022122Y027005D01*
X022245Y027128D01*
X022312Y027288D01*
X022312Y027462D01*
X022245Y027622D01*
X022122Y027745D01*
X021962Y027812D01*
X021788Y027812D01*
X021628Y027745D01*
X021505Y027622D01*
X021461Y027518D02*
X021062Y027518D01*
X021062Y027359D02*
X021438Y027359D01*
X021474Y027201D02*
X021062Y027201D01*
X021047Y027042D02*
X021590Y027042D01*
X021607Y026725D02*
X021461Y026725D01*
X021470Y026567D02*
X021481Y026567D01*
X021470Y026091D02*
X021541Y026091D01*
X022209Y026091D02*
X022541Y026091D01*
X022454Y026250D02*
X022296Y026250D01*
X022312Y026408D02*
X022438Y026408D01*
X022481Y026567D02*
X022269Y026567D01*
X022143Y026725D02*
X022607Y026725D01*
X022590Y027042D02*
X022160Y027042D01*
X022276Y027201D02*
X022474Y027201D01*
X022438Y027359D02*
X022312Y027359D01*
X022289Y027518D02*
X022461Y027518D01*
X022558Y027676D02*
X022192Y027676D01*
X022094Y027993D02*
X022656Y027993D01*
X022495Y028152D02*
X022255Y028152D01*
X022312Y028310D02*
X022438Y028310D01*
X022441Y028469D02*
X022309Y028469D01*
X022241Y028627D02*
X022509Y028627D01*
X023025Y028786D02*
X023220Y028786D01*
X023220Y028944D02*
X022976Y028944D01*
X021875Y030375D02*
X021375Y029875D01*
X021548Y029737D02*
X021619Y029737D01*
X021486Y029578D02*
X020971Y029578D01*
X021022Y029420D02*
X021438Y029420D01*
X021449Y029261D02*
X021008Y029261D01*
X020915Y029103D02*
X021291Y029103D01*
X020625Y030375D02*
X020625Y030625D01*
X020125Y031125D01*
X020019Y031956D02*
X019970Y031956D01*
X019970Y032114D02*
X020324Y032114D01*
X020237Y032273D02*
X019970Y032273D01*
X019970Y032431D02*
X020228Y032431D01*
X020284Y032590D02*
X019970Y032590D01*
X019938Y032748D02*
X020487Y032748D01*
X020763Y032748D02*
X020905Y032748D01*
X020905Y032907D02*
X019780Y032907D01*
X019621Y033065D02*
X020905Y033065D01*
X021595Y032907D02*
X023220Y032907D01*
X023220Y033065D02*
X023183Y033065D01*
X023220Y032748D02*
X023116Y032748D01*
X022634Y032748D02*
X022116Y032748D01*
X022259Y032590D02*
X022491Y032590D01*
X022438Y032431D02*
X022312Y032431D01*
X022305Y032273D02*
X022445Y032273D01*
X022518Y032114D02*
X022232Y032114D01*
X021634Y032748D02*
X021595Y032748D01*
X021595Y033858D02*
X023220Y033858D01*
X023220Y034016D02*
X023134Y034016D01*
X023169Y033699D02*
X023220Y033699D01*
X022616Y034016D02*
X022134Y034016D01*
X022265Y034175D02*
X022485Y034175D01*
X022438Y034333D02*
X022312Y034333D01*
X022300Y034492D02*
X022450Y034492D01*
X022532Y034650D02*
X022218Y034650D01*
X021970Y034809D02*
X022780Y034809D01*
X022718Y034967D02*
X022032Y034967D01*
X021962Y034938D02*
X022122Y035005D01*
X022245Y035128D01*
X022312Y035288D01*
X022312Y035462D01*
X022245Y035622D01*
X022122Y035745D01*
X021962Y035812D01*
X021788Y035812D01*
X021628Y035745D01*
X021505Y035622D01*
X021438Y035462D01*
X021438Y035288D01*
X021505Y035128D01*
X021628Y035005D01*
X021788Y034938D01*
X021962Y034938D01*
X021780Y034809D02*
X020128Y034809D01*
X019969Y034967D02*
X021718Y034967D01*
X021507Y035126D02*
X019845Y035126D01*
X019845Y035284D02*
X021440Y035284D01*
X021438Y035443D02*
X019845Y035443D01*
X019845Y035601D02*
X021496Y035601D01*
X021662Y035760D02*
X019845Y035760D01*
X019768Y035918D02*
X023220Y035918D01*
X023220Y035760D02*
X023088Y035760D01*
X023194Y036077D02*
X023220Y036077D01*
X022662Y035760D02*
X022088Y035760D01*
X022254Y035601D02*
X022496Y035601D01*
X022438Y035443D02*
X022312Y035443D01*
X022310Y035284D02*
X022440Y035284D01*
X022507Y035126D02*
X022243Y035126D01*
X022194Y036077D02*
X022556Y036077D01*
X022460Y036235D02*
X022290Y036235D01*
X022312Y036394D02*
X022438Y036394D01*
X022475Y036552D02*
X022275Y036552D01*
X022157Y036711D02*
X022593Y036711D01*
X023206Y037662D02*
X023220Y037662D01*
X023220Y034967D02*
X023032Y034967D01*
X022970Y034809D02*
X023220Y034809D01*
X023218Y034650D02*
X023220Y034650D01*
X022581Y033699D02*
X022169Y033699D01*
X022279Y033541D02*
X022471Y033541D01*
X022438Y033382D02*
X022312Y033382D01*
X022285Y033224D02*
X022465Y033224D01*
X022567Y033065D02*
X022183Y033065D01*
X021616Y034016D02*
X021595Y034016D01*
X021438Y034333D02*
X021353Y034333D01*
X021450Y034492D02*
X021195Y034492D01*
X021036Y034650D02*
X021532Y034650D01*
X021556Y036077D02*
X019610Y036077D01*
X020732Y036869D02*
X020768Y036869D01*
X020768Y037028D02*
X020732Y037028D01*
X020732Y037186D02*
X020768Y037186D01*
X020768Y037345D02*
X020732Y037345D01*
X021223Y037662D02*
X021544Y037662D01*
X021030Y039564D02*
X021007Y039564D01*
X021470Y040039D02*
X021537Y040039D01*
X019677Y038253D02*
X019677Y038253D01*
X019474Y032590D02*
X019407Y032590D01*
X018263Y030688D02*
X018062Y030688D01*
X018062Y030529D02*
X018174Y030529D01*
X017585Y026375D02*
X017585Y025915D01*
X018000Y025500D01*
X018280Y025500D02*
X019875Y025500D01*
X020125Y025750D01*
X020250Y025250D02*
X020250Y024875D01*
X020250Y024585D01*
X020250Y024875D02*
X020125Y025000D01*
X018280Y025000D01*
X018889Y024665D02*
X018998Y024665D01*
X018998Y024506D02*
X018895Y024506D01*
X018893Y024348D02*
X018998Y024348D01*
X019038Y024189D02*
X018844Y024189D01*
X019393Y024566D02*
X019393Y024603D01*
X019752Y024603D01*
X019752Y024780D01*
X019893Y024780D01*
X019893Y024330D01*
X019973Y024250D01*
X019893Y024170D01*
X019893Y024135D01*
X019712Y024135D01*
X019712Y024190D01*
X019679Y024222D01*
X019682Y024224D01*
X019716Y024258D01*
X019740Y024299D01*
X019752Y024344D01*
X019752Y024566D01*
X019393Y024566D01*
X019752Y024506D02*
X019893Y024506D01*
X019893Y024348D02*
X019752Y024348D01*
X019712Y024189D02*
X019912Y024189D01*
X019893Y024665D02*
X019752Y024665D01*
X018982Y021970D02*
X021030Y021970D01*
X021030Y021812D02*
X018982Y021812D01*
X018982Y021653D02*
X021030Y021653D01*
X021030Y021495D02*
X018982Y021495D01*
X018611Y020861D02*
X018504Y020861D01*
X018195Y020544D02*
X018187Y020544D01*
X018129Y020385D02*
X018029Y020385D01*
X017460Y023000D02*
X017460Y023625D01*
X015185Y023555D02*
X014201Y023555D01*
X014335Y023397D02*
X015185Y023397D01*
X015185Y023238D02*
X014401Y023238D01*
X014435Y023080D02*
X015185Y023080D01*
X015185Y022921D02*
X014435Y022921D01*
X014401Y022763D02*
X015185Y022763D01*
X015185Y022604D02*
X014335Y022604D01*
X014201Y022446D02*
X015185Y022446D01*
X013922Y025140D02*
X013882Y025140D01*
X016694Y019276D02*
X020589Y019276D01*
X020375Y018750D02*
X020375Y018749D01*
X020327Y017849D02*
X020423Y017849D01*
X020423Y017691D02*
X020327Y017691D01*
X020842Y017691D02*
X023220Y017691D01*
X023220Y017849D02*
X020850Y017849D01*
X021857Y018008D02*
X021893Y018008D01*
X021893Y017898D02*
X021913Y017898D01*
X021987Y017910D01*
X022058Y017933D01*
X022125Y017967D01*
X022186Y018011D01*
X022239Y018064D01*
X022283Y018125D01*
X022317Y018192D01*
X022340Y018263D01*
X022352Y018337D01*
X022352Y018357D01*
X021893Y018357D01*
X021893Y017898D01*
X021893Y018166D02*
X021857Y018166D01*
X021857Y018325D02*
X021893Y018325D01*
X021893Y018483D02*
X021857Y018483D01*
X021857Y018642D02*
X021893Y018642D01*
X022091Y018800D02*
X022452Y018800D01*
X022398Y018642D02*
X022271Y018642D01*
X022341Y018483D02*
X022398Y018483D01*
X022398Y018325D02*
X022350Y018325D01*
X022304Y018166D02*
X022398Y018166D01*
X022411Y018008D02*
X022180Y018008D01*
X022857Y018008D02*
X022893Y018008D01*
X022893Y018166D02*
X022857Y018166D01*
X022857Y018325D02*
X022893Y018325D01*
X022893Y018357D02*
X022893Y018393D01*
X023220Y018393D01*
X023220Y018357D01*
X022893Y018357D01*
X022893Y018483D02*
X022857Y018483D01*
X022857Y018642D02*
X022893Y018642D01*
X022893Y018800D02*
X022857Y018800D01*
X023011Y018959D02*
X023220Y018959D01*
X022515Y019117D02*
X022235Y019117D01*
X022215Y021653D02*
X022535Y021653D01*
X023197Y023080D02*
X023220Y023080D01*
X023220Y024982D02*
X023067Y024982D01*
X023143Y026725D02*
X023220Y026725D01*
X023122Y031005D02*
X023220Y031102D01*
X023220Y031797D02*
X022998Y031797D01*
X023004Y031956D02*
X023220Y031956D01*
D25*
X020750Y037125D03*
X020750Y038500D03*
X018000Y034375D03*
X016750Y034250D03*
X016750Y033500D03*
X016750Y034875D03*
X016750Y035500D03*
X015000Y035500D03*
X015000Y034875D03*
X015000Y034250D03*
X015000Y033500D03*
X014072Y031928D03*
X013322Y031928D03*
X013250Y033500D03*
X013250Y034250D03*
X013250Y034875D03*
X013250Y035500D03*
X012500Y035500D03*
X012500Y034875D03*
X012500Y034250D03*
X012500Y033500D03*
X011625Y033500D03*
X011625Y034250D03*
X011625Y034875D03*
X011625Y035500D03*
X010625Y035500D03*
X010625Y034875D03*
X010625Y034250D03*
X010625Y033500D03*
X012088Y029500D03*
X013662Y029500D03*
X016875Y025375D03*
X017625Y024500D03*
X020125Y026250D03*
X020500Y025875D03*
X015000Y038375D03*
X013875Y043250D03*
X011375Y041500D03*
D26*
X018000Y025500D02*
X018280Y025500D01*
X017000Y024875D02*
X017000Y023210D01*
X016790Y023000D01*
X017460Y023000D02*
X017460Y022125D01*
X017460Y021250D01*
X017125Y020875D02*
X017250Y020750D01*
X017750Y020750D01*
X017875Y020875D01*
X017875Y022302D01*
X018323Y022750D01*
X018323Y021750D02*
X018323Y020948D01*
X017875Y020500D01*
X017125Y020500D01*
X016790Y020835D01*
X016790Y021250D01*
X016000Y021250D01*
X015375Y021875D01*
X015375Y024375D01*
X015500Y024500D01*
X016220Y024500D01*
X016220Y024000D02*
X016220Y022280D01*
X016375Y022125D01*
X016790Y022125D01*
X016790Y021960D01*
X017125Y021625D01*
X017125Y020875D01*
X017000Y024875D02*
X016875Y025000D01*
X016220Y025000D01*
D27*
X019218Y039532D02*
X018875Y039875D01*
X018875Y040125D01*
X018750Y040250D01*
X015750Y040250D01*
X015375Y040625D01*
X010250Y040625D01*
X010060Y040815D01*
X010060Y041525D01*
X010375Y041525D02*
X010375Y041000D01*
X010500Y040875D01*
X015500Y040875D01*
X015875Y040500D01*
X019250Y040500D01*
X019677Y040073D01*
X019677Y039788D01*
X019677Y039532D02*
X019218Y039532D01*
M02*
