G75*
G70*
%OFA0B0*%
%FSLAX24Y24*%
%IPPOS*%
%LPD*%
%AMOC8*
5,1,8,0,0,1.08239X$1,22.5*
%
%ADD10C,0.0040*%
%ADD11R,0.0295X0.0571*%
%ADD12R,0.0571X0.0295*%
%ADD13C,0.0050*%
%ADD14C,0.0079*%
%ADD15C,0.0047*%
%ADD16C,0.0000*%
%ADD17C,0.0060*%
%ADD18R,0.0160X0.0340*%
%ADD19R,0.0200X0.0200*%
D10*
X010216Y021170D02*
X010369Y021170D01*
X010446Y021246D01*
X010446Y021323D01*
X010369Y021400D01*
X010139Y021400D01*
X010139Y021246D01*
X010216Y021170D01*
X010139Y021400D02*
X010293Y021553D01*
X010446Y021630D01*
X011157Y022705D02*
X011157Y023165D01*
X010926Y022935D01*
X011233Y022935D01*
X010485Y024359D02*
X010178Y024359D01*
X010485Y024359D01*
X010332Y024359D02*
X010332Y024819D01*
X010178Y024666D01*
X010332Y024819D01*
X010332Y024359D01*
X012139Y027895D02*
X012139Y028355D01*
X012369Y028355D01*
X012446Y028279D01*
X012446Y028125D01*
X012369Y028048D01*
X012139Y028048D01*
X012292Y028048D02*
X012446Y027895D01*
X012599Y027895D02*
X012906Y027895D01*
X012753Y027895D02*
X012753Y028355D01*
X012599Y028202D01*
X013060Y028279D02*
X013060Y027972D01*
X013367Y028279D01*
X013367Y027972D01*
X013290Y027895D01*
X013136Y027895D01*
X013060Y027972D01*
X013060Y028279D02*
X013136Y028355D01*
X013290Y028355D01*
X013367Y028279D01*
X012836Y031145D02*
X012682Y031145D01*
X012605Y031222D01*
X012452Y031222D02*
X012452Y031605D01*
X012605Y031529D02*
X012682Y031605D01*
X012836Y031605D01*
X012912Y031529D01*
X012912Y031452D01*
X012836Y031375D01*
X012912Y031298D01*
X012912Y031222D01*
X012836Y031145D01*
X012836Y031375D02*
X012759Y031375D01*
X012452Y031222D02*
X012375Y031145D01*
X012222Y031145D01*
X012145Y031222D01*
X012145Y031605D01*
X010369Y036420D02*
X010446Y036496D01*
X010446Y036573D01*
X010369Y036650D01*
X010139Y036650D01*
X010139Y036496D01*
X010216Y036420D01*
X010369Y036420D01*
X010139Y036650D02*
X010293Y036803D01*
X010446Y036880D01*
X011157Y037955D02*
X011157Y038415D01*
X010926Y038185D01*
X011233Y038185D01*
X010485Y039609D02*
X010178Y039609D01*
X010485Y039609D01*
X010332Y039609D02*
X010332Y040069D01*
X010178Y039916D01*
X010332Y040069D01*
X010332Y039609D01*
X013615Y042725D02*
X013615Y043025D01*
X014135Y043025D02*
X014135Y042735D01*
X014770Y042722D02*
X014847Y042645D01*
X015000Y042645D01*
X015077Y042722D01*
X015230Y042722D02*
X015307Y042645D01*
X015461Y042645D01*
X015537Y042722D01*
X015537Y042798D01*
X015461Y042875D01*
X015384Y042875D01*
X015461Y042875D02*
X015537Y042952D01*
X015537Y043029D01*
X015461Y043105D01*
X015307Y043105D01*
X015230Y043029D01*
X015077Y043029D02*
X015000Y043105D01*
X014847Y043105D01*
X014770Y043029D01*
X014770Y042722D01*
X015452Y040108D02*
X015606Y040108D01*
X015682Y040032D01*
X015682Y039955D01*
X015606Y039878D01*
X015682Y039801D01*
X015682Y039725D01*
X015606Y039648D01*
X015452Y039648D01*
X015375Y039725D01*
X015529Y039878D02*
X015606Y039878D01*
X015452Y040108D02*
X015375Y040032D01*
X014895Y038415D02*
X014588Y038415D01*
X014588Y038185D01*
X014741Y038262D01*
X014818Y038262D01*
X014895Y038185D01*
X014895Y038032D01*
X014818Y037955D01*
X014665Y037955D01*
X014588Y038032D01*
X015373Y036919D02*
X015297Y036843D01*
X015297Y036766D01*
X015373Y036689D01*
X015527Y036689D01*
X015604Y036612D01*
X015604Y036536D01*
X015527Y036459D01*
X015373Y036459D01*
X015297Y036536D01*
X015297Y036612D01*
X015373Y036689D01*
X015527Y036689D02*
X015604Y036766D01*
X015604Y036843D01*
X015527Y036919D01*
X015373Y036919D01*
X018270Y031480D02*
X018270Y031097D01*
X018347Y031020D01*
X018500Y031020D01*
X018577Y031097D01*
X018577Y031480D01*
X018730Y031327D02*
X018884Y031480D01*
X018884Y031020D01*
X019037Y031020D02*
X018730Y031020D01*
X018850Y029260D02*
X019140Y029260D01*
X019150Y028740D02*
X018850Y028740D01*
X018750Y028480D02*
X018597Y028480D01*
X018520Y028404D01*
X018520Y028097D01*
X018597Y028020D01*
X018750Y028020D01*
X018827Y028097D01*
X018980Y028020D02*
X019287Y028327D01*
X019287Y028404D01*
X019211Y028480D01*
X019057Y028480D01*
X018980Y028404D01*
X018827Y028404D02*
X018750Y028480D01*
X018980Y028020D02*
X019287Y028020D01*
X015682Y024782D02*
X015682Y024705D01*
X015606Y024628D01*
X015682Y024551D01*
X015682Y024475D01*
X015606Y024398D01*
X015452Y024398D01*
X015375Y024475D01*
X015529Y024628D02*
X015606Y024628D01*
X015682Y024782D02*
X015606Y024858D01*
X015452Y024858D01*
X015375Y024782D01*
X014895Y023165D02*
X014588Y023165D01*
X014588Y022935D01*
X014741Y023012D01*
X014818Y023012D01*
X014895Y022935D01*
X014895Y022782D01*
X014818Y022705D01*
X014665Y022705D01*
X014588Y022782D01*
X015373Y021669D02*
X015297Y021593D01*
X015297Y021516D01*
X015373Y021439D01*
X015527Y021439D01*
X015604Y021362D01*
X015604Y021286D01*
X015527Y021209D01*
X015373Y021209D01*
X015297Y021286D01*
X015297Y021362D01*
X015373Y021439D01*
X015527Y021439D02*
X015604Y021516D01*
X015604Y021593D01*
X015527Y021669D01*
X015373Y021669D01*
X022145Y041395D02*
X022145Y041855D01*
X022375Y041855D01*
X022452Y041779D01*
X022452Y041625D01*
X022375Y041548D01*
X022145Y041548D01*
X022605Y041472D02*
X022682Y041395D01*
X022836Y041395D01*
X022912Y041472D01*
X022912Y041779D01*
X022836Y041855D01*
X022682Y041855D01*
X022605Y041779D01*
X022605Y041702D01*
X022682Y041625D01*
X022912Y041625D01*
X003912Y041548D02*
X003912Y041472D01*
X003836Y041395D01*
X003682Y041395D01*
X003605Y041472D01*
X003605Y041548D01*
X003682Y041625D01*
X003836Y041625D01*
X003912Y041548D01*
X003836Y041625D02*
X003912Y041702D01*
X003912Y041779D01*
X003836Y041855D01*
X003682Y041855D01*
X003605Y041779D01*
X003605Y041702D01*
X003682Y041625D01*
X003452Y041625D02*
X003375Y041548D01*
X003145Y041548D01*
X003145Y041395D02*
X003145Y041855D01*
X003375Y041855D01*
X003452Y041779D01*
X003452Y041625D01*
D11*
X018712Y029000D03*
X019282Y029000D03*
D12*
X013875Y042593D03*
X013875Y043163D03*
D13*
X005036Y010875D02*
X004625Y010875D01*
X005429Y010875D02*
X005840Y010875D01*
X006234Y010875D02*
X006645Y010875D01*
X007038Y010875D02*
X007449Y010875D01*
X007843Y010875D02*
X008254Y010875D01*
X008647Y010875D02*
X009058Y010875D01*
X009452Y010875D02*
X009863Y010875D01*
X010256Y010875D02*
X010667Y010875D01*
X011061Y010875D02*
X011471Y010875D01*
X011865Y010875D02*
X012276Y010875D01*
X012670Y010875D02*
X013080Y010875D01*
X013474Y010875D02*
X013885Y010875D01*
X014279Y010875D02*
X014689Y010875D01*
X015083Y010875D02*
X015494Y010875D01*
X015887Y010875D02*
X016298Y010875D01*
X016692Y010875D02*
X017103Y010875D01*
X017496Y010875D02*
X017907Y010875D01*
X018301Y010875D02*
X018712Y010875D01*
X019105Y010875D02*
X019516Y010875D01*
X019910Y010875D02*
X020321Y010875D01*
X020714Y010875D02*
X021125Y010875D01*
X023581Y012907D02*
X023600Y013023D01*
X023614Y013140D01*
X023622Y013257D01*
X023625Y013375D01*
X023625Y013892D01*
X023625Y014286D02*
X023625Y014803D01*
X023625Y015197D02*
X023625Y015714D01*
X023625Y016108D02*
X023625Y016625D01*
X018625Y016625D01*
X017481Y019929D02*
X017481Y025992D01*
X017088Y025992D02*
X017088Y019929D01*
X016375Y018875D02*
X009375Y018875D01*
X009844Y018748D02*
X015828Y018748D01*
X015828Y018354D02*
X009844Y018354D01*
X009767Y018356D01*
X009689Y018362D01*
X009613Y018371D01*
X009536Y018384D01*
X009461Y018401D01*
X009386Y018422D01*
X009313Y018446D01*
X009241Y018474D01*
X009170Y018505D01*
X009101Y018540D01*
X009033Y018578D01*
X008968Y018620D01*
X008905Y018664D01*
X008844Y018712D01*
X008785Y018762D01*
X008729Y018816D01*
X008676Y018872D01*
X008625Y018930D01*
X008578Y018991D01*
X008533Y019055D01*
X008492Y019120D01*
X008453Y019187D01*
X008419Y019256D01*
X008387Y019327D01*
X008359Y019399D01*
X008335Y019473D01*
X008314Y019547D01*
X008297Y019623D01*
X008284Y019699D01*
X008275Y019776D01*
X008269Y019853D01*
X008267Y019931D01*
X008269Y020008D01*
X008269Y026071D01*
X008662Y026071D02*
X008662Y020008D01*
X008665Y019938D01*
X008672Y019868D01*
X008682Y019799D01*
X008696Y019730D01*
X008714Y019662D01*
X008736Y019595D01*
X008761Y019530D01*
X008790Y019466D01*
X008823Y019403D01*
X008858Y019343D01*
X008897Y019284D01*
X008939Y019228D01*
X008985Y019174D01*
X009033Y019123D01*
X009083Y019075D01*
X009137Y019029D01*
X009192Y018986D01*
X009250Y018947D01*
X009311Y018911D01*
X009373Y018878D01*
X009436Y018848D01*
X009502Y018822D01*
X009568Y018800D01*
X009636Y018781D01*
X009704Y018766D01*
X009774Y018755D01*
X009844Y018748D01*
X009375Y018875D02*
X009268Y018872D01*
X009161Y018865D01*
X009055Y018852D01*
X008949Y018834D01*
X008845Y018812D01*
X008741Y018784D01*
X008639Y018751D01*
X008539Y018714D01*
X008440Y018672D01*
X008344Y018625D01*
X008250Y018574D01*
X008159Y018518D01*
X008070Y018458D01*
X007984Y018394D01*
X007902Y018325D01*
X007822Y018253D01*
X007747Y018178D01*
X007675Y018098D01*
X007606Y018016D01*
X007542Y017930D01*
X007482Y017841D01*
X007426Y017750D01*
X007375Y017656D01*
X007328Y017560D01*
X007286Y017461D01*
X007249Y017361D01*
X007216Y017259D01*
X007188Y017155D01*
X007166Y017051D01*
X007148Y016945D01*
X007135Y016839D01*
X007128Y016732D01*
X007125Y016625D01*
X002125Y016625D01*
X002125Y016108D01*
X002125Y015714D02*
X002125Y015197D01*
X002125Y014803D02*
X002125Y014286D01*
X002125Y013892D02*
X002125Y013375D01*
X002125Y016625D02*
X002125Y039875D01*
X002131Y040113D01*
X002148Y040350D01*
X002176Y040587D01*
X002215Y040821D01*
X002266Y041054D01*
X002328Y041284D01*
X002400Y041510D01*
X002483Y041733D01*
X002577Y041952D01*
X002681Y042166D01*
X002795Y042375D01*
X002919Y042578D01*
X003052Y042775D01*
X003195Y042966D01*
X003346Y043149D01*
X003506Y043325D01*
X003675Y043494D01*
X003851Y043654D01*
X004034Y043805D01*
X004225Y043948D01*
X004422Y044081D01*
X004625Y044205D01*
X004834Y044319D01*
X005048Y044423D01*
X005267Y044517D01*
X005490Y044600D01*
X005716Y044672D01*
X005946Y044734D01*
X006179Y044785D01*
X006413Y044824D01*
X006650Y044852D01*
X006887Y044869D01*
X007125Y044875D01*
X018625Y044875D01*
X017481Y041242D02*
X017481Y035179D01*
X017088Y035179D02*
X017088Y041242D01*
X017481Y041242D02*
X017483Y041319D01*
X017481Y041397D01*
X017475Y041474D01*
X017466Y041551D01*
X017453Y041627D01*
X017436Y041703D01*
X017415Y041777D01*
X017391Y041851D01*
X017363Y041923D01*
X017331Y041994D01*
X017297Y042063D01*
X017258Y042130D01*
X017217Y042195D01*
X017172Y042259D01*
X017125Y042320D01*
X017074Y042378D01*
X017021Y042434D01*
X016965Y042488D01*
X016906Y042538D01*
X016845Y042586D01*
X016782Y042630D01*
X016717Y042672D01*
X016649Y042710D01*
X016580Y042745D01*
X016509Y042776D01*
X016437Y042804D01*
X016364Y042828D01*
X016289Y042849D01*
X016214Y042866D01*
X016137Y042879D01*
X016061Y042888D01*
X015983Y042894D01*
X015906Y042896D01*
X014568Y042896D01*
X014017Y042896D01*
X011655Y042896D01*
X011103Y042896D01*
X009922Y042896D01*
X009922Y042502D02*
X015906Y042502D01*
X015976Y042495D01*
X016046Y042484D01*
X016114Y042469D01*
X016182Y042450D01*
X016248Y042428D01*
X016314Y042402D01*
X016377Y042372D01*
X016439Y042339D01*
X016500Y042303D01*
X016558Y042264D01*
X016613Y042221D01*
X016667Y042175D01*
X016717Y042127D01*
X016765Y042076D01*
X016811Y042022D01*
X016853Y041966D01*
X016892Y041907D01*
X016927Y041847D01*
X016960Y041784D01*
X016989Y041720D01*
X017014Y041655D01*
X017036Y041588D01*
X017054Y041520D01*
X017068Y041451D01*
X017078Y041382D01*
X017085Y041312D01*
X017088Y041242D01*
X018625Y044875D02*
X018863Y044869D01*
X019100Y044852D01*
X019337Y044824D01*
X019571Y044785D01*
X019804Y044734D01*
X020034Y044672D01*
X020260Y044600D01*
X020483Y044517D01*
X020702Y044423D01*
X020916Y044319D01*
X021125Y044205D01*
X021328Y044081D01*
X021525Y043948D01*
X021716Y043805D01*
X021899Y043654D01*
X022075Y043494D01*
X022244Y043325D01*
X022404Y043149D01*
X022555Y042966D01*
X022698Y042775D01*
X022831Y042578D01*
X022955Y042375D01*
X023069Y042166D01*
X023173Y041952D01*
X023267Y041733D01*
X023350Y041510D01*
X023422Y041284D01*
X023484Y041054D01*
X023535Y040821D01*
X023574Y040587D01*
X023602Y040350D01*
X023619Y040113D01*
X023625Y039875D01*
X023625Y016625D01*
X023477Y012528D02*
X023435Y012418D01*
X023387Y012311D01*
X023335Y012206D01*
X023277Y012103D01*
X021593Y010919D02*
X021477Y010900D01*
X021360Y010886D01*
X021243Y010878D01*
X021125Y010875D01*
X021972Y011023D02*
X022082Y011065D01*
X022189Y011113D01*
X022294Y011165D01*
X022397Y011223D01*
X022719Y011449D02*
X022808Y011526D01*
X022893Y011607D01*
X022974Y011692D01*
X023051Y011781D01*
X018625Y016625D02*
X018622Y016732D01*
X018615Y016839D01*
X018602Y016945D01*
X018584Y017051D01*
X018562Y017155D01*
X018534Y017259D01*
X018501Y017361D01*
X018464Y017461D01*
X018422Y017560D01*
X018375Y017656D01*
X018324Y017750D01*
X018268Y017841D01*
X018208Y017930D01*
X018144Y018016D01*
X018075Y018098D01*
X018003Y018178D01*
X017928Y018253D01*
X017848Y018325D01*
X017766Y018394D01*
X017680Y018458D01*
X017591Y018518D01*
X017500Y018574D01*
X017406Y018625D01*
X017310Y018672D01*
X017211Y018714D01*
X017111Y018751D01*
X017009Y018784D01*
X016905Y018812D01*
X016801Y018834D01*
X016695Y018852D01*
X016589Y018865D01*
X016482Y018872D01*
X016375Y018875D01*
X015828Y018354D02*
X015905Y018352D01*
X015983Y018354D01*
X016060Y018360D01*
X016137Y018369D01*
X016213Y018382D01*
X016289Y018399D01*
X016363Y018420D01*
X016437Y018444D01*
X016509Y018472D01*
X016580Y018504D01*
X016649Y018538D01*
X016716Y018577D01*
X016781Y018618D01*
X016845Y018663D01*
X016906Y018710D01*
X016964Y018761D01*
X017020Y018814D01*
X017074Y018870D01*
X017124Y018929D01*
X017172Y018990D01*
X017216Y019053D01*
X017258Y019118D01*
X017296Y019186D01*
X017331Y019255D01*
X017362Y019326D01*
X017390Y019398D01*
X017414Y019471D01*
X017435Y019546D01*
X017452Y019621D01*
X017465Y019698D01*
X017474Y019774D01*
X017480Y019852D01*
X017482Y019929D01*
X017088Y019930D02*
X017081Y019860D01*
X017070Y019790D01*
X017055Y019722D01*
X017036Y019654D01*
X017014Y019588D01*
X016988Y019522D01*
X016958Y019459D01*
X016925Y019397D01*
X016889Y019336D01*
X016850Y019278D01*
X016807Y019223D01*
X016761Y019169D01*
X016713Y019119D01*
X016662Y019071D01*
X016608Y019025D01*
X016552Y018983D01*
X016493Y018944D01*
X016433Y018909D01*
X016370Y018876D01*
X016306Y018847D01*
X016241Y018822D01*
X016174Y018800D01*
X016106Y018782D01*
X016037Y018768D01*
X015968Y018758D01*
X015898Y018751D01*
X015828Y018748D01*
X017088Y025992D02*
X017085Y026062D01*
X017078Y026132D01*
X017068Y026201D01*
X017054Y026270D01*
X017036Y026338D01*
X017014Y026405D01*
X016989Y026470D01*
X016960Y026534D01*
X016927Y026597D01*
X016892Y026657D01*
X016853Y026716D01*
X016811Y026772D01*
X016765Y026826D01*
X016717Y026877D01*
X016667Y026925D01*
X016613Y026971D01*
X016558Y027014D01*
X016500Y027053D01*
X016439Y027089D01*
X016377Y027122D01*
X016314Y027152D01*
X016248Y027178D01*
X016182Y027200D01*
X016114Y027219D01*
X016046Y027234D01*
X015976Y027245D01*
X015906Y027252D01*
X009922Y027252D01*
X009922Y027646D02*
X011103Y027646D01*
X011655Y027646D01*
X014017Y027646D01*
X014568Y027646D01*
X015906Y027646D01*
X015983Y027644D01*
X016061Y027638D01*
X016137Y027629D01*
X016214Y027616D01*
X016289Y027599D01*
X016364Y027578D01*
X016437Y027554D01*
X016509Y027526D01*
X016580Y027495D01*
X016649Y027460D01*
X016717Y027422D01*
X016782Y027380D01*
X016845Y027336D01*
X016906Y027288D01*
X016965Y027238D01*
X017021Y027184D01*
X017074Y027128D01*
X017125Y027070D01*
X017172Y027009D01*
X017217Y026945D01*
X017258Y026880D01*
X017297Y026813D01*
X017331Y026744D01*
X017363Y026673D01*
X017391Y026601D01*
X017415Y026527D01*
X017436Y026453D01*
X017453Y026377D01*
X017466Y026301D01*
X017475Y026224D01*
X017481Y026147D01*
X017483Y026069D01*
X017481Y025992D01*
X016361Y029588D02*
X016361Y032560D01*
X020889Y032560D01*
X020889Y029588D01*
X016361Y029588D01*
X016428Y029875D02*
X016430Y029902D01*
X016436Y029929D01*
X016445Y029955D01*
X016458Y029979D01*
X016474Y030002D01*
X016493Y030021D01*
X016515Y030038D01*
X016539Y030052D01*
X016564Y030062D01*
X016591Y030069D01*
X016618Y030072D01*
X016646Y030071D01*
X016673Y030066D01*
X016699Y030058D01*
X016723Y030046D01*
X016746Y030030D01*
X016767Y030012D01*
X016784Y029991D01*
X016799Y029967D01*
X016810Y029942D01*
X016818Y029916D01*
X016822Y029889D01*
X016822Y029861D01*
X016818Y029834D01*
X016810Y029808D01*
X016799Y029783D01*
X016784Y029759D01*
X016767Y029738D01*
X016746Y029720D01*
X016724Y029704D01*
X016699Y029692D01*
X016673Y029684D01*
X016646Y029679D01*
X016618Y029678D01*
X016591Y029681D01*
X016564Y029688D01*
X016539Y029698D01*
X016515Y029712D01*
X016493Y029729D01*
X016474Y029748D01*
X016458Y029771D01*
X016445Y029795D01*
X016436Y029821D01*
X016430Y029848D01*
X016428Y029875D01*
X014501Y030516D02*
X010643Y030516D01*
X010643Y032484D01*
X014501Y032484D01*
X014501Y030516D01*
X015828Y033604D02*
X009844Y033604D01*
X009844Y033998D02*
X015828Y033998D01*
X015828Y033604D02*
X015905Y033602D01*
X015983Y033604D01*
X016060Y033610D01*
X016137Y033619D01*
X016213Y033632D01*
X016289Y033649D01*
X016363Y033670D01*
X016437Y033694D01*
X016509Y033722D01*
X016580Y033754D01*
X016649Y033788D01*
X016716Y033827D01*
X016781Y033868D01*
X016845Y033913D01*
X016906Y033960D01*
X016964Y034011D01*
X017020Y034064D01*
X017074Y034120D01*
X017124Y034179D01*
X017172Y034240D01*
X017216Y034303D01*
X017258Y034368D01*
X017296Y034436D01*
X017331Y034505D01*
X017362Y034576D01*
X017390Y034648D01*
X017414Y034721D01*
X017435Y034796D01*
X017452Y034871D01*
X017465Y034948D01*
X017474Y035024D01*
X017480Y035102D01*
X017482Y035179D01*
X017088Y035180D02*
X017081Y035110D01*
X017070Y035040D01*
X017055Y034972D01*
X017036Y034904D01*
X017014Y034838D01*
X016988Y034772D01*
X016958Y034709D01*
X016925Y034647D01*
X016889Y034586D01*
X016850Y034528D01*
X016807Y034473D01*
X016761Y034419D01*
X016713Y034369D01*
X016662Y034321D01*
X016608Y034275D01*
X016552Y034233D01*
X016493Y034194D01*
X016433Y034159D01*
X016370Y034126D01*
X016306Y034097D01*
X016241Y034072D01*
X016174Y034050D01*
X016106Y034032D01*
X016037Y034018D01*
X015968Y034008D01*
X015898Y034001D01*
X015828Y033998D01*
X009844Y033998D02*
X009774Y034005D01*
X009704Y034016D01*
X009636Y034031D01*
X009568Y034050D01*
X009502Y034072D01*
X009436Y034098D01*
X009373Y034128D01*
X009311Y034161D01*
X009250Y034197D01*
X009192Y034236D01*
X009137Y034279D01*
X009083Y034325D01*
X009033Y034373D01*
X008985Y034424D01*
X008939Y034478D01*
X008897Y034534D01*
X008858Y034593D01*
X008823Y034653D01*
X008790Y034716D01*
X008761Y034780D01*
X008736Y034845D01*
X008714Y034912D01*
X008696Y034980D01*
X008682Y035049D01*
X008672Y035118D01*
X008665Y035188D01*
X008662Y035258D01*
X008662Y041321D01*
X008269Y041321D02*
X008269Y035258D01*
X008267Y035181D01*
X008269Y035103D01*
X008275Y035026D01*
X008284Y034949D01*
X008297Y034873D01*
X008314Y034797D01*
X008335Y034723D01*
X008359Y034649D01*
X008387Y034577D01*
X008419Y034506D01*
X008453Y034437D01*
X008492Y034370D01*
X008533Y034305D01*
X008578Y034241D01*
X008625Y034180D01*
X008676Y034122D01*
X008729Y034066D01*
X008785Y034012D01*
X008844Y033962D01*
X008905Y033914D01*
X008968Y033870D01*
X009033Y033828D01*
X009101Y033790D01*
X009170Y033755D01*
X009241Y033724D01*
X009313Y033696D01*
X009386Y033672D01*
X009461Y033651D01*
X009536Y033634D01*
X009613Y033621D01*
X009689Y033612D01*
X009767Y033606D01*
X009844Y033604D01*
X009922Y027646D02*
X009845Y027648D01*
X009767Y027646D01*
X009690Y027640D01*
X009613Y027631D01*
X009537Y027618D01*
X009461Y027601D01*
X009387Y027580D01*
X009313Y027556D01*
X009241Y027528D01*
X009170Y027496D01*
X009101Y027462D01*
X009034Y027423D01*
X008969Y027382D01*
X008905Y027337D01*
X008844Y027290D01*
X008786Y027239D01*
X008730Y027186D01*
X008676Y027130D01*
X008626Y027071D01*
X008578Y027010D01*
X008534Y026947D01*
X008492Y026882D01*
X008454Y026814D01*
X008419Y026745D01*
X008388Y026674D01*
X008360Y026602D01*
X008336Y026529D01*
X008315Y026454D01*
X008298Y026379D01*
X008285Y026302D01*
X008276Y026226D01*
X008270Y026148D01*
X008268Y026071D01*
X008662Y026070D02*
X008669Y026140D01*
X008680Y026210D01*
X008695Y026278D01*
X008714Y026346D01*
X008736Y026412D01*
X008762Y026478D01*
X008792Y026541D01*
X008825Y026603D01*
X008861Y026664D01*
X008900Y026722D01*
X008943Y026777D01*
X008989Y026831D01*
X009037Y026881D01*
X009088Y026929D01*
X009142Y026975D01*
X009198Y027017D01*
X009257Y027056D01*
X009317Y027091D01*
X009380Y027124D01*
X009444Y027153D01*
X009509Y027178D01*
X009576Y027200D01*
X009644Y027218D01*
X009713Y027232D01*
X009782Y027242D01*
X009852Y027249D01*
X009922Y027252D01*
X008662Y041320D02*
X008669Y041390D01*
X008680Y041460D01*
X008695Y041528D01*
X008714Y041596D01*
X008736Y041662D01*
X008762Y041728D01*
X008792Y041791D01*
X008825Y041853D01*
X008861Y041914D01*
X008900Y041972D01*
X008943Y042027D01*
X008989Y042081D01*
X009037Y042131D01*
X009088Y042179D01*
X009142Y042225D01*
X009198Y042267D01*
X009257Y042306D01*
X009317Y042341D01*
X009380Y042374D01*
X009444Y042403D01*
X009509Y042428D01*
X009576Y042450D01*
X009644Y042468D01*
X009713Y042482D01*
X009782Y042492D01*
X009852Y042499D01*
X009922Y042502D01*
X009922Y042896D02*
X009845Y042898D01*
X009767Y042896D01*
X009690Y042890D01*
X009613Y042881D01*
X009537Y042868D01*
X009461Y042851D01*
X009387Y042830D01*
X009313Y042806D01*
X009241Y042778D01*
X009170Y042746D01*
X009101Y042712D01*
X009034Y042673D01*
X008969Y042632D01*
X008905Y042587D01*
X008844Y042540D01*
X008786Y042489D01*
X008730Y042436D01*
X008676Y042380D01*
X008626Y042321D01*
X008578Y042260D01*
X008534Y042197D01*
X008492Y042132D01*
X008454Y042064D01*
X008419Y041995D01*
X008388Y041924D01*
X008360Y041852D01*
X008336Y041779D01*
X008315Y041704D01*
X008298Y041629D01*
X008285Y041552D01*
X008276Y041476D01*
X008270Y041398D01*
X008268Y041321D01*
X002273Y012528D02*
X002315Y012418D01*
X002363Y012311D01*
X002415Y012206D01*
X002473Y012103D01*
X004157Y010919D02*
X004273Y010900D01*
X004390Y010886D01*
X004507Y010878D01*
X004625Y010875D01*
X002169Y012907D02*
X002150Y013023D01*
X002136Y013140D01*
X002128Y013257D01*
X002125Y013375D01*
X002699Y011781D02*
X002776Y011692D01*
X002857Y011607D01*
X002942Y011526D01*
X003031Y011449D01*
X003353Y011223D02*
X003456Y011165D01*
X003561Y011113D01*
X003668Y011065D01*
X003778Y011023D01*
D14*
X006418Y016661D02*
X019253Y016661D01*
X019330Y016659D01*
X019408Y016661D01*
X019485Y016667D01*
X019562Y016676D01*
X019638Y016689D01*
X019714Y016706D01*
X019788Y016727D01*
X019862Y016751D01*
X019934Y016779D01*
X020005Y016811D01*
X020074Y016845D01*
X020141Y016884D01*
X020206Y016925D01*
X020270Y016970D01*
X020331Y017017D01*
X020389Y017068D01*
X020445Y017121D01*
X020499Y017177D01*
X020549Y017236D01*
X020597Y017297D01*
X020641Y017360D01*
X020683Y017425D01*
X020721Y017493D01*
X020756Y017562D01*
X020787Y017633D01*
X020815Y017705D01*
X020839Y017778D01*
X020860Y017853D01*
X020877Y017928D01*
X020890Y018005D01*
X020899Y018081D01*
X020905Y018159D01*
X020907Y018236D01*
X020906Y018236D02*
X020906Y027685D01*
X020907Y027685D02*
X020909Y027762D01*
X020907Y027840D01*
X020901Y027917D01*
X020892Y027994D01*
X020879Y028070D01*
X020862Y028146D01*
X020841Y028220D01*
X020817Y028294D01*
X020789Y028366D01*
X020757Y028437D01*
X020723Y028506D01*
X020684Y028573D01*
X020643Y028638D01*
X020598Y028702D01*
X020551Y028763D01*
X020500Y028821D01*
X020447Y028877D01*
X020391Y028931D01*
X020332Y028981D01*
X020271Y029029D01*
X020208Y029073D01*
X020143Y029115D01*
X020075Y029153D01*
X020006Y029188D01*
X019935Y029219D01*
X019863Y029247D01*
X019790Y029271D01*
X019715Y029292D01*
X019640Y029309D01*
X019563Y029322D01*
X019487Y029331D01*
X019409Y029337D01*
X019332Y029339D01*
X006497Y029339D01*
X006420Y029341D01*
X006342Y029339D01*
X006265Y029333D01*
X006188Y029324D01*
X006112Y029311D01*
X006036Y029294D01*
X005962Y029273D01*
X005888Y029249D01*
X005816Y029221D01*
X005745Y029189D01*
X005676Y029155D01*
X005609Y029116D01*
X005544Y029075D01*
X005480Y029030D01*
X005419Y028983D01*
X005361Y028932D01*
X005305Y028879D01*
X005251Y028823D01*
X005201Y028764D01*
X005153Y028703D01*
X005109Y028640D01*
X005067Y028575D01*
X005029Y028507D01*
X004994Y028438D01*
X004963Y028367D01*
X004935Y028295D01*
X004911Y028222D01*
X004890Y028147D01*
X004873Y028072D01*
X004860Y027995D01*
X004851Y027919D01*
X004845Y027841D01*
X004843Y027764D01*
X004844Y027764D02*
X004844Y018315D01*
X004843Y018315D02*
X004841Y018238D01*
X004843Y018160D01*
X004849Y018083D01*
X004858Y018006D01*
X004871Y017930D01*
X004888Y017854D01*
X004909Y017780D01*
X004933Y017706D01*
X004961Y017634D01*
X004993Y017563D01*
X005027Y017494D01*
X005066Y017427D01*
X005107Y017362D01*
X005152Y017298D01*
X005199Y017237D01*
X005250Y017179D01*
X005303Y017123D01*
X005359Y017069D01*
X005418Y017019D01*
X005479Y016971D01*
X005542Y016927D01*
X005607Y016885D01*
X005675Y016847D01*
X005744Y016812D01*
X005815Y016781D01*
X005887Y016753D01*
X005960Y016729D01*
X006035Y016708D01*
X006110Y016691D01*
X006187Y016678D01*
X006263Y016669D01*
X006341Y016663D01*
X006418Y016661D01*
X006418Y031911D02*
X019253Y031911D01*
X019330Y031909D01*
X019408Y031911D01*
X019485Y031917D01*
X019562Y031926D01*
X019638Y031939D01*
X019714Y031956D01*
X019788Y031977D01*
X019862Y032001D01*
X019934Y032029D01*
X020005Y032061D01*
X020074Y032095D01*
X020141Y032134D01*
X020206Y032175D01*
X020270Y032220D01*
X020331Y032267D01*
X020389Y032318D01*
X020445Y032371D01*
X020499Y032427D01*
X020549Y032486D01*
X020597Y032547D01*
X020641Y032610D01*
X020683Y032675D01*
X020721Y032743D01*
X020756Y032812D01*
X020787Y032883D01*
X020815Y032955D01*
X020839Y033028D01*
X020860Y033103D01*
X020877Y033178D01*
X020890Y033255D01*
X020899Y033331D01*
X020905Y033409D01*
X020907Y033486D01*
X020906Y033486D02*
X020906Y042935D01*
X020907Y042935D02*
X020909Y043012D01*
X020907Y043090D01*
X020901Y043167D01*
X020892Y043244D01*
X020879Y043320D01*
X020862Y043396D01*
X020841Y043470D01*
X020817Y043544D01*
X020789Y043616D01*
X020757Y043687D01*
X020723Y043756D01*
X020684Y043823D01*
X020643Y043888D01*
X020598Y043952D01*
X020551Y044013D01*
X020500Y044071D01*
X020447Y044127D01*
X020391Y044181D01*
X020332Y044231D01*
X020271Y044279D01*
X020208Y044323D01*
X020143Y044365D01*
X020075Y044403D01*
X020006Y044438D01*
X019935Y044469D01*
X019863Y044497D01*
X019790Y044521D01*
X019715Y044542D01*
X019640Y044559D01*
X019563Y044572D01*
X019487Y044581D01*
X019409Y044587D01*
X019332Y044589D01*
X006497Y044589D01*
X006420Y044591D01*
X006342Y044589D01*
X006265Y044583D01*
X006188Y044574D01*
X006112Y044561D01*
X006036Y044544D01*
X005962Y044523D01*
X005888Y044499D01*
X005816Y044471D01*
X005745Y044439D01*
X005676Y044405D01*
X005609Y044366D01*
X005544Y044325D01*
X005480Y044280D01*
X005419Y044233D01*
X005361Y044182D01*
X005305Y044129D01*
X005251Y044073D01*
X005201Y044014D01*
X005153Y043953D01*
X005109Y043890D01*
X005067Y043825D01*
X005029Y043757D01*
X004994Y043688D01*
X004963Y043617D01*
X004935Y043545D01*
X004911Y043472D01*
X004890Y043397D01*
X004873Y043322D01*
X004860Y043245D01*
X004851Y043169D01*
X004845Y043091D01*
X004843Y043014D01*
X004844Y043014D02*
X004844Y033565D01*
X004843Y033565D02*
X004841Y033488D01*
X004843Y033410D01*
X004849Y033333D01*
X004858Y033256D01*
X004871Y033180D01*
X004888Y033104D01*
X004909Y033030D01*
X004933Y032956D01*
X004961Y032884D01*
X004993Y032813D01*
X005027Y032744D01*
X005066Y032677D01*
X005107Y032612D01*
X005152Y032548D01*
X005199Y032487D01*
X005250Y032429D01*
X005303Y032373D01*
X005359Y032319D01*
X005418Y032269D01*
X005479Y032221D01*
X005542Y032177D01*
X005607Y032135D01*
X005675Y032097D01*
X005744Y032062D01*
X005815Y032031D01*
X005887Y032003D01*
X005960Y031979D01*
X006035Y031958D01*
X006110Y031941D01*
X006187Y031928D01*
X006263Y031919D01*
X006341Y031913D01*
X006418Y031911D01*
D15*
X011182Y028433D02*
X011103Y027646D01*
X011182Y028433D02*
X011576Y028433D01*
X011655Y027646D01*
X014017Y027646D02*
X014095Y028433D01*
X014489Y028433D01*
X014568Y027646D01*
X014568Y042896D02*
X014489Y043683D01*
X014095Y043683D01*
X014017Y042896D01*
X011655Y042896D02*
X011576Y043683D01*
X011182Y043683D01*
X011103Y042896D01*
D16*
X011044Y042731D02*
X011046Y042758D01*
X011052Y042785D01*
X011061Y042811D01*
X011074Y042835D01*
X011090Y042858D01*
X011109Y042877D01*
X011131Y042894D01*
X011155Y042908D01*
X011180Y042918D01*
X011207Y042925D01*
X011234Y042928D01*
X011262Y042927D01*
X011289Y042922D01*
X011315Y042914D01*
X011339Y042902D01*
X011362Y042886D01*
X011383Y042868D01*
X011400Y042847D01*
X011415Y042823D01*
X011426Y042798D01*
X011434Y042772D01*
X011438Y042745D01*
X011438Y042717D01*
X011434Y042690D01*
X011426Y042664D01*
X011415Y042639D01*
X011400Y042615D01*
X011383Y042594D01*
X011362Y042576D01*
X011340Y042560D01*
X011315Y042548D01*
X011289Y042540D01*
X011262Y042535D01*
X011234Y042534D01*
X011207Y042537D01*
X011180Y042544D01*
X011155Y042554D01*
X011131Y042568D01*
X011109Y042585D01*
X011090Y042604D01*
X011074Y042627D01*
X011061Y042651D01*
X011052Y042677D01*
X011046Y042704D01*
X011044Y042731D01*
X009312Y042731D02*
X009314Y042758D01*
X009320Y042785D01*
X009329Y042811D01*
X009342Y042835D01*
X009358Y042858D01*
X009377Y042877D01*
X009399Y042894D01*
X009423Y042908D01*
X009448Y042918D01*
X009475Y042925D01*
X009502Y042928D01*
X009530Y042927D01*
X009557Y042922D01*
X009583Y042914D01*
X009607Y042902D01*
X009630Y042886D01*
X009651Y042868D01*
X009668Y042847D01*
X009683Y042823D01*
X009694Y042798D01*
X009702Y042772D01*
X009706Y042745D01*
X009706Y042717D01*
X009702Y042690D01*
X009694Y042664D01*
X009683Y042639D01*
X009668Y042615D01*
X009651Y042594D01*
X009630Y042576D01*
X009608Y042560D01*
X009583Y042548D01*
X009557Y042540D01*
X009530Y042535D01*
X009502Y042534D01*
X009475Y042537D01*
X009448Y042544D01*
X009423Y042554D01*
X009399Y042568D01*
X009377Y042585D01*
X009358Y042604D01*
X009342Y042627D01*
X009329Y042651D01*
X009320Y042677D01*
X009314Y042704D01*
X009312Y042731D01*
X007087Y042502D02*
X007089Y042541D01*
X007095Y042580D01*
X007105Y042618D01*
X007118Y042655D01*
X007135Y042690D01*
X007155Y042724D01*
X007179Y042755D01*
X007206Y042784D01*
X007235Y042810D01*
X007267Y042833D01*
X007301Y042853D01*
X007337Y042869D01*
X007374Y042881D01*
X007413Y042890D01*
X007452Y042895D01*
X007491Y042896D01*
X007530Y042893D01*
X007569Y042886D01*
X007606Y042875D01*
X007643Y042861D01*
X007678Y042843D01*
X007711Y042822D01*
X007742Y042797D01*
X007770Y042770D01*
X007795Y042740D01*
X007817Y042707D01*
X007836Y042673D01*
X007851Y042637D01*
X007863Y042599D01*
X007871Y042561D01*
X007875Y042522D01*
X007875Y042482D01*
X007871Y042443D01*
X007863Y042405D01*
X007851Y042367D01*
X007836Y042331D01*
X007817Y042297D01*
X007795Y042264D01*
X007770Y042234D01*
X007742Y042207D01*
X007711Y042182D01*
X007678Y042161D01*
X007643Y042143D01*
X007606Y042129D01*
X007569Y042118D01*
X007530Y042111D01*
X007491Y042108D01*
X007452Y042109D01*
X007413Y042114D01*
X007374Y042123D01*
X007337Y042135D01*
X007301Y042151D01*
X007267Y042171D01*
X007235Y042194D01*
X007206Y042220D01*
X007179Y042249D01*
X007155Y042280D01*
X007135Y042314D01*
X007118Y042349D01*
X007105Y042386D01*
X007095Y042424D01*
X007089Y042463D01*
X007087Y042502D01*
X006497Y035376D02*
X006499Y035415D01*
X006505Y035454D01*
X006515Y035492D01*
X006528Y035529D01*
X006545Y035564D01*
X006565Y035598D01*
X006589Y035629D01*
X006616Y035658D01*
X006645Y035684D01*
X006677Y035707D01*
X006711Y035727D01*
X006747Y035743D01*
X006784Y035755D01*
X006823Y035764D01*
X006862Y035769D01*
X006901Y035770D01*
X006940Y035767D01*
X006979Y035760D01*
X007016Y035749D01*
X007053Y035735D01*
X007088Y035717D01*
X007121Y035696D01*
X007152Y035671D01*
X007180Y035644D01*
X007205Y035614D01*
X007227Y035581D01*
X007246Y035547D01*
X007261Y035511D01*
X007273Y035473D01*
X007281Y035435D01*
X007285Y035396D01*
X007285Y035356D01*
X007281Y035317D01*
X007273Y035279D01*
X007261Y035241D01*
X007246Y035205D01*
X007227Y035171D01*
X007205Y035138D01*
X007180Y035108D01*
X007152Y035081D01*
X007121Y035056D01*
X007088Y035035D01*
X007053Y035017D01*
X007016Y035003D01*
X006979Y034992D01*
X006940Y034985D01*
X006901Y034982D01*
X006862Y034983D01*
X006823Y034988D01*
X006784Y034997D01*
X006747Y035009D01*
X006711Y035025D01*
X006677Y035045D01*
X006645Y035068D01*
X006616Y035094D01*
X006589Y035123D01*
X006565Y035154D01*
X006545Y035188D01*
X006528Y035223D01*
X006515Y035260D01*
X006505Y035298D01*
X006499Y035337D01*
X006497Y035376D01*
X007087Y027252D02*
X007089Y027291D01*
X007095Y027330D01*
X007105Y027368D01*
X007118Y027405D01*
X007135Y027440D01*
X007155Y027474D01*
X007179Y027505D01*
X007206Y027534D01*
X007235Y027560D01*
X007267Y027583D01*
X007301Y027603D01*
X007337Y027619D01*
X007374Y027631D01*
X007413Y027640D01*
X007452Y027645D01*
X007491Y027646D01*
X007530Y027643D01*
X007569Y027636D01*
X007606Y027625D01*
X007643Y027611D01*
X007678Y027593D01*
X007711Y027572D01*
X007742Y027547D01*
X007770Y027520D01*
X007795Y027490D01*
X007817Y027457D01*
X007836Y027423D01*
X007851Y027387D01*
X007863Y027349D01*
X007871Y027311D01*
X007875Y027272D01*
X007875Y027232D01*
X007871Y027193D01*
X007863Y027155D01*
X007851Y027117D01*
X007836Y027081D01*
X007817Y027047D01*
X007795Y027014D01*
X007770Y026984D01*
X007742Y026957D01*
X007711Y026932D01*
X007678Y026911D01*
X007643Y026893D01*
X007606Y026879D01*
X007569Y026868D01*
X007530Y026861D01*
X007491Y026858D01*
X007452Y026859D01*
X007413Y026864D01*
X007374Y026873D01*
X007337Y026885D01*
X007301Y026901D01*
X007267Y026921D01*
X007235Y026944D01*
X007206Y026970D01*
X007179Y026999D01*
X007155Y027030D01*
X007135Y027064D01*
X007118Y027099D01*
X007105Y027136D01*
X007095Y027174D01*
X007089Y027213D01*
X007087Y027252D01*
X006497Y020126D02*
X006499Y020165D01*
X006505Y020204D01*
X006515Y020242D01*
X006528Y020279D01*
X006545Y020314D01*
X006565Y020348D01*
X006589Y020379D01*
X006616Y020408D01*
X006645Y020434D01*
X006677Y020457D01*
X006711Y020477D01*
X006747Y020493D01*
X006784Y020505D01*
X006823Y020514D01*
X006862Y020519D01*
X006901Y020520D01*
X006940Y020517D01*
X006979Y020510D01*
X007016Y020499D01*
X007053Y020485D01*
X007088Y020467D01*
X007121Y020446D01*
X007152Y020421D01*
X007180Y020394D01*
X007205Y020364D01*
X007227Y020331D01*
X007246Y020297D01*
X007261Y020261D01*
X007273Y020223D01*
X007281Y020185D01*
X007285Y020146D01*
X007285Y020106D01*
X007281Y020067D01*
X007273Y020029D01*
X007261Y019991D01*
X007246Y019955D01*
X007227Y019921D01*
X007205Y019888D01*
X007180Y019858D01*
X007152Y019831D01*
X007121Y019806D01*
X007088Y019785D01*
X007053Y019767D01*
X007016Y019753D01*
X006979Y019742D01*
X006940Y019735D01*
X006901Y019732D01*
X006862Y019733D01*
X006823Y019738D01*
X006784Y019747D01*
X006747Y019759D01*
X006711Y019775D01*
X006677Y019795D01*
X006645Y019818D01*
X006616Y019844D01*
X006589Y019873D01*
X006565Y019904D01*
X006545Y019938D01*
X006528Y019973D01*
X006515Y020010D01*
X006505Y020048D01*
X006499Y020087D01*
X006497Y020126D01*
X017875Y027252D02*
X017877Y027291D01*
X017883Y027330D01*
X017893Y027368D01*
X017906Y027405D01*
X017923Y027440D01*
X017943Y027474D01*
X017967Y027505D01*
X017994Y027534D01*
X018023Y027560D01*
X018055Y027583D01*
X018089Y027603D01*
X018125Y027619D01*
X018162Y027631D01*
X018201Y027640D01*
X018240Y027645D01*
X018279Y027646D01*
X018318Y027643D01*
X018357Y027636D01*
X018394Y027625D01*
X018431Y027611D01*
X018466Y027593D01*
X018499Y027572D01*
X018530Y027547D01*
X018558Y027520D01*
X018583Y027490D01*
X018605Y027457D01*
X018624Y027423D01*
X018639Y027387D01*
X018651Y027349D01*
X018659Y027311D01*
X018663Y027272D01*
X018663Y027232D01*
X018659Y027193D01*
X018651Y027155D01*
X018639Y027117D01*
X018624Y027081D01*
X018605Y027047D01*
X018583Y027014D01*
X018558Y026984D01*
X018530Y026957D01*
X018499Y026932D01*
X018466Y026911D01*
X018431Y026893D01*
X018394Y026879D01*
X018357Y026868D01*
X018318Y026861D01*
X018279Y026858D01*
X018240Y026859D01*
X018201Y026864D01*
X018162Y026873D01*
X018125Y026885D01*
X018089Y026901D01*
X018055Y026921D01*
X018023Y026944D01*
X017994Y026970D01*
X017967Y026999D01*
X017943Y027030D01*
X017923Y027064D01*
X017906Y027099D01*
X017893Y027136D01*
X017883Y027174D01*
X017877Y027213D01*
X017875Y027252D01*
X018465Y020126D02*
X018467Y020165D01*
X018473Y020204D01*
X018483Y020242D01*
X018496Y020279D01*
X018513Y020314D01*
X018533Y020348D01*
X018557Y020379D01*
X018584Y020408D01*
X018613Y020434D01*
X018645Y020457D01*
X018679Y020477D01*
X018715Y020493D01*
X018752Y020505D01*
X018791Y020514D01*
X018830Y020519D01*
X018869Y020520D01*
X018908Y020517D01*
X018947Y020510D01*
X018984Y020499D01*
X019021Y020485D01*
X019056Y020467D01*
X019089Y020446D01*
X019120Y020421D01*
X019148Y020394D01*
X019173Y020364D01*
X019195Y020331D01*
X019214Y020297D01*
X019229Y020261D01*
X019241Y020223D01*
X019249Y020185D01*
X019253Y020146D01*
X019253Y020106D01*
X019249Y020067D01*
X019241Y020029D01*
X019229Y019991D01*
X019214Y019955D01*
X019195Y019921D01*
X019173Y019888D01*
X019148Y019858D01*
X019120Y019831D01*
X019089Y019806D01*
X019056Y019785D01*
X019021Y019767D01*
X018984Y019753D01*
X018947Y019742D01*
X018908Y019735D01*
X018869Y019732D01*
X018830Y019733D01*
X018791Y019738D01*
X018752Y019747D01*
X018715Y019759D01*
X018679Y019775D01*
X018645Y019795D01*
X018613Y019818D01*
X018584Y019844D01*
X018557Y019873D01*
X018533Y019904D01*
X018513Y019938D01*
X018496Y019973D01*
X018483Y020010D01*
X018473Y020048D01*
X018467Y020087D01*
X018465Y020126D01*
X018465Y035376D02*
X018467Y035415D01*
X018473Y035454D01*
X018483Y035492D01*
X018496Y035529D01*
X018513Y035564D01*
X018533Y035598D01*
X018557Y035629D01*
X018584Y035658D01*
X018613Y035684D01*
X018645Y035707D01*
X018679Y035727D01*
X018715Y035743D01*
X018752Y035755D01*
X018791Y035764D01*
X018830Y035769D01*
X018869Y035770D01*
X018908Y035767D01*
X018947Y035760D01*
X018984Y035749D01*
X019021Y035735D01*
X019056Y035717D01*
X019089Y035696D01*
X019120Y035671D01*
X019148Y035644D01*
X019173Y035614D01*
X019195Y035581D01*
X019214Y035547D01*
X019229Y035511D01*
X019241Y035473D01*
X019249Y035435D01*
X019253Y035396D01*
X019253Y035356D01*
X019249Y035317D01*
X019241Y035279D01*
X019229Y035241D01*
X019214Y035205D01*
X019195Y035171D01*
X019173Y035138D01*
X019148Y035108D01*
X019120Y035081D01*
X019089Y035056D01*
X019056Y035035D01*
X019021Y035017D01*
X018984Y035003D01*
X018947Y034992D01*
X018908Y034985D01*
X018869Y034982D01*
X018830Y034983D01*
X018791Y034988D01*
X018752Y034997D01*
X018715Y035009D01*
X018679Y035025D01*
X018645Y035045D01*
X018613Y035068D01*
X018584Y035094D01*
X018557Y035123D01*
X018533Y035154D01*
X018513Y035188D01*
X018496Y035223D01*
X018483Y035260D01*
X018473Y035298D01*
X018467Y035337D01*
X018465Y035376D01*
X017875Y042502D02*
X017877Y042541D01*
X017883Y042580D01*
X017893Y042618D01*
X017906Y042655D01*
X017923Y042690D01*
X017943Y042724D01*
X017967Y042755D01*
X017994Y042784D01*
X018023Y042810D01*
X018055Y042833D01*
X018089Y042853D01*
X018125Y042869D01*
X018162Y042881D01*
X018201Y042890D01*
X018240Y042895D01*
X018279Y042896D01*
X018318Y042893D01*
X018357Y042886D01*
X018394Y042875D01*
X018431Y042861D01*
X018466Y042843D01*
X018499Y042822D01*
X018530Y042797D01*
X018558Y042770D01*
X018583Y042740D01*
X018605Y042707D01*
X018624Y042673D01*
X018639Y042637D01*
X018651Y042599D01*
X018659Y042561D01*
X018663Y042522D01*
X018663Y042482D01*
X018659Y042443D01*
X018651Y042405D01*
X018639Y042367D01*
X018624Y042331D01*
X018605Y042297D01*
X018583Y042264D01*
X018558Y042234D01*
X018530Y042207D01*
X018499Y042182D01*
X018466Y042161D01*
X018431Y042143D01*
X018394Y042129D01*
X018357Y042118D01*
X018318Y042111D01*
X018279Y042108D01*
X018240Y042109D01*
X018201Y042114D01*
X018162Y042123D01*
X018125Y042135D01*
X018089Y042151D01*
X018055Y042171D01*
X018023Y042194D01*
X017994Y042220D01*
X017967Y042249D01*
X017943Y042280D01*
X017923Y042314D01*
X017906Y042349D01*
X017893Y042386D01*
X017883Y042424D01*
X017877Y042463D01*
X017875Y042502D01*
D17*
X021375Y040625D02*
X021375Y040125D01*
X021625Y039875D01*
X023125Y039875D01*
X023375Y040125D01*
X023375Y040625D01*
X023125Y040875D01*
X021625Y040875D01*
X021375Y040625D01*
X021625Y039875D02*
X021375Y039625D01*
X021375Y039125D01*
X021625Y038875D01*
X023125Y038875D01*
X023375Y039125D01*
X023375Y039625D01*
X023125Y039875D01*
X023125Y038875D02*
X023375Y038625D01*
X023375Y038125D01*
X023125Y037875D01*
X021625Y037875D01*
X021375Y038125D01*
X021375Y038625D01*
X021625Y038875D01*
X021625Y037875D02*
X021375Y037625D01*
X021375Y037125D01*
X021625Y036875D01*
X023125Y036875D01*
X023375Y037125D01*
X023375Y037625D01*
X023125Y037875D01*
X023125Y036875D02*
X023375Y036625D01*
X023375Y036125D01*
X023125Y035875D01*
X021625Y035875D01*
X021375Y036125D01*
X021375Y036625D01*
X021625Y036875D01*
X021625Y035875D02*
X021375Y035625D01*
X021375Y035125D01*
X021625Y034875D01*
X023125Y034875D01*
X023375Y035125D01*
X023375Y035625D01*
X023125Y035875D01*
X023125Y034875D02*
X023375Y034625D01*
X023375Y034125D01*
X023125Y033875D01*
X021625Y033875D01*
X021375Y034125D01*
X021375Y034625D01*
X021625Y034875D01*
X021625Y033875D02*
X021375Y033625D01*
X021375Y033125D01*
X021625Y032875D01*
X023125Y032875D01*
X023375Y032625D01*
X023375Y032125D01*
X023125Y031875D01*
X021625Y031875D01*
X021375Y032125D01*
X021375Y032625D01*
X021625Y032875D01*
X021625Y031875D02*
X021375Y031625D01*
X021375Y031125D01*
X021625Y030875D01*
X023125Y030875D01*
X023375Y030625D01*
X023375Y030125D01*
X023125Y029875D01*
X021625Y029875D01*
X021375Y030125D01*
X021375Y030625D01*
X021625Y030875D01*
X021625Y029875D02*
X021375Y029625D01*
X021375Y029125D01*
X021625Y028875D01*
X023125Y028875D01*
X023375Y028625D01*
X023375Y028125D01*
X023125Y027875D01*
X021625Y027875D01*
X021375Y028125D01*
X021375Y028625D01*
X021625Y028875D01*
X021625Y027875D02*
X021375Y027625D01*
X021375Y027125D01*
X021625Y026875D01*
X023125Y026875D01*
X023375Y026625D01*
X023375Y026125D01*
X023125Y025875D01*
X021625Y025875D01*
X021375Y026125D01*
X021375Y026625D01*
X021625Y026875D01*
X021625Y025875D02*
X021375Y025625D01*
X021375Y025125D01*
X021625Y024875D01*
X023125Y024875D01*
X023375Y024625D01*
X023375Y024125D01*
X023125Y023875D01*
X021625Y023875D01*
X021375Y024125D01*
X021375Y024625D01*
X021625Y024875D01*
X021625Y023875D02*
X021375Y023625D01*
X021375Y023125D01*
X021625Y022875D01*
X023125Y022875D01*
X023375Y023125D01*
X023375Y023625D01*
X023125Y023875D01*
X023125Y022875D02*
X023375Y022625D01*
X023375Y022125D01*
X023125Y021875D01*
X021625Y021875D01*
X021375Y022125D01*
X021375Y022625D01*
X021625Y022875D01*
X021625Y021875D02*
X021375Y021625D01*
X021375Y021125D01*
X021625Y020875D01*
X023125Y020875D01*
X023375Y021125D01*
X023375Y021625D01*
X023125Y021875D01*
X023125Y020875D02*
X023375Y020625D01*
X023375Y020125D01*
X023125Y019875D01*
X021625Y019875D01*
X021375Y020125D01*
X021375Y020625D01*
X021625Y020875D01*
X021625Y019875D02*
X021375Y019625D01*
X021375Y019125D01*
X021625Y018875D01*
X023125Y018875D01*
X023375Y019125D01*
X023375Y019625D01*
X023125Y019875D01*
X023125Y018875D02*
X023375Y018625D01*
X023375Y018125D01*
X023125Y017875D01*
X021625Y017875D01*
X021375Y018125D01*
X021375Y018625D01*
X021625Y018875D01*
X023125Y024875D02*
X023375Y025125D01*
X023375Y025625D01*
X023125Y025875D01*
X023125Y026875D02*
X023375Y027125D01*
X023375Y027625D01*
X023125Y027875D01*
X023125Y028875D02*
X023375Y029125D01*
X023375Y029625D01*
X023125Y029875D01*
X023125Y030875D02*
X023375Y031125D01*
X023375Y031625D01*
X023125Y031875D01*
X023125Y032875D02*
X023375Y033125D01*
X023375Y033625D01*
X023125Y033875D01*
X013045Y029015D02*
X012705Y029015D01*
X012705Y028735D02*
X013045Y028735D01*
X004375Y028625D02*
X004375Y028125D01*
X004125Y027875D01*
X002625Y027875D01*
X002375Y028125D01*
X002375Y028625D01*
X002625Y028875D01*
X004125Y028875D01*
X004375Y028625D01*
X004125Y028875D02*
X004375Y029125D01*
X004375Y029625D01*
X004125Y029875D01*
X002625Y029875D01*
X002375Y030125D01*
X002375Y030625D01*
X002625Y030875D01*
X004125Y030875D01*
X004375Y030625D01*
X004375Y030125D01*
X004125Y029875D01*
X004125Y030875D02*
X004375Y031125D01*
X004375Y031625D01*
X004125Y031875D01*
X002625Y031875D01*
X002375Y032125D01*
X002375Y032625D01*
X002625Y032875D01*
X004125Y032875D01*
X004375Y032625D01*
X004375Y032125D01*
X004125Y031875D01*
X004125Y032875D02*
X004375Y033125D01*
X004375Y033625D01*
X004125Y033875D01*
X004375Y034125D01*
X004375Y034625D01*
X004125Y034875D01*
X004375Y035125D01*
X004375Y035625D01*
X004125Y035875D01*
X004375Y036125D01*
X004375Y036625D01*
X004125Y036875D01*
X004375Y037125D01*
X004375Y037625D01*
X004125Y037875D01*
X004375Y038125D01*
X004375Y038625D01*
X004125Y038875D01*
X004375Y039125D01*
X004375Y039625D01*
X004125Y039875D01*
X004375Y040125D01*
X004375Y040625D01*
X004125Y040875D01*
X002625Y040875D01*
X002375Y040625D01*
X002375Y040125D01*
X002625Y039875D01*
X004125Y039875D01*
X004125Y038875D02*
X002625Y038875D01*
X002375Y039125D01*
X002375Y039625D01*
X002625Y039875D01*
X002625Y038875D02*
X002375Y038625D01*
X002375Y038125D01*
X002625Y037875D01*
X004125Y037875D01*
X004125Y036875D02*
X002625Y036875D01*
X002375Y037125D01*
X002375Y037625D01*
X002625Y037875D01*
X002625Y036875D02*
X002375Y036625D01*
X002375Y036125D01*
X002625Y035875D01*
X004125Y035875D01*
X004125Y034875D02*
X002625Y034875D01*
X002375Y035125D01*
X002375Y035625D01*
X002625Y035875D01*
X002625Y034875D02*
X002375Y034625D01*
X002375Y034125D01*
X002625Y033875D01*
X004125Y033875D01*
X002625Y033875D02*
X002375Y033625D01*
X002375Y033125D01*
X002625Y032875D01*
X002625Y031875D02*
X002375Y031625D01*
X002375Y031125D01*
X002625Y030875D01*
X002625Y029875D02*
X002375Y029625D01*
X002375Y029125D01*
X002625Y028875D01*
X002625Y027875D02*
X002375Y027625D01*
X002375Y027125D01*
X002625Y026875D01*
X004125Y026875D01*
X004375Y026625D01*
X004375Y026125D01*
X004125Y025875D01*
X002625Y025875D01*
X002375Y026125D01*
X002375Y026625D01*
X002625Y026875D01*
X002625Y025875D02*
X002375Y025625D01*
X002375Y025125D01*
X002625Y024875D01*
X004125Y024875D01*
X004375Y024625D01*
X004375Y024125D01*
X004125Y023875D01*
X002625Y023875D01*
X002375Y024125D01*
X002375Y024625D01*
X002625Y024875D01*
X002625Y023875D02*
X002375Y023625D01*
X002375Y023125D01*
X002625Y022875D01*
X004125Y022875D01*
X004375Y023125D01*
X004375Y023625D01*
X004125Y023875D01*
X004125Y022875D02*
X004375Y022625D01*
X004375Y022125D01*
X004125Y021875D01*
X002625Y021875D01*
X002375Y022125D01*
X002375Y022625D01*
X002625Y022875D01*
X002625Y021875D02*
X002375Y021625D01*
X002375Y021125D01*
X002625Y020875D01*
X004125Y020875D01*
X004375Y021125D01*
X004375Y021625D01*
X004125Y021875D01*
X004125Y020875D02*
X004375Y020625D01*
X004375Y020125D01*
X004125Y019875D01*
X002625Y019875D01*
X002375Y020125D01*
X002375Y020625D01*
X002625Y020875D01*
X002625Y019875D02*
X002375Y019625D01*
X002375Y019125D01*
X002625Y018875D01*
X004125Y018875D01*
X004375Y019125D01*
X004375Y019625D01*
X004125Y019875D01*
X004125Y018875D02*
X004375Y018625D01*
X004375Y018125D01*
X004125Y017875D01*
X002625Y017875D01*
X002375Y018125D01*
X002375Y018625D01*
X002625Y018875D01*
X004125Y024875D02*
X004375Y025125D01*
X004375Y025625D01*
X004125Y025875D01*
X004125Y026875D02*
X004375Y027125D01*
X004375Y027625D01*
X004125Y027875D01*
D18*
X012625Y028875D03*
X013125Y028875D03*
D19*
X021875Y028375D03*
X021875Y027375D03*
X021875Y026375D03*
X021875Y025375D03*
X021875Y024375D03*
X021875Y023375D03*
X021875Y022375D03*
X021875Y021375D03*
X021875Y020375D03*
X021875Y019375D03*
X021875Y018375D03*
X022875Y018375D03*
X022875Y019375D03*
X022875Y020375D03*
X022875Y021375D03*
X022875Y022375D03*
X022875Y023375D03*
X022875Y024375D03*
X022875Y025375D03*
X022875Y026375D03*
X022875Y027375D03*
X022875Y028375D03*
X022875Y029375D03*
X022875Y030375D03*
X022875Y031375D03*
X022875Y032375D03*
X022875Y033375D03*
X022875Y034375D03*
X022875Y035375D03*
X022875Y036375D03*
X022875Y037375D03*
X022875Y038375D03*
X022875Y039375D03*
X022875Y040375D03*
X021875Y040375D03*
X021875Y039375D03*
X021875Y038375D03*
X021875Y037375D03*
X021875Y036375D03*
X021875Y035375D03*
X021875Y034375D03*
X021875Y033375D03*
X021875Y032375D03*
X021875Y031375D03*
X021875Y030375D03*
X021875Y029375D03*
X003875Y029375D03*
X003875Y030375D03*
X003875Y031375D03*
X003875Y032375D03*
X003875Y033375D03*
X003875Y034375D03*
X003875Y035375D03*
X003875Y036375D03*
X003875Y037375D03*
X003875Y038375D03*
X003875Y039375D03*
X003875Y040375D03*
X002875Y040375D03*
X002875Y039375D03*
X002875Y038375D03*
X002875Y037375D03*
X002875Y036375D03*
X002875Y035375D03*
X002875Y034375D03*
X002875Y033375D03*
X002875Y032375D03*
X002875Y031375D03*
X002875Y030375D03*
X002875Y029375D03*
X002875Y028375D03*
X002875Y027375D03*
X002875Y026375D03*
X002875Y025375D03*
X002875Y024375D03*
X002875Y023375D03*
X002875Y022375D03*
X002875Y021375D03*
X002875Y020375D03*
X002875Y019375D03*
X002875Y018375D03*
X003875Y018375D03*
X003875Y019375D03*
X003875Y020375D03*
X003875Y021375D03*
X003875Y022375D03*
X003875Y023375D03*
X003875Y024375D03*
X003875Y025375D03*
X003875Y026375D03*
X003875Y027375D03*
X003875Y028375D03*
M02*
