%
M48
M72
T01C0.0130
T02C0.0315
T03C0.0394
T04C0.0787
T05C0.0866
%
T01
X12088Y29500
X13322Y31928
X14072Y31928
X13250Y33500
X13250Y34250
X13250Y34875
X13250Y35500
X12500Y35500
X12500Y34875
X12500Y34250
X12500Y33500
X11625Y33500
X11625Y34250
X11625Y34875
X11625Y35500
X10625Y35500
X10625Y34875
X10625Y34250
X10625Y33500
X13662Y29500
X15000Y33500
X15000Y34250
X15000Y34875
X15000Y35500
X15000Y38375
X16750Y35500
X16750Y34875
X16750Y34250
X16750Y33500
X18000Y34375
X20750Y37125
X20750Y38500
X20125Y26250
X20500Y25875
X17625Y24500
X16875Y25375
X11375Y41500
X13875Y43250
T02
X20625Y32375
X20625Y31375
X20625Y30375
X20625Y29375
X20625Y28375
X20625Y27375
T03
X2875Y18375
X2875Y19375
X2875Y20375
X2875Y21375
X2875Y22375
X2875Y23375
X2875Y24375
X2875Y25375
X2875Y26375
X2875Y27375
X2875Y28375
X2875Y29375
X2875Y30375
X2875Y31375
X2875Y32375
X2875Y33375
X2875Y34375
X2875Y35375
X2875Y36375
X2875Y37375
X2875Y38375
X2875Y39375
X2875Y40375
X3875Y40375
X3875Y39375
X3875Y38375
X3875Y37375
X3875Y36375
X3875Y35375
X3875Y34375
X3875Y33375
X3875Y32375
X3875Y31375
X3875Y30375
X3875Y29375
X3875Y28375
X3875Y27375
X3875Y26375
X3875Y25375
X3875Y24375
X3875Y23375
X3875Y22375
X3875Y21375
X3875Y20375
X3875Y19375
X3875Y18375
X9509Y42731
X11241Y42731
X17625Y30375
X18625Y30375
X19625Y30375
X21875Y30375
X21875Y29375
X21875Y28375
X21875Y27375
X21875Y26375
X21875Y25375
X21875Y24375
X21875Y23375
X21875Y22375
X21875Y21375
X21875Y20375
X21875Y19375
X21875Y18375
X22875Y18375
X22875Y19375
X22875Y20375
X22875Y21375
X22875Y22375
X22875Y23375
X22875Y24375
X22875Y25375
X22875Y26375
X22875Y27375
X22875Y28375
X22875Y29375
X22875Y30375
X22875Y31375
X22875Y32375
X22875Y33375
X22875Y34375
X22875Y35375
X22875Y36375
X22875Y37375
X22875Y38375
X22875Y39375
X22875Y40375
X21875Y40375
X21875Y39375
X21875Y38375
X21875Y37375
X21875Y36375
X21875Y35375
X21875Y34375
X21875Y33375
X21875Y32375
X21875Y31375
T04
X18859Y35376
X18269Y42502
X18269Y27252
X18859Y20126
X7481Y27252
X6891Y20126
X6891Y35376
X7481Y42502
T05
X11300Y39825
X12088Y38250
X12875Y36675
X13662Y38250
X14450Y36675
X14450Y39825
X12875Y39825
X11300Y36675
X11300Y24575
X12088Y23000
X12875Y21425
X13662Y23000
X14450Y21425
X14450Y24575
X12875Y24575
X11300Y21425
M30
