G75*
G70*
%OFA0B0*%
%FSLAX24Y24*%
%IPPOS*%
%LPD*%
%AMOC8*
5,1,8,0,0,1.08239X$1,22.5*
%
%ADD10R,0.0592X0.0671*%
%ADD11R,0.0671X0.0592*%
%ADD12R,0.0674X0.0674*%
%ADD13C,0.0674*%
%ADD14C,0.1346*%
%ADD15C,0.0867*%
%ADD16R,0.0474X0.0513*%
%ADD17R,0.0356X0.0867*%
%ADD18R,0.0595X0.0595*%
%ADD19C,0.0595*%
%ADD20C,0.0474*%
D10*
X018626Y029000D03*
X019374Y029000D03*
D11*
X013875Y042501D03*
X013875Y043249D03*
D12*
X017625Y030375D03*
X022875Y018375D03*
X003875Y018375D03*
D13*
X002875Y018375D03*
X002875Y019375D03*
X002875Y020375D03*
X002875Y021375D03*
X002875Y022375D03*
X002875Y023375D03*
X002875Y024375D03*
X002875Y025375D03*
X002875Y026375D03*
X002875Y027375D03*
X002875Y028375D03*
X002875Y029375D03*
X002875Y030375D03*
X002875Y031375D03*
X002875Y032375D03*
X002875Y033375D03*
X002875Y034375D03*
X002875Y035375D03*
X002875Y036375D03*
X002875Y037375D03*
X002875Y038375D03*
X002875Y039375D03*
X002875Y040375D03*
X003875Y040375D03*
X003875Y039375D03*
X003875Y038375D03*
X003875Y037375D03*
X003875Y036375D03*
X003875Y035375D03*
X003875Y034375D03*
X003875Y033375D03*
X003875Y032375D03*
X003875Y031375D03*
X003875Y030375D03*
X003875Y029375D03*
X003875Y028375D03*
X003875Y027375D03*
X003875Y026375D03*
X003875Y025375D03*
X003875Y024375D03*
X003875Y023375D03*
X003875Y022375D03*
X003875Y021375D03*
X003875Y020375D03*
X003875Y019375D03*
X018625Y030375D03*
X019625Y030375D03*
X021875Y030375D03*
X021875Y029375D03*
X021875Y028375D03*
X021875Y027375D03*
X021875Y026375D03*
X021875Y025375D03*
X021875Y024375D03*
X021875Y023375D03*
X021875Y022375D03*
X021875Y021375D03*
X021875Y020375D03*
X021875Y019375D03*
X021875Y018375D03*
X022875Y019375D03*
X022875Y020375D03*
X022875Y021375D03*
X022875Y022375D03*
X022875Y023375D03*
X022875Y024375D03*
X022875Y025375D03*
X022875Y026375D03*
X022875Y027375D03*
X022875Y028375D03*
X022875Y029375D03*
X022875Y030375D03*
X022875Y031375D03*
X022875Y032375D03*
X022875Y033375D03*
X022875Y034375D03*
X022875Y035375D03*
X022875Y036375D03*
X022875Y037375D03*
X022875Y038375D03*
X022875Y039375D03*
X022875Y040375D03*
X021875Y040375D03*
X021875Y039375D03*
X021875Y038375D03*
X021875Y037375D03*
X021875Y036375D03*
X021875Y035375D03*
X021875Y034375D03*
X021875Y033375D03*
X021875Y032375D03*
X021875Y031375D03*
D14*
X014450Y036675D03*
X013662Y038250D03*
X012875Y039825D03*
X012088Y038250D03*
X012875Y036675D03*
X011300Y036675D03*
X011300Y039825D03*
X014450Y039825D03*
X014450Y024575D03*
X013662Y023000D03*
X014450Y021425D03*
X012875Y021425D03*
X012088Y023000D03*
X011300Y021425D03*
X011300Y024575D03*
X012875Y024575D03*
D15*
X007481Y027252D03*
X006891Y020126D03*
X006891Y035376D03*
X007481Y042502D03*
X018269Y042502D03*
X018859Y035376D03*
X018269Y027252D03*
X018859Y020126D03*
D16*
X013210Y028875D03*
X012540Y028875D03*
D17*
X012375Y030319D03*
X013241Y030319D03*
X014107Y030319D03*
X014107Y032681D03*
X013241Y032681D03*
X012375Y032681D03*
X011115Y032681D03*
X011115Y030319D03*
D18*
X020625Y027375D03*
D19*
X020625Y028375D03*
X020625Y029375D03*
X020625Y030375D03*
X020625Y031375D03*
X020625Y032375D03*
D20*
X011241Y042731D03*
X009509Y042731D03*
M02*
