G75*
G70*
%OFA0B0*%
%FSLAX24Y24*%
%IPPOS*%
%LPD*%
%AMOC8*
5,1,8,0,0,1.08239X$1,22.5*
%
%ADD10C,0.0000*%
D10*
X006730Y003306D02*
X006730Y011574D01*
X010667Y011574D01*
X010667Y018660D01*
X006730Y018660D01*
X006730Y024802D01*
X030864Y024802D01*
X031108Y024796D01*
X031350Y024779D01*
X031592Y024750D01*
X031833Y024710D01*
X032071Y024658D01*
X032306Y024595D01*
X032538Y024521D01*
X032766Y024435D01*
X032990Y024339D01*
X033209Y024233D01*
X033423Y024116D01*
X033631Y023990D01*
X033833Y023853D01*
X034028Y023707D01*
X034216Y023552D01*
X034396Y023388D01*
X034568Y023216D01*
X034732Y023036D01*
X034887Y022848D01*
X035033Y022653D01*
X035170Y022451D01*
X035296Y022243D01*
X035413Y022029D01*
X035519Y021810D01*
X035615Y021586D01*
X035701Y021358D01*
X035775Y021126D01*
X035838Y020891D01*
X035890Y020653D01*
X035930Y020412D01*
X035959Y020170D01*
X035976Y019928D01*
X035982Y019684D01*
X035982Y008424D01*
X035976Y008180D01*
X035959Y007938D01*
X035930Y007696D01*
X035890Y007455D01*
X035838Y007217D01*
X035775Y006982D01*
X035701Y006750D01*
X035615Y006522D01*
X035519Y006298D01*
X035413Y006079D01*
X035296Y005865D01*
X035170Y005657D01*
X035033Y005455D01*
X034887Y005260D01*
X034732Y005072D01*
X034568Y004892D01*
X034396Y004720D01*
X034216Y004556D01*
X034028Y004401D01*
X033833Y004255D01*
X033631Y004118D01*
X033423Y003992D01*
X033209Y003875D01*
X032990Y003769D01*
X032766Y003673D01*
X032538Y003587D01*
X032306Y003513D01*
X032071Y003450D01*
X031833Y003398D01*
X031592Y003358D01*
X031350Y003329D01*
X031108Y003312D01*
X030864Y003306D01*
X006730Y003306D01*
X033709Y017759D02*
X033711Y017785D01*
X033717Y017811D01*
X033727Y017836D01*
X033740Y017859D01*
X033756Y017879D01*
X033776Y017897D01*
X033798Y017912D01*
X033821Y017924D01*
X033847Y017932D01*
X033873Y017936D01*
X033899Y017936D01*
X033925Y017932D01*
X033951Y017924D01*
X033975Y017912D01*
X033996Y017897D01*
X034016Y017879D01*
X034032Y017859D01*
X034045Y017836D01*
X034055Y017811D01*
X034061Y017785D01*
X034063Y017759D01*
X034061Y017733D01*
X034055Y017707D01*
X034045Y017682D01*
X034032Y017659D01*
X034016Y017639D01*
X033996Y017621D01*
X033974Y017606D01*
X033951Y017594D01*
X033925Y017586D01*
X033899Y017582D01*
X033873Y017582D01*
X033847Y017586D01*
X033821Y017594D01*
X033797Y017606D01*
X033776Y017621D01*
X033756Y017639D01*
X033740Y017659D01*
X033727Y017682D01*
X033717Y017707D01*
X033711Y017733D01*
X033709Y017759D01*
X033709Y019491D02*
X033711Y019517D01*
X033717Y019543D01*
X033727Y019568D01*
X033740Y019591D01*
X033756Y019611D01*
X033776Y019629D01*
X033798Y019644D01*
X033821Y019656D01*
X033847Y019664D01*
X033873Y019668D01*
X033899Y019668D01*
X033925Y019664D01*
X033951Y019656D01*
X033975Y019644D01*
X033996Y019629D01*
X034016Y019611D01*
X034032Y019591D01*
X034045Y019568D01*
X034055Y019543D01*
X034061Y019517D01*
X034063Y019491D01*
X034061Y019465D01*
X034055Y019439D01*
X034045Y019414D01*
X034032Y019391D01*
X034016Y019371D01*
X033996Y019353D01*
X033974Y019338D01*
X033951Y019326D01*
X033925Y019318D01*
X033899Y019314D01*
X033873Y019314D01*
X033847Y019318D01*
X033821Y019326D01*
X033797Y019338D01*
X033776Y019353D01*
X033756Y019371D01*
X033740Y019391D01*
X033727Y019414D01*
X033717Y019439D01*
X033711Y019465D01*
X033709Y019491D01*
M02*
