G75*
G70*
%OFA0B0*%
%FSLAX24Y24*%
%IPPOS*%
%LPD*%
%AMOC8*
5,1,8,0,0,1.08239X$1,22.5*
%
%ADD10C,0.0000*%
%ADD11C,0.0600*%
%ADD12R,0.0984X0.0787*%
%ADD13R,0.0906X0.0197*%
%ADD14C,0.0600*%
%ADD15C,0.0317*%
%ADD16C,0.0160*%
%ADD17C,0.0197*%
%ADD18C,0.0320*%
%ADD19C,0.0110*%
D10*
X006408Y002872D02*
X006408Y011140D01*
X010345Y011140D01*
X010345Y018227D01*
X006408Y018227D01*
X006408Y024369D01*
X030541Y024369D01*
X030541Y024368D02*
X030785Y024362D01*
X031027Y024345D01*
X031269Y024316D01*
X031510Y024276D01*
X031748Y024224D01*
X031983Y024161D01*
X032215Y024087D01*
X032443Y024001D01*
X032667Y023905D01*
X032886Y023799D01*
X033100Y023682D01*
X033308Y023556D01*
X033510Y023419D01*
X033705Y023273D01*
X033893Y023118D01*
X034073Y022954D01*
X034245Y022782D01*
X034409Y022602D01*
X034564Y022414D01*
X034710Y022219D01*
X034847Y022017D01*
X034973Y021809D01*
X035090Y021595D01*
X035196Y021376D01*
X035292Y021152D01*
X035378Y020924D01*
X035452Y020692D01*
X035515Y020457D01*
X035567Y020219D01*
X035607Y019978D01*
X035636Y019736D01*
X035653Y019494D01*
X035659Y019250D01*
X035660Y019250D02*
X035660Y007991D01*
X033295Y011517D02*
X033297Y011560D01*
X033303Y011603D01*
X033313Y011645D01*
X033326Y011686D01*
X033343Y011726D01*
X033364Y011764D01*
X033388Y011800D01*
X033416Y011833D01*
X033446Y011864D01*
X033479Y011892D01*
X033514Y011917D01*
X033551Y011939D01*
X033591Y011957D01*
X033631Y011971D01*
X033673Y011982D01*
X033716Y011989D01*
X033759Y011992D01*
X033802Y011991D01*
X033845Y011986D01*
X033888Y011977D01*
X033929Y011965D01*
X033969Y011948D01*
X034007Y011928D01*
X034044Y011905D01*
X034078Y011879D01*
X034110Y011849D01*
X034138Y011817D01*
X034164Y011782D01*
X034187Y011745D01*
X034206Y011706D01*
X034221Y011666D01*
X034233Y011624D01*
X034241Y011582D01*
X034245Y011539D01*
X034245Y011495D01*
X034241Y011452D01*
X034233Y011410D01*
X034221Y011368D01*
X034206Y011328D01*
X034187Y011289D01*
X034164Y011252D01*
X034138Y011217D01*
X034110Y011185D01*
X034078Y011155D01*
X034044Y011129D01*
X034008Y011106D01*
X033969Y011086D01*
X033929Y011069D01*
X033888Y011057D01*
X033845Y011048D01*
X033802Y011043D01*
X033759Y011042D01*
X033716Y011045D01*
X033673Y011052D01*
X033631Y011063D01*
X033591Y011077D01*
X033551Y011095D01*
X033514Y011117D01*
X033479Y011142D01*
X033446Y011170D01*
X033416Y011201D01*
X033388Y011234D01*
X033364Y011270D01*
X033343Y011308D01*
X033326Y011348D01*
X033313Y011389D01*
X033303Y011431D01*
X033297Y011474D01*
X033295Y011517D01*
X035659Y007991D02*
X035653Y007747D01*
X035636Y007505D01*
X035607Y007263D01*
X035567Y007022D01*
X035515Y006784D01*
X035452Y006549D01*
X035378Y006317D01*
X035292Y006089D01*
X035196Y005865D01*
X035090Y005646D01*
X034973Y005432D01*
X034847Y005224D01*
X034710Y005022D01*
X034564Y004827D01*
X034409Y004639D01*
X034245Y004459D01*
X034073Y004287D01*
X033893Y004123D01*
X033705Y003968D01*
X033510Y003822D01*
X033308Y003685D01*
X033100Y003559D01*
X032886Y003442D01*
X032667Y003336D01*
X032443Y003240D01*
X032215Y003154D01*
X031983Y003080D01*
X031748Y003017D01*
X031510Y002965D01*
X031269Y002925D01*
X031027Y002896D01*
X030785Y002879D01*
X030541Y002873D01*
X030541Y002872D02*
X006408Y002872D01*
X033295Y015567D02*
X033297Y015610D01*
X033303Y015653D01*
X033313Y015695D01*
X033326Y015736D01*
X033343Y015776D01*
X033364Y015814D01*
X033388Y015850D01*
X033416Y015883D01*
X033446Y015914D01*
X033479Y015942D01*
X033514Y015967D01*
X033551Y015989D01*
X033591Y016007D01*
X033631Y016021D01*
X033673Y016032D01*
X033716Y016039D01*
X033759Y016042D01*
X033802Y016041D01*
X033845Y016036D01*
X033888Y016027D01*
X033929Y016015D01*
X033969Y015998D01*
X034007Y015978D01*
X034044Y015955D01*
X034078Y015929D01*
X034110Y015899D01*
X034138Y015867D01*
X034164Y015832D01*
X034187Y015795D01*
X034206Y015756D01*
X034221Y015716D01*
X034233Y015674D01*
X034241Y015632D01*
X034245Y015589D01*
X034245Y015545D01*
X034241Y015502D01*
X034233Y015460D01*
X034221Y015418D01*
X034206Y015378D01*
X034187Y015339D01*
X034164Y015302D01*
X034138Y015267D01*
X034110Y015235D01*
X034078Y015205D01*
X034044Y015179D01*
X034008Y015156D01*
X033969Y015136D01*
X033929Y015119D01*
X033888Y015107D01*
X033845Y015098D01*
X033802Y015093D01*
X033759Y015092D01*
X033716Y015095D01*
X033673Y015102D01*
X033631Y015113D01*
X033591Y015127D01*
X033551Y015145D01*
X033514Y015167D01*
X033479Y015192D01*
X033446Y015220D01*
X033416Y015251D01*
X033388Y015284D01*
X033364Y015320D01*
X033343Y015358D01*
X033326Y015398D01*
X033313Y015439D01*
X033303Y015481D01*
X033297Y015524D01*
X033295Y015567D01*
X033522Y017609D02*
X033524Y017635D01*
X033530Y017661D01*
X033540Y017686D01*
X033553Y017709D01*
X033569Y017729D01*
X033589Y017747D01*
X033611Y017762D01*
X033634Y017774D01*
X033660Y017782D01*
X033686Y017786D01*
X033712Y017786D01*
X033738Y017782D01*
X033764Y017774D01*
X033788Y017762D01*
X033809Y017747D01*
X033829Y017729D01*
X033845Y017709D01*
X033858Y017686D01*
X033868Y017661D01*
X033874Y017635D01*
X033876Y017609D01*
X033874Y017583D01*
X033868Y017557D01*
X033858Y017532D01*
X033845Y017509D01*
X033829Y017489D01*
X033809Y017471D01*
X033787Y017456D01*
X033764Y017444D01*
X033738Y017436D01*
X033712Y017432D01*
X033686Y017432D01*
X033660Y017436D01*
X033634Y017444D01*
X033610Y017456D01*
X033589Y017471D01*
X033569Y017489D01*
X033553Y017509D01*
X033540Y017532D01*
X033530Y017557D01*
X033524Y017583D01*
X033522Y017609D01*
X033522Y019341D02*
X033524Y019367D01*
X033530Y019393D01*
X033540Y019418D01*
X033553Y019441D01*
X033569Y019461D01*
X033589Y019479D01*
X033611Y019494D01*
X033634Y019506D01*
X033660Y019514D01*
X033686Y019518D01*
X033712Y019518D01*
X033738Y019514D01*
X033764Y019506D01*
X033788Y019494D01*
X033809Y019479D01*
X033829Y019461D01*
X033845Y019441D01*
X033858Y019418D01*
X033868Y019393D01*
X033874Y019367D01*
X033876Y019341D01*
X033874Y019315D01*
X033868Y019289D01*
X033858Y019264D01*
X033845Y019241D01*
X033829Y019221D01*
X033809Y019203D01*
X033787Y019188D01*
X033764Y019176D01*
X033738Y019168D01*
X033712Y019164D01*
X033686Y019164D01*
X033660Y019168D01*
X033634Y019176D01*
X033610Y019188D01*
X033589Y019203D01*
X033569Y019221D01*
X033553Y019241D01*
X033540Y019264D01*
X033530Y019289D01*
X033524Y019315D01*
X033522Y019341D01*
D11*
X031433Y022622D03*
X030433Y022622D03*
X029433Y022622D03*
X028433Y022622D03*
X027433Y022622D03*
X026433Y022622D03*
X025433Y022622D03*
X024433Y022622D03*
X023433Y022622D03*
X022433Y022622D03*
X021433Y022622D03*
X020433Y022622D03*
X019433Y022622D03*
X018433Y022622D03*
X017433Y022622D03*
X016433Y022622D03*
X015433Y022622D03*
X014433Y022622D03*
X013433Y022622D03*
X012433Y022622D03*
X011433Y022622D03*
X010433Y022622D03*
X009433Y022622D03*
X009433Y023622D03*
X010433Y023622D03*
X011433Y023622D03*
X012433Y023622D03*
X013433Y023622D03*
X014433Y023622D03*
X015433Y023622D03*
X016433Y023622D03*
X017433Y023622D03*
X018433Y023622D03*
X019433Y023622D03*
X020433Y023622D03*
X021433Y023622D03*
X022433Y023622D03*
X023433Y023622D03*
X024433Y023622D03*
X025433Y023622D03*
X026433Y023622D03*
X027433Y023622D03*
X028433Y023622D03*
X029433Y023622D03*
X030433Y023622D03*
X031433Y023622D03*
X031433Y004622D03*
X030433Y004622D03*
X029433Y004622D03*
X028433Y004622D03*
X027433Y004622D03*
X026433Y004622D03*
X025433Y004622D03*
X024433Y004622D03*
X023433Y004622D03*
X022433Y004622D03*
X021433Y004622D03*
X020433Y004622D03*
X019433Y004622D03*
X018433Y004622D03*
X017433Y004622D03*
X016433Y004622D03*
X015433Y004622D03*
X014433Y004622D03*
X013433Y004622D03*
X012433Y004622D03*
X011433Y004622D03*
X010433Y004622D03*
X009433Y004622D03*
X009433Y003622D03*
X010433Y003622D03*
X011433Y003622D03*
X012433Y003622D03*
X013433Y003622D03*
X014433Y003622D03*
X015433Y003622D03*
X016433Y003622D03*
X017433Y003622D03*
X018433Y003622D03*
X019433Y003622D03*
X020433Y003622D03*
X021433Y003622D03*
X022433Y003622D03*
X023433Y003622D03*
X024433Y003622D03*
X025433Y003622D03*
X026433Y003622D03*
X027433Y003622D03*
X028433Y003622D03*
X029433Y003622D03*
X030433Y003622D03*
X031433Y003622D03*
D12*
X032715Y016723D03*
X034880Y016723D03*
X034880Y020227D03*
X032715Y020227D03*
D13*
X032675Y019105D03*
X032675Y018790D03*
X032675Y018475D03*
X032675Y018160D03*
X032675Y017845D03*
D14*
X025433Y006172D02*
X025433Y005572D01*
X024433Y005572D02*
X024433Y006172D01*
X023433Y006172D02*
X023433Y005572D01*
X022433Y005572D02*
X022433Y006172D01*
X021433Y006172D02*
X021433Y005572D01*
X020433Y005572D02*
X020433Y006172D01*
D15*
X026132Y008306D03*
X028100Y008345D03*
X027746Y016967D03*
X025384Y018384D03*
X024124Y018030D03*
X020581Y018581D03*
X019990Y019959D03*
X018022Y020943D03*
X015660Y021534D03*
X013494Y020156D03*
X013494Y019172D03*
X015660Y017872D03*
X031733Y018333D03*
X031753Y018777D03*
D16*
X032648Y018817D01*
X032675Y018790D01*
X032663Y019093D02*
X032675Y019105D01*
X032675Y018475D02*
X032653Y018452D01*
X032153Y018452D01*
X032034Y018333D01*
X031733Y018333D01*
X030986Y017845D02*
X029597Y016455D01*
X027471Y016455D01*
X026841Y017085D01*
X025778Y017085D01*
X025266Y017597D01*
X025266Y018345D01*
X025384Y018463D01*
X025384Y018384D01*
X021183Y018372D02*
X021183Y019872D01*
X020383Y020672D01*
X019283Y020672D01*
X019283Y020172D01*
X021183Y018372D02*
X019583Y016772D01*
X019583Y012672D01*
X019183Y012272D01*
X018583Y012272D01*
X017783Y011472D01*
X017783Y008372D01*
X017983Y008172D01*
X017983Y006672D01*
X019483Y005572D02*
X019483Y011172D01*
X018883Y011772D01*
X021083Y011872D02*
X021083Y014172D01*
X020083Y015172D01*
X025983Y012472D02*
X027283Y012472D01*
X030683Y015872D01*
X030683Y016672D01*
X031598Y016543D02*
X031283Y015672D01*
X027583Y011972D01*
X027483Y011972D01*
X028100Y008345D02*
X028061Y008306D01*
X026132Y008306D01*
X030986Y017845D02*
X032675Y017845D01*
X032673Y018473D02*
X032675Y018475D01*
D17*
X032133Y019366D02*
X031980Y019366D01*
X031468Y019366D01*
X031332Y019229D01*
X029303Y017200D01*
X027990Y017200D01*
X027937Y017253D01*
X027813Y017304D01*
X027679Y017304D01*
X027555Y017253D01*
X027460Y017158D01*
X027409Y017034D01*
X027409Y016900D01*
X027422Y016869D01*
X027060Y017231D01*
X026987Y017304D01*
X026892Y017343D01*
X025885Y017343D01*
X025524Y017704D01*
X025524Y018077D01*
X025575Y018098D01*
X025670Y018193D01*
X025721Y018317D01*
X025721Y018451D01*
X025670Y018575D01*
X025575Y018670D01*
X025451Y018721D01*
X025435Y018721D01*
X025333Y018721D01*
X025317Y018721D01*
X025193Y018670D01*
X025098Y018575D01*
X025075Y018520D01*
X025047Y018491D01*
X025007Y018396D01*
X025007Y018293D01*
X025007Y017545D01*
X025047Y017450D01*
X025119Y017378D01*
X025631Y016866D01*
X025726Y016827D01*
X025829Y016827D01*
X026734Y016827D01*
X027324Y016236D01*
X027419Y016197D01*
X027522Y016197D01*
X029648Y016197D01*
X029743Y016236D01*
X029816Y016309D01*
X031093Y017586D01*
X032130Y017586D01*
X032149Y017568D01*
X033023Y017568D01*
X033023Y017474D01*
X033098Y017295D01*
X032149Y017295D01*
X032044Y017190D01*
X032044Y016255D01*
X032149Y016151D01*
X032977Y016151D01*
X032945Y016118D01*
X032796Y015760D01*
X032796Y015373D01*
X032945Y015015D01*
X033218Y014741D01*
X033576Y014593D01*
X033963Y014593D01*
X034321Y014741D01*
X034595Y015015D01*
X034743Y015373D01*
X034743Y015760D01*
X034595Y016118D01*
X034562Y016151D01*
X035161Y016151D01*
X035161Y007990D01*
X035147Y007628D01*
X035033Y006912D01*
X034809Y006223D01*
X034480Y005577D01*
X034054Y004990D01*
X033542Y004478D01*
X032955Y004052D01*
X032309Y003722D01*
X031912Y003593D01*
X031912Y003718D01*
X031839Y003893D01*
X031704Y004028D01*
X031528Y004101D01*
X031338Y004101D01*
X031162Y004028D01*
X031028Y003893D01*
X030955Y003718D01*
X030955Y003527D01*
X031007Y003401D01*
X030904Y003385D01*
X030852Y003383D01*
X030912Y003527D01*
X030912Y003718D01*
X030839Y003893D01*
X030704Y004028D01*
X030528Y004101D01*
X030338Y004101D01*
X030162Y004028D01*
X030028Y003893D01*
X029955Y003718D01*
X029955Y003527D01*
X030020Y003371D01*
X029847Y003371D01*
X029912Y003527D01*
X029912Y003718D01*
X029839Y003893D01*
X029704Y004028D01*
X029528Y004101D01*
X029338Y004101D01*
X029162Y004028D01*
X029028Y003893D01*
X028955Y003718D01*
X028955Y003527D01*
X029020Y003371D01*
X028847Y003371D01*
X028912Y003527D01*
X028912Y003718D01*
X028839Y003893D01*
X028704Y004028D01*
X028528Y004101D01*
X028338Y004101D01*
X028162Y004028D01*
X028028Y003893D01*
X027955Y003718D01*
X027955Y003527D01*
X028020Y003371D01*
X027847Y003371D01*
X027912Y003527D01*
X027912Y003718D01*
X027839Y003893D01*
X027704Y004028D01*
X027528Y004101D01*
X027338Y004101D01*
X027162Y004028D01*
X027028Y003893D01*
X026955Y003718D01*
X026955Y003527D01*
X027020Y003371D01*
X026847Y003371D01*
X026912Y003527D01*
X026912Y003718D01*
X026839Y003893D01*
X026704Y004028D01*
X026528Y004101D01*
X026338Y004101D01*
X026162Y004028D01*
X026028Y003893D01*
X025955Y003718D01*
X025955Y003527D01*
X026020Y003371D01*
X025847Y003371D01*
X025912Y003527D01*
X025912Y003718D01*
X025839Y003893D01*
X025704Y004028D01*
X025528Y004101D01*
X025338Y004101D01*
X025162Y004028D01*
X025028Y003893D01*
X024955Y003718D01*
X024955Y003527D01*
X025020Y003371D01*
X024847Y003371D01*
X024912Y003527D01*
X024912Y003718D01*
X024839Y003893D01*
X024704Y004028D01*
X024528Y004101D01*
X024338Y004101D01*
X024162Y004028D01*
X024028Y003893D01*
X023955Y003718D01*
X023955Y003527D01*
X024020Y003371D01*
X023847Y003371D01*
X023912Y003527D01*
X023912Y003718D01*
X023839Y003893D01*
X023704Y004028D01*
X023528Y004101D01*
X023338Y004101D01*
X023162Y004028D01*
X023028Y003893D01*
X022955Y003718D01*
X022955Y003527D01*
X023020Y003371D01*
X022847Y003371D01*
X022912Y003527D01*
X022912Y003718D01*
X022839Y003893D01*
X022704Y004028D01*
X022528Y004101D01*
X022338Y004101D01*
X022162Y004028D01*
X022028Y003893D01*
X021955Y003718D01*
X021955Y003527D01*
X022020Y003371D01*
X021847Y003371D01*
X021912Y003527D01*
X021912Y003718D01*
X021839Y003893D01*
X021704Y004028D01*
X021528Y004101D01*
X021338Y004101D01*
X021162Y004028D01*
X021028Y003893D01*
X020955Y003718D01*
X020955Y003527D01*
X021020Y003371D01*
X020847Y003371D01*
X020912Y003527D01*
X020912Y003718D01*
X020839Y003893D01*
X020704Y004028D01*
X020528Y004101D01*
X020338Y004101D01*
X020162Y004028D01*
X020028Y003893D01*
X019955Y003718D01*
X019955Y003527D01*
X020020Y003371D01*
X019847Y003371D01*
X019912Y003527D01*
X019912Y003718D01*
X019839Y003893D01*
X019704Y004028D01*
X019528Y004101D01*
X019338Y004101D01*
X019162Y004028D01*
X019028Y003893D01*
X018955Y003718D01*
X018955Y003527D01*
X019020Y003371D01*
X018847Y003371D01*
X018912Y003527D01*
X018912Y003718D01*
X018839Y003893D01*
X018704Y004028D01*
X018528Y004101D01*
X018338Y004101D01*
X018162Y004028D01*
X018028Y003893D01*
X017955Y003718D01*
X017955Y003527D01*
X018020Y003371D01*
X017847Y003371D01*
X017912Y003527D01*
X017912Y003718D01*
X017839Y003893D01*
X017704Y004028D01*
X017528Y004101D01*
X017338Y004101D01*
X017162Y004028D01*
X017028Y003893D01*
X016955Y003718D01*
X016955Y003527D01*
X017020Y003371D01*
X016847Y003371D01*
X016912Y003527D01*
X016912Y003718D01*
X016839Y003893D01*
X016704Y004028D01*
X016528Y004101D01*
X016338Y004101D01*
X016162Y004028D01*
X016028Y003893D01*
X015955Y003718D01*
X015955Y003527D01*
X016020Y003371D01*
X015847Y003371D01*
X015912Y003527D01*
X015912Y003718D01*
X015839Y003893D01*
X015704Y004028D01*
X015528Y004101D01*
X015338Y004101D01*
X015162Y004028D01*
X015028Y003893D01*
X014955Y003718D01*
X014955Y003527D01*
X015020Y003371D01*
X014847Y003371D01*
X014912Y003527D01*
X014912Y003718D01*
X014839Y003893D01*
X014704Y004028D01*
X014528Y004101D01*
X014338Y004101D01*
X014162Y004028D01*
X014028Y003893D01*
X013955Y003718D01*
X013955Y003527D01*
X014020Y003371D01*
X013847Y003371D01*
X013912Y003527D01*
X013912Y003718D01*
X013839Y003893D01*
X013704Y004028D01*
X013528Y004101D01*
X013338Y004101D01*
X013162Y004028D01*
X013028Y003893D01*
X012955Y003718D01*
X012955Y003527D01*
X013020Y003371D01*
X012847Y003371D01*
X012912Y003527D01*
X012912Y003718D01*
X012839Y003893D01*
X012704Y004028D01*
X012528Y004101D01*
X012338Y004101D01*
X012162Y004028D01*
X012028Y003893D01*
X011955Y003718D01*
X011955Y003527D01*
X012020Y003371D01*
X011847Y003371D01*
X011912Y003527D01*
X011912Y003718D01*
X011839Y003893D01*
X011704Y004028D01*
X011528Y004101D01*
X011338Y004101D01*
X011162Y004028D01*
X011028Y003893D01*
X010955Y003718D01*
X010955Y003527D01*
X011020Y003371D01*
X010864Y003371D01*
X010895Y003431D01*
X010919Y003506D01*
X010932Y003583D01*
X010932Y003621D01*
X010435Y003621D01*
X010435Y003624D01*
X010932Y003624D01*
X010932Y003662D01*
X010919Y003739D01*
X010895Y003814D01*
X010859Y003884D01*
X010813Y003947D01*
X010758Y004003D01*
X010694Y004049D01*
X010624Y004084D01*
X010550Y004109D01*
X010472Y004121D01*
X010435Y004121D01*
X010435Y003624D01*
X010431Y003624D01*
X010431Y003621D01*
X009935Y003621D01*
X009935Y003583D01*
X009947Y003506D01*
X009971Y003431D01*
X010002Y003371D01*
X009847Y003371D01*
X009912Y003527D01*
X009912Y003718D01*
X009839Y003893D01*
X009704Y004028D01*
X009528Y004101D01*
X009338Y004101D01*
X009162Y004028D01*
X009028Y003893D01*
X008955Y003718D01*
X008955Y003527D01*
X009020Y003371D01*
X006906Y003371D01*
X006906Y010642D01*
X010444Y010642D01*
X010627Y010718D01*
X010767Y010858D01*
X010843Y011041D01*
X010843Y011239D01*
X010843Y018326D01*
X010767Y018509D01*
X010627Y018649D01*
X010444Y018725D01*
X010245Y018725D01*
X006906Y018725D01*
X006906Y023870D01*
X009018Y023870D01*
X008955Y023718D01*
X008955Y023527D01*
X009028Y023351D01*
X009162Y023217D01*
X009338Y023144D01*
X009528Y023144D01*
X009704Y023217D01*
X009839Y023351D01*
X009912Y023527D01*
X009912Y023718D01*
X009848Y023870D01*
X010018Y023870D01*
X009955Y023718D01*
X009955Y023527D01*
X010028Y023351D01*
X010162Y023217D01*
X010338Y023144D01*
X010528Y023144D01*
X010704Y023217D01*
X010839Y023351D01*
X010912Y023527D01*
X010912Y023718D01*
X010848Y023870D01*
X011018Y023870D01*
X010955Y023718D01*
X010955Y023527D01*
X011028Y023351D01*
X011162Y023217D01*
X011338Y023144D01*
X011528Y023144D01*
X011704Y023217D01*
X011839Y023351D01*
X011912Y023527D01*
X011912Y023718D01*
X011848Y023870D01*
X012018Y023870D01*
X011955Y023718D01*
X011955Y023527D01*
X012028Y023351D01*
X012162Y023217D01*
X012338Y023144D01*
X012528Y023144D01*
X012704Y023217D01*
X012839Y023351D01*
X012912Y023527D01*
X012912Y023718D01*
X012848Y023870D01*
X013018Y023870D01*
X012955Y023718D01*
X012955Y023527D01*
X013028Y023351D01*
X013162Y023217D01*
X013338Y023144D01*
X013528Y023144D01*
X013704Y023217D01*
X013839Y023351D01*
X013912Y023527D01*
X013912Y023718D01*
X013848Y023870D01*
X014018Y023870D01*
X013955Y023718D01*
X013955Y023527D01*
X014028Y023351D01*
X014162Y023217D01*
X014338Y023144D01*
X014528Y023144D01*
X014704Y023217D01*
X014839Y023351D01*
X014912Y023527D01*
X014912Y023718D01*
X014848Y023870D01*
X015018Y023870D01*
X014955Y023718D01*
X014955Y023527D01*
X015028Y023351D01*
X015162Y023217D01*
X015338Y023144D01*
X015528Y023144D01*
X015704Y023217D01*
X015839Y023351D01*
X015912Y023527D01*
X015912Y023718D01*
X015848Y023870D01*
X016018Y023870D01*
X015955Y023718D01*
X015955Y023527D01*
X016028Y023351D01*
X016162Y023217D01*
X016338Y023144D01*
X016528Y023144D01*
X016704Y023217D01*
X016839Y023351D01*
X016912Y023527D01*
X016912Y023718D01*
X016848Y023870D01*
X017018Y023870D01*
X016955Y023718D01*
X016955Y023527D01*
X017028Y023351D01*
X017162Y023217D01*
X017338Y023144D01*
X017528Y023144D01*
X017704Y023217D01*
X017839Y023351D01*
X017912Y023527D01*
X017912Y023718D01*
X017848Y023870D01*
X018018Y023870D01*
X017955Y023718D01*
X017955Y023527D01*
X018028Y023351D01*
X018162Y023217D01*
X018338Y023144D01*
X018528Y023144D01*
X018704Y023217D01*
X018839Y023351D01*
X018912Y023527D01*
X018912Y023718D01*
X018848Y023870D01*
X019018Y023870D01*
X018955Y023718D01*
X018955Y023527D01*
X019028Y023351D01*
X019162Y023217D01*
X019338Y023144D01*
X019528Y023144D01*
X019704Y023217D01*
X019839Y023351D01*
X019912Y023527D01*
X019912Y023718D01*
X019848Y023870D01*
X020018Y023870D01*
X019955Y023718D01*
X019955Y023527D01*
X020028Y023351D01*
X020162Y023217D01*
X020338Y023144D01*
X020528Y023144D01*
X020704Y023217D01*
X020839Y023351D01*
X020912Y023527D01*
X020912Y023718D01*
X020848Y023870D01*
X021018Y023870D01*
X020955Y023718D01*
X020955Y023527D01*
X021028Y023351D01*
X021162Y023217D01*
X021338Y023144D01*
X021528Y023144D01*
X021704Y023217D01*
X021839Y023351D01*
X021912Y023527D01*
X021912Y023718D01*
X021848Y023870D01*
X022018Y023870D01*
X021955Y023718D01*
X021955Y023527D01*
X022028Y023351D01*
X022162Y023217D01*
X022338Y023144D01*
X022528Y023144D01*
X022704Y023217D01*
X022839Y023351D01*
X022912Y023527D01*
X022912Y023718D01*
X022848Y023870D01*
X023018Y023870D01*
X022955Y023718D01*
X022955Y023527D01*
X023028Y023351D01*
X023162Y023217D01*
X023338Y023144D01*
X023528Y023144D01*
X023704Y023217D01*
X023839Y023351D01*
X023912Y023527D01*
X023912Y023718D01*
X023848Y023870D01*
X024018Y023870D01*
X023955Y023718D01*
X023955Y023527D01*
X024028Y023351D01*
X024162Y023217D01*
X024338Y023144D01*
X024528Y023144D01*
X024704Y023217D01*
X024839Y023351D01*
X024912Y023527D01*
X024912Y023718D01*
X024848Y023870D01*
X025018Y023870D01*
X024955Y023718D01*
X024955Y023527D01*
X025028Y023351D01*
X025162Y023217D01*
X025338Y023144D01*
X025528Y023144D01*
X025704Y023217D01*
X025839Y023351D01*
X025912Y023527D01*
X025912Y023718D01*
X025848Y023870D01*
X026018Y023870D01*
X025955Y023718D01*
X025955Y023527D01*
X026028Y023351D01*
X026162Y023217D01*
X026338Y023144D01*
X026528Y023144D01*
X026704Y023217D01*
X026839Y023351D01*
X026912Y023527D01*
X026912Y023718D01*
X026848Y023870D01*
X027018Y023870D01*
X026955Y023718D01*
X026955Y023527D01*
X027028Y023351D01*
X027162Y023217D01*
X027338Y023144D01*
X027528Y023144D01*
X027704Y023217D01*
X027839Y023351D01*
X027912Y023527D01*
X027912Y023718D01*
X027848Y023870D01*
X028018Y023870D01*
X027955Y023718D01*
X027955Y023527D01*
X028028Y023351D01*
X028162Y023217D01*
X028338Y023144D01*
X028528Y023144D01*
X028704Y023217D01*
X028839Y023351D01*
X028912Y023527D01*
X028912Y023718D01*
X028848Y023870D01*
X029018Y023870D01*
X028955Y023718D01*
X028955Y023527D01*
X029028Y023351D01*
X029162Y023217D01*
X029338Y023144D01*
X029528Y023144D01*
X029704Y023217D01*
X029839Y023351D01*
X029912Y023527D01*
X029912Y023718D01*
X029848Y023870D01*
X030018Y023870D01*
X029955Y023718D01*
X029955Y023527D01*
X030028Y023351D01*
X030162Y023217D01*
X030338Y023144D01*
X030528Y023144D01*
X030704Y023217D01*
X030839Y023351D01*
X030912Y023527D01*
X030912Y023718D01*
X030853Y023858D01*
X030904Y023856D01*
X031005Y023840D01*
X030955Y023718D01*
X030955Y023527D01*
X031028Y023351D01*
X031162Y023217D01*
X031338Y023144D01*
X031528Y023144D01*
X031704Y023217D01*
X031839Y023351D01*
X031912Y023527D01*
X031912Y023648D01*
X032309Y023518D01*
X032955Y023189D01*
X033542Y022763D01*
X034054Y022251D01*
X034480Y021664D01*
X034809Y021018D01*
X034881Y020799D01*
X034314Y020799D01*
X034209Y020694D01*
X034209Y019786D01*
X034082Y019914D01*
X033833Y020016D01*
X033564Y020016D01*
X033385Y019942D01*
X033385Y020694D01*
X033281Y020799D01*
X032149Y020799D01*
X032044Y020694D01*
X032044Y019759D01*
X032149Y019655D01*
X033098Y019655D01*
X033023Y019475D01*
X033023Y019382D01*
X032149Y019382D01*
X032133Y019366D01*
X032127Y019676D02*
X021442Y019676D01*
X021442Y019821D02*
X021442Y019924D01*
X021402Y020019D01*
X020602Y020819D01*
X020530Y020891D01*
X020435Y020931D01*
X019335Y020931D01*
X019232Y020931D01*
X019137Y020891D01*
X019064Y020819D01*
X019025Y020724D01*
X019025Y020393D01*
X018996Y020364D01*
X018945Y020240D01*
X018945Y020105D01*
X018996Y019981D01*
X019091Y019886D01*
X019216Y019834D01*
X019350Y019834D01*
X019475Y019886D01*
X019570Y019981D01*
X019622Y020105D01*
X019622Y020240D01*
X019570Y020364D01*
X019542Y020393D01*
X019542Y020414D01*
X020276Y020414D01*
X020925Y019765D01*
X020925Y018479D01*
X019364Y016919D01*
X019325Y016824D01*
X019325Y016721D01*
X019325Y012779D01*
X019076Y012531D01*
X018532Y012531D01*
X018437Y012491D01*
X018364Y012419D01*
X017617Y011671D01*
X017617Y017676D01*
X017775Y017834D01*
X017850Y017834D01*
X017975Y017886D01*
X018070Y017981D01*
X018122Y018105D01*
X018122Y018240D01*
X018070Y018364D01*
X017975Y018459D01*
X017850Y018511D01*
X017716Y018511D01*
X017591Y018459D01*
X017496Y018364D01*
X017445Y018240D01*
X017445Y018164D01*
X017150Y017869D01*
X017150Y017676D01*
X017150Y006718D01*
X017096Y006664D01*
X017045Y006540D01*
X017045Y006405D01*
X017096Y006281D01*
X017191Y006186D01*
X017316Y006134D01*
X017450Y006134D01*
X017575Y006186D01*
X017670Y006281D01*
X017722Y006405D01*
X017722Y006455D01*
X017791Y006386D01*
X017916Y006334D01*
X018050Y006334D01*
X018175Y006386D01*
X018270Y006481D01*
X018322Y006605D01*
X018322Y006740D01*
X018270Y006864D01*
X018242Y006893D01*
X018242Y008121D01*
X018242Y008224D01*
X018202Y008319D01*
X018042Y008479D01*
X018042Y011365D01*
X018565Y011889D01*
X018545Y011840D01*
X018545Y011705D01*
X018596Y011581D01*
X018691Y011486D01*
X018816Y011434D01*
X018856Y011434D01*
X019225Y011065D01*
X019225Y005793D01*
X019196Y005764D01*
X019145Y005640D01*
X019145Y005505D01*
X019196Y005381D01*
X019291Y005286D01*
X019416Y005234D01*
X019550Y005234D01*
X019675Y005286D01*
X019770Y005381D01*
X019822Y005505D01*
X019822Y005640D01*
X019770Y005764D01*
X019742Y005793D01*
X019742Y011121D01*
X019742Y011224D01*
X019702Y011319D01*
X019222Y011799D01*
X019222Y011840D01*
X019170Y011964D01*
X019120Y012014D01*
X019132Y012014D01*
X019235Y012014D01*
X019330Y012053D01*
X019730Y012453D01*
X019802Y012526D01*
X019842Y012621D01*
X019842Y014935D01*
X019891Y014886D01*
X020016Y014834D01*
X020056Y014834D01*
X020825Y014065D01*
X020825Y012093D01*
X020796Y012064D01*
X020745Y011940D01*
X020745Y011805D01*
X020796Y011681D01*
X020891Y011586D01*
X021016Y011534D01*
X021150Y011534D01*
X021275Y011586D01*
X021370Y011681D01*
X021422Y011805D01*
X021422Y011940D01*
X021370Y012064D01*
X021342Y012093D01*
X021342Y014224D01*
X021302Y014319D01*
X021230Y014391D01*
X021229Y014391D01*
X020422Y015199D01*
X020422Y015240D01*
X020370Y015364D01*
X020275Y015459D01*
X020150Y015511D01*
X020016Y015511D01*
X019891Y015459D01*
X019842Y015409D01*
X019842Y016665D01*
X021330Y018153D01*
X021402Y018226D01*
X021442Y018321D01*
X021442Y019821D01*
X021442Y019872D02*
X032044Y019872D01*
X032044Y020067D02*
X021354Y020067D01*
X021159Y020262D02*
X032044Y020262D01*
X032044Y020458D02*
X020963Y020458D01*
X020768Y020653D02*
X032044Y020653D01*
X033385Y020653D02*
X034209Y020653D01*
X034209Y020458D02*
X033385Y020458D01*
X033385Y020262D02*
X034209Y020262D01*
X034209Y020067D02*
X033385Y020067D01*
X033026Y019481D02*
X021442Y019481D01*
X021442Y019286D02*
X031388Y019286D01*
X031193Y019090D02*
X021442Y019090D01*
X021442Y018895D02*
X030997Y018895D01*
X030802Y018699D02*
X025504Y018699D01*
X025264Y018699D02*
X021442Y018699D01*
X021442Y018504D02*
X025059Y018504D01*
X025007Y018309D02*
X021436Y018309D01*
X021289Y018113D02*
X025007Y018113D01*
X025007Y017918D02*
X021094Y017918D01*
X020899Y017722D02*
X025007Y017722D01*
X025015Y017527D02*
X020703Y017527D01*
X020508Y017332D02*
X025166Y017332D01*
X025361Y017136D02*
X020312Y017136D01*
X020117Y016941D02*
X025556Y016941D01*
X025701Y017527D02*
X029630Y017527D01*
X029825Y017722D02*
X025524Y017722D01*
X025524Y017918D02*
X030020Y017918D01*
X030216Y018113D02*
X025590Y018113D01*
X025717Y018309D02*
X030411Y018309D01*
X030607Y018504D02*
X025699Y018504D01*
X026921Y017332D02*
X029434Y017332D01*
X030252Y016745D02*
X030347Y016745D01*
X030345Y016740D02*
X030345Y016605D01*
X030396Y016481D01*
X030425Y016452D01*
X030425Y015979D01*
X027176Y012731D01*
X026203Y012731D01*
X026175Y012759D01*
X026050Y012811D01*
X025916Y012811D01*
X025791Y012759D01*
X025696Y012664D01*
X025645Y012540D01*
X025645Y012405D01*
X025696Y012281D01*
X025791Y012186D01*
X025916Y012134D01*
X026050Y012134D01*
X026175Y012186D01*
X026203Y012214D01*
X027232Y012214D01*
X027246Y012214D01*
X027196Y012164D01*
X027145Y012040D01*
X027145Y011905D01*
X027196Y011781D01*
X027291Y011686D01*
X027416Y011634D01*
X027550Y011634D01*
X027675Y011686D01*
X027770Y011781D01*
X027779Y011803D01*
X031434Y015458D01*
X031439Y015460D01*
X031470Y015493D01*
X031502Y015526D01*
X031505Y015532D01*
X031509Y015536D01*
X031524Y015579D01*
X031542Y015621D01*
X031542Y015627D01*
X031765Y016246D01*
X031790Y016256D01*
X031885Y016351D01*
X031936Y016475D01*
X031936Y016610D01*
X031885Y016734D01*
X031790Y016829D01*
X031665Y016881D01*
X031531Y016881D01*
X031406Y016829D01*
X031311Y016734D01*
X031260Y016610D01*
X031260Y016475D01*
X031281Y016425D01*
X031060Y015815D01*
X027554Y012309D01*
X027550Y012311D01*
X027487Y012311D01*
X030830Y015653D01*
X030902Y015726D01*
X030942Y015821D01*
X030942Y016452D01*
X030970Y016481D01*
X031022Y016605D01*
X031022Y016740D01*
X030970Y016864D01*
X030875Y016959D01*
X030750Y017011D01*
X030616Y017011D01*
X030491Y016959D01*
X030396Y016864D01*
X030345Y016740D01*
X030368Y016550D02*
X030057Y016550D01*
X029861Y016355D02*
X030425Y016355D01*
X030425Y016159D02*
X019842Y016159D01*
X019842Y015964D02*
X030409Y015964D01*
X030214Y015768D02*
X019842Y015768D01*
X019842Y015573D02*
X030018Y015573D01*
X029823Y015378D02*
X020356Y015378D01*
X020439Y015182D02*
X029627Y015182D01*
X029432Y014987D02*
X020634Y014987D01*
X020830Y014791D02*
X029237Y014791D01*
X029041Y014596D02*
X021025Y014596D01*
X021220Y014401D02*
X028846Y014401D01*
X028651Y014205D02*
X021342Y014205D01*
X021342Y014010D02*
X028455Y014010D01*
X028260Y013814D02*
X021342Y013814D01*
X021342Y013619D02*
X028064Y013619D01*
X027869Y013424D02*
X021342Y013424D01*
X021342Y013228D02*
X027674Y013228D01*
X027478Y013033D02*
X021342Y013033D01*
X021342Y012838D02*
X027283Y012838D01*
X027623Y012447D02*
X027692Y012447D01*
X027818Y012642D02*
X027887Y012642D01*
X028014Y012838D02*
X028083Y012838D01*
X028209Y013033D02*
X028278Y013033D01*
X028404Y013228D02*
X028474Y013228D01*
X028600Y013424D02*
X028669Y013424D01*
X028795Y013619D02*
X028864Y013619D01*
X028991Y013814D02*
X029060Y013814D01*
X029186Y014010D02*
X029255Y014010D01*
X029381Y014205D02*
X029451Y014205D01*
X029577Y014401D02*
X029646Y014401D01*
X029772Y014596D02*
X029841Y014596D01*
X029968Y014791D02*
X030037Y014791D01*
X030163Y014987D02*
X030232Y014987D01*
X030358Y015182D02*
X030428Y015182D01*
X030554Y015378D02*
X030623Y015378D01*
X030749Y015573D02*
X030818Y015573D01*
X030920Y015768D02*
X031014Y015768D01*
X030942Y015964D02*
X031114Y015964D01*
X031185Y016159D02*
X030942Y016159D01*
X030942Y016355D02*
X031255Y016355D01*
X031260Y016550D02*
X030999Y016550D01*
X031019Y016745D02*
X031322Y016745D01*
X030893Y016941D02*
X032044Y016941D01*
X032044Y017136D02*
X030643Y017136D01*
X030473Y016941D02*
X030448Y016941D01*
X030838Y017332D02*
X033082Y017332D01*
X033023Y017527D02*
X031034Y017527D01*
X031874Y016745D02*
X032044Y016745D01*
X032044Y016550D02*
X031936Y016550D01*
X031887Y016355D02*
X032044Y016355D01*
X032140Y016159D02*
X031734Y016159D01*
X031663Y015964D02*
X032881Y015964D01*
X032800Y015768D02*
X031593Y015768D01*
X031522Y015573D02*
X032796Y015573D01*
X032796Y015378D02*
X031354Y015378D01*
X031158Y015182D02*
X032875Y015182D01*
X032973Y014987D02*
X030963Y014987D01*
X030768Y014791D02*
X033168Y014791D01*
X033569Y014596D02*
X030572Y014596D01*
X030377Y014401D02*
X035161Y014401D01*
X035161Y014596D02*
X033970Y014596D01*
X034371Y014791D02*
X035161Y014791D01*
X035161Y014987D02*
X034566Y014987D01*
X034664Y015182D02*
X035161Y015182D01*
X035161Y015378D02*
X034743Y015378D01*
X034743Y015573D02*
X035161Y015573D01*
X035161Y015768D02*
X034740Y015768D01*
X034659Y015964D02*
X035161Y015964D01*
X035161Y014205D02*
X030181Y014205D01*
X029986Y014010D02*
X035161Y014010D01*
X035161Y013814D02*
X029791Y013814D01*
X029595Y013619D02*
X035161Y013619D01*
X035161Y013424D02*
X029400Y013424D01*
X029204Y013228D02*
X035161Y013228D01*
X035161Y013033D02*
X029009Y013033D01*
X028814Y012838D02*
X035161Y012838D01*
X035161Y012642D02*
X028618Y012642D01*
X028423Y012447D02*
X033471Y012447D01*
X033576Y012490D02*
X033218Y012342D01*
X032945Y012068D01*
X032796Y011710D01*
X032796Y011323D01*
X032945Y010965D01*
X033218Y010691D01*
X033576Y010543D01*
X033963Y010543D01*
X034321Y010691D01*
X034595Y010965D01*
X034743Y011323D01*
X034743Y011710D01*
X034595Y012068D01*
X034321Y012342D01*
X033963Y012490D01*
X033576Y012490D01*
X033128Y012251D02*
X028227Y012251D01*
X028032Y012056D02*
X032940Y012056D01*
X032859Y011861D02*
X027837Y011861D01*
X027626Y011665D02*
X032796Y011665D01*
X032796Y011470D02*
X019551Y011470D01*
X019721Y011274D02*
X032816Y011274D01*
X032897Y011079D02*
X019742Y011079D01*
X019742Y010884D02*
X033026Y010884D01*
X033226Y010688D02*
X019742Y010688D01*
X019742Y010493D02*
X035161Y010493D01*
X035161Y010688D02*
X034313Y010688D01*
X034513Y010884D02*
X035161Y010884D01*
X035161Y011079D02*
X034642Y011079D01*
X034723Y011274D02*
X035161Y011274D01*
X035161Y011470D02*
X034743Y011470D01*
X034743Y011665D02*
X035161Y011665D01*
X035161Y011861D02*
X034681Y011861D01*
X034600Y012056D02*
X035161Y012056D01*
X035161Y012251D02*
X034412Y012251D01*
X034068Y012447D02*
X035161Y012447D01*
X035161Y010297D02*
X019742Y010297D01*
X019742Y010102D02*
X035161Y010102D01*
X035161Y009907D02*
X019742Y009907D01*
X019742Y009711D02*
X035161Y009711D01*
X035161Y009516D02*
X019742Y009516D01*
X019742Y009320D02*
X035161Y009320D01*
X035161Y009125D02*
X019742Y009125D01*
X019742Y008930D02*
X035161Y008930D01*
X035161Y008734D02*
X019742Y008734D01*
X019742Y008539D02*
X025889Y008539D01*
X025846Y008496D02*
X025795Y008373D01*
X025795Y008238D01*
X025846Y008114D01*
X025941Y008020D01*
X026065Y007968D01*
X026199Y007968D01*
X026323Y008020D01*
X026350Y008047D01*
X027938Y008047D01*
X028033Y008008D01*
X028168Y008008D01*
X028291Y008059D01*
X028386Y008154D01*
X028438Y008278D01*
X028438Y008412D01*
X028386Y008536D01*
X028291Y008631D01*
X028168Y008682D01*
X028033Y008682D01*
X027909Y008631D01*
X027843Y008564D01*
X026350Y008564D01*
X026323Y008591D01*
X026199Y008643D01*
X026065Y008643D01*
X025941Y008591D01*
X025846Y008496D01*
X025795Y008343D02*
X019742Y008343D01*
X019742Y008148D02*
X025832Y008148D01*
X025528Y006651D02*
X025338Y006651D01*
X025162Y006578D01*
X025028Y006443D01*
X024955Y006268D01*
X024955Y005477D01*
X025028Y005301D01*
X025162Y005167D01*
X025330Y005097D01*
X025162Y005028D01*
X025028Y004893D01*
X024955Y004718D01*
X024955Y004527D01*
X025028Y004351D01*
X025162Y004217D01*
X025338Y004144D01*
X025528Y004144D01*
X025704Y004217D01*
X025839Y004351D01*
X025912Y004527D01*
X025912Y004718D01*
X025839Y004893D01*
X025704Y005028D01*
X025536Y005097D01*
X025704Y005167D01*
X025839Y005301D01*
X025912Y005477D01*
X025912Y006268D01*
X025839Y006443D01*
X025704Y006578D01*
X025528Y006651D01*
X025687Y006585D02*
X034927Y006585D01*
X034991Y006780D02*
X019742Y006780D01*
X019742Y006585D02*
X020179Y006585D01*
X020162Y006578D02*
X020028Y006443D01*
X019955Y006268D01*
X019955Y005477D01*
X020028Y005301D01*
X020162Y005167D01*
X020330Y005097D01*
X020162Y005028D01*
X020028Y004893D01*
X019955Y004718D01*
X019955Y004527D01*
X020028Y004351D01*
X020162Y004217D01*
X020338Y004144D01*
X020528Y004144D01*
X020704Y004217D01*
X020839Y004351D01*
X020912Y004527D01*
X020912Y004718D01*
X020839Y004893D01*
X020704Y005028D01*
X020536Y005097D01*
X020704Y005167D01*
X020839Y005301D01*
X020912Y005477D01*
X020912Y006268D01*
X020839Y006443D01*
X020704Y006578D01*
X020528Y006651D01*
X020338Y006651D01*
X020162Y006578D01*
X020005Y006390D02*
X019742Y006390D01*
X019742Y006194D02*
X019955Y006194D01*
X019955Y005999D02*
X019742Y005999D01*
X019742Y005803D02*
X019955Y005803D01*
X019955Y005608D02*
X019822Y005608D01*
X019783Y005413D02*
X019981Y005413D01*
X020112Y005217D02*
X006906Y005217D01*
X006906Y005022D02*
X009156Y005022D01*
X009162Y005028D02*
X009028Y004893D01*
X008955Y004718D01*
X008955Y004527D01*
X009028Y004351D01*
X009162Y004217D01*
X009338Y004144D01*
X009528Y004144D01*
X009704Y004217D01*
X009839Y004351D01*
X009912Y004527D01*
X009912Y004718D01*
X009839Y004893D01*
X009704Y005028D01*
X009528Y005101D01*
X009338Y005101D01*
X009162Y005028D01*
X009000Y004826D02*
X006906Y004826D01*
X006906Y004631D02*
X008955Y004631D01*
X008993Y004436D02*
X006906Y004436D01*
X006906Y004240D02*
X009139Y004240D01*
X009203Y004045D02*
X006906Y004045D01*
X006906Y003849D02*
X009009Y003849D01*
X008955Y003654D02*
X006906Y003654D01*
X006906Y003459D02*
X008983Y003459D01*
X009664Y004045D02*
X010167Y004045D01*
X010172Y004049D02*
X010108Y004003D01*
X010053Y003947D01*
X010007Y003884D01*
X009971Y003814D01*
X009947Y003739D01*
X009935Y003662D01*
X009935Y003624D01*
X010431Y003624D01*
X010431Y004121D01*
X010394Y004121D01*
X010316Y004109D01*
X010242Y004084D01*
X010172Y004049D01*
X010242Y004161D02*
X010172Y004196D01*
X010108Y004242D01*
X010053Y004298D01*
X010007Y004361D01*
X009971Y004431D01*
X009947Y004506D01*
X009935Y004583D01*
X009935Y004621D01*
X010431Y004621D01*
X010431Y004624D01*
X009935Y004624D01*
X009935Y004662D01*
X009947Y004739D01*
X009971Y004814D01*
X010007Y004884D01*
X010053Y004947D01*
X010108Y005003D01*
X010172Y005049D01*
X010242Y005084D01*
X010316Y005109D01*
X010394Y005121D01*
X010431Y005121D01*
X010431Y004624D01*
X010435Y004624D01*
X010932Y004624D01*
X010932Y004662D01*
X010919Y004739D01*
X010895Y004814D01*
X010859Y004884D01*
X010813Y004947D01*
X010758Y005003D01*
X010694Y005049D01*
X010624Y005084D01*
X010550Y005109D01*
X010472Y005121D01*
X010435Y005121D01*
X010435Y004624D01*
X010435Y004621D01*
X010932Y004621D01*
X010932Y004583D01*
X010919Y004506D01*
X010895Y004431D01*
X010859Y004361D01*
X010813Y004298D01*
X010758Y004242D01*
X010694Y004196D01*
X010624Y004161D01*
X010550Y004136D01*
X010472Y004124D01*
X010435Y004124D01*
X010435Y004621D01*
X010431Y004621D01*
X010431Y004124D01*
X010394Y004124D01*
X010316Y004136D01*
X010242Y004161D01*
X010111Y004240D02*
X009727Y004240D01*
X009874Y004436D02*
X009970Y004436D01*
X009935Y004631D02*
X009912Y004631D01*
X009866Y004826D02*
X009978Y004826D01*
X010135Y005022D02*
X009710Y005022D01*
X010431Y005022D02*
X010435Y005022D01*
X010431Y004826D02*
X010435Y004826D01*
X010431Y004631D02*
X010435Y004631D01*
X010431Y004436D02*
X010435Y004436D01*
X010431Y004240D02*
X010435Y004240D01*
X010431Y004045D02*
X010435Y004045D01*
X010431Y003849D02*
X010435Y003849D01*
X010431Y003654D02*
X010435Y003654D01*
X010877Y003849D02*
X011009Y003849D01*
X010955Y003654D02*
X010932Y003654D01*
X010904Y003459D02*
X010983Y003459D01*
X011203Y004045D02*
X010700Y004045D01*
X010755Y004240D02*
X011139Y004240D01*
X011162Y004217D02*
X011338Y004144D01*
X011528Y004144D01*
X011704Y004217D01*
X011839Y004351D01*
X011912Y004527D01*
X011912Y004718D01*
X011839Y004893D01*
X011704Y005028D01*
X011528Y005101D01*
X011338Y005101D01*
X011162Y005028D01*
X011028Y004893D01*
X010955Y004718D01*
X010955Y004527D01*
X011028Y004351D01*
X011162Y004217D01*
X010993Y004436D02*
X010896Y004436D01*
X010932Y004631D02*
X010955Y004631D01*
X011000Y004826D02*
X010889Y004826D01*
X010731Y005022D02*
X011156Y005022D01*
X011710Y005022D02*
X012156Y005022D01*
X012162Y005028D02*
X012028Y004893D01*
X011955Y004718D01*
X011955Y004527D01*
X012028Y004351D01*
X012162Y004217D01*
X012338Y004144D01*
X012528Y004144D01*
X012704Y004217D01*
X012839Y004351D01*
X012912Y004527D01*
X012912Y004718D01*
X012839Y004893D01*
X012704Y005028D01*
X012528Y005101D01*
X012338Y005101D01*
X012162Y005028D01*
X012000Y004826D02*
X011866Y004826D01*
X011912Y004631D02*
X011955Y004631D01*
X011993Y004436D02*
X011874Y004436D01*
X011727Y004240D02*
X012139Y004240D01*
X012203Y004045D02*
X011664Y004045D01*
X011857Y003849D02*
X012009Y003849D01*
X011955Y003654D02*
X011912Y003654D01*
X011883Y003459D02*
X011983Y003459D01*
X012664Y004045D02*
X013203Y004045D01*
X013338Y004144D02*
X013528Y004144D01*
X013704Y004217D01*
X013839Y004351D01*
X013912Y004527D01*
X013912Y004718D01*
X013839Y004893D01*
X013704Y005028D01*
X013528Y005101D01*
X013338Y005101D01*
X013162Y005028D01*
X013028Y004893D01*
X012955Y004718D01*
X012955Y004527D01*
X013028Y004351D01*
X013162Y004217D01*
X013338Y004144D01*
X013139Y004240D02*
X012727Y004240D01*
X012874Y004436D02*
X012993Y004436D01*
X012955Y004631D02*
X012912Y004631D01*
X012866Y004826D02*
X013000Y004826D01*
X013156Y005022D02*
X012710Y005022D01*
X013710Y005022D02*
X014156Y005022D01*
X014162Y005028D02*
X014028Y004893D01*
X013955Y004718D01*
X013955Y004527D01*
X014028Y004351D01*
X014162Y004217D01*
X014338Y004144D01*
X014528Y004144D01*
X014704Y004217D01*
X014839Y004351D01*
X014912Y004527D01*
X014912Y004718D01*
X014839Y004893D01*
X014704Y005028D01*
X014528Y005101D01*
X014338Y005101D01*
X014162Y005028D01*
X014000Y004826D02*
X013866Y004826D01*
X013912Y004631D02*
X013955Y004631D01*
X013993Y004436D02*
X013874Y004436D01*
X013727Y004240D02*
X014139Y004240D01*
X014203Y004045D02*
X013664Y004045D01*
X013857Y003849D02*
X014009Y003849D01*
X013955Y003654D02*
X013912Y003654D01*
X013883Y003459D02*
X013983Y003459D01*
X014664Y004045D02*
X015203Y004045D01*
X015338Y004144D02*
X015162Y004217D01*
X015028Y004351D01*
X014955Y004527D01*
X014955Y004718D01*
X015028Y004893D01*
X015162Y005028D01*
X015338Y005101D01*
X015528Y005101D01*
X015704Y005028D01*
X015839Y004893D01*
X015912Y004718D01*
X015912Y004527D01*
X015839Y004351D01*
X015704Y004217D01*
X015528Y004144D01*
X015338Y004144D01*
X015139Y004240D02*
X014727Y004240D01*
X014874Y004436D02*
X014993Y004436D01*
X014955Y004631D02*
X014912Y004631D01*
X014866Y004826D02*
X015000Y004826D01*
X015156Y005022D02*
X014710Y005022D01*
X015710Y005022D02*
X016156Y005022D01*
X016162Y005028D02*
X016028Y004893D01*
X015955Y004718D01*
X015955Y004527D01*
X016028Y004351D01*
X016162Y004217D01*
X016338Y004144D01*
X016528Y004144D01*
X016704Y004217D01*
X016839Y004351D01*
X016912Y004527D01*
X016912Y004718D01*
X016839Y004893D01*
X016704Y005028D01*
X016528Y005101D01*
X016338Y005101D01*
X016162Y005028D01*
X016000Y004826D02*
X015866Y004826D01*
X015912Y004631D02*
X015955Y004631D01*
X015993Y004436D02*
X015874Y004436D01*
X015727Y004240D02*
X016139Y004240D01*
X016203Y004045D02*
X015664Y004045D01*
X015857Y003849D02*
X016009Y003849D01*
X015955Y003654D02*
X015912Y003654D01*
X015883Y003459D02*
X015983Y003459D01*
X016664Y004045D02*
X017203Y004045D01*
X017338Y004144D02*
X017528Y004144D01*
X017704Y004217D01*
X017839Y004351D01*
X017912Y004527D01*
X017912Y004718D01*
X017839Y004893D01*
X017704Y005028D01*
X017528Y005101D01*
X017338Y005101D01*
X017162Y005028D01*
X017028Y004893D01*
X016955Y004718D01*
X016955Y004527D01*
X017028Y004351D01*
X017162Y004217D01*
X017338Y004144D01*
X017139Y004240D02*
X016727Y004240D01*
X016874Y004436D02*
X016993Y004436D01*
X016955Y004631D02*
X016912Y004631D01*
X016866Y004826D02*
X017000Y004826D01*
X017156Y005022D02*
X016710Y005022D01*
X017710Y005022D02*
X018156Y005022D01*
X018162Y005028D02*
X018028Y004893D01*
X017955Y004718D01*
X017955Y004527D01*
X018028Y004351D01*
X018162Y004217D01*
X018338Y004144D01*
X018528Y004144D01*
X018704Y004217D01*
X018839Y004351D01*
X018912Y004527D01*
X018912Y004718D01*
X018839Y004893D01*
X018704Y005028D01*
X018528Y005101D01*
X018338Y005101D01*
X018162Y005028D01*
X018000Y004826D02*
X017866Y004826D01*
X017912Y004631D02*
X017955Y004631D01*
X017993Y004436D02*
X017874Y004436D01*
X017727Y004240D02*
X018139Y004240D01*
X018203Y004045D02*
X017664Y004045D01*
X017857Y003849D02*
X018009Y003849D01*
X017955Y003654D02*
X017912Y003654D01*
X017883Y003459D02*
X017983Y003459D01*
X018664Y004045D02*
X019203Y004045D01*
X019338Y004144D02*
X019528Y004144D01*
X019704Y004217D01*
X019839Y004351D01*
X019912Y004527D01*
X019912Y004718D01*
X019839Y004893D01*
X019704Y005028D01*
X019528Y005101D01*
X019338Y005101D01*
X019162Y005028D01*
X019028Y004893D01*
X018955Y004718D01*
X018955Y004527D01*
X019028Y004351D01*
X019162Y004217D01*
X019338Y004144D01*
X019139Y004240D02*
X018727Y004240D01*
X018874Y004436D02*
X018993Y004436D01*
X018955Y004631D02*
X018912Y004631D01*
X018866Y004826D02*
X019000Y004826D01*
X019156Y005022D02*
X018710Y005022D01*
X019183Y005413D02*
X006906Y005413D01*
X006906Y005608D02*
X019145Y005608D01*
X019225Y005803D02*
X006906Y005803D01*
X006906Y005999D02*
X019225Y005999D01*
X019225Y006194D02*
X017583Y006194D01*
X017715Y006390D02*
X017787Y006390D01*
X018179Y006390D02*
X019225Y006390D01*
X019225Y006585D02*
X018313Y006585D01*
X018305Y006780D02*
X019225Y006780D01*
X019225Y006976D02*
X018242Y006976D01*
X018242Y007171D02*
X019225Y007171D01*
X019225Y007366D02*
X018242Y007366D01*
X018242Y007562D02*
X019225Y007562D01*
X019225Y007757D02*
X018242Y007757D01*
X018242Y007953D02*
X019225Y007953D01*
X019225Y008148D02*
X018242Y008148D01*
X018178Y008343D02*
X019225Y008343D01*
X019225Y008539D02*
X018042Y008539D01*
X018042Y008734D02*
X019225Y008734D01*
X019225Y008930D02*
X018042Y008930D01*
X018042Y009125D02*
X019225Y009125D01*
X019225Y009320D02*
X018042Y009320D01*
X018042Y009516D02*
X019225Y009516D01*
X019225Y009711D02*
X018042Y009711D01*
X018042Y009907D02*
X019225Y009907D01*
X019225Y010102D02*
X018042Y010102D01*
X018042Y010297D02*
X019225Y010297D01*
X019225Y010493D02*
X018042Y010493D01*
X018042Y010688D02*
X019225Y010688D01*
X019225Y010884D02*
X018042Y010884D01*
X018042Y011079D02*
X019211Y011079D01*
X019016Y011274D02*
X018042Y011274D01*
X018146Y011470D02*
X018729Y011470D01*
X018561Y011665D02*
X018341Y011665D01*
X018537Y011861D02*
X018553Y011861D01*
X018197Y012251D02*
X017617Y012251D01*
X017617Y012056D02*
X018001Y012056D01*
X017806Y011861D02*
X017617Y011861D01*
X017150Y011861D02*
X010843Y011861D01*
X010843Y012056D02*
X017150Y012056D01*
X017150Y012251D02*
X010843Y012251D01*
X010843Y012447D02*
X017150Y012447D01*
X017150Y012642D02*
X010843Y012642D01*
X010843Y012838D02*
X017150Y012838D01*
X017150Y013033D02*
X010843Y013033D01*
X010843Y013228D02*
X017150Y013228D01*
X017150Y013424D02*
X010843Y013424D01*
X010843Y013619D02*
X017150Y013619D01*
X017150Y013814D02*
X010843Y013814D01*
X010843Y014010D02*
X017150Y014010D01*
X017150Y014205D02*
X010843Y014205D01*
X010843Y014401D02*
X017150Y014401D01*
X017150Y014596D02*
X010843Y014596D01*
X010843Y014791D02*
X017150Y014791D01*
X017150Y014987D02*
X010843Y014987D01*
X010843Y015182D02*
X017150Y015182D01*
X017150Y015378D02*
X010843Y015378D01*
X010843Y015573D02*
X017150Y015573D01*
X017150Y015768D02*
X010843Y015768D01*
X010843Y015964D02*
X017150Y015964D01*
X017150Y016159D02*
X010843Y016159D01*
X010843Y016355D02*
X017150Y016355D01*
X017150Y016550D02*
X010843Y016550D01*
X010843Y016745D02*
X017150Y016745D01*
X017150Y016941D02*
X010843Y016941D01*
X010843Y017136D02*
X017150Y017136D01*
X017150Y017332D02*
X010843Y017332D01*
X010843Y017527D02*
X017150Y017527D01*
X017150Y017722D02*
X010843Y017722D01*
X010843Y017918D02*
X017198Y017918D01*
X017394Y018113D02*
X010843Y018113D01*
X010843Y018309D02*
X017473Y018309D01*
X017699Y018504D02*
X010769Y018504D01*
X010506Y018699D02*
X020925Y018699D01*
X020925Y018504D02*
X017867Y018504D01*
X018093Y018309D02*
X020754Y018309D01*
X020558Y018113D02*
X018122Y018113D01*
X018007Y017918D02*
X020363Y017918D01*
X020168Y017722D02*
X017663Y017722D01*
X017617Y017527D02*
X019972Y017527D01*
X019777Y017332D02*
X017617Y017332D01*
X017617Y017136D02*
X019581Y017136D01*
X019386Y016941D02*
X017617Y016941D01*
X017617Y016745D02*
X019325Y016745D01*
X019325Y016550D02*
X017617Y016550D01*
X017617Y016355D02*
X019325Y016355D01*
X019325Y016159D02*
X017617Y016159D01*
X017617Y015964D02*
X019325Y015964D01*
X019325Y015768D02*
X017617Y015768D01*
X017617Y015573D02*
X019325Y015573D01*
X019325Y015378D02*
X017617Y015378D01*
X017617Y015182D02*
X019325Y015182D01*
X019325Y014987D02*
X017617Y014987D01*
X017617Y014791D02*
X019325Y014791D01*
X019325Y014596D02*
X017617Y014596D01*
X017617Y014401D02*
X019325Y014401D01*
X019325Y014205D02*
X017617Y014205D01*
X017617Y014010D02*
X019325Y014010D01*
X019325Y013814D02*
X017617Y013814D01*
X017617Y013619D02*
X019325Y013619D01*
X019325Y013424D02*
X017617Y013424D01*
X017617Y013228D02*
X019325Y013228D01*
X019325Y013033D02*
X017617Y013033D01*
X017617Y012838D02*
X019325Y012838D01*
X019187Y012642D02*
X017617Y012642D01*
X017617Y012447D02*
X018392Y012447D01*
X019213Y011861D02*
X020745Y011861D01*
X020793Y012056D02*
X019332Y012056D01*
X019528Y012251D02*
X020825Y012251D01*
X020825Y012447D02*
X019723Y012447D01*
X019842Y012642D02*
X020825Y012642D01*
X020825Y012838D02*
X019842Y012838D01*
X019842Y013033D02*
X020825Y013033D01*
X020825Y013228D02*
X019842Y013228D01*
X019842Y013424D02*
X020825Y013424D01*
X020825Y013619D02*
X019842Y013619D01*
X019842Y013814D02*
X020825Y013814D01*
X020825Y014010D02*
X019842Y014010D01*
X019842Y014205D02*
X020685Y014205D01*
X020489Y014401D02*
X019842Y014401D01*
X019842Y014596D02*
X020294Y014596D01*
X020099Y014791D02*
X019842Y014791D01*
X019842Y016355D02*
X027206Y016355D01*
X027010Y016550D02*
X019842Y016550D01*
X019922Y016745D02*
X026815Y016745D01*
X027155Y017136D02*
X027451Y017136D01*
X027409Y016941D02*
X027350Y016941D01*
X020925Y018895D02*
X006906Y018895D01*
X006906Y019090D02*
X020925Y019090D01*
X020925Y019286D02*
X006906Y019286D01*
X006906Y019481D02*
X020925Y019481D01*
X020925Y019676D02*
X006906Y019676D01*
X006906Y019872D02*
X019125Y019872D01*
X018960Y020067D02*
X006906Y020067D01*
X006906Y020262D02*
X018954Y020262D01*
X019025Y020458D02*
X006906Y020458D01*
X006906Y020653D02*
X019025Y020653D01*
X019094Y020849D02*
X006906Y020849D01*
X006906Y021044D02*
X034796Y021044D01*
X034865Y020849D02*
X020572Y020849D01*
X020428Y020262D02*
X019612Y020262D01*
X019606Y020067D02*
X020623Y020067D01*
X020818Y019872D02*
X019441Y019872D01*
X019528Y022144D02*
X019338Y022144D01*
X019162Y022217D01*
X019028Y022351D01*
X018955Y022527D01*
X018955Y022718D01*
X019028Y022893D01*
X019162Y023028D01*
X019338Y023101D01*
X019528Y023101D01*
X019704Y023028D01*
X019839Y022893D01*
X019912Y022718D01*
X019912Y022527D01*
X019839Y022351D01*
X019704Y022217D01*
X019528Y022144D01*
X019703Y022216D02*
X020163Y022216D01*
X020162Y022217D02*
X020338Y022144D01*
X020528Y022144D01*
X020704Y022217D01*
X020839Y022351D01*
X020912Y022527D01*
X020912Y022718D01*
X020839Y022893D01*
X020704Y023028D01*
X020528Y023101D01*
X020338Y023101D01*
X020162Y023028D01*
X020028Y022893D01*
X019955Y022718D01*
X019955Y022527D01*
X020028Y022351D01*
X020162Y022217D01*
X020003Y022412D02*
X019864Y022412D01*
X019912Y022607D02*
X019955Y022607D01*
X019990Y022803D02*
X019876Y022803D01*
X019734Y022998D02*
X020132Y022998D01*
X020219Y023193D02*
X019647Y023193D01*
X019854Y023389D02*
X020012Y023389D01*
X019955Y023584D02*
X019912Y023584D01*
X019886Y023780D02*
X019980Y023780D01*
X020647Y023193D02*
X021219Y023193D01*
X021338Y023101D02*
X021162Y023028D01*
X021028Y022893D01*
X020955Y022718D01*
X020955Y022527D01*
X021028Y022351D01*
X021162Y022217D01*
X021338Y022144D01*
X021528Y022144D01*
X021704Y022217D01*
X021839Y022351D01*
X021912Y022527D01*
X021912Y022718D01*
X021839Y022893D01*
X021704Y023028D01*
X021528Y023101D01*
X021338Y023101D01*
X021132Y022998D02*
X020734Y022998D01*
X020876Y022803D02*
X020990Y022803D01*
X020955Y022607D02*
X020912Y022607D01*
X020864Y022412D02*
X021003Y022412D01*
X021163Y022216D02*
X020703Y022216D01*
X021703Y022216D02*
X022163Y022216D01*
X022162Y022217D02*
X022338Y022144D01*
X022528Y022144D01*
X022704Y022217D01*
X022839Y022351D01*
X022912Y022527D01*
X022912Y022718D01*
X022839Y022893D01*
X022704Y023028D01*
X022528Y023101D01*
X022338Y023101D01*
X022162Y023028D01*
X022028Y022893D01*
X021955Y022718D01*
X021955Y022527D01*
X022028Y022351D01*
X022162Y022217D01*
X022003Y022412D02*
X021864Y022412D01*
X021912Y022607D02*
X021955Y022607D01*
X021990Y022803D02*
X021876Y022803D01*
X021734Y022998D02*
X022132Y022998D01*
X022219Y023193D02*
X021647Y023193D01*
X021854Y023389D02*
X022012Y023389D01*
X021955Y023584D02*
X021912Y023584D01*
X021886Y023780D02*
X021980Y023780D01*
X022647Y023193D02*
X023219Y023193D01*
X023338Y023101D02*
X023162Y023028D01*
X023028Y022893D01*
X022955Y022718D01*
X022955Y022527D01*
X023028Y022351D01*
X023162Y022217D01*
X023338Y022144D01*
X023528Y022144D01*
X023704Y022217D01*
X023839Y022351D01*
X023912Y022527D01*
X023912Y022718D01*
X023839Y022893D01*
X023704Y023028D01*
X023528Y023101D01*
X023338Y023101D01*
X023132Y022998D02*
X022734Y022998D01*
X022876Y022803D02*
X022990Y022803D01*
X022955Y022607D02*
X022912Y022607D01*
X022864Y022412D02*
X023003Y022412D01*
X023163Y022216D02*
X022703Y022216D01*
X023703Y022216D02*
X024163Y022216D01*
X024162Y022217D02*
X024338Y022144D01*
X024528Y022144D01*
X024704Y022217D01*
X024839Y022351D01*
X024912Y022527D01*
X024912Y022718D01*
X024839Y022893D01*
X024704Y023028D01*
X024528Y023101D01*
X024338Y023101D01*
X024162Y023028D01*
X024028Y022893D01*
X023955Y022718D01*
X023955Y022527D01*
X024028Y022351D01*
X024162Y022217D01*
X024003Y022412D02*
X023864Y022412D01*
X023912Y022607D02*
X023955Y022607D01*
X023990Y022803D02*
X023876Y022803D01*
X023734Y022998D02*
X024132Y022998D01*
X024219Y023193D02*
X023647Y023193D01*
X023854Y023389D02*
X024012Y023389D01*
X023955Y023584D02*
X023912Y023584D01*
X023886Y023780D02*
X023980Y023780D01*
X024647Y023193D02*
X025219Y023193D01*
X025338Y023101D02*
X025162Y023028D01*
X025028Y022893D01*
X024955Y022718D01*
X024955Y022527D01*
X025028Y022351D01*
X025162Y022217D01*
X025338Y022144D01*
X025528Y022144D01*
X025704Y022217D01*
X025839Y022351D01*
X025912Y022527D01*
X025912Y022718D01*
X025839Y022893D01*
X025704Y023028D01*
X025528Y023101D01*
X025338Y023101D01*
X025132Y022998D02*
X024734Y022998D01*
X024876Y022803D02*
X024990Y022803D01*
X024955Y022607D02*
X024912Y022607D01*
X024864Y022412D02*
X025003Y022412D01*
X025163Y022216D02*
X024703Y022216D01*
X025703Y022216D02*
X026163Y022216D01*
X026162Y022217D02*
X026338Y022144D01*
X026528Y022144D01*
X026704Y022217D01*
X026839Y022351D01*
X026912Y022527D01*
X026912Y022718D01*
X026839Y022893D01*
X026704Y023028D01*
X026528Y023101D01*
X026338Y023101D01*
X026162Y023028D01*
X026028Y022893D01*
X025955Y022718D01*
X025955Y022527D01*
X026028Y022351D01*
X026162Y022217D01*
X026003Y022412D02*
X025864Y022412D01*
X025912Y022607D02*
X025955Y022607D01*
X025990Y022803D02*
X025876Y022803D01*
X025734Y022998D02*
X026132Y022998D01*
X026219Y023193D02*
X025647Y023193D01*
X025854Y023389D02*
X026012Y023389D01*
X025955Y023584D02*
X025912Y023584D01*
X025886Y023780D02*
X025980Y023780D01*
X026647Y023193D02*
X027219Y023193D01*
X027338Y023101D02*
X027162Y023028D01*
X027028Y022893D01*
X026955Y022718D01*
X026955Y022527D01*
X027028Y022351D01*
X027162Y022217D01*
X027338Y022144D01*
X027528Y022144D01*
X027704Y022217D01*
X027839Y022351D01*
X027912Y022527D01*
X027912Y022718D01*
X027839Y022893D01*
X027704Y023028D01*
X027528Y023101D01*
X027338Y023101D01*
X027132Y022998D02*
X026734Y022998D01*
X026876Y022803D02*
X026990Y022803D01*
X026955Y022607D02*
X026912Y022607D01*
X026864Y022412D02*
X027003Y022412D01*
X027163Y022216D02*
X026703Y022216D01*
X027703Y022216D02*
X028163Y022216D01*
X028162Y022217D02*
X028338Y022144D01*
X028528Y022144D01*
X028704Y022217D01*
X028839Y022351D01*
X028912Y022527D01*
X028912Y022718D01*
X028839Y022893D01*
X028704Y023028D01*
X028528Y023101D01*
X028338Y023101D01*
X028162Y023028D01*
X028028Y022893D01*
X027955Y022718D01*
X027955Y022527D01*
X028028Y022351D01*
X028162Y022217D01*
X028003Y022412D02*
X027864Y022412D01*
X027912Y022607D02*
X027955Y022607D01*
X027990Y022803D02*
X027876Y022803D01*
X027734Y022998D02*
X028132Y022998D01*
X028219Y023193D02*
X027647Y023193D01*
X027854Y023389D02*
X028012Y023389D01*
X027955Y023584D02*
X027912Y023584D01*
X027886Y023780D02*
X027980Y023780D01*
X028647Y023193D02*
X029219Y023193D01*
X029338Y023101D02*
X029162Y023028D01*
X029028Y022893D01*
X028955Y022718D01*
X028955Y022527D01*
X029028Y022351D01*
X029162Y022217D01*
X029338Y022144D01*
X029528Y022144D01*
X029704Y022217D01*
X029839Y022351D01*
X029912Y022527D01*
X029912Y022718D01*
X029839Y022893D01*
X029704Y023028D01*
X029528Y023101D01*
X029338Y023101D01*
X029132Y022998D02*
X028734Y022998D01*
X028876Y022803D02*
X028990Y022803D01*
X028955Y022607D02*
X028912Y022607D01*
X028864Y022412D02*
X029003Y022412D01*
X029163Y022216D02*
X028703Y022216D01*
X029703Y022216D02*
X030163Y022216D01*
X030162Y022217D02*
X030338Y022144D01*
X030528Y022144D01*
X030704Y022217D01*
X030839Y022351D01*
X030912Y022527D01*
X030912Y022718D01*
X030839Y022893D01*
X030704Y023028D01*
X030528Y023101D01*
X030338Y023101D01*
X030162Y023028D01*
X030028Y022893D01*
X029955Y022718D01*
X029955Y022527D01*
X030028Y022351D01*
X030162Y022217D01*
X030003Y022412D02*
X029864Y022412D01*
X029912Y022607D02*
X029955Y022607D01*
X029990Y022803D02*
X029876Y022803D01*
X029734Y022998D02*
X030132Y022998D01*
X030219Y023193D02*
X029647Y023193D01*
X029854Y023389D02*
X030012Y023389D01*
X029955Y023584D02*
X029912Y023584D01*
X029886Y023780D02*
X029980Y023780D01*
X030647Y023193D02*
X031219Y023193D01*
X031338Y023101D02*
X031162Y023028D01*
X031028Y022893D01*
X030955Y022718D01*
X030955Y022527D01*
X031028Y022351D01*
X031162Y022217D01*
X031338Y022144D01*
X031528Y022144D01*
X031704Y022217D01*
X031839Y022351D01*
X031912Y022527D01*
X031912Y022718D01*
X031839Y022893D01*
X031704Y023028D01*
X031528Y023101D01*
X031338Y023101D01*
X031132Y022998D02*
X030734Y022998D01*
X030876Y022803D02*
X030990Y022803D01*
X030955Y022607D02*
X030912Y022607D01*
X030864Y022412D02*
X031003Y022412D01*
X031163Y022216D02*
X030703Y022216D01*
X031703Y022216D02*
X034079Y022216D01*
X034221Y022021D02*
X006906Y022021D01*
X006906Y021826D02*
X034363Y021826D01*
X034498Y021630D02*
X006906Y021630D01*
X006906Y021435D02*
X034597Y021435D01*
X034697Y021239D02*
X006906Y021239D01*
X006906Y022216D02*
X009163Y022216D01*
X009162Y022217D02*
X009338Y022144D01*
X009528Y022144D01*
X009704Y022217D01*
X009839Y022351D01*
X009912Y022527D01*
X009912Y022718D01*
X009839Y022893D01*
X009704Y023028D01*
X009528Y023101D01*
X009338Y023101D01*
X009162Y023028D01*
X009028Y022893D01*
X008955Y022718D01*
X008955Y022527D01*
X009028Y022351D01*
X009162Y022217D01*
X009003Y022412D02*
X006906Y022412D01*
X006906Y022607D02*
X008955Y022607D01*
X008990Y022803D02*
X006906Y022803D01*
X006906Y022998D02*
X009132Y022998D01*
X009219Y023193D02*
X006906Y023193D01*
X006906Y023389D02*
X009012Y023389D01*
X008955Y023584D02*
X006906Y023584D01*
X006906Y023780D02*
X008980Y023780D01*
X009647Y023193D02*
X010219Y023193D01*
X010338Y023101D02*
X010162Y023028D01*
X010028Y022893D01*
X009955Y022718D01*
X009955Y022527D01*
X010028Y022351D01*
X010162Y022217D01*
X010338Y022144D01*
X010528Y022144D01*
X010704Y022217D01*
X010839Y022351D01*
X010912Y022527D01*
X010912Y022718D01*
X010839Y022893D01*
X010704Y023028D01*
X010528Y023101D01*
X010338Y023101D01*
X010132Y022998D02*
X009734Y022998D01*
X009876Y022803D02*
X009990Y022803D01*
X009955Y022607D02*
X009912Y022607D01*
X009864Y022412D02*
X010003Y022412D01*
X010163Y022216D02*
X009703Y022216D01*
X010703Y022216D02*
X011163Y022216D01*
X011162Y022217D02*
X011338Y022144D01*
X011528Y022144D01*
X011704Y022217D01*
X011839Y022351D01*
X011912Y022527D01*
X011912Y022718D01*
X011839Y022893D01*
X011704Y023028D01*
X011528Y023101D01*
X011338Y023101D01*
X011162Y023028D01*
X011028Y022893D01*
X010955Y022718D01*
X010955Y022527D01*
X011028Y022351D01*
X011162Y022217D01*
X011003Y022412D02*
X010864Y022412D01*
X010912Y022607D02*
X010955Y022607D01*
X010990Y022803D02*
X010876Y022803D01*
X010734Y022998D02*
X011132Y022998D01*
X011219Y023193D02*
X010647Y023193D01*
X010854Y023389D02*
X011012Y023389D01*
X010955Y023584D02*
X010912Y023584D01*
X010886Y023780D02*
X010980Y023780D01*
X011647Y023193D02*
X012219Y023193D01*
X012338Y023101D02*
X012162Y023028D01*
X012028Y022893D01*
X011955Y022718D01*
X011955Y022527D01*
X012028Y022351D01*
X012162Y022217D01*
X012338Y022144D01*
X012528Y022144D01*
X012704Y022217D01*
X012839Y022351D01*
X012912Y022527D01*
X012912Y022718D01*
X012839Y022893D01*
X012704Y023028D01*
X012528Y023101D01*
X012338Y023101D01*
X012132Y022998D02*
X011734Y022998D01*
X011876Y022803D02*
X011990Y022803D01*
X011955Y022607D02*
X011912Y022607D01*
X011864Y022412D02*
X012003Y022412D01*
X012163Y022216D02*
X011703Y022216D01*
X012703Y022216D02*
X013163Y022216D01*
X013162Y022217D02*
X013338Y022144D01*
X013528Y022144D01*
X013704Y022217D01*
X013839Y022351D01*
X013912Y022527D01*
X013912Y022718D01*
X013839Y022893D01*
X013704Y023028D01*
X013528Y023101D01*
X013338Y023101D01*
X013162Y023028D01*
X013028Y022893D01*
X012955Y022718D01*
X012955Y022527D01*
X013028Y022351D01*
X013162Y022217D01*
X013003Y022412D02*
X012864Y022412D01*
X012912Y022607D02*
X012955Y022607D01*
X012990Y022803D02*
X012876Y022803D01*
X012734Y022998D02*
X013132Y022998D01*
X013219Y023193D02*
X012647Y023193D01*
X012854Y023389D02*
X013012Y023389D01*
X012955Y023584D02*
X012912Y023584D01*
X012886Y023780D02*
X012980Y023780D01*
X013647Y023193D02*
X014219Y023193D01*
X014338Y023101D02*
X014162Y023028D01*
X014028Y022893D01*
X013955Y022718D01*
X013955Y022527D01*
X014028Y022351D01*
X014162Y022217D01*
X014338Y022144D01*
X014528Y022144D01*
X014704Y022217D01*
X014839Y022351D01*
X014912Y022527D01*
X014912Y022718D01*
X014839Y022893D01*
X014704Y023028D01*
X014528Y023101D01*
X014338Y023101D01*
X014132Y022998D02*
X013734Y022998D01*
X013876Y022803D02*
X013990Y022803D01*
X013955Y022607D02*
X013912Y022607D01*
X013864Y022412D02*
X014003Y022412D01*
X014163Y022216D02*
X013703Y022216D01*
X014703Y022216D02*
X015163Y022216D01*
X015162Y022217D02*
X015338Y022144D01*
X015528Y022144D01*
X015704Y022217D01*
X015839Y022351D01*
X015912Y022527D01*
X015912Y022718D01*
X015839Y022893D01*
X015704Y023028D01*
X015528Y023101D01*
X015338Y023101D01*
X015162Y023028D01*
X015028Y022893D01*
X014955Y022718D01*
X014955Y022527D01*
X015028Y022351D01*
X015162Y022217D01*
X015003Y022412D02*
X014864Y022412D01*
X014912Y022607D02*
X014955Y022607D01*
X014990Y022803D02*
X014876Y022803D01*
X014734Y022998D02*
X015132Y022998D01*
X015219Y023193D02*
X014647Y023193D01*
X014854Y023389D02*
X015012Y023389D01*
X014955Y023584D02*
X014912Y023584D01*
X014886Y023780D02*
X014980Y023780D01*
X015647Y023193D02*
X016219Y023193D01*
X016338Y023101D02*
X016162Y023028D01*
X016028Y022893D01*
X015955Y022718D01*
X015955Y022527D01*
X016028Y022351D01*
X016162Y022217D01*
X016338Y022144D01*
X016528Y022144D01*
X016704Y022217D01*
X016839Y022351D01*
X016912Y022527D01*
X016912Y022718D01*
X016839Y022893D01*
X016704Y023028D01*
X016528Y023101D01*
X016338Y023101D01*
X016132Y022998D02*
X015734Y022998D01*
X015876Y022803D02*
X015990Y022803D01*
X015955Y022607D02*
X015912Y022607D01*
X015864Y022412D02*
X016003Y022412D01*
X016163Y022216D02*
X015703Y022216D01*
X016703Y022216D02*
X017163Y022216D01*
X017162Y022217D02*
X017338Y022144D01*
X017528Y022144D01*
X017704Y022217D01*
X017839Y022351D01*
X017912Y022527D01*
X017912Y022718D01*
X017839Y022893D01*
X017704Y023028D01*
X017528Y023101D01*
X017338Y023101D01*
X017162Y023028D01*
X017028Y022893D01*
X016955Y022718D01*
X016955Y022527D01*
X017028Y022351D01*
X017162Y022217D01*
X017003Y022412D02*
X016864Y022412D01*
X016912Y022607D02*
X016955Y022607D01*
X016990Y022803D02*
X016876Y022803D01*
X016734Y022998D02*
X017132Y022998D01*
X017219Y023193D02*
X016647Y023193D01*
X016854Y023389D02*
X017012Y023389D01*
X016955Y023584D02*
X016912Y023584D01*
X016886Y023780D02*
X016980Y023780D01*
X017647Y023193D02*
X018219Y023193D01*
X018338Y023101D02*
X018162Y023028D01*
X018028Y022893D01*
X017955Y022718D01*
X017955Y022527D01*
X018028Y022351D01*
X018162Y022217D01*
X018338Y022144D01*
X018528Y022144D01*
X018704Y022217D01*
X018839Y022351D01*
X018912Y022527D01*
X018912Y022718D01*
X018839Y022893D01*
X018704Y023028D01*
X018528Y023101D01*
X018338Y023101D01*
X018132Y022998D02*
X017734Y022998D01*
X017876Y022803D02*
X017990Y022803D01*
X017955Y022607D02*
X017912Y022607D01*
X017864Y022412D02*
X018003Y022412D01*
X018163Y022216D02*
X017703Y022216D01*
X018703Y022216D02*
X019163Y022216D01*
X019003Y022412D02*
X018864Y022412D01*
X018912Y022607D02*
X018955Y022607D01*
X018990Y022803D02*
X018876Y022803D01*
X018734Y022998D02*
X019132Y022998D01*
X019219Y023193D02*
X018647Y023193D01*
X018854Y023389D02*
X019012Y023389D01*
X018955Y023584D02*
X018912Y023584D01*
X018886Y023780D02*
X018980Y023780D01*
X017980Y023780D02*
X017886Y023780D01*
X017912Y023584D02*
X017955Y023584D01*
X018012Y023389D02*
X017854Y023389D01*
X016012Y023389D02*
X015854Y023389D01*
X015912Y023584D02*
X015955Y023584D01*
X015980Y023780D02*
X015886Y023780D01*
X013980Y023780D02*
X013886Y023780D01*
X013912Y023584D02*
X013955Y023584D01*
X014012Y023389D02*
X013854Y023389D01*
X012012Y023389D02*
X011854Y023389D01*
X011912Y023584D02*
X011955Y023584D01*
X011980Y023780D02*
X011886Y023780D01*
X009980Y023780D02*
X009886Y023780D01*
X009912Y023584D02*
X009955Y023584D01*
X010012Y023389D02*
X009854Y023389D01*
X020854Y023389D02*
X021012Y023389D01*
X020955Y023584D02*
X020912Y023584D01*
X020886Y023780D02*
X020980Y023780D01*
X022886Y023780D02*
X022980Y023780D01*
X022955Y023584D02*
X022912Y023584D01*
X022854Y023389D02*
X023012Y023389D01*
X024854Y023389D02*
X025012Y023389D01*
X024955Y023584D02*
X024912Y023584D01*
X024886Y023780D02*
X024980Y023780D01*
X026886Y023780D02*
X026980Y023780D01*
X026955Y023584D02*
X026912Y023584D01*
X026854Y023389D02*
X027012Y023389D01*
X028854Y023389D02*
X029012Y023389D01*
X028955Y023584D02*
X028912Y023584D01*
X028886Y023780D02*
X028980Y023780D01*
X030886Y023780D02*
X030980Y023780D01*
X030955Y023584D02*
X030912Y023584D01*
X030854Y023389D02*
X031012Y023389D01*
X031647Y023193D02*
X032947Y023193D01*
X033219Y022998D02*
X031734Y022998D01*
X031876Y022803D02*
X033487Y022803D01*
X033698Y022607D02*
X031912Y022607D01*
X031864Y022412D02*
X033893Y022412D01*
X032564Y023389D02*
X031854Y023389D01*
X031912Y023584D02*
X032107Y023584D01*
X034124Y019872D02*
X034209Y019872D01*
X025687Y012642D02*
X021342Y012642D01*
X021342Y012447D02*
X025645Y012447D01*
X025726Y012251D02*
X021342Y012251D01*
X021373Y012056D02*
X027151Y012056D01*
X027163Y011861D02*
X021422Y011861D01*
X021354Y011665D02*
X027341Y011665D01*
X028383Y008539D02*
X035161Y008539D01*
X035161Y008343D02*
X028438Y008343D01*
X028380Y008148D02*
X035161Y008148D01*
X035160Y007953D02*
X019742Y007953D01*
X019742Y007757D02*
X035152Y007757D01*
X035136Y007562D02*
X019742Y007562D01*
X019742Y007366D02*
X035105Y007366D01*
X035074Y007171D02*
X019742Y007171D01*
X019742Y006976D02*
X035044Y006976D01*
X034864Y006390D02*
X025861Y006390D01*
X025912Y006194D02*
X034795Y006194D01*
X034695Y005999D02*
X025912Y005999D01*
X025912Y005803D02*
X034596Y005803D01*
X034496Y005608D02*
X025912Y005608D01*
X025885Y005413D02*
X034361Y005413D01*
X034219Y005217D02*
X025754Y005217D01*
X025710Y005022D02*
X026156Y005022D01*
X026162Y005028D02*
X026028Y004893D01*
X025955Y004718D01*
X025955Y004527D01*
X026028Y004351D01*
X026162Y004217D01*
X026338Y004144D01*
X026528Y004144D01*
X026704Y004217D01*
X026839Y004351D01*
X026912Y004527D01*
X026912Y004718D01*
X026839Y004893D01*
X026704Y005028D01*
X026528Y005101D01*
X026338Y005101D01*
X026162Y005028D01*
X026000Y004826D02*
X025866Y004826D01*
X025912Y004631D02*
X025955Y004631D01*
X025993Y004436D02*
X025874Y004436D01*
X025727Y004240D02*
X026139Y004240D01*
X026203Y004045D02*
X025664Y004045D01*
X025857Y003849D02*
X026009Y003849D01*
X025955Y003654D02*
X025912Y003654D01*
X025883Y003459D02*
X025983Y003459D01*
X026664Y004045D02*
X027203Y004045D01*
X027338Y004144D02*
X027528Y004144D01*
X027704Y004217D01*
X027839Y004351D01*
X027912Y004527D01*
X027912Y004718D01*
X027839Y004893D01*
X027704Y005028D01*
X027528Y005101D01*
X027338Y005101D01*
X027162Y005028D01*
X027028Y004893D01*
X026955Y004718D01*
X026955Y004527D01*
X027028Y004351D01*
X027162Y004217D01*
X027338Y004144D01*
X027139Y004240D02*
X026727Y004240D01*
X026874Y004436D02*
X026993Y004436D01*
X026955Y004631D02*
X026912Y004631D01*
X026866Y004826D02*
X027000Y004826D01*
X027156Y005022D02*
X026710Y005022D01*
X027710Y005022D02*
X028156Y005022D01*
X028162Y005028D02*
X028028Y004893D01*
X027955Y004718D01*
X027955Y004527D01*
X028028Y004351D01*
X028162Y004217D01*
X028338Y004144D01*
X028528Y004144D01*
X028704Y004217D01*
X028839Y004351D01*
X028912Y004527D01*
X028912Y004718D01*
X028839Y004893D01*
X028704Y005028D01*
X028528Y005101D01*
X028338Y005101D01*
X028162Y005028D01*
X028000Y004826D02*
X027866Y004826D01*
X027912Y004631D02*
X027955Y004631D01*
X027993Y004436D02*
X027874Y004436D01*
X027727Y004240D02*
X028139Y004240D01*
X028203Y004045D02*
X027664Y004045D01*
X027857Y003849D02*
X028009Y003849D01*
X027955Y003654D02*
X027912Y003654D01*
X027883Y003459D02*
X027983Y003459D01*
X028664Y004045D02*
X029203Y004045D01*
X029338Y004144D02*
X029162Y004217D01*
X029028Y004351D01*
X028955Y004527D01*
X028955Y004718D01*
X029028Y004893D01*
X029162Y005028D01*
X029338Y005101D01*
X029528Y005101D01*
X029704Y005028D01*
X029839Y004893D01*
X029912Y004718D01*
X029912Y004527D01*
X029839Y004351D01*
X029704Y004217D01*
X029528Y004144D01*
X029338Y004144D01*
X029139Y004240D02*
X028727Y004240D01*
X028874Y004436D02*
X028993Y004436D01*
X028955Y004631D02*
X028912Y004631D01*
X028866Y004826D02*
X029000Y004826D01*
X029156Y005022D02*
X028710Y005022D01*
X029710Y005022D02*
X030156Y005022D01*
X030162Y005028D02*
X030028Y004893D01*
X029955Y004718D01*
X029955Y004527D01*
X030028Y004351D01*
X030162Y004217D01*
X030338Y004144D01*
X030528Y004144D01*
X030704Y004217D01*
X030839Y004351D01*
X030912Y004527D01*
X030912Y004718D01*
X030839Y004893D01*
X030704Y005028D01*
X030528Y005101D01*
X030338Y005101D01*
X030162Y005028D01*
X030000Y004826D02*
X029866Y004826D01*
X029912Y004631D02*
X029955Y004631D01*
X029993Y004436D02*
X029874Y004436D01*
X029727Y004240D02*
X030139Y004240D01*
X030203Y004045D02*
X029664Y004045D01*
X029857Y003849D02*
X030009Y003849D01*
X029955Y003654D02*
X029912Y003654D01*
X029883Y003459D02*
X029983Y003459D01*
X030664Y004045D02*
X031203Y004045D01*
X031338Y004144D02*
X031528Y004144D01*
X031704Y004217D01*
X031839Y004351D01*
X031912Y004527D01*
X031912Y004718D01*
X031839Y004893D01*
X031704Y005028D01*
X031528Y005101D01*
X031338Y005101D01*
X031162Y005028D01*
X031028Y004893D01*
X030955Y004718D01*
X030955Y004527D01*
X031028Y004351D01*
X031162Y004217D01*
X031338Y004144D01*
X031139Y004240D02*
X030727Y004240D01*
X030874Y004436D02*
X030993Y004436D01*
X030955Y004631D02*
X030912Y004631D01*
X030866Y004826D02*
X031000Y004826D01*
X031156Y005022D02*
X030710Y005022D01*
X031710Y005022D02*
X034077Y005022D01*
X033890Y004826D02*
X031866Y004826D01*
X031912Y004631D02*
X033695Y004631D01*
X033484Y004436D02*
X031874Y004436D01*
X031727Y004240D02*
X033215Y004240D01*
X032942Y004045D02*
X031664Y004045D01*
X031857Y003849D02*
X032558Y003849D01*
X032099Y003654D02*
X031912Y003654D01*
X031009Y003849D02*
X030857Y003849D01*
X030912Y003654D02*
X030955Y003654D01*
X030983Y003459D02*
X030883Y003459D01*
X028983Y003459D02*
X028883Y003459D01*
X028912Y003654D02*
X028955Y003654D01*
X029009Y003849D02*
X028857Y003849D01*
X027009Y003849D02*
X026857Y003849D01*
X026912Y003654D02*
X026955Y003654D01*
X026983Y003459D02*
X026883Y003459D01*
X025203Y004045D02*
X024664Y004045D01*
X024528Y004144D02*
X024704Y004217D01*
X024839Y004351D01*
X024912Y004527D01*
X024912Y004718D01*
X024839Y004893D01*
X024704Y005028D01*
X024536Y005097D01*
X024704Y005167D01*
X024839Y005301D01*
X024912Y005477D01*
X024912Y006268D01*
X024839Y006443D01*
X024704Y006578D01*
X024528Y006651D01*
X024338Y006651D01*
X024162Y006578D01*
X024028Y006443D01*
X023955Y006268D01*
X023955Y005477D01*
X024028Y005301D01*
X024162Y005167D01*
X024330Y005097D01*
X024162Y005028D01*
X024028Y004893D01*
X023955Y004718D01*
X023955Y004527D01*
X024028Y004351D01*
X024162Y004217D01*
X024338Y004144D01*
X024528Y004144D01*
X024727Y004240D02*
X025139Y004240D01*
X024993Y004436D02*
X024874Y004436D01*
X024912Y004631D02*
X024955Y004631D01*
X025000Y004826D02*
X024866Y004826D01*
X024710Y005022D02*
X025156Y005022D01*
X025112Y005217D02*
X024754Y005217D01*
X024885Y005413D02*
X024981Y005413D01*
X024955Y005608D02*
X024912Y005608D01*
X024912Y005803D02*
X024955Y005803D01*
X024955Y005999D02*
X024912Y005999D01*
X024912Y006194D02*
X024955Y006194D01*
X025005Y006390D02*
X024861Y006390D01*
X024687Y006585D02*
X025179Y006585D01*
X024179Y006585D02*
X023687Y006585D01*
X023704Y006578D02*
X023528Y006651D01*
X023338Y006651D01*
X023162Y006578D01*
X023028Y006443D01*
X022955Y006268D01*
X022955Y005477D01*
X023028Y005301D01*
X023162Y005167D01*
X023330Y005097D01*
X023162Y005028D01*
X023028Y004893D01*
X022955Y004718D01*
X022955Y004527D01*
X023028Y004351D01*
X023162Y004217D01*
X023338Y004144D01*
X023528Y004144D01*
X023704Y004217D01*
X023839Y004351D01*
X023912Y004527D01*
X023912Y004718D01*
X023839Y004893D01*
X023704Y005028D01*
X023536Y005097D01*
X023704Y005167D01*
X023839Y005301D01*
X023912Y005477D01*
X023912Y006268D01*
X023839Y006443D01*
X023704Y006578D01*
X023861Y006390D02*
X024005Y006390D01*
X023955Y006194D02*
X023912Y006194D01*
X023912Y005999D02*
X023955Y005999D01*
X023955Y005803D02*
X023912Y005803D01*
X023912Y005608D02*
X023955Y005608D01*
X023981Y005413D02*
X023885Y005413D01*
X023754Y005217D02*
X024112Y005217D01*
X024156Y005022D02*
X023710Y005022D01*
X023866Y004826D02*
X024000Y004826D01*
X023955Y004631D02*
X023912Y004631D01*
X023874Y004436D02*
X023993Y004436D01*
X024139Y004240D02*
X023727Y004240D01*
X023664Y004045D02*
X024203Y004045D01*
X024009Y003849D02*
X023857Y003849D01*
X023912Y003654D02*
X023955Y003654D01*
X023983Y003459D02*
X023883Y003459D01*
X023203Y004045D02*
X022664Y004045D01*
X022528Y004144D02*
X022704Y004217D01*
X022839Y004351D01*
X022912Y004527D01*
X022912Y004718D01*
X022839Y004893D01*
X022704Y005028D01*
X022536Y005097D01*
X022704Y005167D01*
X022839Y005301D01*
X022912Y005477D01*
X022912Y006268D01*
X022839Y006443D01*
X022704Y006578D01*
X022528Y006651D01*
X022338Y006651D01*
X022162Y006578D01*
X022028Y006443D01*
X021955Y006268D01*
X021955Y005477D01*
X022028Y005301D01*
X022162Y005167D01*
X022330Y005097D01*
X022162Y005028D01*
X022028Y004893D01*
X021955Y004718D01*
X021955Y004527D01*
X022028Y004351D01*
X022162Y004217D01*
X022338Y004144D01*
X022528Y004144D01*
X022727Y004240D02*
X023139Y004240D01*
X022993Y004436D02*
X022874Y004436D01*
X022912Y004631D02*
X022955Y004631D01*
X023000Y004826D02*
X022866Y004826D01*
X022710Y005022D02*
X023156Y005022D01*
X023112Y005217D02*
X022754Y005217D01*
X022885Y005413D02*
X022981Y005413D01*
X022955Y005608D02*
X022912Y005608D01*
X022912Y005803D02*
X022955Y005803D01*
X022955Y005999D02*
X022912Y005999D01*
X022912Y006194D02*
X022955Y006194D01*
X023005Y006390D02*
X022861Y006390D01*
X022687Y006585D02*
X023179Y006585D01*
X022179Y006585D02*
X021687Y006585D01*
X021704Y006578D02*
X021528Y006651D01*
X021338Y006651D01*
X021162Y006578D01*
X021028Y006443D01*
X020955Y006268D01*
X020955Y005477D01*
X021028Y005301D01*
X021162Y005167D01*
X021330Y005097D01*
X021162Y005028D01*
X021028Y004893D01*
X020955Y004718D01*
X020955Y004527D01*
X021028Y004351D01*
X021162Y004217D01*
X021338Y004144D01*
X021528Y004144D01*
X021704Y004217D01*
X021839Y004351D01*
X021912Y004527D01*
X021912Y004718D01*
X021839Y004893D01*
X021704Y005028D01*
X021536Y005097D01*
X021704Y005167D01*
X021839Y005301D01*
X021912Y005477D01*
X021912Y006268D01*
X021839Y006443D01*
X021704Y006578D01*
X021861Y006390D02*
X022005Y006390D01*
X021955Y006194D02*
X021912Y006194D01*
X021912Y005999D02*
X021955Y005999D01*
X021955Y005803D02*
X021912Y005803D01*
X021912Y005608D02*
X021955Y005608D01*
X021981Y005413D02*
X021885Y005413D01*
X021754Y005217D02*
X022112Y005217D01*
X022156Y005022D02*
X021710Y005022D01*
X021866Y004826D02*
X022000Y004826D01*
X021955Y004631D02*
X021912Y004631D01*
X021874Y004436D02*
X021993Y004436D01*
X022139Y004240D02*
X021727Y004240D01*
X021664Y004045D02*
X022203Y004045D01*
X022009Y003849D02*
X021857Y003849D01*
X021912Y003654D02*
X021955Y003654D01*
X021983Y003459D02*
X021883Y003459D01*
X021203Y004045D02*
X020664Y004045D01*
X020727Y004240D02*
X021139Y004240D01*
X020993Y004436D02*
X020874Y004436D01*
X020912Y004631D02*
X020955Y004631D01*
X021000Y004826D02*
X020866Y004826D01*
X020710Y005022D02*
X021156Y005022D01*
X021112Y005217D02*
X020754Y005217D01*
X020885Y005413D02*
X020981Y005413D01*
X020955Y005608D02*
X020912Y005608D01*
X020912Y005803D02*
X020955Y005803D01*
X020955Y005999D02*
X020912Y005999D01*
X020912Y006194D02*
X020955Y006194D01*
X021005Y006390D02*
X020861Y006390D01*
X020687Y006585D02*
X021179Y006585D01*
X020156Y005022D02*
X019710Y005022D01*
X019866Y004826D02*
X020000Y004826D01*
X019955Y004631D02*
X019912Y004631D01*
X019874Y004436D02*
X019993Y004436D01*
X020139Y004240D02*
X019727Y004240D01*
X019664Y004045D02*
X020203Y004045D01*
X020009Y003849D02*
X019857Y003849D01*
X019912Y003654D02*
X019955Y003654D01*
X019983Y003459D02*
X019883Y003459D01*
X018983Y003459D02*
X018883Y003459D01*
X018912Y003654D02*
X018955Y003654D01*
X019009Y003849D02*
X018857Y003849D01*
X017009Y003849D02*
X016857Y003849D01*
X016912Y003654D02*
X016955Y003654D01*
X016983Y003459D02*
X016883Y003459D01*
X014983Y003459D02*
X014883Y003459D01*
X014912Y003654D02*
X014955Y003654D01*
X015009Y003849D02*
X014857Y003849D01*
X013009Y003849D02*
X012857Y003849D01*
X012912Y003654D02*
X012955Y003654D01*
X012983Y003459D02*
X012883Y003459D01*
X009989Y003849D02*
X009857Y003849D01*
X009912Y003654D02*
X009935Y003654D01*
X009962Y003459D02*
X009883Y003459D01*
X006906Y006194D02*
X017183Y006194D01*
X017051Y006390D02*
X006906Y006390D01*
X006906Y006585D02*
X017063Y006585D01*
X017150Y006780D02*
X006906Y006780D01*
X006906Y006976D02*
X017150Y006976D01*
X017150Y007171D02*
X006906Y007171D01*
X006906Y007366D02*
X017150Y007366D01*
X017150Y007562D02*
X006906Y007562D01*
X006906Y007757D02*
X017150Y007757D01*
X017150Y007953D02*
X006906Y007953D01*
X006906Y008148D02*
X017150Y008148D01*
X017150Y008343D02*
X006906Y008343D01*
X006906Y008539D02*
X017150Y008539D01*
X017150Y008734D02*
X006906Y008734D01*
X006906Y008930D02*
X017150Y008930D01*
X017150Y009125D02*
X006906Y009125D01*
X006906Y009320D02*
X017150Y009320D01*
X017150Y009516D02*
X006906Y009516D01*
X006906Y009711D02*
X017150Y009711D01*
X017150Y009907D02*
X006906Y009907D01*
X006906Y010102D02*
X017150Y010102D01*
X017150Y010297D02*
X006906Y010297D01*
X006906Y010493D02*
X017150Y010493D01*
X017150Y010688D02*
X010556Y010688D01*
X010778Y010884D02*
X017150Y010884D01*
X017150Y011079D02*
X010843Y011079D01*
X010843Y011274D02*
X017150Y011274D01*
X017150Y011470D02*
X010843Y011470D01*
X010843Y011665D02*
X017150Y011665D01*
X019356Y011665D02*
X020812Y011665D01*
X020857Y003849D02*
X021009Y003849D01*
X020955Y003654D02*
X020912Y003654D01*
X020883Y003459D02*
X020983Y003459D01*
X022883Y003459D02*
X022983Y003459D01*
X022955Y003654D02*
X022912Y003654D01*
X022857Y003849D02*
X023009Y003849D01*
X024857Y003849D02*
X025009Y003849D01*
X024955Y003654D02*
X024912Y003654D01*
X024883Y003459D02*
X024983Y003459D01*
D18*
X019483Y005572D03*
X017983Y006672D03*
X017383Y006472D03*
X019983Y007472D03*
X019983Y007872D03*
X018883Y011772D03*
X021083Y011872D03*
X020083Y015172D03*
X017783Y018172D03*
X019283Y020172D03*
X029753Y018272D03*
X030683Y016672D03*
X031598Y016543D03*
X025983Y012472D03*
X027483Y011972D03*
D19*
X027746Y016967D02*
X029400Y016967D01*
X031565Y019132D01*
X032077Y019132D01*
X032116Y019093D01*
X032663Y019093D01*
X017783Y018172D02*
X017383Y017772D01*
X017383Y006472D01*
M02*
