G75*
G70*
%OFA0B0*%
%FSLAX24Y24*%
%IPPOS*%
%LPD*%
%AMOC8*
5,1,8,0,0,1.08239X$1,22.5*
%
%ADD10C,0.0680*%
%ADD11C,0.0434*%
%ADD12R,0.1064X0.0867*%
%ADD13R,0.0986X0.0277*%
%ADD14C,0.1030*%
%ADD15C,0.0680*%
%ADD16C,0.0397*%
%ADD17C,0.0400*%
D10*
X009433Y003622D03*
X010433Y003622D03*
X011433Y003622D03*
X012433Y003622D03*
X013433Y003622D03*
X014433Y003622D03*
X015433Y003622D03*
X016433Y003622D03*
X017433Y003622D03*
X018433Y003622D03*
X019433Y003622D03*
X020433Y003622D03*
X021433Y003622D03*
X022433Y003622D03*
X023433Y003622D03*
X024433Y003622D03*
X025433Y003622D03*
X026433Y003622D03*
X027433Y003622D03*
X028433Y003622D03*
X029433Y003622D03*
X030433Y003622D03*
X031433Y003622D03*
X031433Y004622D03*
X030433Y004622D03*
X029433Y004622D03*
X028433Y004622D03*
X027433Y004622D03*
X026433Y004622D03*
X025433Y004622D03*
X024433Y004622D03*
X023433Y004622D03*
X022433Y004622D03*
X021433Y004622D03*
X020433Y004622D03*
X019433Y004622D03*
X018433Y004622D03*
X017433Y004622D03*
X016433Y004622D03*
X015433Y004622D03*
X014433Y004622D03*
X013433Y004622D03*
X012433Y004622D03*
X011433Y004622D03*
X010433Y004622D03*
X009433Y004622D03*
X009433Y022622D03*
X010433Y022622D03*
X011433Y022622D03*
X012433Y022622D03*
X013433Y022622D03*
X014433Y022622D03*
X015433Y022622D03*
X016433Y022622D03*
X017433Y022622D03*
X018433Y022622D03*
X019433Y022622D03*
X020433Y022622D03*
X021433Y022622D03*
X022433Y022622D03*
X023433Y022622D03*
X024433Y022622D03*
X025433Y022622D03*
X026433Y022622D03*
X027433Y022622D03*
X028433Y022622D03*
X029433Y022622D03*
X030433Y022622D03*
X031433Y022622D03*
X031433Y023622D03*
X030433Y023622D03*
X029433Y023622D03*
X028433Y023622D03*
X027433Y023622D03*
X026433Y023622D03*
X025433Y023622D03*
X024433Y023622D03*
X023433Y023622D03*
X022433Y023622D03*
X021433Y023622D03*
X020433Y023622D03*
X019433Y023622D03*
X018433Y023622D03*
X017433Y023622D03*
X016433Y023622D03*
X015433Y023622D03*
X014433Y023622D03*
X013433Y023622D03*
X012433Y023622D03*
X011433Y023622D03*
X010433Y023622D03*
X009433Y023622D03*
D11*
X033699Y019341D03*
X033699Y017609D03*
D12*
X032715Y016723D03*
X034880Y016723D03*
X034880Y020227D03*
X032715Y020227D03*
D13*
X032675Y019105D03*
X032675Y018790D03*
X032675Y018475D03*
X032675Y018160D03*
X032675Y017845D03*
D14*
X033770Y015567D03*
X033770Y011517D03*
D15*
X025433Y006172D02*
X025433Y005572D01*
X024433Y005572D02*
X024433Y006172D01*
X023433Y006172D02*
X023433Y005572D01*
X022433Y005572D02*
X022433Y006172D01*
X021433Y006172D02*
X021433Y005572D01*
X020433Y005572D02*
X020433Y006172D01*
D16*
X026132Y008306D03*
X028100Y008345D03*
X027746Y016967D03*
X025384Y018384D03*
X024124Y018030D03*
X020581Y018581D03*
X019990Y019959D03*
X018022Y020943D03*
X015660Y021534D03*
X013494Y020156D03*
X013494Y019172D03*
X015660Y017872D03*
X031733Y018333D03*
X031753Y018777D03*
D17*
X029753Y018272D03*
X030683Y016672D03*
X031598Y016543D03*
X025983Y012472D03*
X027483Y011972D03*
X021083Y011872D03*
X018883Y011772D03*
X020083Y015172D03*
X017783Y018172D03*
X019283Y020172D03*
X019983Y007872D03*
X019983Y007472D03*
X017983Y006672D03*
X017383Y006472D03*
X019483Y005572D03*
M02*
