G75*
G70*
%OFA0B0*%
%FSLAX24Y24*%
%IPPOS*%
%LPD*%
%AMOC8*
5,1,8,0,0,1.08239X$1,22.5*
%
%ADD10C,0.0110*%
%ADD11C,0.0050*%
%ADD12C,0.0039*%
%ADD13C,0.0150*%
%ADD14C,0.0236*%
%ADD15C,0.0157*%
%ADD16C,0.0079*%
%ADD17C,0.0060*%
%ADD18C,0.0004*%
D10*
X011062Y012264D02*
X010964Y012362D01*
X010964Y012559D01*
X011062Y012658D01*
X011259Y012658D01*
X011358Y012559D01*
X011358Y012362D01*
X011259Y012264D01*
X011062Y012264D01*
X011609Y012264D02*
X011904Y012264D01*
X012002Y012362D01*
X012002Y012559D01*
X011904Y012658D01*
X011609Y012658D01*
X011609Y012854D02*
X011609Y012264D01*
X012253Y012264D02*
X012548Y012264D01*
X012647Y012362D01*
X012548Y012461D01*
X012253Y012461D01*
X012253Y012559D02*
X012253Y012264D01*
X012253Y012559D02*
X012351Y012658D01*
X012548Y012658D01*
X012978Y012854D02*
X012978Y012264D01*
X013076Y012264D02*
X012880Y012264D01*
X013309Y012264D02*
X013506Y012264D01*
X013408Y012264D02*
X013408Y012854D01*
X013506Y012854D01*
X013837Y012854D02*
X013837Y012953D01*
X013837Y012658D02*
X013837Y012264D01*
X013739Y012264D02*
X013936Y012264D01*
X014187Y012264D02*
X014482Y012264D01*
X014580Y012362D01*
X014580Y012559D01*
X014482Y012658D01*
X014187Y012658D01*
X013936Y012658D02*
X013837Y012658D01*
X014320Y013134D02*
X014517Y013134D01*
X014615Y013232D01*
X014615Y013429D01*
X014517Y013528D01*
X014320Y013528D01*
X014222Y013429D01*
X014222Y013331D01*
X014615Y013331D01*
X014866Y013429D02*
X014965Y013528D01*
X015260Y013528D01*
X015260Y012937D01*
X015260Y013134D02*
X014965Y013134D01*
X014866Y013232D01*
X014866Y013429D01*
X015511Y013429D02*
X015511Y013134D01*
X015806Y013134D01*
X015904Y013232D01*
X015806Y013331D01*
X015511Y013331D01*
X015511Y013429D02*
X015609Y013528D01*
X015806Y013528D01*
X016155Y013626D02*
X016254Y013725D01*
X016451Y013725D01*
X016549Y013626D01*
X016549Y013232D01*
X016451Y013134D01*
X016254Y013134D01*
X016155Y013232D01*
X016219Y012854D02*
X016120Y012756D01*
X016219Y012854D02*
X016416Y012854D01*
X016514Y012756D01*
X016514Y012362D01*
X016416Y012264D01*
X016219Y012264D01*
X016120Y012362D01*
X015869Y012362D02*
X015771Y012264D01*
X015574Y012264D01*
X015476Y012362D01*
X015476Y012559D01*
X015574Y012658D01*
X015771Y012658D01*
X015869Y012559D01*
X015869Y012362D01*
X015225Y012264D02*
X015225Y012658D01*
X014930Y012658D01*
X014831Y012559D01*
X014831Y012264D01*
X013076Y012854D02*
X012978Y012854D01*
X013129Y013134D02*
X012933Y013528D01*
X012682Y013626D02*
X012583Y013725D01*
X012387Y013725D01*
X012288Y013626D01*
X012288Y013528D01*
X012682Y013134D01*
X012288Y013134D01*
X012037Y013134D02*
X012037Y013232D01*
X011939Y013232D01*
X011939Y013134D01*
X012037Y013134D01*
X011715Y013232D02*
X011617Y013134D01*
X011420Y013134D01*
X011321Y013232D01*
X011321Y013331D01*
X011420Y013429D01*
X011518Y013429D01*
X011420Y013429D02*
X011321Y013528D01*
X011321Y013626D01*
X011420Y013725D01*
X011617Y013725D01*
X011715Y013626D01*
X013129Y013134D02*
X013326Y013528D01*
X017444Y013725D02*
X017444Y013134D01*
X017838Y013725D01*
X017838Y013134D01*
X018089Y013134D02*
X018089Y013528D01*
X018286Y013725D01*
X018483Y013528D01*
X018483Y013134D01*
X018733Y013232D02*
X018832Y013134D01*
X019029Y013134D01*
X019127Y013232D01*
X019127Y013626D01*
X019029Y013725D01*
X018832Y013725D01*
X018733Y013626D01*
X018483Y013429D02*
X018089Y013429D01*
X018134Y012953D02*
X018134Y012854D01*
X018134Y012658D02*
X018134Y012264D01*
X018036Y012264D02*
X018233Y012264D01*
X018484Y012264D02*
X018779Y012559D01*
X018877Y012461D02*
X018484Y012854D01*
X018233Y012658D02*
X018134Y012658D01*
X017803Y012658D02*
X017803Y012264D01*
X017606Y012264D02*
X017606Y012559D01*
X017508Y012658D01*
X017409Y012559D01*
X017409Y012264D01*
X017606Y012559D02*
X017705Y012658D01*
X017803Y012658D01*
X018877Y012854D02*
X018877Y012264D01*
X030995Y017220D02*
X031093Y017122D01*
X030995Y017220D02*
X030995Y017417D01*
X031093Y017515D01*
X031191Y017515D01*
X031290Y017417D01*
X031290Y017220D01*
X031388Y017122D01*
X031487Y017122D01*
X031585Y017220D01*
X031585Y017417D01*
X031487Y017515D01*
X031585Y017766D02*
X030995Y017766D01*
X030995Y018160D01*
X030995Y018411D02*
X031585Y018411D01*
X031585Y018706D01*
X031487Y018804D01*
X031290Y018804D01*
X031191Y018706D01*
X031191Y018411D01*
X031191Y018608D02*
X030995Y018804D01*
X030995Y019055D02*
X030995Y019252D01*
X030995Y019154D02*
X031585Y019154D01*
X031585Y019252D02*
X031585Y019055D01*
X031388Y019485D02*
X030995Y019485D01*
X031290Y019485D02*
X031290Y019879D01*
X031388Y019879D02*
X030995Y019879D01*
X030995Y020130D02*
X030995Y020523D01*
X030995Y020130D02*
X031585Y020130D01*
X031388Y019879D02*
X031585Y019682D01*
X031388Y019485D01*
X031585Y018160D02*
X031585Y017766D01*
X031290Y017766D02*
X031290Y017963D01*
D11*
X010080Y008580D02*
X010082Y008594D01*
X010088Y008608D01*
X010096Y008620D01*
X010108Y008628D01*
X010122Y008634D01*
X010136Y008636D01*
X010150Y008634D01*
X010164Y008628D01*
X010176Y008620D01*
X010184Y008608D01*
X010190Y008594D01*
X010192Y008580D01*
X010190Y008566D01*
X010184Y008552D01*
X010176Y008540D01*
X010164Y008532D01*
X010150Y008526D01*
X010136Y008524D01*
X010122Y008526D01*
X010108Y008532D01*
X010096Y008540D01*
X010088Y008552D01*
X010082Y008566D01*
X010080Y008580D01*
X018641Y006981D02*
X018941Y006981D01*
X018791Y006981D02*
X018791Y007431D01*
X018941Y007281D01*
X023641Y005631D02*
X023791Y005556D01*
X023941Y005406D01*
X023716Y005406D01*
X023641Y005331D01*
X023641Y005256D01*
X023716Y005181D01*
X023866Y005181D01*
X023941Y005256D01*
X023941Y005406D01*
X024051Y008914D02*
X026051Y008914D01*
X026051Y010914D01*
X024051Y010914D01*
X024051Y008914D01*
X028781Y017563D02*
X028783Y017588D01*
X028789Y017612D01*
X028798Y017635D01*
X028811Y017656D01*
X028828Y017675D01*
X028847Y017692D01*
X028868Y017705D01*
X028891Y017714D01*
X028915Y017720D01*
X028940Y017722D01*
X028965Y017720D01*
X028989Y017714D01*
X029012Y017705D01*
X029033Y017692D01*
X029052Y017675D01*
X029069Y017656D01*
X029082Y017635D01*
X029091Y017612D01*
X029097Y017588D01*
X029099Y017563D01*
X029097Y017538D01*
X029091Y017514D01*
X029082Y017491D01*
X029069Y017470D01*
X029052Y017451D01*
X029033Y017434D01*
X029012Y017421D01*
X028989Y017412D01*
X028965Y017406D01*
X028940Y017404D01*
X028915Y017406D01*
X028891Y017412D01*
X028868Y017421D01*
X028847Y017434D01*
X028828Y017451D01*
X028811Y017470D01*
X028798Y017491D01*
X028789Y017514D01*
X028783Y017538D01*
X028781Y017563D01*
D12*
X017878Y008832D02*
X017563Y008832D01*
X017721Y008576D01*
X017878Y008832D01*
X017861Y008803D02*
X017581Y008803D01*
X017604Y008765D02*
X017837Y008765D01*
X017814Y008727D02*
X017627Y008727D01*
X017651Y008690D02*
X017791Y008690D01*
X017767Y008652D02*
X017674Y008652D01*
X017697Y008614D02*
X017744Y008614D01*
X010906Y021673D02*
X010908Y021692D01*
X010913Y021711D01*
X010923Y021727D01*
X010935Y021742D01*
X010950Y021754D01*
X010966Y021764D01*
X010985Y021769D01*
X011004Y021771D01*
X011023Y021769D01*
X011042Y021764D01*
X011058Y021754D01*
X011073Y021742D01*
X011085Y021727D01*
X011095Y021711D01*
X011100Y021692D01*
X011102Y021673D01*
X011100Y021654D01*
X011095Y021635D01*
X011085Y021619D01*
X011073Y021604D01*
X011058Y021592D01*
X011042Y021582D01*
X011023Y021577D01*
X011004Y021575D01*
X010985Y021577D01*
X010966Y021582D01*
X010950Y021592D01*
X010935Y021604D01*
X010923Y021619D01*
X010913Y021635D01*
X010908Y021654D01*
X010906Y021673D01*
D13*
X011533Y008875D02*
X012616Y008875D01*
D14*
X025433Y009414D02*
X025435Y009435D01*
X025441Y009455D01*
X025450Y009475D01*
X025462Y009492D01*
X025477Y009506D01*
X025495Y009518D01*
X025515Y009526D01*
X025535Y009531D01*
X025556Y009532D01*
X025577Y009529D01*
X025597Y009523D01*
X025616Y009512D01*
X025633Y009499D01*
X025646Y009483D01*
X025657Y009465D01*
X025665Y009445D01*
X025669Y009425D01*
X025669Y009403D01*
X025665Y009383D01*
X025657Y009363D01*
X025646Y009345D01*
X025633Y009329D01*
X025616Y009316D01*
X025597Y009305D01*
X025577Y009299D01*
X025556Y009296D01*
X025535Y009297D01*
X025515Y009302D01*
X025495Y009310D01*
X025477Y009322D01*
X025462Y009336D01*
X025450Y009353D01*
X025441Y009373D01*
X025435Y009393D01*
X025433Y009414D01*
X025433Y010414D02*
X025435Y010435D01*
X025441Y010455D01*
X025450Y010475D01*
X025462Y010492D01*
X025477Y010506D01*
X025495Y010518D01*
X025515Y010526D01*
X025535Y010531D01*
X025556Y010532D01*
X025577Y010529D01*
X025597Y010523D01*
X025616Y010512D01*
X025633Y010499D01*
X025646Y010483D01*
X025657Y010465D01*
X025665Y010445D01*
X025669Y010425D01*
X025669Y010403D01*
X025665Y010383D01*
X025657Y010363D01*
X025646Y010345D01*
X025633Y010329D01*
X025616Y010316D01*
X025597Y010305D01*
X025577Y010299D01*
X025556Y010296D01*
X025535Y010297D01*
X025515Y010302D01*
X025495Y010310D01*
X025477Y010322D01*
X025462Y010336D01*
X025450Y010353D01*
X025441Y010373D01*
X025435Y010393D01*
X025433Y010414D01*
D15*
X021570Y009877D02*
X021572Y009895D01*
X021578Y009911D01*
X021587Y009926D01*
X021600Y009939D01*
X021615Y009948D01*
X021631Y009954D01*
X021649Y009956D01*
X021667Y009954D01*
X021683Y009948D01*
X021698Y009939D01*
X021711Y009926D01*
X021720Y009911D01*
X021726Y009895D01*
X021728Y009877D01*
X021726Y009859D01*
X021720Y009843D01*
X021711Y009828D01*
X021698Y009815D01*
X021683Y009806D01*
X021667Y009800D01*
X021649Y009798D01*
X021631Y009800D01*
X021615Y009806D01*
X021600Y009815D01*
X021587Y009828D01*
X021578Y009843D01*
X021572Y009859D01*
X021570Y009877D01*
D16*
X017898Y008556D02*
X017543Y008556D01*
D17*
X018506Y006806D02*
X019006Y006806D01*
X019256Y006556D01*
X019506Y006806D01*
X020006Y006806D01*
X020256Y006556D01*
X020506Y006806D01*
X021006Y006806D01*
X021256Y006556D01*
X021506Y006806D01*
X022006Y006806D01*
X022256Y006556D01*
X022506Y006806D01*
X023006Y006806D01*
X023256Y006556D01*
X023506Y006806D01*
X024006Y006806D01*
X024256Y006556D01*
X024256Y006056D01*
X024006Y005806D01*
X023506Y005806D01*
X023256Y006056D01*
X023006Y005806D01*
X022506Y005806D01*
X022256Y006056D01*
X022006Y005806D01*
X021506Y005806D01*
X021256Y006056D01*
X021006Y005806D01*
X020506Y005806D01*
X020256Y006056D01*
X020006Y005806D01*
X019506Y005806D01*
X019256Y006056D01*
X019006Y005806D01*
X018506Y005806D01*
X018256Y006056D01*
X018256Y006556D01*
X018506Y006806D01*
D18*
X012835Y014222D02*
X011811Y014222D01*
X011398Y014636D01*
X013248Y014636D01*
X012835Y014222D01*
X012837Y014224D02*
X011809Y014224D01*
X011807Y014227D02*
X012839Y014227D01*
X012842Y014229D02*
X011804Y014229D01*
X011802Y014232D02*
X012844Y014232D01*
X012847Y014234D02*
X011799Y014234D01*
X011797Y014237D02*
X012849Y014237D01*
X012851Y014239D02*
X011794Y014239D01*
X011792Y014242D02*
X012854Y014242D01*
X012856Y014244D02*
X011790Y014244D01*
X011787Y014246D02*
X012859Y014246D01*
X012861Y014249D02*
X011785Y014249D01*
X011782Y014251D02*
X012864Y014251D01*
X012866Y014254D02*
X011780Y014254D01*
X011777Y014256D02*
X012869Y014256D01*
X012871Y014259D02*
X011775Y014259D01*
X011772Y014261D02*
X012874Y014261D01*
X012876Y014264D02*
X011770Y014264D01*
X011767Y014266D02*
X012879Y014266D01*
X012881Y014269D02*
X011765Y014269D01*
X011762Y014271D02*
X012884Y014271D01*
X012886Y014274D02*
X011760Y014274D01*
X011757Y014276D02*
X012889Y014276D01*
X012891Y014279D02*
X011755Y014279D01*
X011752Y014281D02*
X012894Y014281D01*
X012896Y014284D02*
X011750Y014284D01*
X011747Y014286D02*
X012899Y014286D01*
X012901Y014289D02*
X011745Y014289D01*
X011742Y014291D02*
X012904Y014291D01*
X012906Y014294D02*
X011740Y014294D01*
X011737Y014296D02*
X012909Y014296D01*
X012911Y014299D02*
X011735Y014299D01*
X011732Y014301D02*
X012914Y014301D01*
X012916Y014304D02*
X011730Y014304D01*
X011728Y014306D02*
X012918Y014306D01*
X012921Y014309D02*
X011725Y014309D01*
X011723Y014311D02*
X012923Y014311D01*
X012926Y014313D02*
X011720Y014313D01*
X011718Y014316D02*
X012928Y014316D01*
X012931Y014318D02*
X011715Y014318D01*
X011713Y014321D02*
X012933Y014321D01*
X012936Y014323D02*
X011710Y014323D01*
X011708Y014326D02*
X012938Y014326D01*
X012941Y014328D02*
X011705Y014328D01*
X011703Y014331D02*
X012943Y014331D01*
X012946Y014333D02*
X011700Y014333D01*
X011698Y014336D02*
X012948Y014336D01*
X012951Y014338D02*
X011695Y014338D01*
X011693Y014341D02*
X012953Y014341D01*
X012956Y014343D02*
X011690Y014343D01*
X011688Y014346D02*
X012958Y014346D01*
X012961Y014348D02*
X011685Y014348D01*
X011683Y014351D02*
X012963Y014351D01*
X012966Y014353D02*
X011680Y014353D01*
X011678Y014356D02*
X012968Y014356D01*
X012971Y014358D02*
X011675Y014358D01*
X011673Y014361D02*
X012973Y014361D01*
X012976Y014363D02*
X011670Y014363D01*
X011668Y014366D02*
X012978Y014366D01*
X012980Y014368D02*
X011666Y014368D01*
X011663Y014371D02*
X012983Y014371D01*
X012985Y014373D02*
X011661Y014373D01*
X011658Y014375D02*
X012988Y014375D01*
X012990Y014378D02*
X011656Y014378D01*
X011653Y014380D02*
X012993Y014380D01*
X012995Y014383D02*
X011651Y014383D01*
X011648Y014385D02*
X012998Y014385D01*
X013000Y014388D02*
X011646Y014388D01*
X011643Y014390D02*
X013003Y014390D01*
X013005Y014393D02*
X011641Y014393D01*
X011638Y014395D02*
X013008Y014395D01*
X013010Y014398D02*
X011636Y014398D01*
X011633Y014400D02*
X013013Y014400D01*
X013015Y014403D02*
X011631Y014403D01*
X011628Y014405D02*
X013018Y014405D01*
X013020Y014408D02*
X011626Y014408D01*
X011623Y014410D02*
X013023Y014410D01*
X013025Y014413D02*
X011621Y014413D01*
X011618Y014415D02*
X013028Y014415D01*
X013030Y014418D02*
X011616Y014418D01*
X011613Y014420D02*
X013033Y014420D01*
X013035Y014423D02*
X011611Y014423D01*
X011608Y014425D02*
X013038Y014425D01*
X013040Y014428D02*
X011606Y014428D01*
X011604Y014430D02*
X013042Y014430D01*
X013045Y014433D02*
X011601Y014433D01*
X011599Y014435D02*
X013047Y014435D01*
X013050Y014437D02*
X011596Y014437D01*
X011594Y014440D02*
X013052Y014440D01*
X013055Y014442D02*
X011591Y014442D01*
X011589Y014445D02*
X013057Y014445D01*
X013060Y014447D02*
X011586Y014447D01*
X011584Y014450D02*
X013062Y014450D01*
X013065Y014452D02*
X011581Y014452D01*
X011579Y014455D02*
X013067Y014455D01*
X013070Y014457D02*
X011576Y014457D01*
X011574Y014460D02*
X013072Y014460D01*
X013075Y014462D02*
X011571Y014462D01*
X011569Y014465D02*
X013077Y014465D01*
X013080Y014467D02*
X011566Y014467D01*
X011564Y014470D02*
X013082Y014470D01*
X013085Y014472D02*
X011561Y014472D01*
X011559Y014475D02*
X013087Y014475D01*
X013090Y014477D02*
X011556Y014477D01*
X011554Y014480D02*
X013092Y014480D01*
X013095Y014482D02*
X011551Y014482D01*
X011549Y014485D02*
X013097Y014485D01*
X013100Y014487D02*
X011546Y014487D01*
X011544Y014490D02*
X013102Y014490D01*
X013104Y014492D02*
X011541Y014492D01*
X011539Y014495D02*
X013107Y014495D01*
X013109Y014497D02*
X011537Y014497D01*
X011534Y014499D02*
X013112Y014499D01*
X013114Y014502D02*
X011532Y014502D01*
X011529Y014504D02*
X013117Y014504D01*
X013119Y014507D02*
X011527Y014507D01*
X011524Y014509D02*
X013122Y014509D01*
X013124Y014512D02*
X011522Y014512D01*
X011519Y014514D02*
X013127Y014514D01*
X013129Y014517D02*
X011517Y014517D01*
X011514Y014519D02*
X013132Y014519D01*
X013134Y014522D02*
X011512Y014522D01*
X011509Y014524D02*
X013137Y014524D01*
X013139Y014527D02*
X011507Y014527D01*
X011504Y014529D02*
X013142Y014529D01*
X013144Y014532D02*
X011502Y014532D01*
X011499Y014534D02*
X013147Y014534D01*
X013149Y014537D02*
X011497Y014537D01*
X011494Y014539D02*
X013152Y014539D01*
X013154Y014542D02*
X011492Y014542D01*
X011489Y014544D02*
X013157Y014544D01*
X013159Y014547D02*
X011487Y014547D01*
X011484Y014549D02*
X013162Y014549D01*
X013164Y014552D02*
X011482Y014552D01*
X011479Y014554D02*
X013166Y014554D01*
X013169Y014557D02*
X011477Y014557D01*
X011475Y014559D02*
X013171Y014559D01*
X013174Y014561D02*
X011472Y014561D01*
X011470Y014564D02*
X013176Y014564D01*
X013179Y014566D02*
X011467Y014566D01*
X011465Y014569D02*
X013181Y014569D01*
X013184Y014571D02*
X011462Y014571D01*
X011460Y014574D02*
X013186Y014574D01*
X013189Y014576D02*
X011457Y014576D01*
X011455Y014579D02*
X013191Y014579D01*
X013194Y014581D02*
X011452Y014581D01*
X011450Y014584D02*
X013196Y014584D01*
X013199Y014586D02*
X011447Y014586D01*
X011445Y014589D02*
X013201Y014589D01*
X013204Y014591D02*
X011442Y014591D01*
X011440Y014594D02*
X013206Y014594D01*
X013209Y014596D02*
X011437Y014596D01*
X011435Y014599D02*
X013211Y014599D01*
X013214Y014601D02*
X011432Y014601D01*
X011430Y014604D02*
X013216Y014604D01*
X013219Y014606D02*
X011427Y014606D01*
X011425Y014609D02*
X013221Y014609D01*
X013224Y014611D02*
X011422Y014611D01*
X011420Y014614D02*
X013226Y014614D01*
X013229Y014616D02*
X011417Y014616D01*
X011415Y014619D02*
X013231Y014619D01*
X013233Y014621D02*
X011413Y014621D01*
X011410Y014624D02*
X013236Y014624D01*
X013238Y014626D02*
X011408Y014626D01*
X011405Y014628D02*
X013241Y014628D01*
X013243Y014631D02*
X011403Y014631D01*
X011400Y014633D02*
X013246Y014633D01*
X013248Y014636D02*
X013248Y016309D01*
X012835Y016722D01*
X011811Y016722D01*
X012835Y016722D01*
X012838Y016719D02*
X011808Y016719D01*
X011806Y016717D02*
X012840Y016717D01*
X012843Y016714D02*
X011803Y016714D01*
X011801Y016712D02*
X012845Y016712D01*
X012848Y016709D02*
X011798Y016709D01*
X011796Y016707D02*
X012850Y016707D01*
X012853Y016704D02*
X011793Y016704D01*
X011791Y016702D02*
X012855Y016702D01*
X012858Y016700D02*
X011788Y016700D01*
X011786Y016697D02*
X012860Y016697D01*
X012863Y016695D02*
X011783Y016695D01*
X011781Y016692D02*
X012865Y016692D01*
X012868Y016690D02*
X011778Y016690D01*
X011776Y016687D02*
X012870Y016687D01*
X012873Y016685D02*
X011773Y016685D01*
X011771Y016682D02*
X012875Y016682D01*
X012877Y016680D02*
X011769Y016680D01*
X011766Y016677D02*
X012880Y016677D01*
X012882Y016675D02*
X011764Y016675D01*
X011761Y016672D02*
X012885Y016672D01*
X012887Y016670D02*
X011759Y016670D01*
X011756Y016667D02*
X012890Y016667D01*
X012892Y016665D02*
X011754Y016665D01*
X011751Y016662D02*
X012895Y016662D01*
X012897Y016660D02*
X011749Y016660D01*
X011746Y016657D02*
X012900Y016657D01*
X012902Y016655D02*
X011744Y016655D01*
X011741Y016652D02*
X012905Y016652D01*
X012907Y016650D02*
X011739Y016650D01*
X011736Y016647D02*
X012910Y016647D01*
X012912Y016645D02*
X011734Y016645D01*
X011731Y016642D02*
X012915Y016642D01*
X012917Y016640D02*
X011729Y016640D01*
X011726Y016638D02*
X012920Y016638D01*
X012922Y016635D02*
X011724Y016635D01*
X011721Y016633D02*
X012925Y016633D01*
X012927Y016630D02*
X011719Y016630D01*
X011716Y016628D02*
X012930Y016628D01*
X012932Y016625D02*
X011714Y016625D01*
X011711Y016623D02*
X012935Y016623D01*
X012937Y016620D02*
X011709Y016620D01*
X011706Y016618D02*
X012939Y016618D01*
X012942Y016615D02*
X011704Y016615D01*
X011702Y016613D02*
X012944Y016613D01*
X012947Y016610D02*
X011699Y016610D01*
X011697Y016608D02*
X012949Y016608D01*
X012952Y016605D02*
X011694Y016605D01*
X011692Y016603D02*
X012954Y016603D01*
X012957Y016600D02*
X011689Y016600D01*
X011687Y016598D02*
X012959Y016598D01*
X012962Y016595D02*
X011684Y016595D01*
X011682Y016593D02*
X012964Y016593D01*
X012967Y016590D02*
X011679Y016590D01*
X011677Y016588D02*
X012969Y016588D01*
X012972Y016585D02*
X011674Y016585D01*
X011672Y016583D02*
X012974Y016583D01*
X012977Y016580D02*
X011669Y016580D01*
X011667Y016578D02*
X012979Y016578D01*
X012982Y016576D02*
X011664Y016576D01*
X011662Y016573D02*
X012984Y016573D01*
X012987Y016571D02*
X011659Y016571D01*
X011657Y016568D02*
X012989Y016568D01*
X012992Y016566D02*
X011654Y016566D01*
X011652Y016563D02*
X012994Y016563D01*
X012997Y016561D02*
X011649Y016561D01*
X011647Y016558D02*
X012999Y016558D01*
X013001Y016556D02*
X011644Y016556D01*
X011642Y016553D02*
X013004Y016553D01*
X013006Y016551D02*
X011640Y016551D01*
X011637Y016548D02*
X013009Y016548D01*
X013011Y016546D02*
X011635Y016546D01*
X011632Y016543D02*
X013014Y016543D01*
X013016Y016541D02*
X011630Y016541D01*
X011627Y016538D02*
X013019Y016538D01*
X013021Y016536D02*
X011625Y016536D01*
X011622Y016533D02*
X013024Y016533D01*
X013026Y016531D02*
X011620Y016531D01*
X011617Y016528D02*
X013029Y016528D01*
X013031Y016526D02*
X011615Y016526D01*
X011612Y016523D02*
X013034Y016523D01*
X013036Y016521D02*
X011610Y016521D01*
X011607Y016518D02*
X013039Y016518D01*
X013041Y016516D02*
X011605Y016516D01*
X011602Y016514D02*
X013044Y016514D01*
X013046Y016511D02*
X011600Y016511D01*
X011597Y016509D02*
X013049Y016509D01*
X013051Y016506D02*
X011595Y016506D01*
X011592Y016504D02*
X013054Y016504D01*
X013056Y016501D02*
X011590Y016501D01*
X011587Y016499D02*
X013059Y016499D01*
X013061Y016496D02*
X011585Y016496D01*
X011582Y016494D02*
X013064Y016494D01*
X013066Y016491D02*
X011580Y016491D01*
X011578Y016489D02*
X013068Y016489D01*
X013071Y016486D02*
X011575Y016486D01*
X011573Y016484D02*
X013073Y016484D01*
X013076Y016481D02*
X011570Y016481D01*
X011568Y016479D02*
X013078Y016479D01*
X013081Y016476D02*
X011565Y016476D01*
X011563Y016474D02*
X013083Y016474D01*
X013086Y016471D02*
X011560Y016471D01*
X011558Y016469D02*
X013088Y016469D01*
X013091Y016466D02*
X011555Y016466D01*
X011553Y016464D02*
X013093Y016464D01*
X013096Y016461D02*
X011550Y016461D01*
X011548Y016459D02*
X013098Y016459D01*
X013101Y016456D02*
X011545Y016456D01*
X011543Y016454D02*
X013103Y016454D01*
X013106Y016451D02*
X011540Y016451D01*
X011538Y016449D02*
X013108Y016449D01*
X013111Y016447D02*
X011535Y016447D01*
X011533Y016444D02*
X013113Y016444D01*
X013116Y016442D02*
X011530Y016442D01*
X011528Y016439D02*
X013118Y016439D01*
X013121Y016437D02*
X011525Y016437D01*
X011523Y016434D02*
X013123Y016434D01*
X013126Y016432D02*
X011520Y016432D01*
X011518Y016429D02*
X013128Y016429D01*
X013130Y016427D02*
X011516Y016427D01*
X011513Y016424D02*
X013133Y016424D01*
X013135Y016422D02*
X011511Y016422D01*
X011508Y016419D02*
X013138Y016419D01*
X013140Y016417D02*
X011506Y016417D01*
X011503Y016414D02*
X013143Y016414D01*
X013145Y016412D02*
X011501Y016412D01*
X011498Y016409D02*
X013148Y016409D01*
X013150Y016407D02*
X011496Y016407D01*
X011493Y016404D02*
X013153Y016404D01*
X013155Y016402D02*
X011491Y016402D01*
X011488Y016399D02*
X013158Y016399D01*
X013160Y016397D02*
X011486Y016397D01*
X011483Y016394D02*
X013163Y016394D01*
X013165Y016392D02*
X011481Y016392D01*
X011478Y016389D02*
X013168Y016389D01*
X013170Y016387D02*
X011476Y016387D01*
X011473Y016385D02*
X013173Y016385D01*
X013175Y016382D02*
X011471Y016382D01*
X011468Y016380D02*
X013178Y016380D01*
X013180Y016377D02*
X011466Y016377D01*
X011463Y016375D02*
X013183Y016375D01*
X013185Y016372D02*
X011461Y016372D01*
X011458Y016370D02*
X013188Y016370D01*
X013190Y016367D02*
X011456Y016367D01*
X011454Y016365D02*
X013192Y016365D01*
X013195Y016362D02*
X011451Y016362D01*
X011449Y016360D02*
X013197Y016360D01*
X013200Y016357D02*
X011446Y016357D01*
X011444Y016355D02*
X013202Y016355D01*
X013205Y016352D02*
X011441Y016352D01*
X011439Y016350D02*
X013207Y016350D01*
X013210Y016347D02*
X011436Y016347D01*
X011434Y016345D02*
X013212Y016345D01*
X013215Y016342D02*
X011431Y016342D01*
X011429Y016340D02*
X013217Y016340D01*
X013220Y016337D02*
X011426Y016337D01*
X011424Y016335D02*
X013222Y016335D01*
X013225Y016332D02*
X011421Y016332D01*
X011419Y016330D02*
X013227Y016330D01*
X013230Y016327D02*
X011416Y016327D01*
X011414Y016325D02*
X013232Y016325D01*
X013235Y016323D02*
X011411Y016323D01*
X011409Y016320D02*
X013237Y016320D01*
X013240Y016318D02*
X011406Y016318D01*
X011404Y016315D02*
X013242Y016315D01*
X013245Y016313D02*
X011401Y016313D01*
X011399Y016310D02*
X013247Y016310D01*
X013248Y016308D02*
X011398Y016308D01*
X011398Y016309D02*
X011811Y016722D01*
X011398Y016309D02*
X011398Y015817D01*
X011673Y015699D01*
X011949Y015817D01*
X011949Y016014D01*
X012047Y016112D01*
X011398Y016112D01*
X011398Y016114D02*
X013248Y016114D01*
X013248Y016112D02*
X012599Y016112D01*
X012047Y016112D01*
X012044Y016109D02*
X011398Y016109D01*
X011398Y016107D02*
X012042Y016107D01*
X012040Y016104D02*
X011398Y016104D01*
X011398Y016102D02*
X012037Y016102D01*
X012035Y016099D02*
X011398Y016099D01*
X011398Y016097D02*
X012032Y016097D01*
X012030Y016094D02*
X011398Y016094D01*
X011398Y016092D02*
X012027Y016092D01*
X012025Y016089D02*
X011398Y016089D01*
X011398Y016087D02*
X012022Y016087D01*
X012020Y016084D02*
X011398Y016084D01*
X011398Y016082D02*
X012017Y016082D01*
X012015Y016079D02*
X011398Y016079D01*
X011398Y016077D02*
X012012Y016077D01*
X012010Y016074D02*
X011398Y016074D01*
X011398Y016072D02*
X012007Y016072D01*
X012005Y016070D02*
X011398Y016070D01*
X011398Y016067D02*
X012002Y016067D01*
X012000Y016065D02*
X011398Y016065D01*
X011398Y016062D02*
X011997Y016062D01*
X011995Y016060D02*
X011398Y016060D01*
X011398Y016057D02*
X011992Y016057D01*
X011990Y016055D02*
X011398Y016055D01*
X011398Y016052D02*
X011987Y016052D01*
X011985Y016050D02*
X011398Y016050D01*
X011398Y016047D02*
X011982Y016047D01*
X011980Y016045D02*
X011398Y016045D01*
X011398Y016042D02*
X011978Y016042D01*
X011975Y016040D02*
X011398Y016040D01*
X011398Y016037D02*
X011973Y016037D01*
X011970Y016035D02*
X011398Y016035D01*
X011398Y016032D02*
X011968Y016032D01*
X011965Y016030D02*
X011398Y016030D01*
X011398Y016027D02*
X011963Y016027D01*
X011960Y016025D02*
X011398Y016025D01*
X011398Y016022D02*
X011958Y016022D01*
X011955Y016020D02*
X011398Y016020D01*
X011398Y016017D02*
X011953Y016017D01*
X011950Y016015D02*
X011398Y016015D01*
X011398Y016012D02*
X011949Y016012D01*
X011949Y016010D02*
X011398Y016010D01*
X011398Y016008D02*
X011949Y016008D01*
X011949Y016005D02*
X011398Y016005D01*
X011398Y016003D02*
X011949Y016003D01*
X011949Y016000D02*
X011398Y016000D01*
X011398Y015998D02*
X011949Y015998D01*
X011949Y015995D02*
X011398Y015995D01*
X011398Y015993D02*
X011949Y015993D01*
X011949Y015990D02*
X011398Y015990D01*
X011398Y015988D02*
X011949Y015988D01*
X011949Y015985D02*
X011398Y015985D01*
X011398Y015983D02*
X011949Y015983D01*
X011949Y015980D02*
X011398Y015980D01*
X011398Y015978D02*
X011949Y015978D01*
X011949Y015975D02*
X011398Y015975D01*
X011398Y015973D02*
X011949Y015973D01*
X011949Y015970D02*
X011398Y015970D01*
X011398Y015968D02*
X011949Y015968D01*
X011949Y015965D02*
X011398Y015965D01*
X011398Y015963D02*
X011949Y015963D01*
X011949Y015960D02*
X011398Y015960D01*
X011398Y015958D02*
X011949Y015958D01*
X011949Y015955D02*
X011398Y015955D01*
X011398Y015953D02*
X011949Y015953D01*
X011949Y015950D02*
X011398Y015950D01*
X011398Y015948D02*
X011949Y015948D01*
X011949Y015946D02*
X011398Y015946D01*
X011398Y015943D02*
X011949Y015943D01*
X011949Y015941D02*
X011398Y015941D01*
X011398Y015938D02*
X011949Y015938D01*
X011949Y015936D02*
X011398Y015936D01*
X011398Y015933D02*
X011949Y015933D01*
X011949Y015931D02*
X011398Y015931D01*
X011398Y015928D02*
X011949Y015928D01*
X011949Y015926D02*
X011398Y015926D01*
X011398Y015923D02*
X011949Y015923D01*
X011949Y015921D02*
X011398Y015921D01*
X011398Y015918D02*
X011949Y015918D01*
X011949Y015916D02*
X011398Y015916D01*
X011398Y015913D02*
X011949Y015913D01*
X011949Y015911D02*
X011398Y015911D01*
X011398Y015908D02*
X011949Y015908D01*
X011949Y015906D02*
X011398Y015906D01*
X011398Y015903D02*
X011949Y015903D01*
X011949Y015901D02*
X011398Y015901D01*
X011398Y015898D02*
X011949Y015898D01*
X011949Y015896D02*
X011398Y015896D01*
X011398Y015893D02*
X011949Y015893D01*
X011949Y015891D02*
X011398Y015891D01*
X011398Y015888D02*
X011949Y015888D01*
X011949Y015886D02*
X011398Y015886D01*
X011398Y015884D02*
X011949Y015884D01*
X011949Y015881D02*
X011398Y015881D01*
X011398Y015879D02*
X011949Y015879D01*
X011949Y015876D02*
X011398Y015876D01*
X011398Y015874D02*
X011949Y015874D01*
X011949Y015871D02*
X011398Y015871D01*
X011398Y015869D02*
X011949Y015869D01*
X011949Y015866D02*
X011398Y015866D01*
X011398Y015864D02*
X011949Y015864D01*
X011949Y015861D02*
X011398Y015861D01*
X011398Y015859D02*
X011949Y015859D01*
X011949Y015856D02*
X011398Y015856D01*
X011398Y015854D02*
X011949Y015854D01*
X011949Y015851D02*
X011398Y015851D01*
X011398Y015849D02*
X011949Y015849D01*
X011949Y015846D02*
X011398Y015846D01*
X011398Y015844D02*
X011949Y015844D01*
X011949Y015841D02*
X011398Y015841D01*
X011398Y015839D02*
X011949Y015839D01*
X011949Y015836D02*
X011398Y015836D01*
X011398Y015834D02*
X011949Y015834D01*
X011949Y015831D02*
X011398Y015831D01*
X011398Y015829D02*
X011949Y015829D01*
X011949Y015826D02*
X011398Y015826D01*
X011398Y015824D02*
X011949Y015824D01*
X011949Y015821D02*
X011398Y015821D01*
X011398Y015819D02*
X011949Y015819D01*
X011948Y015817D02*
X011399Y015817D01*
X011404Y015814D02*
X011942Y015814D01*
X011937Y015812D02*
X011410Y015812D01*
X011416Y015809D02*
X011931Y015809D01*
X011925Y015807D02*
X011422Y015807D01*
X011427Y015804D02*
X011919Y015804D01*
X011914Y015802D02*
X011433Y015802D01*
X011439Y015799D02*
X011908Y015799D01*
X011902Y015797D02*
X011445Y015797D01*
X011451Y015794D02*
X011896Y015794D01*
X011890Y015792D02*
X011456Y015792D01*
X011462Y015789D02*
X011885Y015789D01*
X011879Y015787D02*
X011468Y015787D01*
X011474Y015784D02*
X011873Y015784D01*
X011867Y015782D02*
X011480Y015782D01*
X011485Y015779D02*
X011861Y015779D01*
X011856Y015777D02*
X011491Y015777D01*
X011497Y015774D02*
X011850Y015774D01*
X011844Y015772D02*
X011503Y015772D01*
X011509Y015769D02*
X011838Y015769D01*
X011833Y015767D02*
X011514Y015767D01*
X011520Y015764D02*
X011827Y015764D01*
X011821Y015762D02*
X011526Y015762D01*
X011532Y015759D02*
X011815Y015759D01*
X011809Y015757D02*
X011537Y015757D01*
X011543Y015755D02*
X011804Y015755D01*
X011798Y015752D02*
X011549Y015752D01*
X011555Y015750D02*
X011792Y015750D01*
X011786Y015747D02*
X011561Y015747D01*
X011566Y015745D02*
X011780Y015745D01*
X011775Y015742D02*
X011572Y015742D01*
X011578Y015740D02*
X011769Y015740D01*
X011763Y015737D02*
X011584Y015737D01*
X011590Y015735D02*
X011757Y015735D01*
X011751Y015732D02*
X011595Y015732D01*
X011601Y015730D02*
X011746Y015730D01*
X011740Y015727D02*
X011607Y015727D01*
X011613Y015725D02*
X011734Y015725D01*
X011728Y015722D02*
X011618Y015722D01*
X011624Y015720D02*
X011723Y015720D01*
X011717Y015717D02*
X011630Y015717D01*
X011636Y015715D02*
X011711Y015715D01*
X011705Y015712D02*
X011642Y015712D01*
X011647Y015710D02*
X011699Y015710D01*
X011694Y015707D02*
X011653Y015707D01*
X011659Y015705D02*
X011688Y015705D01*
X011682Y015702D02*
X011665Y015702D01*
X011671Y015700D02*
X011676Y015700D01*
X011398Y016117D02*
X013248Y016117D01*
X013248Y016119D02*
X011398Y016119D01*
X011398Y016122D02*
X013248Y016122D01*
X013248Y016124D02*
X011398Y016124D01*
X011398Y016127D02*
X013248Y016127D01*
X013248Y016129D02*
X011398Y016129D01*
X011398Y016132D02*
X013248Y016132D01*
X013248Y016134D02*
X011398Y016134D01*
X011398Y016136D02*
X013248Y016136D01*
X013248Y016139D02*
X011398Y016139D01*
X011398Y016141D02*
X013248Y016141D01*
X013248Y016144D02*
X011398Y016144D01*
X011398Y016146D02*
X013248Y016146D01*
X013248Y016149D02*
X011398Y016149D01*
X011398Y016151D02*
X013248Y016151D01*
X013248Y016154D02*
X011398Y016154D01*
X011398Y016156D02*
X013248Y016156D01*
X013248Y016159D02*
X011398Y016159D01*
X011398Y016161D02*
X013248Y016161D01*
X013248Y016164D02*
X011398Y016164D01*
X011398Y016166D02*
X013248Y016166D01*
X013248Y016169D02*
X011398Y016169D01*
X011398Y016171D02*
X013248Y016171D01*
X013248Y016174D02*
X011398Y016174D01*
X011398Y016176D02*
X013248Y016176D01*
X013248Y016179D02*
X011398Y016179D01*
X011398Y016181D02*
X013248Y016181D01*
X013248Y016184D02*
X011398Y016184D01*
X011398Y016186D02*
X013248Y016186D01*
X013248Y016189D02*
X011398Y016189D01*
X011398Y016191D02*
X013248Y016191D01*
X013248Y016194D02*
X011398Y016194D01*
X011398Y016196D02*
X013248Y016196D01*
X013248Y016199D02*
X011398Y016199D01*
X011398Y016201D02*
X013248Y016201D01*
X013248Y016203D02*
X011398Y016203D01*
X011398Y016206D02*
X013248Y016206D01*
X013248Y016208D02*
X011398Y016208D01*
X011398Y016211D02*
X013248Y016211D01*
X013248Y016213D02*
X011398Y016213D01*
X011398Y016216D02*
X013248Y016216D01*
X013248Y016218D02*
X011398Y016218D01*
X011398Y016221D02*
X013248Y016221D01*
X013248Y016223D02*
X011398Y016223D01*
X011398Y016226D02*
X013248Y016226D01*
X013248Y016228D02*
X011398Y016228D01*
X011398Y016231D02*
X013248Y016231D01*
X013248Y016233D02*
X011398Y016233D01*
X011398Y016236D02*
X013248Y016236D01*
X013248Y016238D02*
X011398Y016238D01*
X011398Y016241D02*
X013248Y016241D01*
X013248Y016243D02*
X011398Y016243D01*
X011398Y016246D02*
X013248Y016246D01*
X013248Y016248D02*
X011398Y016248D01*
X011398Y016251D02*
X013248Y016251D01*
X013248Y016253D02*
X011398Y016253D01*
X011398Y016256D02*
X013248Y016256D01*
X013248Y016258D02*
X011398Y016258D01*
X011398Y016261D02*
X013248Y016261D01*
X013248Y016263D02*
X011398Y016263D01*
X011398Y016265D02*
X013248Y016265D01*
X013248Y016268D02*
X011398Y016268D01*
X011398Y016270D02*
X013248Y016270D01*
X013248Y016273D02*
X011398Y016273D01*
X011398Y016275D02*
X013248Y016275D01*
X013248Y016278D02*
X011398Y016278D01*
X011398Y016280D02*
X013248Y016280D01*
X013248Y016283D02*
X011398Y016283D01*
X011398Y016285D02*
X013248Y016285D01*
X013248Y016288D02*
X011398Y016288D01*
X011398Y016290D02*
X013248Y016290D01*
X013248Y016293D02*
X011398Y016293D01*
X011398Y016295D02*
X013248Y016295D01*
X013248Y016298D02*
X011398Y016298D01*
X011398Y016300D02*
X013248Y016300D01*
X013248Y016303D02*
X011398Y016303D01*
X011398Y016305D02*
X013248Y016305D01*
X013248Y016109D02*
X012601Y016109D01*
X012604Y016107D02*
X013248Y016107D01*
X013248Y016104D02*
X012606Y016104D01*
X012609Y016102D02*
X013248Y016102D01*
X013248Y016099D02*
X012611Y016099D01*
X012614Y016097D02*
X013248Y016097D01*
X013248Y016094D02*
X012616Y016094D01*
X012619Y016092D02*
X013248Y016092D01*
X013248Y016089D02*
X012621Y016089D01*
X012624Y016087D02*
X013248Y016087D01*
X013248Y016084D02*
X012626Y016084D01*
X012629Y016082D02*
X013248Y016082D01*
X013248Y016079D02*
X012631Y016079D01*
X012634Y016077D02*
X013248Y016077D01*
X013248Y016074D02*
X012636Y016074D01*
X012639Y016072D02*
X013248Y016072D01*
X013248Y016070D02*
X012641Y016070D01*
X012644Y016067D02*
X013248Y016067D01*
X013248Y016065D02*
X012646Y016065D01*
X012649Y016062D02*
X013248Y016062D01*
X013248Y016060D02*
X012651Y016060D01*
X012654Y016057D02*
X013248Y016057D01*
X013248Y016055D02*
X012656Y016055D01*
X012659Y016052D02*
X013248Y016052D01*
X013248Y016050D02*
X012661Y016050D01*
X012664Y016047D02*
X013248Y016047D01*
X013248Y016045D02*
X012666Y016045D01*
X012668Y016042D02*
X013248Y016042D01*
X013248Y016040D02*
X012671Y016040D01*
X012673Y016037D02*
X013248Y016037D01*
X013248Y016035D02*
X012676Y016035D01*
X012678Y016032D02*
X013248Y016032D01*
X013248Y016030D02*
X012681Y016030D01*
X012683Y016027D02*
X013248Y016027D01*
X013248Y016025D02*
X012686Y016025D01*
X012688Y016022D02*
X013248Y016022D01*
X013248Y016020D02*
X012691Y016020D01*
X012693Y016017D02*
X013248Y016017D01*
X013248Y016015D02*
X012696Y016015D01*
X012697Y016014D02*
X012599Y016112D01*
X012697Y016014D02*
X012697Y014911D01*
X013248Y014911D01*
X013248Y014909D02*
X012694Y014909D01*
X012692Y014906D02*
X013248Y014906D01*
X013248Y014904D02*
X012689Y014904D01*
X012687Y014901D02*
X013248Y014901D01*
X013248Y014899D02*
X012684Y014899D01*
X012682Y014896D02*
X013248Y014896D01*
X013248Y014894D02*
X012680Y014894D01*
X012677Y014891D02*
X013248Y014891D01*
X013248Y014889D02*
X012675Y014889D01*
X012672Y014886D02*
X013248Y014886D01*
X013248Y014884D02*
X012670Y014884D01*
X012667Y014881D02*
X013248Y014881D01*
X013248Y014879D02*
X012665Y014879D01*
X012662Y014876D02*
X013248Y014876D01*
X013248Y014874D02*
X012660Y014874D01*
X012657Y014872D02*
X013248Y014872D01*
X013248Y014869D02*
X012655Y014869D01*
X012652Y014867D02*
X013248Y014867D01*
X013248Y014864D02*
X012650Y014864D01*
X012647Y014862D02*
X013248Y014862D01*
X013248Y014859D02*
X012645Y014859D01*
X012642Y014857D02*
X013248Y014857D01*
X013248Y014854D02*
X012640Y014854D01*
X012637Y014852D02*
X013248Y014852D01*
X013248Y014849D02*
X012635Y014849D01*
X012632Y014847D02*
X013248Y014847D01*
X013248Y014844D02*
X012630Y014844D01*
X012627Y014842D02*
X013248Y014842D01*
X013248Y014839D02*
X012625Y014839D01*
X012622Y014837D02*
X013248Y014837D01*
X013248Y014834D02*
X012620Y014834D01*
X012618Y014832D02*
X013248Y014832D01*
X013248Y014829D02*
X012615Y014829D01*
X012613Y014827D02*
X013248Y014827D01*
X013248Y014824D02*
X012610Y014824D01*
X012608Y014822D02*
X013248Y014822D01*
X013248Y014819D02*
X012605Y014819D01*
X012603Y014817D02*
X013248Y014817D01*
X013248Y014814D02*
X012600Y014814D01*
X012599Y014813D02*
X012697Y014911D01*
X012697Y014914D02*
X013248Y014914D01*
X013248Y014916D02*
X012697Y014916D01*
X012697Y014919D02*
X013248Y014919D01*
X013248Y014921D02*
X012697Y014921D01*
X012697Y014924D02*
X013248Y014924D01*
X013248Y014926D02*
X012697Y014926D01*
X012697Y014929D02*
X013248Y014929D01*
X013248Y014931D02*
X012697Y014931D01*
X012697Y014934D02*
X013248Y014934D01*
X013248Y014936D02*
X012697Y014936D01*
X012697Y014939D02*
X013248Y014939D01*
X013248Y014941D02*
X012697Y014941D01*
X012697Y014943D02*
X013248Y014943D01*
X013248Y014946D02*
X012697Y014946D01*
X012697Y014948D02*
X013248Y014948D01*
X013248Y014951D02*
X012697Y014951D01*
X012697Y014953D02*
X013248Y014953D01*
X013248Y014956D02*
X012697Y014956D01*
X012697Y014958D02*
X013248Y014958D01*
X013248Y014961D02*
X012697Y014961D01*
X012697Y014963D02*
X013248Y014963D01*
X013248Y014966D02*
X012697Y014966D01*
X012697Y014968D02*
X013248Y014968D01*
X013248Y014971D02*
X012697Y014971D01*
X012697Y014973D02*
X013248Y014973D01*
X013248Y014976D02*
X012697Y014976D01*
X012697Y014978D02*
X013248Y014978D01*
X013248Y014981D02*
X012697Y014981D01*
X012697Y014983D02*
X013248Y014983D01*
X013248Y014986D02*
X012697Y014986D01*
X012697Y014988D02*
X013248Y014988D01*
X013248Y014991D02*
X012697Y014991D01*
X012697Y014993D02*
X013248Y014993D01*
X013248Y014996D02*
X012697Y014996D01*
X012697Y014998D02*
X013248Y014998D01*
X013248Y015001D02*
X012697Y015001D01*
X012697Y015003D02*
X013248Y015003D01*
X013248Y015005D02*
X012697Y015005D01*
X012697Y015008D02*
X013248Y015008D01*
X013248Y015010D02*
X012697Y015010D01*
X012697Y015013D02*
X013248Y015013D01*
X013248Y015015D02*
X012697Y015015D01*
X012697Y015018D02*
X013248Y015018D01*
X013248Y015020D02*
X012697Y015020D01*
X012697Y015023D02*
X013248Y015023D01*
X013248Y015025D02*
X012697Y015025D01*
X012697Y015028D02*
X013248Y015028D01*
X013248Y015030D02*
X012697Y015030D01*
X012697Y015033D02*
X013248Y015033D01*
X013248Y015035D02*
X012697Y015035D01*
X012697Y015038D02*
X013248Y015038D01*
X013248Y015040D02*
X012697Y015040D01*
X012697Y015043D02*
X013248Y015043D01*
X013248Y015045D02*
X012697Y015045D01*
X012697Y015048D02*
X013248Y015048D01*
X013248Y015050D02*
X012697Y015050D01*
X012697Y015053D02*
X013248Y015053D01*
X013248Y015055D02*
X012697Y015055D01*
X012697Y015058D02*
X013248Y015058D01*
X013248Y015060D02*
X012697Y015060D01*
X012697Y015063D02*
X013248Y015063D01*
X013248Y015065D02*
X012697Y015065D01*
X012697Y015067D02*
X013248Y015067D01*
X013248Y015070D02*
X012697Y015070D01*
X012697Y015072D02*
X013248Y015072D01*
X013248Y015075D02*
X012697Y015075D01*
X012697Y015077D02*
X013248Y015077D01*
X013248Y015080D02*
X012697Y015080D01*
X012697Y015082D02*
X013248Y015082D01*
X013248Y015085D02*
X012697Y015085D01*
X012697Y015087D02*
X013248Y015087D01*
X013248Y015090D02*
X012697Y015090D01*
X012697Y015092D02*
X013248Y015092D01*
X013248Y015095D02*
X012697Y015095D01*
X012697Y015097D02*
X013248Y015097D01*
X013248Y015100D02*
X012697Y015100D01*
X012697Y015102D02*
X013248Y015102D01*
X013248Y015105D02*
X012697Y015105D01*
X012697Y015107D02*
X013248Y015107D01*
X013248Y015110D02*
X012697Y015110D01*
X012697Y015112D02*
X013248Y015112D01*
X013248Y015115D02*
X012697Y015115D01*
X012697Y015117D02*
X013248Y015117D01*
X013248Y015120D02*
X012697Y015120D01*
X012697Y015122D02*
X013248Y015122D01*
X013248Y015125D02*
X012697Y015125D01*
X012697Y015127D02*
X013248Y015127D01*
X013248Y015129D02*
X012697Y015129D01*
X012697Y015132D02*
X013248Y015132D01*
X013248Y015134D02*
X012697Y015134D01*
X012697Y015137D02*
X013248Y015137D01*
X013248Y015139D02*
X012697Y015139D01*
X012697Y015142D02*
X013248Y015142D01*
X013248Y015144D02*
X012697Y015144D01*
X012697Y015147D02*
X013248Y015147D01*
X013248Y015149D02*
X012697Y015149D01*
X012697Y015152D02*
X013248Y015152D01*
X013248Y015154D02*
X012697Y015154D01*
X012697Y015157D02*
X013248Y015157D01*
X013248Y015159D02*
X012697Y015159D01*
X012697Y015162D02*
X013248Y015162D01*
X013248Y015164D02*
X012697Y015164D01*
X012697Y015167D02*
X013248Y015167D01*
X013248Y015169D02*
X012697Y015169D01*
X012697Y015172D02*
X013248Y015172D01*
X013248Y015174D02*
X012697Y015174D01*
X012697Y015177D02*
X013248Y015177D01*
X013248Y015179D02*
X012697Y015179D01*
X012697Y015182D02*
X013248Y015182D01*
X013248Y015184D02*
X012697Y015184D01*
X012697Y015187D02*
X013248Y015187D01*
X013248Y015189D02*
X012697Y015189D01*
X012697Y015191D02*
X013248Y015191D01*
X013248Y015194D02*
X012697Y015194D01*
X012697Y015196D02*
X013248Y015196D01*
X013248Y015199D02*
X012697Y015199D01*
X012697Y015201D02*
X013248Y015201D01*
X013248Y015204D02*
X012697Y015204D01*
X012697Y015206D02*
X013248Y015206D01*
X013248Y015209D02*
X012697Y015209D01*
X012697Y015211D02*
X013248Y015211D01*
X013248Y015214D02*
X012697Y015214D01*
X012697Y015216D02*
X013248Y015216D01*
X013248Y015219D02*
X012697Y015219D01*
X012697Y015221D02*
X013248Y015221D01*
X013248Y015224D02*
X012697Y015224D01*
X012697Y015226D02*
X013248Y015226D01*
X013248Y015229D02*
X012697Y015229D01*
X012697Y015231D02*
X013248Y015231D01*
X013248Y015234D02*
X012697Y015234D01*
X012697Y015236D02*
X013248Y015236D01*
X013248Y015239D02*
X012697Y015239D01*
X012697Y015241D02*
X013248Y015241D01*
X013248Y015244D02*
X012697Y015244D01*
X012697Y015246D02*
X013248Y015246D01*
X013248Y015249D02*
X012697Y015249D01*
X012697Y015251D02*
X013248Y015251D01*
X013248Y015254D02*
X012697Y015254D01*
X012697Y015256D02*
X013248Y015256D01*
X013248Y015258D02*
X012697Y015258D01*
X012697Y015261D02*
X013248Y015261D01*
X013248Y015263D02*
X012697Y015263D01*
X012697Y015266D02*
X013248Y015266D01*
X013248Y015268D02*
X012697Y015268D01*
X012697Y015271D02*
X013248Y015271D01*
X013248Y015273D02*
X012697Y015273D01*
X012697Y015276D02*
X013248Y015276D01*
X013248Y015278D02*
X012697Y015278D01*
X012697Y015281D02*
X013248Y015281D01*
X013248Y015283D02*
X012697Y015283D01*
X012697Y015286D02*
X013248Y015286D01*
X013248Y015288D02*
X012697Y015288D01*
X012697Y015291D02*
X013248Y015291D01*
X013248Y015293D02*
X012697Y015293D01*
X012697Y015296D02*
X013248Y015296D01*
X013248Y015298D02*
X012697Y015298D01*
X012697Y015301D02*
X013248Y015301D01*
X013248Y015303D02*
X012697Y015303D01*
X012697Y015306D02*
X013248Y015306D01*
X013248Y015308D02*
X012697Y015308D01*
X012697Y015311D02*
X013248Y015311D01*
X013248Y015313D02*
X012697Y015313D01*
X012697Y015316D02*
X013248Y015316D01*
X013248Y015318D02*
X012697Y015318D01*
X012697Y015320D02*
X013248Y015320D01*
X013248Y015323D02*
X012697Y015323D01*
X012697Y015325D02*
X013248Y015325D01*
X013248Y015328D02*
X012697Y015328D01*
X012697Y015330D02*
X013248Y015330D01*
X013248Y015333D02*
X012697Y015333D01*
X012697Y015335D02*
X013248Y015335D01*
X013248Y015338D02*
X012697Y015338D01*
X012697Y015340D02*
X013248Y015340D01*
X013248Y015343D02*
X012697Y015343D01*
X012697Y015345D02*
X013248Y015345D01*
X013248Y015348D02*
X012697Y015348D01*
X012697Y015350D02*
X013248Y015350D01*
X013248Y015353D02*
X012697Y015353D01*
X012697Y015355D02*
X013248Y015355D01*
X013248Y015358D02*
X012697Y015358D01*
X012697Y015360D02*
X013248Y015360D01*
X013248Y015363D02*
X012697Y015363D01*
X012697Y015365D02*
X013248Y015365D01*
X013248Y015368D02*
X012697Y015368D01*
X012697Y015370D02*
X013248Y015370D01*
X013248Y015373D02*
X012697Y015373D01*
X012697Y015375D02*
X013248Y015375D01*
X013248Y015378D02*
X012697Y015378D01*
X012697Y015380D02*
X013248Y015380D01*
X013248Y015382D02*
X012697Y015382D01*
X012697Y015385D02*
X013248Y015385D01*
X013248Y015387D02*
X012697Y015387D01*
X012697Y015390D02*
X013248Y015390D01*
X013248Y015392D02*
X012697Y015392D01*
X012697Y015395D02*
X013248Y015395D01*
X013248Y015397D02*
X012697Y015397D01*
X012697Y015400D02*
X013248Y015400D01*
X013248Y015402D02*
X012697Y015402D01*
X012697Y015405D02*
X013248Y015405D01*
X013248Y015407D02*
X012697Y015407D01*
X012697Y015410D02*
X013248Y015410D01*
X013248Y015412D02*
X012697Y015412D01*
X012697Y015415D02*
X013248Y015415D01*
X013248Y015417D02*
X012697Y015417D01*
X012697Y015420D02*
X013248Y015420D01*
X013248Y015422D02*
X012697Y015422D01*
X012697Y015425D02*
X013248Y015425D01*
X013248Y015427D02*
X012697Y015427D01*
X012697Y015430D02*
X013248Y015430D01*
X013248Y015432D02*
X012697Y015432D01*
X012697Y015435D02*
X013248Y015435D01*
X013248Y015437D02*
X012697Y015437D01*
X012697Y015440D02*
X013248Y015440D01*
X013248Y015442D02*
X012697Y015442D01*
X012697Y015444D02*
X013248Y015444D01*
X013248Y015447D02*
X012697Y015447D01*
X012697Y015449D02*
X013248Y015449D01*
X013248Y015452D02*
X012697Y015452D01*
X012697Y015454D02*
X013248Y015454D01*
X013248Y015457D02*
X012697Y015457D01*
X012697Y015459D02*
X013248Y015459D01*
X013248Y015462D02*
X012697Y015462D01*
X012697Y015464D02*
X013248Y015464D01*
X013248Y015467D02*
X012697Y015467D01*
X012697Y015469D02*
X013248Y015469D01*
X013248Y015472D02*
X012697Y015472D01*
X012697Y015474D02*
X013248Y015474D01*
X013248Y015477D02*
X012697Y015477D01*
X012697Y015479D02*
X013248Y015479D01*
X013248Y015482D02*
X012697Y015482D01*
X012697Y015484D02*
X013248Y015484D01*
X013248Y015487D02*
X012697Y015487D01*
X012697Y015489D02*
X013248Y015489D01*
X013248Y015492D02*
X012697Y015492D01*
X012697Y015494D02*
X013248Y015494D01*
X013248Y015497D02*
X012697Y015497D01*
X012697Y015499D02*
X013248Y015499D01*
X013248Y015502D02*
X012697Y015502D01*
X012697Y015504D02*
X013248Y015504D01*
X013248Y015506D02*
X012697Y015506D01*
X012697Y015509D02*
X013248Y015509D01*
X013248Y015511D02*
X012697Y015511D01*
X012697Y015514D02*
X013248Y015514D01*
X013248Y015516D02*
X012697Y015516D01*
X012697Y015519D02*
X013248Y015519D01*
X013248Y015521D02*
X012697Y015521D01*
X012697Y015524D02*
X013248Y015524D01*
X013248Y015526D02*
X012697Y015526D01*
X012697Y015529D02*
X013248Y015529D01*
X013248Y015531D02*
X012697Y015531D01*
X012697Y015534D02*
X013248Y015534D01*
X013248Y015536D02*
X012697Y015536D01*
X012697Y015539D02*
X013248Y015539D01*
X013248Y015541D02*
X012697Y015541D01*
X012697Y015544D02*
X013248Y015544D01*
X013248Y015546D02*
X012697Y015546D01*
X012697Y015549D02*
X013248Y015549D01*
X013248Y015551D02*
X012697Y015551D01*
X012697Y015554D02*
X013248Y015554D01*
X013248Y015556D02*
X012697Y015556D01*
X012697Y015559D02*
X013248Y015559D01*
X013248Y015561D02*
X012697Y015561D01*
X012697Y015564D02*
X013248Y015564D01*
X013248Y015566D02*
X012697Y015566D01*
X012697Y015569D02*
X013248Y015569D01*
X013248Y015571D02*
X012697Y015571D01*
X012697Y015573D02*
X013248Y015573D01*
X013248Y015576D02*
X012697Y015576D01*
X012697Y015578D02*
X013248Y015578D01*
X013248Y015581D02*
X012697Y015581D01*
X012697Y015583D02*
X013248Y015583D01*
X013248Y015586D02*
X012697Y015586D01*
X012697Y015588D02*
X013248Y015588D01*
X013248Y015591D02*
X012697Y015591D01*
X012697Y015593D02*
X013248Y015593D01*
X013248Y015596D02*
X012697Y015596D01*
X012697Y015598D02*
X013248Y015598D01*
X013248Y015601D02*
X012697Y015601D01*
X012697Y015603D02*
X013248Y015603D01*
X013248Y015606D02*
X012697Y015606D01*
X012697Y015608D02*
X013248Y015608D01*
X013248Y015611D02*
X012697Y015611D01*
X012697Y015613D02*
X013248Y015613D01*
X013248Y015616D02*
X012697Y015616D01*
X012697Y015618D02*
X013248Y015618D01*
X013248Y015621D02*
X012697Y015621D01*
X012697Y015623D02*
X013248Y015623D01*
X013248Y015626D02*
X012697Y015626D01*
X012697Y015628D02*
X013248Y015628D01*
X013248Y015631D02*
X012697Y015631D01*
X012697Y015633D02*
X013248Y015633D01*
X013248Y015635D02*
X012697Y015635D01*
X012697Y015638D02*
X013248Y015638D01*
X013248Y015640D02*
X012697Y015640D01*
X012697Y015643D02*
X013248Y015643D01*
X013248Y015645D02*
X012697Y015645D01*
X012697Y015648D02*
X013248Y015648D01*
X013248Y015650D02*
X012697Y015650D01*
X012697Y015653D02*
X013248Y015653D01*
X013248Y015655D02*
X012697Y015655D01*
X012697Y015658D02*
X013248Y015658D01*
X013248Y015660D02*
X012697Y015660D01*
X012697Y015663D02*
X013248Y015663D01*
X013248Y015665D02*
X012697Y015665D01*
X012697Y015668D02*
X013248Y015668D01*
X013248Y015670D02*
X012697Y015670D01*
X012697Y015673D02*
X013248Y015673D01*
X013248Y015675D02*
X012697Y015675D01*
X012697Y015678D02*
X013248Y015678D01*
X013248Y015680D02*
X012697Y015680D01*
X012697Y015683D02*
X013248Y015683D01*
X013248Y015685D02*
X012697Y015685D01*
X012697Y015688D02*
X013248Y015688D01*
X013248Y015690D02*
X012697Y015690D01*
X012697Y015693D02*
X013248Y015693D01*
X013248Y015695D02*
X012697Y015695D01*
X012697Y015697D02*
X013248Y015697D01*
X013248Y015700D02*
X012697Y015700D01*
X012697Y015702D02*
X013248Y015702D01*
X013248Y015705D02*
X012697Y015705D01*
X012697Y015707D02*
X013248Y015707D01*
X013248Y015710D02*
X012697Y015710D01*
X012697Y015712D02*
X013248Y015712D01*
X013248Y015715D02*
X012697Y015715D01*
X012697Y015717D02*
X013248Y015717D01*
X013248Y015720D02*
X012697Y015720D01*
X012697Y015722D02*
X013248Y015722D01*
X013248Y015725D02*
X012697Y015725D01*
X012697Y015727D02*
X013248Y015727D01*
X013248Y015730D02*
X012697Y015730D01*
X012697Y015732D02*
X013248Y015732D01*
X013248Y015735D02*
X012697Y015735D01*
X012697Y015737D02*
X013248Y015737D01*
X013248Y015740D02*
X012697Y015740D01*
X012697Y015742D02*
X013248Y015742D01*
X013248Y015745D02*
X012697Y015745D01*
X012697Y015747D02*
X013248Y015747D01*
X013248Y015750D02*
X012697Y015750D01*
X012697Y015752D02*
X013248Y015752D01*
X013248Y015755D02*
X012697Y015755D01*
X012697Y015757D02*
X013248Y015757D01*
X013248Y015759D02*
X012697Y015759D01*
X012697Y015762D02*
X013248Y015762D01*
X013248Y015764D02*
X012697Y015764D01*
X012697Y015767D02*
X013248Y015767D01*
X013248Y015769D02*
X012697Y015769D01*
X012697Y015772D02*
X013248Y015772D01*
X013248Y015774D02*
X012697Y015774D01*
X012697Y015777D02*
X013248Y015777D01*
X013248Y015779D02*
X012697Y015779D01*
X012697Y015782D02*
X013248Y015782D01*
X013248Y015784D02*
X012697Y015784D01*
X012697Y015787D02*
X013248Y015787D01*
X013248Y015789D02*
X012697Y015789D01*
X012697Y015792D02*
X013248Y015792D01*
X013248Y015794D02*
X012697Y015794D01*
X012697Y015797D02*
X013248Y015797D01*
X013248Y015799D02*
X012697Y015799D01*
X012697Y015802D02*
X013248Y015802D01*
X013248Y015804D02*
X012697Y015804D01*
X012697Y015807D02*
X013248Y015807D01*
X013248Y015809D02*
X012697Y015809D01*
X012697Y015812D02*
X013248Y015812D01*
X013248Y015814D02*
X012697Y015814D01*
X012697Y015817D02*
X013248Y015817D01*
X013248Y015819D02*
X012697Y015819D01*
X012697Y015821D02*
X013248Y015821D01*
X013248Y015824D02*
X012697Y015824D01*
X012697Y015826D02*
X013248Y015826D01*
X013248Y015829D02*
X012697Y015829D01*
X012697Y015831D02*
X013248Y015831D01*
X013248Y015834D02*
X012697Y015834D01*
X012697Y015836D02*
X013248Y015836D01*
X013248Y015839D02*
X012697Y015839D01*
X012697Y015841D02*
X013248Y015841D01*
X013248Y015844D02*
X012697Y015844D01*
X012697Y015846D02*
X013248Y015846D01*
X013248Y015849D02*
X012697Y015849D01*
X012697Y015851D02*
X013248Y015851D01*
X013248Y015854D02*
X012697Y015854D01*
X012697Y015856D02*
X013248Y015856D01*
X013248Y015859D02*
X012697Y015859D01*
X012697Y015861D02*
X013248Y015861D01*
X013248Y015864D02*
X012697Y015864D01*
X012697Y015866D02*
X013248Y015866D01*
X013248Y015869D02*
X012697Y015869D01*
X012697Y015871D02*
X013248Y015871D01*
X013248Y015874D02*
X012697Y015874D01*
X012697Y015876D02*
X013248Y015876D01*
X013248Y015879D02*
X012697Y015879D01*
X012697Y015881D02*
X013248Y015881D01*
X013248Y015884D02*
X012697Y015884D01*
X012697Y015886D02*
X013248Y015886D01*
X013248Y015888D02*
X012697Y015888D01*
X012697Y015891D02*
X013248Y015891D01*
X013248Y015893D02*
X012697Y015893D01*
X012697Y015896D02*
X013248Y015896D01*
X013248Y015898D02*
X012697Y015898D01*
X012697Y015901D02*
X013248Y015901D01*
X013248Y015903D02*
X012697Y015903D01*
X012697Y015906D02*
X013248Y015906D01*
X013248Y015908D02*
X012697Y015908D01*
X012697Y015911D02*
X013248Y015911D01*
X013248Y015913D02*
X012697Y015913D01*
X012697Y015916D02*
X013248Y015916D01*
X013248Y015918D02*
X012697Y015918D01*
X012697Y015921D02*
X013248Y015921D01*
X013248Y015923D02*
X012697Y015923D01*
X012697Y015926D02*
X013248Y015926D01*
X013248Y015928D02*
X012697Y015928D01*
X012697Y015931D02*
X013248Y015931D01*
X013248Y015933D02*
X012697Y015933D01*
X012697Y015936D02*
X013248Y015936D01*
X013248Y015938D02*
X012697Y015938D01*
X012697Y015941D02*
X013248Y015941D01*
X013248Y015943D02*
X012697Y015943D01*
X012697Y015946D02*
X013248Y015946D01*
X013248Y015948D02*
X012697Y015948D01*
X012697Y015950D02*
X013248Y015950D01*
X013248Y015953D02*
X012697Y015953D01*
X012697Y015955D02*
X013248Y015955D01*
X013248Y015958D02*
X012697Y015958D01*
X012697Y015960D02*
X013248Y015960D01*
X013248Y015963D02*
X012697Y015963D01*
X012697Y015965D02*
X013248Y015965D01*
X013248Y015968D02*
X012697Y015968D01*
X012697Y015970D02*
X013248Y015970D01*
X013248Y015973D02*
X012697Y015973D01*
X012697Y015975D02*
X013248Y015975D01*
X013248Y015978D02*
X012697Y015978D01*
X012697Y015980D02*
X013248Y015980D01*
X013248Y015983D02*
X012697Y015983D01*
X012697Y015985D02*
X013248Y015985D01*
X013248Y015988D02*
X012697Y015988D01*
X012697Y015990D02*
X013248Y015990D01*
X013248Y015993D02*
X012697Y015993D01*
X012697Y015995D02*
X013248Y015995D01*
X013248Y015998D02*
X012697Y015998D01*
X012697Y016000D02*
X013248Y016000D01*
X013248Y016003D02*
X012697Y016003D01*
X012697Y016005D02*
X013248Y016005D01*
X013248Y016008D02*
X012697Y016008D01*
X012697Y016010D02*
X013248Y016010D01*
X013248Y016012D02*
X012697Y016012D01*
X011949Y015187D02*
X011673Y015069D01*
X011398Y015187D01*
X011398Y014636D01*
X011398Y014638D02*
X013248Y014638D01*
X013248Y014641D02*
X011398Y014641D01*
X011398Y014643D02*
X013248Y014643D01*
X013248Y014646D02*
X011398Y014646D01*
X011398Y014648D02*
X013248Y014648D01*
X013248Y014651D02*
X011398Y014651D01*
X011398Y014653D02*
X013248Y014653D01*
X013248Y014656D02*
X011398Y014656D01*
X011398Y014658D02*
X013248Y014658D01*
X013248Y014661D02*
X011398Y014661D01*
X011398Y014663D02*
X013248Y014663D01*
X013248Y014666D02*
X011398Y014666D01*
X011398Y014668D02*
X013248Y014668D01*
X013248Y014671D02*
X011398Y014671D01*
X011398Y014673D02*
X013248Y014673D01*
X013248Y014676D02*
X011398Y014676D01*
X011398Y014678D02*
X013248Y014678D01*
X013248Y014681D02*
X011398Y014681D01*
X011398Y014683D02*
X013248Y014683D01*
X013248Y014686D02*
X011398Y014686D01*
X011398Y014688D02*
X013248Y014688D01*
X013248Y014690D02*
X011398Y014690D01*
X011398Y014693D02*
X013248Y014693D01*
X013248Y014695D02*
X011398Y014695D01*
X011398Y014698D02*
X013248Y014698D01*
X013248Y014700D02*
X011398Y014700D01*
X011398Y014703D02*
X013248Y014703D01*
X013248Y014705D02*
X011398Y014705D01*
X011398Y014708D02*
X013248Y014708D01*
X013248Y014710D02*
X011398Y014710D01*
X011398Y014713D02*
X013248Y014713D01*
X013248Y014715D02*
X011398Y014715D01*
X011398Y014718D02*
X013248Y014718D01*
X013248Y014720D02*
X011398Y014720D01*
X011398Y014723D02*
X013248Y014723D01*
X013248Y014725D02*
X011398Y014725D01*
X011398Y014728D02*
X013248Y014728D01*
X013248Y014730D02*
X011398Y014730D01*
X011398Y014733D02*
X013248Y014733D01*
X013248Y014735D02*
X011398Y014735D01*
X011398Y014738D02*
X013248Y014738D01*
X013248Y014740D02*
X011398Y014740D01*
X011398Y014743D02*
X013248Y014743D01*
X013248Y014745D02*
X011398Y014745D01*
X011398Y014748D02*
X013248Y014748D01*
X013248Y014750D02*
X011398Y014750D01*
X011398Y014752D02*
X013248Y014752D01*
X013248Y014755D02*
X011398Y014755D01*
X011398Y014757D02*
X013248Y014757D01*
X013248Y014760D02*
X011398Y014760D01*
X011398Y014762D02*
X013248Y014762D01*
X013248Y014765D02*
X011398Y014765D01*
X011398Y014767D02*
X013248Y014767D01*
X013248Y014770D02*
X011398Y014770D01*
X011398Y014772D02*
X013248Y014772D01*
X013248Y014775D02*
X011398Y014775D01*
X011398Y014777D02*
X013248Y014777D01*
X013248Y014780D02*
X011398Y014780D01*
X011398Y014782D02*
X013248Y014782D01*
X013248Y014785D02*
X011398Y014785D01*
X011398Y014787D02*
X013248Y014787D01*
X013248Y014790D02*
X011398Y014790D01*
X011398Y014792D02*
X013248Y014792D01*
X013248Y014795D02*
X011398Y014795D01*
X011398Y014797D02*
X013248Y014797D01*
X013248Y014800D02*
X011398Y014800D01*
X011398Y014802D02*
X013248Y014802D01*
X013248Y014805D02*
X011398Y014805D01*
X011398Y014807D02*
X013248Y014807D01*
X013248Y014810D02*
X011398Y014810D01*
X011398Y014812D02*
X013248Y014812D01*
X012599Y014813D02*
X012067Y014813D01*
X011949Y014931D01*
X011949Y015187D01*
X011948Y015187D01*
X011949Y015184D02*
X011942Y015184D01*
X011936Y015182D02*
X011949Y015182D01*
X011949Y015179D02*
X011931Y015179D01*
X011925Y015177D02*
X011949Y015177D01*
X011949Y015174D02*
X011919Y015174D01*
X011913Y015172D02*
X011949Y015172D01*
X011949Y015169D02*
X011908Y015169D01*
X011902Y015167D02*
X011949Y015167D01*
X011949Y015164D02*
X011896Y015164D01*
X011890Y015162D02*
X011949Y015162D01*
X011949Y015159D02*
X011884Y015159D01*
X011879Y015157D02*
X011949Y015157D01*
X011949Y015154D02*
X011873Y015154D01*
X011867Y015152D02*
X011949Y015152D01*
X011949Y015149D02*
X011861Y015149D01*
X011855Y015147D02*
X011949Y015147D01*
X011949Y015144D02*
X011850Y015144D01*
X011844Y015142D02*
X011949Y015142D01*
X011949Y015139D02*
X011838Y015139D01*
X011832Y015137D02*
X011949Y015137D01*
X011949Y015134D02*
X011826Y015134D01*
X011821Y015132D02*
X011949Y015132D01*
X011949Y015129D02*
X011815Y015129D01*
X011809Y015127D02*
X011949Y015127D01*
X011949Y015125D02*
X011803Y015125D01*
X011798Y015122D02*
X011949Y015122D01*
X011949Y015120D02*
X011792Y015120D01*
X011786Y015117D02*
X011949Y015117D01*
X011949Y015115D02*
X011780Y015115D01*
X011774Y015112D02*
X011949Y015112D01*
X011949Y015110D02*
X011769Y015110D01*
X011763Y015107D02*
X011949Y015107D01*
X011949Y015105D02*
X011757Y015105D01*
X011751Y015102D02*
X011949Y015102D01*
X011949Y015100D02*
X011745Y015100D01*
X011740Y015097D02*
X011949Y015097D01*
X011949Y015095D02*
X011734Y015095D01*
X011728Y015092D02*
X011949Y015092D01*
X011949Y015090D02*
X011722Y015090D01*
X011717Y015087D02*
X011949Y015087D01*
X011949Y015085D02*
X011711Y015085D01*
X011705Y015082D02*
X011949Y015082D01*
X011949Y015080D02*
X011699Y015080D01*
X011693Y015077D02*
X011949Y015077D01*
X011949Y015075D02*
X011688Y015075D01*
X011682Y015072D02*
X011949Y015072D01*
X011949Y015070D02*
X011676Y015070D01*
X011671Y015070D02*
X011398Y015070D01*
X011398Y015072D02*
X011665Y015072D01*
X011659Y015075D02*
X011398Y015075D01*
X011398Y015077D02*
X011653Y015077D01*
X011648Y015080D02*
X011398Y015080D01*
X011398Y015082D02*
X011642Y015082D01*
X011636Y015085D02*
X011398Y015085D01*
X011398Y015087D02*
X011630Y015087D01*
X011624Y015090D02*
X011398Y015090D01*
X011398Y015092D02*
X011619Y015092D01*
X011613Y015095D02*
X011398Y015095D01*
X011398Y015097D02*
X011607Y015097D01*
X011601Y015100D02*
X011398Y015100D01*
X011398Y015102D02*
X011595Y015102D01*
X011590Y015105D02*
X011398Y015105D01*
X011398Y015107D02*
X011584Y015107D01*
X011578Y015110D02*
X011398Y015110D01*
X011398Y015112D02*
X011572Y015112D01*
X011567Y015115D02*
X011398Y015115D01*
X011398Y015117D02*
X011561Y015117D01*
X011555Y015120D02*
X011398Y015120D01*
X011398Y015122D02*
X011549Y015122D01*
X011543Y015125D02*
X011398Y015125D01*
X011398Y015127D02*
X011538Y015127D01*
X011532Y015129D02*
X011398Y015129D01*
X011398Y015132D02*
X011526Y015132D01*
X011520Y015134D02*
X011398Y015134D01*
X011398Y015137D02*
X011514Y015137D01*
X011509Y015139D02*
X011398Y015139D01*
X011398Y015142D02*
X011503Y015142D01*
X011497Y015144D02*
X011398Y015144D01*
X011398Y015147D02*
X011491Y015147D01*
X011486Y015149D02*
X011398Y015149D01*
X011398Y015152D02*
X011480Y015152D01*
X011474Y015154D02*
X011398Y015154D01*
X011398Y015157D02*
X011468Y015157D01*
X011462Y015159D02*
X011398Y015159D01*
X011398Y015162D02*
X011457Y015162D01*
X011451Y015164D02*
X011398Y015164D01*
X011398Y015167D02*
X011445Y015167D01*
X011439Y015169D02*
X011398Y015169D01*
X011398Y015172D02*
X011433Y015172D01*
X011428Y015174D02*
X011398Y015174D01*
X011398Y015177D02*
X011422Y015177D01*
X011416Y015179D02*
X011398Y015179D01*
X011398Y015182D02*
X011410Y015182D01*
X011404Y015184D02*
X011398Y015184D01*
X011398Y015187D02*
X011399Y015187D01*
X011398Y015067D02*
X011949Y015067D01*
X011949Y015065D02*
X011398Y015065D01*
X011398Y015063D02*
X011949Y015063D01*
X011949Y015060D02*
X011398Y015060D01*
X011398Y015058D02*
X011949Y015058D01*
X011949Y015055D02*
X011398Y015055D01*
X011398Y015053D02*
X011949Y015053D01*
X011949Y015050D02*
X011398Y015050D01*
X011398Y015048D02*
X011949Y015048D01*
X011949Y015045D02*
X011398Y015045D01*
X011398Y015043D02*
X011949Y015043D01*
X011949Y015040D02*
X011398Y015040D01*
X011398Y015038D02*
X011949Y015038D01*
X011949Y015035D02*
X011398Y015035D01*
X011398Y015033D02*
X011949Y015033D01*
X011949Y015030D02*
X011398Y015030D01*
X011398Y015028D02*
X011949Y015028D01*
X011949Y015025D02*
X011398Y015025D01*
X011398Y015023D02*
X011949Y015023D01*
X011949Y015020D02*
X011398Y015020D01*
X011398Y015018D02*
X011949Y015018D01*
X011949Y015015D02*
X011398Y015015D01*
X011398Y015013D02*
X011949Y015013D01*
X011949Y015010D02*
X011398Y015010D01*
X011398Y015008D02*
X011949Y015008D01*
X011949Y015005D02*
X011398Y015005D01*
X011398Y015003D02*
X011949Y015003D01*
X011949Y015001D02*
X011398Y015001D01*
X011398Y014998D02*
X011949Y014998D01*
X011949Y014996D02*
X011398Y014996D01*
X011398Y014993D02*
X011949Y014993D01*
X011949Y014991D02*
X011398Y014991D01*
X011398Y014988D02*
X011949Y014988D01*
X011949Y014986D02*
X011398Y014986D01*
X011398Y014983D02*
X011949Y014983D01*
X011949Y014981D02*
X011398Y014981D01*
X011398Y014978D02*
X011949Y014978D01*
X011949Y014976D02*
X011398Y014976D01*
X011398Y014973D02*
X011949Y014973D01*
X011949Y014971D02*
X011398Y014971D01*
X011398Y014968D02*
X011949Y014968D01*
X011949Y014966D02*
X011398Y014966D01*
X011398Y014963D02*
X011949Y014963D01*
X011949Y014961D02*
X011398Y014961D01*
X011398Y014958D02*
X011949Y014958D01*
X011949Y014956D02*
X011398Y014956D01*
X011398Y014953D02*
X011949Y014953D01*
X011949Y014951D02*
X011398Y014951D01*
X011398Y014948D02*
X011949Y014948D01*
X011949Y014946D02*
X011398Y014946D01*
X011398Y014943D02*
X011949Y014943D01*
X011949Y014941D02*
X011398Y014941D01*
X011398Y014939D02*
X011949Y014939D01*
X011949Y014936D02*
X011398Y014936D01*
X011398Y014934D02*
X011949Y014934D01*
X011949Y014931D02*
X011398Y014931D01*
X011398Y014929D02*
X011951Y014929D01*
X011954Y014926D02*
X011398Y014926D01*
X011398Y014924D02*
X011956Y014924D01*
X011959Y014921D02*
X011398Y014921D01*
X011398Y014919D02*
X011961Y014919D01*
X011964Y014916D02*
X011398Y014916D01*
X011398Y014914D02*
X011966Y014914D01*
X011969Y014911D02*
X011398Y014911D01*
X011398Y014909D02*
X011971Y014909D01*
X011974Y014906D02*
X011398Y014906D01*
X011398Y014904D02*
X011976Y014904D01*
X011979Y014901D02*
X011398Y014901D01*
X011398Y014899D02*
X011981Y014899D01*
X011984Y014896D02*
X011398Y014896D01*
X011398Y014894D02*
X011986Y014894D01*
X011989Y014891D02*
X011398Y014891D01*
X011398Y014889D02*
X011991Y014889D01*
X011994Y014886D02*
X011398Y014886D01*
X011398Y014884D02*
X011996Y014884D01*
X011999Y014881D02*
X011398Y014881D01*
X011398Y014879D02*
X012001Y014879D01*
X012004Y014876D02*
X011398Y014876D01*
X011398Y014874D02*
X012006Y014874D01*
X012008Y014872D02*
X011398Y014872D01*
X011398Y014869D02*
X012011Y014869D01*
X012013Y014867D02*
X011398Y014867D01*
X011398Y014864D02*
X012016Y014864D01*
X012018Y014862D02*
X011398Y014862D01*
X011398Y014859D02*
X012021Y014859D01*
X012023Y014857D02*
X011398Y014857D01*
X011398Y014854D02*
X012026Y014854D01*
X012028Y014852D02*
X011398Y014852D01*
X011398Y014849D02*
X012031Y014849D01*
X012033Y014847D02*
X011398Y014847D01*
X011398Y014844D02*
X012036Y014844D01*
X012038Y014842D02*
X011398Y014842D01*
X011398Y014839D02*
X012041Y014839D01*
X012043Y014837D02*
X011398Y014837D01*
X011398Y014834D02*
X012046Y014834D01*
X012048Y014832D02*
X011398Y014832D01*
X011398Y014829D02*
X012051Y014829D01*
X012053Y014827D02*
X011398Y014827D01*
X011398Y014824D02*
X012056Y014824D01*
X012058Y014822D02*
X011398Y014822D01*
X011398Y014819D02*
X012061Y014819D01*
X012063Y014817D02*
X011398Y014817D01*
X011398Y014814D02*
X012066Y014814D01*
M02*
