G75*
G70*
%OFA0B0*%
%FSLAX24Y24*%
%IPPOS*%
%LPD*%
%AMOC8*
5,1,8,0,0,1.08239X$1,22.5*
%
%ADD10C,0.0680*%
%ADD11R,0.0249X0.0966*%
%ADD12C,0.0434*%
%ADD13R,0.1064X0.0867*%
%ADD14R,0.0986X0.0277*%
%ADD15R,0.0474X0.0513*%
%ADD16R,0.0513X0.0474*%
%ADD17R,0.0671X0.0592*%
%ADD18R,0.0946X0.0316*%
%ADD19R,0.0277X0.0474*%
%ADD20R,0.0749X0.1064*%
%ADD21R,0.0631X0.0631*%
%ADD22R,0.0474X0.0671*%
%ADD23R,0.1379X0.0671*%
%ADD24R,0.0710X0.0789*%
%ADD25R,0.3308X0.1379*%
%ADD26R,0.0789X0.0710*%
%ADD27R,0.0950X0.0552*%
%ADD28R,0.0970X0.0930*%
%ADD29R,0.0671X0.0297*%
%ADD30R,0.0407X0.0328*%
%ADD31C,0.0680*%
D10*
X009756Y004056D03*
X010756Y004056D03*
X011756Y004056D03*
X012756Y004056D03*
X013756Y004056D03*
X014756Y004056D03*
X015756Y004056D03*
X016756Y004056D03*
X017756Y004056D03*
X018756Y004056D03*
X019756Y004056D03*
X020756Y004056D03*
X021756Y004056D03*
X022756Y004056D03*
X023756Y004056D03*
X024756Y004056D03*
X025756Y004056D03*
X026756Y004056D03*
X027756Y004056D03*
X028756Y004056D03*
X029756Y004056D03*
X030756Y004056D03*
X031756Y004056D03*
X031756Y005056D03*
X030756Y005056D03*
X029756Y005056D03*
X028756Y005056D03*
X027756Y005056D03*
X026756Y005056D03*
X025756Y005056D03*
X024756Y005056D03*
X023756Y005056D03*
X022756Y005056D03*
X021756Y005056D03*
X020756Y005056D03*
X019756Y005056D03*
X018756Y005056D03*
X017756Y005056D03*
X016756Y005056D03*
X015756Y005056D03*
X014756Y005056D03*
X013756Y005056D03*
X012756Y005056D03*
X011756Y005056D03*
X010756Y005056D03*
X009756Y005056D03*
X009756Y023056D03*
X010756Y023056D03*
X011756Y023056D03*
X012756Y023056D03*
X013756Y023056D03*
X014756Y023056D03*
X015756Y023056D03*
X016756Y023056D03*
X017756Y023056D03*
X018756Y023056D03*
X019756Y023056D03*
X020756Y023056D03*
X021756Y023056D03*
X022756Y023056D03*
X023756Y023056D03*
X024756Y023056D03*
X025756Y023056D03*
X026756Y023056D03*
X027756Y023056D03*
X028756Y023056D03*
X029756Y023056D03*
X030756Y023056D03*
X031756Y023056D03*
X031756Y024056D03*
X030756Y024056D03*
X029756Y024056D03*
X028756Y024056D03*
X027756Y024056D03*
X026756Y024056D03*
X025756Y024056D03*
X024756Y024056D03*
X023756Y024056D03*
X022756Y024056D03*
X021756Y024056D03*
X020756Y024056D03*
X019756Y024056D03*
X018756Y024056D03*
X017756Y024056D03*
X016756Y024056D03*
X015756Y024056D03*
X014756Y024056D03*
X013756Y024056D03*
X012756Y024056D03*
X011756Y024056D03*
X010756Y024056D03*
X009756Y024056D03*
D11*
X025604Y019403D03*
X025860Y019403D03*
X026116Y019403D03*
X026371Y019403D03*
X026627Y019403D03*
X026883Y019403D03*
X027139Y019403D03*
X027395Y019403D03*
X027651Y019403D03*
X027907Y019403D03*
X028163Y019403D03*
X028419Y019403D03*
X028675Y019403D03*
X028930Y019403D03*
X028930Y016844D03*
X028675Y016844D03*
X028419Y016844D03*
X028163Y016844D03*
X027907Y016844D03*
X027651Y016844D03*
X027395Y016844D03*
X027139Y016844D03*
X026883Y016844D03*
X026627Y016844D03*
X026371Y016844D03*
X026116Y016844D03*
X025860Y016844D03*
X025604Y016844D03*
D12*
X033886Y017759D03*
X033886Y019491D03*
D13*
X032901Y020377D03*
X035067Y020377D03*
X035067Y016873D03*
X032901Y016873D03*
D14*
X032862Y017995D03*
X032862Y018310D03*
X032862Y018625D03*
X032862Y018940D03*
X032862Y019255D03*
D15*
X028817Y021272D03*
X028817Y021941D03*
X026594Y021962D03*
X026594Y021292D03*
X013512Y020460D03*
X012843Y020460D03*
X012847Y019563D03*
X013516Y019563D03*
X013477Y021366D03*
X012807Y021366D03*
X012803Y022279D03*
X013473Y022279D03*
X011894Y022271D03*
X011225Y022271D03*
X008268Y020665D03*
X007599Y020665D03*
X007603Y019720D03*
X008272Y019720D03*
X019468Y009481D03*
X019468Y008812D03*
X010907Y009060D03*
X010907Y008391D03*
D16*
X008348Y008257D03*
X008348Y008926D03*
X007549Y008930D03*
X007549Y008261D03*
X018555Y008414D03*
X018555Y009084D03*
X011890Y019602D03*
X011221Y019602D03*
X025921Y020622D03*
X026590Y020622D03*
D17*
X027814Y021285D03*
X027814Y022033D03*
X010167Y007418D03*
X009226Y007414D03*
X009226Y006666D03*
X010167Y006670D03*
D18*
X009654Y020175D03*
X009654Y020675D03*
X009654Y021175D03*
X009654Y021675D03*
X011701Y021675D03*
X011701Y021175D03*
X011701Y020675D03*
X011701Y020175D03*
D19*
X010136Y009092D03*
X009762Y009092D03*
X009388Y009092D03*
X009388Y008265D03*
X009762Y008265D03*
X010136Y008265D03*
D20*
X012084Y007737D03*
X012084Y009312D03*
D21*
X012190Y010490D03*
X010694Y010490D03*
D22*
X019779Y014127D03*
X020369Y014127D03*
X020960Y014127D03*
X021551Y014127D03*
D23*
X020665Y011647D03*
D24*
X022259Y014348D03*
X023362Y014348D03*
X009480Y010392D03*
X008378Y010392D03*
D25*
X014651Y009048D03*
X014651Y007198D03*
D26*
X020798Y014959D03*
X020798Y016062D03*
D27*
X023594Y010407D03*
X023594Y009422D03*
X026507Y009422D03*
X026507Y010407D03*
D28*
X026121Y011749D03*
X024201Y011749D03*
X024142Y008048D03*
X026062Y008048D03*
D29*
X022318Y008377D03*
X022318Y008877D03*
X022318Y009377D03*
X022318Y009877D03*
X020192Y009877D03*
X020192Y009377D03*
X020192Y008877D03*
X020192Y008377D03*
D30*
X017721Y008314D03*
X017721Y009192D03*
D31*
X018756Y006606D02*
X018756Y006006D01*
X019756Y006006D02*
X019756Y006606D01*
X020756Y006606D02*
X020756Y006006D01*
X021756Y006006D02*
X021756Y006606D01*
X022756Y006606D02*
X022756Y006006D01*
X023756Y006006D02*
X023756Y006606D01*
M02*
