%
M48
M72
T01C0.0150
T02C0.0236
T03C0.0354
T04C0.0400
%
T01
X9120Y8635
X25037Y18857
X26364Y18576
X27242Y18644
X27380Y17577
X25037Y20432
X25293Y22518
X30155Y21022
T02
X29714Y22005
X27294Y20563
X27094Y21663
X24128Y21782
X23206Y20448
X20010Y17999
X19584Y16916
X20806Y16906
X23606Y15106
X25506Y14806
X27376Y15034
X27726Y13910
X25033Y13400
X27258Y11306
X30206Y11706
X31906Y10906
X33306Y13106
X34002Y14451
X30203Y16369
X29344Y16357
X30199Y17861
X34293Y18530
X24096Y17916
X17614Y19633
X14206Y18906
X12306Y19106
X14106Y20406
X13978Y21318
X12264Y22722
X9112Y22277
X20956Y13406
X20495Y13036
X20833Y12339
X21906Y11406
X21297Y10247
X20806Y9006
X19456Y8256
X19006Y8711
X19632Y7459
X20506Y7432
X21297Y7133
X18025Y7479
X16073Y5684
X11549Y6581
X8301Y9440
X11171Y11412
X12140Y11333
X18256Y11056
X26106Y6706
X30756Y6747
X32506Y5506
X30506Y8706
X34906Y10806
T03
X33886Y17759
X33886Y19491
T04
X9756Y4056
X10756Y4056
X11756Y4056
X12756Y4056
X13756Y4056
X14756Y4056
X15756Y4056
X16756Y4056
X17756Y4056
X18756Y4056
X19756Y4056
X20756Y4056
X21756Y4056
X22756Y4056
X23756Y4056
X24756Y4056
X25756Y4056
X26756Y4056
X27756Y4056
X28756Y4056
X29756Y4056
X30756Y4056
X31756Y4056
X31756Y5056
X30756Y5056
X29756Y5056
X28756Y5056
X27756Y5056
X26756Y5056
X25756Y5056
X24756Y5056
X23756Y5056
X22756Y5056
X21756Y5056
X20756Y5056
X19756Y5056
X18756Y5056
X17756Y5056
X16756Y5056
X15756Y5056
X14756Y5056
X13756Y5056
X12756Y5056
X11756Y5056
X10756Y5056
X9756Y5056
X18756Y6306
X19756Y6306
X20756Y6306
X21756Y6306
X22756Y6306
X23756Y6306
X23756Y23056
X22756Y23056
X21756Y23056
X20756Y23056
X19756Y23056
X18756Y23056
X17756Y23056
X16756Y23056
X15756Y23056
X14756Y23056
X13756Y23056
X12756Y23056
X11756Y23056
X10756Y23056
X9756Y23056
X9756Y24056
X10756Y24056
X11756Y24056
X12756Y24056
X13756Y24056
X14756Y24056
X15756Y24056
X16756Y24056
X17756Y24056
X18756Y24056
X19756Y24056
X20756Y24056
X21756Y24056
X22756Y24056
X23756Y24056
X24756Y24056
X25756Y24056
X26756Y24056
X27756Y24056
X28756Y24056
X29756Y24056
X30756Y24056
X31756Y24056
X31756Y23056
X30756Y23056
X29756Y23056
X28756Y23056
X27756Y23056
X26756Y23056
X25756Y23056
X24756Y23056
M30
