%
M48
M72
T01C0.0157
T02C0.0160
T03C0.0354
T04C0.0400
T05C0.0950
%
T01
X26132Y8306
X28100Y8345
X27746Y16967
X25384Y18384
X24124Y18030
X20581Y18581
X19990Y19959
X18022Y20943
X15660Y21534
X13494Y20156
X13494Y19172
X15660Y17872
X31733Y18333
X31753Y18777
T02
X29753Y18272
X30683Y16672
X31598Y16543
X25983Y12472
X27483Y11972
X21083Y11872
X18883Y11772
X20083Y15172
X17783Y18172
X19283Y20172
X19983Y7872
X19983Y7472
X17983Y6672
X17383Y6472
X19483Y5572
T03
X33699Y17609
X33699Y19341
T04
X9433Y3622
X10433Y3622
X11433Y3622
X12433Y3622
X13433Y3622
X14433Y3622
X15433Y3622
X16433Y3622
X17433Y3622
X18433Y3622
X19433Y3622
X20433Y3622
X21433Y3622
X22433Y3622
X23433Y3622
X24433Y3622
X25433Y3622
X26433Y3622
X27433Y3622
X28433Y3622
X29433Y3622
X30433Y3622
X31433Y3622
X31433Y4622
X30433Y4622
X29433Y4622
X28433Y4622
X27433Y4622
X26433Y4622
X25433Y4622
X24433Y4622
X23433Y4622
X22433Y4622
X21433Y4622
X20433Y4622
X19433Y4622
X18433Y4622
X17433Y4622
X16433Y4622
X15433Y4622
X14433Y4622
X13433Y4622
X12433Y4622
X11433Y4622
X10433Y4622
X9433Y4622
X20433Y5872
X21433Y5872
X22433Y5872
X23433Y5872
X24433Y5872
X25433Y5872
X25433Y22622
X24433Y22622
X23433Y22622
X22433Y22622
X21433Y22622
X20433Y22622
X19433Y22622
X18433Y22622
X17433Y22622
X16433Y22622
X15433Y22622
X14433Y22622
X13433Y22622
X12433Y22622
X11433Y22622
X10433Y22622
X9433Y22622
X9433Y23622
X10433Y23622
X11433Y23622
X12433Y23622
X13433Y23622
X14433Y23622
X15433Y23622
X16433Y23622
X17433Y23622
X18433Y23622
X19433Y23622
X20433Y23622
X21433Y23622
X22433Y23622
X23433Y23622
X24433Y23622
X25433Y23622
X26433Y23622
X27433Y23622
X28433Y23622
X29433Y23622
X30433Y23622
X31433Y23622
X31433Y22622
X30433Y22622
X29433Y22622
X28433Y22622
X27433Y22622
X26433Y22622
T05
X33770Y15567
X33770Y11517
M30
