%
M48
M72
T01C0.0236
T02C0.0354
T03C0.0400
%
T01
X11549Y6581
X9151Y8674
X8301Y9440
X11171Y11412
X12140Y11333
X18256Y11056
X20656Y12406
X20606Y12906
X20956Y13406
X23606Y15106
X25506Y14806
X25033Y13400
X27726Y13910
X30206Y11706
X31906Y10906
X33306Y13106
X34002Y14451
X31978Y17003
X30199Y17861
X29990Y16424
X29269Y16451
X27384Y17542
X26551Y17623
X26364Y18709
X27226Y18692
X29317Y19885
X27294Y20563
X27094Y21663
X29714Y22005
X31852Y20896
X32021Y21302
X32167Y22038
X34238Y20798
X34006Y18385
X24675Y17160
X24096Y17916
X23254Y19286
X20010Y17999
X20806Y16906
X19191Y16522
X17614Y19633
X14206Y18906
X12306Y19106
X14106Y20406
X13978Y21318
X12256Y22706
X9112Y22277
X24096Y22117
X21906Y11406
X22306Y10606
X20806Y9006
X19456Y8256
X19332Y7475
X18025Y7479
X16073Y5684
X22306Y7606
X26106Y6706
X30756Y6747
X32506Y5506
X30506Y8706
X27258Y11306
X34906Y10806
T02
X33886Y17759
X33886Y19491
T03
X9756Y4056
X10756Y4056
X11756Y4056
X12756Y4056
X13756Y4056
X14756Y4056
X15756Y4056
X16756Y4056
X17756Y4056
X18756Y4056
X19756Y4056
X20756Y4056
X21756Y4056
X22756Y4056
X23756Y4056
X24756Y4056
X25756Y4056
X26756Y4056
X27756Y4056
X28756Y4056
X29756Y4056
X30756Y4056
X31756Y4056
X31756Y5056
X30756Y5056
X29756Y5056
X28756Y5056
X27756Y5056
X26756Y5056
X25756Y5056
X24756Y5056
X23756Y5056
X22756Y5056
X21756Y5056
X20756Y5056
X19756Y5056
X18756Y5056
X17756Y5056
X16756Y5056
X15756Y5056
X14756Y5056
X13756Y5056
X12756Y5056
X11756Y5056
X10756Y5056
X9756Y5056
X18756Y6306
X19756Y6306
X20756Y6306
X21756Y6306
X22756Y6306
X23756Y6306
X23756Y23056
X22756Y23056
X21756Y23056
X20756Y23056
X19756Y23056
X18756Y23056
X17756Y23056
X16756Y23056
X15756Y23056
X14756Y23056
X13756Y23056
X12756Y23056
X11756Y23056
X10756Y23056
X9756Y23056
X9756Y24056
X10756Y24056
X11756Y24056
X12756Y24056
X13756Y24056
X14756Y24056
X15756Y24056
X16756Y24056
X17756Y24056
X18756Y24056
X19756Y24056
X20756Y24056
X21756Y24056
X22756Y24056
X23756Y24056
X24756Y24056
X25756Y24056
X26756Y24056
X27756Y24056
X28756Y24056
X29756Y24056
X30756Y24056
X31756Y24056
X31756Y23056
X30756Y23056
X29756Y23056
X28756Y23056
X27756Y23056
X26756Y23056
X25756Y23056
X24756Y23056
M30
