G75*
G70*
%OFA0B0*%
%FSLAX24Y24*%
%IPPOS*%
%LPD*%
%AMOC8*
5,1,8,0,0,1.08239X$1,22.5*
%
%ADD10C,0.0110*%
%ADD11C,0.0050*%
%ADD12C,0.0039*%
%ADD13C,0.0020*%
D10*
X028912Y007169D02*
X029011Y007070D01*
X029207Y007070D01*
X029306Y007169D01*
X029557Y007070D02*
X029557Y007464D01*
X029754Y007661D01*
X029950Y007464D01*
X029950Y007070D01*
X030201Y007070D02*
X030201Y007661D01*
X030595Y007070D01*
X030595Y007661D01*
X029950Y007366D02*
X029557Y007366D01*
X029306Y007562D02*
X029207Y007661D01*
X029011Y007661D01*
X028912Y007562D01*
X028912Y007169D01*
X031490Y007661D02*
X031884Y007661D01*
X031687Y007661D02*
X031687Y007070D01*
X032135Y007070D02*
X032528Y007070D01*
X032779Y007070D02*
X032779Y007661D01*
X033075Y007661D01*
X033173Y007562D01*
X033173Y007366D01*
X033075Y007267D01*
X032779Y007267D01*
X032976Y007267D02*
X033173Y007070D01*
X033424Y007070D02*
X033424Y007661D01*
X033621Y007464D01*
X033818Y007661D01*
X033818Y007070D01*
X032528Y007661D02*
X032135Y007661D01*
X032135Y007070D01*
X032135Y007366D02*
X032332Y007366D01*
X031419Y009306D02*
X031419Y009896D01*
X031026Y009896D02*
X031419Y009306D01*
X031026Y009306D02*
X031026Y009896D01*
X030775Y009798D02*
X030676Y009896D01*
X030480Y009896D01*
X030381Y009798D01*
X030381Y009404D01*
X030480Y009306D01*
X030676Y009306D01*
X030775Y009404D01*
X030775Y009798D01*
X032769Y010782D02*
X032868Y010684D01*
X033065Y010684D01*
X033163Y010782D01*
X033414Y010684D02*
X033414Y011077D01*
X033611Y011274D01*
X033808Y011077D01*
X033808Y010684D01*
X034058Y010684D02*
X034058Y011274D01*
X034452Y010684D01*
X034452Y011274D01*
X033808Y010979D02*
X033414Y010979D01*
X033163Y011176D02*
X033065Y011274D01*
X032868Y011274D01*
X032769Y011176D01*
X032769Y010782D01*
X034833Y016877D02*
X034931Y016877D01*
X035029Y016975D01*
X035029Y017172D01*
X035128Y017270D01*
X035226Y017270D01*
X035325Y017172D01*
X035325Y016975D01*
X035226Y016877D01*
X034833Y016877D02*
X034734Y016975D01*
X034734Y017172D01*
X034833Y017270D01*
X034734Y017521D02*
X035325Y017521D01*
X035325Y017915D01*
X035325Y018166D02*
X034734Y018166D01*
X034734Y018461D01*
X034833Y018559D01*
X035029Y018559D01*
X035128Y018461D01*
X035128Y018166D01*
X035128Y018362D02*
X035325Y018559D01*
X035325Y018810D02*
X035325Y019007D01*
X035325Y018909D02*
X034734Y018909D01*
X034734Y019007D02*
X034734Y018810D01*
X034931Y019240D02*
X034734Y019437D01*
X034931Y019634D01*
X035325Y019634D01*
X035325Y019884D02*
X035325Y020278D01*
X035325Y019884D02*
X034734Y019884D01*
X035029Y019634D02*
X035029Y019240D01*
X034931Y019240D02*
X035325Y019240D01*
X034734Y017915D02*
X034734Y017521D01*
X035029Y017521D02*
X035029Y017718D01*
D11*
X016723Y011626D02*
X016542Y011626D01*
X016542Y011896D01*
X016519Y012028D02*
X016699Y012298D01*
X016814Y012163D02*
X016994Y012163D01*
X017108Y012163D02*
X017198Y012208D01*
X017243Y012208D01*
X017288Y012163D01*
X017288Y012073D01*
X017243Y012028D01*
X017153Y012028D01*
X017108Y012073D01*
X017108Y012163D02*
X017108Y012298D01*
X017288Y012298D01*
X017403Y012208D02*
X017493Y012298D01*
X017493Y012028D01*
X017403Y012028D02*
X017583Y012028D01*
X017697Y012073D02*
X017697Y012118D01*
X017742Y012163D01*
X017833Y012163D01*
X017878Y012118D01*
X017878Y012073D01*
X017833Y012028D01*
X017742Y012028D01*
X017697Y012073D01*
X017742Y012163D02*
X017697Y012208D01*
X017697Y012253D01*
X017742Y012298D01*
X017833Y012298D01*
X017878Y012253D01*
X017878Y012208D01*
X017833Y012163D01*
X017811Y011896D02*
X017811Y011626D01*
X017721Y011626D02*
X017901Y011626D01*
X017721Y011806D02*
X017811Y011896D01*
X017312Y011851D02*
X017312Y011671D01*
X017267Y011626D01*
X017132Y011626D01*
X017132Y011896D01*
X017267Y011896D01*
X017312Y011851D01*
X017017Y011896D02*
X016837Y011896D01*
X016837Y011626D01*
X017017Y011626D01*
X016927Y011761D02*
X016837Y011761D01*
X016699Y012028D02*
X016519Y012298D01*
X015857Y012125D02*
X015677Y012125D01*
X015767Y012125D02*
X015767Y011854D01*
X015563Y011854D02*
X015563Y012125D01*
X015383Y012125D02*
X015383Y011854D01*
X015268Y011854D02*
X015268Y012035D01*
X015178Y012125D01*
X015088Y012035D01*
X015088Y011854D01*
X015088Y011990D02*
X015268Y011990D01*
X015383Y012125D02*
X015563Y011854D01*
X014973Y012125D02*
X014793Y012125D01*
X014883Y012125D02*
X014883Y011854D01*
X014679Y011899D02*
X014634Y011854D01*
X014544Y011854D01*
X014499Y011899D01*
X014544Y011990D02*
X014634Y011990D01*
X014679Y011944D01*
X014679Y011899D01*
X014544Y011990D02*
X014499Y012035D01*
X014499Y012080D01*
X014544Y012125D01*
X014634Y012125D01*
X014679Y012080D01*
X014384Y012125D02*
X014384Y011854D01*
X014204Y012125D01*
X014204Y011854D01*
X014090Y011899D02*
X014090Y012080D01*
X014044Y012125D01*
X013954Y012125D01*
X013909Y012080D01*
X013909Y011899D01*
X013954Y011854D01*
X014044Y011854D01*
X014090Y011899D01*
X013795Y011899D02*
X013750Y011854D01*
X013660Y011854D01*
X013615Y011899D01*
X013615Y012080D01*
X013660Y012125D01*
X013750Y012125D01*
X013795Y012080D01*
X013807Y012394D02*
X013627Y012394D01*
X013717Y012394D02*
X013717Y012664D01*
X013627Y012574D01*
X013512Y012574D02*
X013332Y012394D01*
X013512Y012394D01*
X013512Y012574D02*
X013512Y012619D01*
X013467Y012664D01*
X013377Y012664D01*
X013332Y012619D01*
X013217Y012664D02*
X013037Y012664D01*
X013037Y012529D01*
X013127Y012574D01*
X013172Y012574D01*
X013217Y012529D01*
X013217Y012439D01*
X013172Y012394D01*
X013082Y012394D01*
X013037Y012439D01*
X012923Y012529D02*
X012743Y012529D01*
X012628Y012664D02*
X012448Y012394D01*
X012628Y012394D02*
X012448Y012664D01*
X012526Y012125D02*
X012436Y012035D01*
X012526Y012125D02*
X012526Y011854D01*
X012436Y011854D02*
X012616Y011854D01*
X012731Y011854D02*
X012911Y012035D01*
X012911Y012080D01*
X012866Y012125D01*
X012776Y012125D01*
X012731Y012080D01*
X012731Y011854D02*
X012911Y011854D01*
X013025Y011944D02*
X013116Y011854D01*
X013206Y011944D01*
X013206Y012125D01*
X013025Y012125D02*
X013025Y011944D01*
X020392Y019169D02*
X020662Y019350D01*
X020527Y019464D02*
X020527Y019644D01*
X020527Y019759D02*
X020482Y019849D01*
X020482Y019894D01*
X020527Y019939D01*
X020617Y019939D01*
X020662Y019894D01*
X020662Y019804D01*
X020617Y019759D01*
X020527Y019759D02*
X020392Y019759D01*
X020392Y019939D01*
X020437Y020053D02*
X020392Y020098D01*
X020392Y020188D01*
X020437Y020233D01*
X020482Y020233D01*
X020662Y020053D01*
X020662Y020233D01*
X020617Y020348D02*
X020437Y020528D01*
X020617Y020528D01*
X020662Y020483D01*
X020662Y020393D01*
X020617Y020348D01*
X020437Y020348D01*
X020392Y020393D01*
X020392Y020483D01*
X020437Y020528D01*
X020896Y020629D02*
X020941Y020584D01*
X021121Y020584D01*
X021166Y020629D01*
X021166Y020719D01*
X021121Y020764D01*
X020941Y020764D01*
X020896Y020719D01*
X020896Y020629D01*
X020941Y020469D02*
X020896Y020424D01*
X020896Y020289D01*
X021166Y020289D01*
X021076Y020289D02*
X021076Y020424D01*
X021031Y020469D01*
X020941Y020469D01*
X020896Y020878D02*
X021166Y020878D01*
X021076Y020968D01*
X021166Y021058D01*
X020896Y021058D01*
X020896Y021173D02*
X021166Y021173D01*
X021166Y021353D01*
X021166Y021468D02*
X020896Y021468D01*
X020896Y021603D01*
X020941Y021648D01*
X021031Y021648D01*
X021076Y021603D01*
X021076Y021468D01*
X021076Y021558D02*
X021166Y021648D01*
X020896Y021353D02*
X020896Y021173D01*
X021031Y021173D02*
X021031Y021263D01*
X021121Y019880D02*
X020941Y019880D01*
X020896Y019835D01*
X020896Y019700D01*
X021166Y019700D01*
X021166Y019835D01*
X021121Y019880D01*
X021121Y019585D02*
X021166Y019540D01*
X021166Y019450D01*
X021121Y019405D01*
X020941Y019405D01*
X020896Y019450D01*
X020896Y019540D01*
X020941Y019585D01*
X021166Y019290D02*
X021166Y019110D01*
X020896Y019110D01*
X020662Y019169D02*
X020392Y019350D01*
X025425Y014264D02*
X025380Y014219D01*
X025380Y014129D01*
X025425Y014084D01*
X025470Y014084D01*
X025515Y014129D01*
X025515Y014264D01*
X025605Y014264D02*
X025425Y014264D01*
X025605Y014264D02*
X025650Y014219D01*
X025650Y014129D01*
X025605Y014084D01*
X025650Y013970D02*
X025650Y013790D01*
X025650Y013880D02*
X025380Y013880D01*
X025470Y013790D01*
X025515Y013675D02*
X025605Y013675D01*
X025650Y013630D01*
X025650Y013540D01*
X025605Y013495D01*
X025515Y013495D02*
X025470Y013585D01*
X025470Y013630D01*
X025515Y013675D01*
X025380Y013675D02*
X025380Y013495D01*
X025515Y013495D01*
X025515Y013380D02*
X025515Y013200D01*
X025650Y013086D02*
X025380Y012906D01*
X025380Y013086D02*
X025650Y012906D01*
X025915Y012890D02*
X026185Y012890D01*
X026185Y013070D01*
X026185Y013185D02*
X026185Y013365D01*
X026185Y013479D02*
X026185Y013614D01*
X026140Y013659D01*
X025960Y013659D01*
X025915Y013614D01*
X025915Y013479D01*
X026185Y013479D01*
X026050Y013275D02*
X026050Y013185D01*
X025915Y013185D02*
X026185Y013185D01*
X025915Y013185D02*
X025915Y013365D01*
X025960Y014068D02*
X025915Y014113D01*
X025915Y014204D01*
X025960Y014249D01*
X026005Y014249D01*
X026185Y014068D01*
X026185Y014249D01*
D12*
X026314Y016253D02*
X025881Y016253D01*
X025881Y017375D01*
X026314Y017375D01*
X026314Y016253D01*
X027029Y016341D02*
X027029Y016774D01*
X028151Y016774D01*
X028151Y016341D01*
X027029Y016341D01*
X029175Y018534D02*
X030297Y018534D01*
X030297Y018967D01*
X029175Y018967D01*
X029175Y018534D01*
X029843Y019747D02*
X030965Y019747D01*
X030965Y020180D01*
X029843Y020180D01*
X029843Y019747D01*
X029958Y020873D02*
X029958Y021995D01*
X030391Y021995D01*
X030391Y020873D01*
X029958Y020873D01*
X028910Y020992D02*
X028910Y022114D01*
X028477Y022114D01*
X028477Y020992D01*
X028910Y020992D01*
X032222Y020987D02*
X032222Y019865D01*
X032655Y019865D01*
X032655Y020987D01*
X032222Y020987D01*
X031310Y018534D02*
X030877Y018534D01*
X030877Y017412D01*
X031310Y017412D01*
X031310Y018534D01*
D13*
X024317Y017168D02*
X024317Y016538D01*
X024317Y017168D02*
X023687Y017168D01*
X021640Y017168D02*
X021403Y017168D01*
X021403Y016538D01*
X019264Y016835D02*
X019264Y017465D01*
X018634Y017465D01*
X016586Y017465D02*
X016350Y017465D01*
X016350Y016835D01*
X015210Y017125D02*
X015210Y016495D01*
X015210Y017125D02*
X014974Y017125D01*
X012927Y017125D02*
X012297Y017125D01*
X012297Y016495D01*
X016046Y019022D02*
X016676Y019022D01*
X016046Y019022D02*
X016046Y019651D01*
X016046Y021699D02*
X016046Y021935D01*
X016676Y021935D01*
X019353Y021935D02*
X019983Y021935D01*
X019983Y021699D01*
X019983Y019651D02*
X019983Y019022D01*
X019353Y019022D01*
X015210Y013818D02*
X015210Y013188D01*
X014974Y013188D01*
X016350Y013370D02*
X016350Y012740D01*
X016586Y012740D01*
X018634Y012740D02*
X019264Y012740D01*
X019264Y013370D01*
X021403Y013074D02*
X021403Y012444D01*
X021640Y012444D01*
X023687Y012444D02*
X024317Y012444D01*
X024317Y013074D01*
X012927Y013188D02*
X012297Y013188D01*
X012297Y013818D01*
M02*
