G75*
G70*
%OFA0B0*%
%FSLAX24Y24*%
%IPPOS*%
%LPD*%
%AMOC8*
5,1,8,0,0,1.08239X$1,22.5*
%
%ADD10C,0.0110*%
%ADD11C,0.0050*%
%ADD12C,0.0039*%
%ADD13C,0.0150*%
%ADD14C,0.0236*%
%ADD15C,0.0157*%
%ADD16C,0.0079*%
%ADD17C,0.0004*%
D10*
X010644Y011392D02*
X011234Y011392D01*
X011038Y011392D02*
X010644Y011786D01*
X010841Y012037D02*
X010841Y012135D01*
X011234Y012135D01*
X011234Y012037D02*
X011234Y012233D01*
X011234Y012466D02*
X010841Y012466D01*
X010841Y012565D01*
X010939Y012663D01*
X010841Y012761D01*
X010939Y012860D01*
X011234Y012860D01*
X011234Y012663D02*
X010939Y012663D01*
X010644Y012135D02*
X010546Y012135D01*
X010939Y011490D02*
X011234Y011786D01*
X011628Y011727D02*
X011628Y011530D01*
X011727Y011431D01*
X012120Y011431D01*
X012219Y011530D01*
X012219Y011727D01*
X012120Y011825D01*
X012219Y012076D02*
X011825Y012076D01*
X011628Y012273D01*
X011825Y012470D01*
X012219Y012470D01*
X012219Y012720D02*
X011628Y012720D01*
X012219Y013114D01*
X011628Y013114D01*
X011923Y012470D02*
X011923Y012076D01*
X011727Y011825D02*
X011628Y011727D01*
X011136Y013755D02*
X010742Y013755D01*
X010644Y013854D01*
X010644Y014051D01*
X010742Y014149D01*
X010939Y014400D02*
X011136Y014400D01*
X011234Y014498D01*
X011234Y014695D01*
X011136Y014793D01*
X010939Y014793D01*
X010841Y014695D01*
X010841Y014498D01*
X010939Y014400D01*
X011136Y014149D02*
X011234Y014051D01*
X011234Y013854D01*
X011136Y013755D01*
X011628Y014108D02*
X011727Y014009D01*
X012120Y014009D01*
X012219Y014108D01*
X012219Y014305D01*
X012120Y014403D01*
X012120Y014654D02*
X012022Y014752D01*
X012022Y015048D01*
X011923Y015048D02*
X012219Y015048D01*
X012219Y014752D01*
X012120Y014654D01*
X011825Y014752D02*
X011825Y014949D01*
X011923Y015048D01*
X011825Y015299D02*
X011825Y015594D01*
X011923Y015692D01*
X012120Y015692D01*
X012219Y015594D01*
X012219Y015299D01*
X012416Y015299D02*
X011825Y015299D01*
X011234Y015438D02*
X010939Y015438D01*
X010841Y015340D01*
X010841Y015044D01*
X011234Y015044D01*
X011136Y015689D02*
X010939Y015689D01*
X010841Y015787D01*
X010841Y016083D01*
X010841Y016333D02*
X010841Y016432D01*
X011234Y016432D01*
X011234Y016530D02*
X011234Y016333D01*
X011234Y016083D02*
X011234Y015787D01*
X011136Y015689D01*
X011825Y016041D02*
X011825Y016238D01*
X011923Y016337D01*
X012022Y016337D01*
X012022Y015943D01*
X012120Y015943D02*
X011923Y015943D01*
X011825Y016041D01*
X012120Y015943D02*
X012219Y016041D01*
X012219Y016238D01*
X011234Y016763D02*
X011234Y016960D01*
X011234Y016861D02*
X010644Y016861D01*
X010644Y016763D01*
X010644Y016432D02*
X010546Y016432D01*
X010644Y017193D02*
X010644Y017291D01*
X011234Y017291D01*
X011234Y017193D02*
X011234Y017390D01*
X011136Y017622D02*
X011038Y017721D01*
X011038Y018016D01*
X010939Y018016D02*
X011234Y018016D01*
X011234Y017721D01*
X011136Y017622D01*
X010841Y017721D02*
X010841Y017918D01*
X010939Y018016D01*
X010939Y018267D02*
X010841Y018365D01*
X010841Y018661D01*
X010644Y018661D02*
X011234Y018661D01*
X011234Y018365D01*
X011136Y018267D01*
X010939Y018267D01*
X011628Y018172D02*
X011628Y017975D01*
X011727Y017877D01*
X011825Y017626D02*
X012219Y017429D01*
X011825Y017232D01*
X012219Y017877D02*
X011825Y018270D01*
X011727Y018270D01*
X011628Y018172D01*
X012219Y018270D02*
X012219Y017877D01*
X012219Y018521D02*
X012219Y018620D01*
X012120Y018620D01*
X012120Y018521D01*
X012219Y018521D01*
X012219Y018843D02*
X011825Y019237D01*
X011727Y019237D01*
X011628Y019139D01*
X011628Y018942D01*
X011727Y018843D01*
X012219Y018843D02*
X012219Y019237D01*
X011234Y019207D02*
X011234Y019010D01*
X011136Y018911D01*
X010939Y018911D01*
X010841Y019010D01*
X010841Y019207D01*
X010939Y019305D01*
X011136Y019305D01*
X011234Y019207D01*
X011727Y014403D02*
X011628Y014305D01*
X011628Y014108D01*
X027959Y009364D02*
X027959Y008971D01*
X028057Y008872D01*
X028254Y008872D01*
X028352Y008971D01*
X028352Y009364D01*
X028254Y009463D01*
X028057Y009463D01*
X027959Y009364D01*
X028603Y009463D02*
X028603Y008872D01*
X028997Y008872D02*
X028997Y009463D01*
X028603Y009463D02*
X028997Y008872D01*
X028885Y007227D02*
X028688Y007227D01*
X028590Y007129D01*
X028590Y006735D01*
X028688Y006637D01*
X028885Y006637D01*
X028983Y006735D01*
X029234Y006637D02*
X029234Y007031D01*
X029431Y007227D01*
X029628Y007031D01*
X029628Y006637D01*
X029879Y006637D02*
X029879Y007227D01*
X030272Y006637D01*
X030272Y007227D01*
X029628Y006932D02*
X029234Y006932D01*
X028983Y007129D02*
X028885Y007227D01*
X031168Y007227D02*
X031561Y007227D01*
X031365Y007227D02*
X031365Y006637D01*
X031812Y006637D02*
X031812Y007227D01*
X032206Y007227D01*
X032457Y007227D02*
X032752Y007227D01*
X032850Y007129D01*
X032850Y006932D01*
X032752Y006834D01*
X032457Y006834D01*
X032654Y006834D02*
X032850Y006637D01*
X033101Y006637D02*
X033101Y007227D01*
X033298Y007031D01*
X033495Y007227D01*
X033495Y006637D01*
X032457Y006637D02*
X032457Y007227D01*
X032009Y006932D02*
X031812Y006932D01*
X031812Y006637D02*
X032206Y006637D01*
X032545Y010250D02*
X032742Y010250D01*
X032840Y010349D01*
X033091Y010250D02*
X033091Y010644D01*
X033288Y010841D01*
X033485Y010644D01*
X033485Y010250D01*
X033736Y010250D02*
X033736Y010841D01*
X034130Y010250D01*
X034130Y010841D01*
X033485Y010546D02*
X033091Y010546D01*
X032840Y010742D02*
X032742Y010841D01*
X032545Y010841D01*
X032447Y010742D01*
X032447Y010349D01*
X032545Y010250D01*
X034522Y016786D02*
X034620Y016786D01*
X034719Y016884D01*
X034719Y017081D01*
X034817Y017179D01*
X034916Y017179D01*
X035014Y017081D01*
X035014Y016884D01*
X034916Y016786D01*
X034522Y016786D02*
X034424Y016884D01*
X034424Y017081D01*
X034522Y017179D01*
X034424Y017430D02*
X035014Y017430D01*
X035014Y017824D01*
X035014Y018075D02*
X034424Y018075D01*
X034424Y018370D01*
X034522Y018468D01*
X034719Y018468D01*
X034817Y018370D01*
X034817Y018075D01*
X034817Y018272D02*
X035014Y018468D01*
X035014Y018719D02*
X035014Y018916D01*
X035014Y018818D02*
X034424Y018818D01*
X034424Y018916D02*
X034424Y018719D01*
X034620Y019149D02*
X034424Y019346D01*
X034620Y019543D01*
X035014Y019543D01*
X035014Y019794D02*
X034424Y019794D01*
X034719Y019543D02*
X034719Y019149D01*
X034620Y019149D02*
X035014Y019149D01*
X035014Y019794D02*
X035014Y020187D01*
X034424Y017824D02*
X034424Y017430D01*
X034719Y017430D02*
X034719Y017627D01*
D11*
X028115Y017613D02*
X028117Y017638D01*
X028123Y017662D01*
X028132Y017685D01*
X028145Y017706D01*
X028162Y017725D01*
X028181Y017742D01*
X028202Y017755D01*
X028225Y017764D01*
X028249Y017770D01*
X028274Y017772D01*
X028299Y017770D01*
X028323Y017764D01*
X028346Y017755D01*
X028367Y017742D01*
X028386Y017725D01*
X028403Y017706D01*
X028416Y017685D01*
X028425Y017662D01*
X028431Y017638D01*
X028433Y017613D01*
X028431Y017588D01*
X028425Y017564D01*
X028416Y017541D01*
X028403Y017520D01*
X028386Y017501D01*
X028367Y017484D01*
X028346Y017471D01*
X028323Y017462D01*
X028299Y017456D01*
X028274Y017454D01*
X028249Y017456D01*
X028225Y017462D01*
X028202Y017471D01*
X028181Y017484D01*
X028162Y017501D01*
X028145Y017520D01*
X028132Y017541D01*
X028123Y017564D01*
X028117Y017588D01*
X028115Y017613D01*
X024628Y014664D02*
X024628Y012664D01*
X022628Y012664D01*
X022628Y014664D01*
X024628Y014664D01*
X013481Y008617D02*
X013483Y008631D01*
X013489Y008645D01*
X013497Y008657D01*
X013509Y008665D01*
X013523Y008671D01*
X013537Y008673D01*
X013551Y008671D01*
X013565Y008665D01*
X013577Y008657D01*
X013585Y008645D01*
X013591Y008631D01*
X013593Y008617D01*
X013591Y008603D01*
X013585Y008589D01*
X013577Y008577D01*
X013565Y008569D01*
X013551Y008563D01*
X013537Y008561D01*
X013523Y008563D01*
X013509Y008569D01*
X013497Y008577D01*
X013489Y008589D01*
X013483Y008603D01*
X013481Y008617D01*
D12*
X015809Y014195D02*
X016065Y014353D01*
X015809Y014510D01*
X015809Y014195D01*
X015809Y014209D02*
X015831Y014209D01*
X015809Y014246D02*
X015892Y014246D01*
X015954Y014284D02*
X015809Y014284D01*
X015809Y014322D02*
X016016Y014322D01*
X016053Y014360D02*
X015809Y014360D01*
X015809Y014398D02*
X015991Y014398D01*
X015930Y014436D02*
X015809Y014436D01*
X015809Y014474D02*
X015868Y014474D01*
X016487Y020439D02*
X016489Y020458D01*
X016494Y020477D01*
X016504Y020493D01*
X016516Y020508D01*
X016531Y020520D01*
X016547Y020530D01*
X016566Y020535D01*
X016585Y020537D01*
X016604Y020535D01*
X016623Y020530D01*
X016639Y020520D01*
X016654Y020508D01*
X016666Y020493D01*
X016676Y020477D01*
X016681Y020458D01*
X016683Y020439D01*
X016681Y020420D01*
X016676Y020401D01*
X016666Y020385D01*
X016654Y020370D01*
X016639Y020358D01*
X016623Y020348D01*
X016604Y020343D01*
X016585Y020341D01*
X016566Y020343D01*
X016547Y020348D01*
X016531Y020358D01*
X016516Y020370D01*
X016504Y020385D01*
X016494Y020401D01*
X016489Y020420D01*
X016487Y020439D01*
D13*
X012140Y008912D02*
X011057Y008912D01*
D14*
X024010Y013164D02*
X024012Y013185D01*
X024018Y013205D01*
X024027Y013225D01*
X024039Y013242D01*
X024054Y013256D01*
X024072Y013268D01*
X024092Y013276D01*
X024112Y013281D01*
X024133Y013282D01*
X024154Y013279D01*
X024174Y013273D01*
X024193Y013262D01*
X024210Y013249D01*
X024223Y013233D01*
X024234Y013215D01*
X024242Y013195D01*
X024246Y013175D01*
X024246Y013153D01*
X024242Y013133D01*
X024234Y013113D01*
X024223Y013095D01*
X024210Y013079D01*
X024193Y013066D01*
X024174Y013055D01*
X024154Y013049D01*
X024133Y013046D01*
X024112Y013047D01*
X024092Y013052D01*
X024072Y013060D01*
X024054Y013072D01*
X024039Y013086D01*
X024027Y013103D01*
X024018Y013123D01*
X024012Y013143D01*
X024010Y013164D01*
X024010Y014164D02*
X024012Y014185D01*
X024018Y014205D01*
X024027Y014225D01*
X024039Y014242D01*
X024054Y014256D01*
X024072Y014268D01*
X024092Y014276D01*
X024112Y014281D01*
X024133Y014282D01*
X024154Y014279D01*
X024174Y014273D01*
X024193Y014262D01*
X024210Y014249D01*
X024223Y014233D01*
X024234Y014215D01*
X024242Y014195D01*
X024246Y014175D01*
X024246Y014153D01*
X024242Y014133D01*
X024234Y014113D01*
X024223Y014095D01*
X024210Y014079D01*
X024193Y014066D01*
X024174Y014055D01*
X024154Y014049D01*
X024133Y014046D01*
X024112Y014047D01*
X024092Y014052D01*
X024072Y014060D01*
X024054Y014072D01*
X024039Y014086D01*
X024027Y014103D01*
X024018Y014123D01*
X024012Y014143D01*
X024010Y014164D01*
D15*
X020108Y012717D02*
X020110Y012735D01*
X020116Y012751D01*
X020125Y012766D01*
X020138Y012779D01*
X020153Y012788D01*
X020169Y012794D01*
X020187Y012796D01*
X020205Y012794D01*
X020221Y012788D01*
X020236Y012779D01*
X020249Y012766D01*
X020258Y012751D01*
X020264Y012735D01*
X020266Y012717D01*
X020264Y012699D01*
X020258Y012683D01*
X020249Y012668D01*
X020236Y012655D01*
X020221Y012646D01*
X020205Y012640D01*
X020187Y012638D01*
X020169Y012640D01*
X020153Y012646D01*
X020138Y012655D01*
X020125Y012668D01*
X020116Y012683D01*
X020110Y012699D01*
X020108Y012717D01*
D16*
X016085Y014176D02*
X016085Y014530D01*
D17*
X009774Y019802D02*
X009360Y019388D01*
X007687Y019388D01*
X007274Y019802D01*
X007274Y020825D01*
X008238Y020825D01*
X008237Y020822D02*
X007274Y020822D01*
X007274Y020820D02*
X008236Y020820D01*
X008235Y020818D02*
X007274Y020818D01*
X007274Y020815D02*
X008234Y020815D01*
X008233Y020813D02*
X007274Y020813D01*
X007274Y020810D02*
X008232Y020810D01*
X008231Y020808D02*
X007274Y020808D01*
X007274Y020805D02*
X008230Y020805D01*
X008229Y020803D02*
X007274Y020803D01*
X007274Y020800D02*
X008228Y020800D01*
X008226Y020798D02*
X007274Y020798D01*
X007274Y020795D02*
X008225Y020795D01*
X008224Y020793D02*
X007274Y020793D01*
X007274Y020790D02*
X008223Y020790D01*
X008222Y020788D02*
X007274Y020788D01*
X007274Y020785D02*
X008221Y020785D01*
X008220Y020783D02*
X007274Y020783D01*
X007274Y020780D02*
X008219Y020780D01*
X008218Y020778D02*
X007274Y020778D01*
X007274Y020775D02*
X008217Y020775D01*
X008216Y020773D02*
X007274Y020773D01*
X007274Y020770D02*
X008215Y020770D01*
X008214Y020768D02*
X007274Y020768D01*
X007274Y020765D02*
X008213Y020765D01*
X008212Y020763D02*
X007274Y020763D01*
X007274Y020760D02*
X008211Y020760D01*
X008209Y020758D02*
X007274Y020758D01*
X007274Y020756D02*
X008208Y020756D01*
X008207Y020753D02*
X007274Y020753D01*
X007274Y020751D02*
X008206Y020751D01*
X008205Y020748D02*
X007274Y020748D01*
X007274Y020746D02*
X008204Y020746D01*
X008203Y020743D02*
X007274Y020743D01*
X007274Y020741D02*
X008202Y020741D01*
X008201Y020738D02*
X007274Y020738D01*
X007274Y020736D02*
X008200Y020736D01*
X008199Y020733D02*
X007274Y020733D01*
X007274Y020731D02*
X008198Y020731D01*
X008197Y020728D02*
X007274Y020728D01*
X007274Y020726D02*
X008196Y020726D01*
X008195Y020723D02*
X007274Y020723D01*
X007274Y020721D02*
X008194Y020721D01*
X008192Y020718D02*
X007274Y020718D01*
X007274Y020716D02*
X008191Y020716D01*
X008190Y020713D02*
X007274Y020713D01*
X007274Y020711D02*
X008189Y020711D01*
X008188Y020708D02*
X007274Y020708D01*
X007274Y020706D02*
X008187Y020706D01*
X008186Y020703D02*
X007274Y020703D01*
X007274Y020701D02*
X008185Y020701D01*
X008184Y020698D02*
X007274Y020698D01*
X007274Y020696D02*
X008183Y020696D01*
X008182Y020694D02*
X007274Y020694D01*
X007274Y020691D02*
X008181Y020691D01*
X008180Y020689D02*
X007274Y020689D01*
X007274Y020686D02*
X007981Y020686D01*
X007982Y020687D02*
X008179Y020687D01*
X008297Y020963D01*
X008179Y021239D01*
X007687Y021239D01*
X007274Y020825D01*
X007276Y020827D02*
X008239Y020827D01*
X008240Y020830D02*
X007278Y020830D01*
X007281Y020832D02*
X008241Y020832D01*
X008242Y020835D02*
X007283Y020835D01*
X007286Y020837D02*
X008243Y020837D01*
X008245Y020840D02*
X007288Y020840D01*
X007291Y020842D02*
X008246Y020842D01*
X008247Y020845D02*
X007293Y020845D01*
X007296Y020847D02*
X008248Y020847D01*
X008249Y020850D02*
X007298Y020850D01*
X007301Y020852D02*
X008250Y020852D01*
X008251Y020855D02*
X007303Y020855D01*
X007306Y020857D02*
X008252Y020857D01*
X008253Y020860D02*
X007308Y020860D01*
X007311Y020862D02*
X008254Y020862D01*
X008255Y020865D02*
X007313Y020865D01*
X007316Y020867D02*
X008256Y020867D01*
X008257Y020870D02*
X007318Y020870D01*
X007321Y020872D02*
X008258Y020872D01*
X008259Y020875D02*
X007323Y020875D01*
X007326Y020877D02*
X008260Y020877D01*
X008262Y020880D02*
X007328Y020880D01*
X007331Y020882D02*
X008263Y020882D01*
X008264Y020884D02*
X007333Y020884D01*
X007335Y020887D02*
X008265Y020887D01*
X008266Y020889D02*
X007338Y020889D01*
X007340Y020892D02*
X008267Y020892D01*
X008268Y020894D02*
X007343Y020894D01*
X007345Y020897D02*
X008269Y020897D01*
X008270Y020899D02*
X007348Y020899D01*
X007350Y020902D02*
X008271Y020902D01*
X008272Y020904D02*
X007353Y020904D01*
X007355Y020907D02*
X008273Y020907D01*
X008274Y020909D02*
X007358Y020909D01*
X007360Y020912D02*
X008275Y020912D01*
X008276Y020914D02*
X007363Y020914D01*
X007365Y020917D02*
X008277Y020917D01*
X008279Y020919D02*
X007368Y020919D01*
X007370Y020922D02*
X008280Y020922D01*
X008281Y020924D02*
X007373Y020924D01*
X007375Y020927D02*
X008282Y020927D01*
X008283Y020929D02*
X007378Y020929D01*
X007380Y020932D02*
X008284Y020932D01*
X008285Y020934D02*
X007383Y020934D01*
X007385Y020937D02*
X008286Y020937D01*
X008287Y020939D02*
X007388Y020939D01*
X007390Y020942D02*
X008288Y020942D01*
X008289Y020944D02*
X007393Y020944D01*
X007395Y020946D02*
X008290Y020946D01*
X008291Y020949D02*
X007397Y020949D01*
X007400Y020951D02*
X008292Y020951D01*
X008293Y020954D02*
X007402Y020954D01*
X007405Y020956D02*
X008294Y020956D01*
X008296Y020959D02*
X007407Y020959D01*
X007410Y020961D02*
X008297Y020961D01*
X008297Y020964D02*
X007412Y020964D01*
X007415Y020966D02*
X008296Y020966D01*
X008295Y020969D02*
X007417Y020969D01*
X007420Y020971D02*
X008294Y020971D01*
X008293Y020974D02*
X007422Y020974D01*
X007425Y020976D02*
X008292Y020976D01*
X008291Y020979D02*
X007427Y020979D01*
X007430Y020981D02*
X008290Y020981D01*
X008288Y020984D02*
X007432Y020984D01*
X007435Y020986D02*
X008287Y020986D01*
X008286Y020989D02*
X007437Y020989D01*
X007440Y020991D02*
X008285Y020991D01*
X008284Y020994D02*
X007442Y020994D01*
X007445Y020996D02*
X008283Y020996D01*
X008282Y020999D02*
X007447Y020999D01*
X007450Y021001D02*
X008281Y021001D01*
X008280Y021004D02*
X007452Y021004D01*
X007455Y021006D02*
X008279Y021006D01*
X008278Y021009D02*
X007457Y021009D01*
X007459Y021011D02*
X008277Y021011D01*
X008276Y021013D02*
X007462Y021013D01*
X007464Y021016D02*
X008275Y021016D01*
X008274Y021018D02*
X007467Y021018D01*
X007469Y021021D02*
X008273Y021021D01*
X008271Y021023D02*
X007472Y021023D01*
X007474Y021026D02*
X008270Y021026D01*
X008269Y021028D02*
X007477Y021028D01*
X007479Y021031D02*
X008268Y021031D01*
X008267Y021033D02*
X007482Y021033D01*
X007484Y021036D02*
X008266Y021036D01*
X008265Y021038D02*
X007487Y021038D01*
X007489Y021041D02*
X008264Y021041D01*
X008263Y021043D02*
X007492Y021043D01*
X007494Y021046D02*
X008262Y021046D01*
X008261Y021048D02*
X007497Y021048D01*
X007499Y021051D02*
X008260Y021051D01*
X008259Y021053D02*
X007502Y021053D01*
X007504Y021056D02*
X008258Y021056D01*
X008257Y021058D02*
X007507Y021058D01*
X007509Y021061D02*
X008256Y021061D01*
X008254Y021063D02*
X007512Y021063D01*
X007514Y021066D02*
X008253Y021066D01*
X008252Y021068D02*
X007517Y021068D01*
X007519Y021071D02*
X008251Y021071D01*
X008250Y021073D02*
X007521Y021073D01*
X007524Y021075D02*
X008249Y021075D01*
X008248Y021078D02*
X007526Y021078D01*
X007529Y021080D02*
X008247Y021080D01*
X008246Y021083D02*
X007531Y021083D01*
X007534Y021085D02*
X008245Y021085D01*
X008244Y021088D02*
X007536Y021088D01*
X007539Y021090D02*
X008243Y021090D01*
X008242Y021093D02*
X007541Y021093D01*
X007544Y021095D02*
X008241Y021095D01*
X008240Y021098D02*
X007546Y021098D01*
X007549Y021100D02*
X008239Y021100D01*
X008237Y021103D02*
X007551Y021103D01*
X007554Y021105D02*
X008236Y021105D01*
X008235Y021108D02*
X007556Y021108D01*
X007559Y021110D02*
X008234Y021110D01*
X008233Y021113D02*
X007561Y021113D01*
X007564Y021115D02*
X008232Y021115D01*
X008231Y021118D02*
X007566Y021118D01*
X007569Y021120D02*
X008230Y021120D01*
X008229Y021123D02*
X007571Y021123D01*
X007574Y021125D02*
X008228Y021125D01*
X008227Y021128D02*
X007576Y021128D01*
X007579Y021130D02*
X008226Y021130D01*
X008225Y021133D02*
X007581Y021133D01*
X007584Y021135D02*
X008224Y021135D01*
X008223Y021137D02*
X007586Y021137D01*
X007588Y021140D02*
X008221Y021140D01*
X008220Y021142D02*
X007591Y021142D01*
X007593Y021145D02*
X008219Y021145D01*
X008218Y021147D02*
X007596Y021147D01*
X007598Y021150D02*
X008217Y021150D01*
X008216Y021152D02*
X007601Y021152D01*
X007603Y021155D02*
X008215Y021155D01*
X008214Y021157D02*
X007606Y021157D01*
X007608Y021160D02*
X008213Y021160D01*
X008212Y021162D02*
X007611Y021162D01*
X007613Y021165D02*
X008211Y021165D01*
X008210Y021167D02*
X007616Y021167D01*
X007618Y021170D02*
X008209Y021170D01*
X008208Y021172D02*
X007621Y021172D01*
X007623Y021175D02*
X008207Y021175D01*
X008206Y021177D02*
X007626Y021177D01*
X007628Y021180D02*
X008204Y021180D01*
X008203Y021182D02*
X007631Y021182D01*
X007633Y021185D02*
X008202Y021185D01*
X008201Y021187D02*
X007636Y021187D01*
X007638Y021190D02*
X008200Y021190D01*
X008199Y021192D02*
X007641Y021192D01*
X007643Y021195D02*
X008198Y021195D01*
X008197Y021197D02*
X007646Y021197D01*
X007648Y021199D02*
X008196Y021199D01*
X008195Y021202D02*
X007650Y021202D01*
X007653Y021204D02*
X008194Y021204D01*
X008193Y021207D02*
X007655Y021207D01*
X007658Y021209D02*
X008192Y021209D01*
X008191Y021212D02*
X007660Y021212D01*
X007663Y021214D02*
X008190Y021214D01*
X008189Y021217D02*
X007665Y021217D01*
X007668Y021219D02*
X008187Y021219D01*
X008186Y021222D02*
X007670Y021222D01*
X007673Y021224D02*
X008185Y021224D01*
X008184Y021227D02*
X007675Y021227D01*
X007678Y021229D02*
X008183Y021229D01*
X008182Y021232D02*
X007680Y021232D01*
X007683Y021234D02*
X008181Y021234D01*
X008180Y021237D02*
X007685Y021237D01*
X007982Y020687D02*
X007884Y020589D01*
X007884Y020038D01*
X007982Y019939D01*
X009085Y019939D01*
X009183Y020038D01*
X009183Y020569D01*
X009065Y020687D01*
X008809Y020687D01*
X008927Y020963D01*
X008809Y021239D01*
X009360Y021239D01*
X009774Y020825D01*
X008868Y020825D01*
X008869Y020827D02*
X009771Y020827D01*
X009774Y020825D02*
X009774Y019802D01*
X009774Y019803D02*
X007274Y019803D01*
X007275Y019801D02*
X009773Y019801D01*
X009770Y019798D02*
X007277Y019798D01*
X007280Y019796D02*
X009768Y019796D01*
X009765Y019793D02*
X007282Y019793D01*
X007285Y019791D02*
X009763Y019791D01*
X009760Y019788D02*
X007287Y019788D01*
X007290Y019786D02*
X009758Y019786D01*
X009755Y019783D02*
X007292Y019783D01*
X007295Y019781D02*
X009753Y019781D01*
X009750Y019778D02*
X007297Y019778D01*
X007299Y019776D02*
X009748Y019776D01*
X009745Y019773D02*
X007302Y019773D01*
X007304Y019771D02*
X009743Y019771D01*
X009740Y019768D02*
X007307Y019768D01*
X007309Y019766D02*
X009738Y019766D01*
X009736Y019763D02*
X007312Y019763D01*
X007314Y019761D02*
X009733Y019761D01*
X009731Y019758D02*
X007317Y019758D01*
X007319Y019756D02*
X009728Y019756D01*
X009726Y019753D02*
X007322Y019753D01*
X007324Y019751D02*
X009723Y019751D01*
X009721Y019749D02*
X007327Y019749D01*
X007329Y019746D02*
X009718Y019746D01*
X009716Y019744D02*
X007332Y019744D01*
X007334Y019741D02*
X009713Y019741D01*
X009711Y019739D02*
X007337Y019739D01*
X007339Y019736D02*
X009708Y019736D01*
X009706Y019734D02*
X007342Y019734D01*
X007344Y019731D02*
X009703Y019731D01*
X009701Y019729D02*
X007347Y019729D01*
X007349Y019726D02*
X009698Y019726D01*
X009696Y019724D02*
X007352Y019724D01*
X007354Y019721D02*
X009693Y019721D01*
X009691Y019719D02*
X007357Y019719D01*
X007359Y019716D02*
X009688Y019716D01*
X009686Y019714D02*
X007361Y019714D01*
X007364Y019711D02*
X009683Y019711D01*
X009681Y019709D02*
X007366Y019709D01*
X007369Y019706D02*
X009678Y019706D01*
X009676Y019704D02*
X007371Y019704D01*
X007374Y019701D02*
X009674Y019701D01*
X009671Y019699D02*
X007376Y019699D01*
X007379Y019696D02*
X009669Y019696D01*
X009666Y019694D02*
X007381Y019694D01*
X007384Y019691D02*
X009664Y019691D01*
X009661Y019689D02*
X007386Y019689D01*
X007389Y019686D02*
X009659Y019686D01*
X009656Y019684D02*
X007391Y019684D01*
X007394Y019682D02*
X009654Y019682D01*
X009651Y019679D02*
X007396Y019679D01*
X007399Y019677D02*
X009649Y019677D01*
X009646Y019674D02*
X007401Y019674D01*
X007404Y019672D02*
X009644Y019672D01*
X009641Y019669D02*
X007406Y019669D01*
X007409Y019667D02*
X009639Y019667D01*
X009636Y019664D02*
X007411Y019664D01*
X007414Y019662D02*
X009634Y019662D01*
X009631Y019659D02*
X007416Y019659D01*
X007419Y019657D02*
X009629Y019657D01*
X009626Y019654D02*
X007421Y019654D01*
X007424Y019652D02*
X009624Y019652D01*
X009621Y019649D02*
X007426Y019649D01*
X007428Y019647D02*
X009619Y019647D01*
X009616Y019644D02*
X007431Y019644D01*
X007433Y019642D02*
X009614Y019642D01*
X009611Y019639D02*
X007436Y019639D01*
X007438Y019637D02*
X009609Y019637D01*
X009607Y019634D02*
X007441Y019634D01*
X007443Y019632D02*
X009604Y019632D01*
X009602Y019629D02*
X007446Y019629D01*
X007448Y019627D02*
X009599Y019627D01*
X009597Y019624D02*
X007451Y019624D01*
X007453Y019622D02*
X009594Y019622D01*
X009592Y019620D02*
X007456Y019620D01*
X007458Y019617D02*
X009589Y019617D01*
X009587Y019615D02*
X007461Y019615D01*
X007463Y019612D02*
X009584Y019612D01*
X009582Y019610D02*
X007466Y019610D01*
X007468Y019607D02*
X009579Y019607D01*
X009577Y019605D02*
X007471Y019605D01*
X007473Y019602D02*
X009574Y019602D01*
X009572Y019600D02*
X007476Y019600D01*
X007478Y019597D02*
X009569Y019597D01*
X009567Y019595D02*
X007481Y019595D01*
X007483Y019592D02*
X009564Y019592D01*
X009562Y019590D02*
X007486Y019590D01*
X007488Y019587D02*
X009559Y019587D01*
X009557Y019585D02*
X007490Y019585D01*
X007493Y019582D02*
X009554Y019582D01*
X009552Y019580D02*
X007495Y019580D01*
X007498Y019577D02*
X009549Y019577D01*
X009547Y019575D02*
X007500Y019575D01*
X007503Y019572D02*
X009545Y019572D01*
X009542Y019570D02*
X007505Y019570D01*
X007508Y019567D02*
X009540Y019567D01*
X009537Y019565D02*
X007510Y019565D01*
X007513Y019562D02*
X009535Y019562D01*
X009532Y019560D02*
X007515Y019560D01*
X007518Y019558D02*
X009530Y019558D01*
X009527Y019555D02*
X007520Y019555D01*
X007523Y019553D02*
X009525Y019553D01*
X009522Y019550D02*
X007525Y019550D01*
X007528Y019548D02*
X009520Y019548D01*
X009517Y019545D02*
X007530Y019545D01*
X007533Y019543D02*
X009515Y019543D01*
X009512Y019540D02*
X007535Y019540D01*
X007538Y019538D02*
X009510Y019538D01*
X009507Y019535D02*
X007540Y019535D01*
X007543Y019533D02*
X009505Y019533D01*
X009502Y019530D02*
X007545Y019530D01*
X007548Y019528D02*
X009500Y019528D01*
X009497Y019525D02*
X007550Y019525D01*
X007552Y019523D02*
X009495Y019523D01*
X009492Y019520D02*
X007555Y019520D01*
X007557Y019518D02*
X009490Y019518D01*
X009487Y019515D02*
X007560Y019515D01*
X007562Y019513D02*
X009485Y019513D01*
X009483Y019510D02*
X007565Y019510D01*
X007567Y019508D02*
X009480Y019508D01*
X009478Y019505D02*
X007570Y019505D01*
X007572Y019503D02*
X009475Y019503D01*
X009473Y019500D02*
X007575Y019500D01*
X007577Y019498D02*
X009470Y019498D01*
X009468Y019496D02*
X007580Y019496D01*
X007582Y019493D02*
X009465Y019493D01*
X009463Y019491D02*
X007585Y019491D01*
X007587Y019488D02*
X009460Y019488D01*
X009458Y019486D02*
X007590Y019486D01*
X007592Y019483D02*
X009455Y019483D01*
X009453Y019481D02*
X007595Y019481D01*
X007597Y019478D02*
X009450Y019478D01*
X009448Y019476D02*
X007600Y019476D01*
X007602Y019473D02*
X009445Y019473D01*
X009443Y019471D02*
X007605Y019471D01*
X007607Y019468D02*
X009440Y019468D01*
X009438Y019466D02*
X007610Y019466D01*
X007612Y019463D02*
X009435Y019463D01*
X009433Y019461D02*
X007614Y019461D01*
X007617Y019458D02*
X009430Y019458D01*
X009428Y019456D02*
X007619Y019456D01*
X007622Y019453D02*
X009425Y019453D01*
X009423Y019451D02*
X007624Y019451D01*
X007627Y019448D02*
X009421Y019448D01*
X009418Y019446D02*
X007629Y019446D01*
X007632Y019443D02*
X009416Y019443D01*
X009413Y019441D02*
X007634Y019441D01*
X007637Y019438D02*
X009411Y019438D01*
X009408Y019436D02*
X007639Y019436D01*
X007642Y019434D02*
X009406Y019434D01*
X009403Y019431D02*
X007644Y019431D01*
X007647Y019429D02*
X009401Y019429D01*
X009398Y019426D02*
X007649Y019426D01*
X007652Y019424D02*
X009396Y019424D01*
X009393Y019421D02*
X007654Y019421D01*
X007657Y019419D02*
X009391Y019419D01*
X009388Y019416D02*
X007659Y019416D01*
X007662Y019414D02*
X009386Y019414D01*
X009383Y019411D02*
X007664Y019411D01*
X007667Y019409D02*
X009381Y019409D01*
X009378Y019406D02*
X007669Y019406D01*
X007672Y019404D02*
X009376Y019404D01*
X009373Y019401D02*
X007674Y019401D01*
X007676Y019399D02*
X009371Y019399D01*
X009368Y019396D02*
X007679Y019396D01*
X007681Y019394D02*
X009366Y019394D01*
X009363Y019391D02*
X007684Y019391D01*
X007686Y019389D02*
X009361Y019389D01*
X009774Y019806D02*
X007274Y019806D01*
X007274Y019808D02*
X009774Y019808D01*
X009774Y019811D02*
X007274Y019811D01*
X007274Y019813D02*
X009774Y019813D01*
X009774Y019815D02*
X007274Y019815D01*
X007274Y019818D02*
X009774Y019818D01*
X009774Y019820D02*
X007274Y019820D01*
X007274Y019823D02*
X009774Y019823D01*
X009774Y019825D02*
X007274Y019825D01*
X007274Y019828D02*
X009774Y019828D01*
X009774Y019830D02*
X007274Y019830D01*
X007274Y019833D02*
X009774Y019833D01*
X009774Y019835D02*
X007274Y019835D01*
X007274Y019838D02*
X009774Y019838D01*
X009774Y019840D02*
X007274Y019840D01*
X007274Y019843D02*
X009774Y019843D01*
X009774Y019845D02*
X007274Y019845D01*
X007274Y019848D02*
X009774Y019848D01*
X009774Y019850D02*
X007274Y019850D01*
X007274Y019853D02*
X009774Y019853D01*
X009774Y019855D02*
X007274Y019855D01*
X007274Y019858D02*
X009774Y019858D01*
X009774Y019860D02*
X007274Y019860D01*
X007274Y019863D02*
X009774Y019863D01*
X009774Y019865D02*
X007274Y019865D01*
X007274Y019868D02*
X009774Y019868D01*
X009774Y019870D02*
X007274Y019870D01*
X007274Y019873D02*
X009774Y019873D01*
X009774Y019875D02*
X007274Y019875D01*
X007274Y019877D02*
X009774Y019877D01*
X009774Y019880D02*
X007274Y019880D01*
X007274Y019882D02*
X009774Y019882D01*
X009774Y019885D02*
X007274Y019885D01*
X007274Y019887D02*
X009774Y019887D01*
X009774Y019890D02*
X007274Y019890D01*
X007274Y019892D02*
X009774Y019892D01*
X009774Y019895D02*
X007274Y019895D01*
X007274Y019897D02*
X009774Y019897D01*
X009774Y019900D02*
X007274Y019900D01*
X007274Y019902D02*
X009774Y019902D01*
X009774Y019905D02*
X007274Y019905D01*
X007274Y019907D02*
X009774Y019907D01*
X009774Y019910D02*
X007274Y019910D01*
X007274Y019912D02*
X009774Y019912D01*
X009774Y019915D02*
X007274Y019915D01*
X007274Y019917D02*
X009774Y019917D01*
X009774Y019920D02*
X007274Y019920D01*
X007274Y019922D02*
X009774Y019922D01*
X009774Y019925D02*
X007274Y019925D01*
X007274Y019927D02*
X009774Y019927D01*
X009774Y019930D02*
X007274Y019930D01*
X007274Y019932D02*
X009774Y019932D01*
X009774Y019935D02*
X007274Y019935D01*
X007274Y019937D02*
X009774Y019937D01*
X009774Y019939D02*
X009085Y019939D01*
X009087Y019942D02*
X009774Y019942D01*
X009774Y019944D02*
X009090Y019944D01*
X009092Y019947D02*
X009774Y019947D01*
X009774Y019949D02*
X009095Y019949D01*
X009097Y019952D02*
X009774Y019952D01*
X009774Y019954D02*
X009100Y019954D01*
X009102Y019957D02*
X009774Y019957D01*
X009774Y019959D02*
X009105Y019959D01*
X009107Y019962D02*
X009774Y019962D01*
X009774Y019964D02*
X009110Y019964D01*
X009112Y019967D02*
X009774Y019967D01*
X009774Y019969D02*
X009115Y019969D01*
X009117Y019972D02*
X009774Y019972D01*
X009774Y019974D02*
X009120Y019974D01*
X009122Y019977D02*
X009774Y019977D01*
X009774Y019979D02*
X009125Y019979D01*
X009127Y019982D02*
X009774Y019982D01*
X009774Y019984D02*
X009129Y019984D01*
X009132Y019987D02*
X009774Y019987D01*
X009774Y019989D02*
X009134Y019989D01*
X009137Y019992D02*
X009774Y019992D01*
X009774Y019994D02*
X009139Y019994D01*
X009142Y019997D02*
X009774Y019997D01*
X009774Y019999D02*
X009144Y019999D01*
X009147Y020001D02*
X009774Y020001D01*
X009774Y020004D02*
X009149Y020004D01*
X009152Y020006D02*
X009774Y020006D01*
X009774Y020009D02*
X009154Y020009D01*
X009157Y020011D02*
X009774Y020011D01*
X009774Y020014D02*
X009159Y020014D01*
X009162Y020016D02*
X009774Y020016D01*
X009774Y020019D02*
X009164Y020019D01*
X009167Y020021D02*
X009774Y020021D01*
X009774Y020024D02*
X009169Y020024D01*
X009172Y020026D02*
X009774Y020026D01*
X009774Y020029D02*
X009174Y020029D01*
X009177Y020031D02*
X009774Y020031D01*
X009774Y020034D02*
X009179Y020034D01*
X009182Y020036D02*
X009774Y020036D01*
X009774Y020039D02*
X009183Y020039D01*
X009183Y020041D02*
X009774Y020041D01*
X009774Y020044D02*
X009183Y020044D01*
X009183Y020046D02*
X009774Y020046D01*
X009774Y020049D02*
X009183Y020049D01*
X009183Y020051D02*
X009774Y020051D01*
X009774Y020054D02*
X009183Y020054D01*
X009183Y020056D02*
X009774Y020056D01*
X009774Y020059D02*
X009183Y020059D01*
X009183Y020061D02*
X009774Y020061D01*
X009774Y020064D02*
X009183Y020064D01*
X009183Y020066D02*
X009774Y020066D01*
X009774Y020068D02*
X009183Y020068D01*
X009183Y020071D02*
X009774Y020071D01*
X009774Y020073D02*
X009183Y020073D01*
X009183Y020076D02*
X009774Y020076D01*
X009774Y020078D02*
X009183Y020078D01*
X009183Y020081D02*
X009774Y020081D01*
X009774Y020083D02*
X009183Y020083D01*
X009183Y020086D02*
X009774Y020086D01*
X009774Y020088D02*
X009183Y020088D01*
X009183Y020091D02*
X009774Y020091D01*
X009774Y020093D02*
X009183Y020093D01*
X009183Y020096D02*
X009774Y020096D01*
X009774Y020098D02*
X009183Y020098D01*
X009183Y020101D02*
X009774Y020101D01*
X009774Y020103D02*
X009183Y020103D01*
X009183Y020106D02*
X009774Y020106D01*
X009774Y020108D02*
X009183Y020108D01*
X009183Y020111D02*
X009774Y020111D01*
X009774Y020113D02*
X009183Y020113D01*
X009183Y020116D02*
X009774Y020116D01*
X009774Y020118D02*
X009183Y020118D01*
X009183Y020121D02*
X009774Y020121D01*
X009774Y020123D02*
X009183Y020123D01*
X009183Y020126D02*
X009774Y020126D01*
X009774Y020128D02*
X009183Y020128D01*
X009183Y020130D02*
X009774Y020130D01*
X009774Y020133D02*
X009183Y020133D01*
X009183Y020135D02*
X009774Y020135D01*
X009774Y020138D02*
X009183Y020138D01*
X009183Y020140D02*
X009774Y020140D01*
X009774Y020143D02*
X009183Y020143D01*
X009183Y020145D02*
X009774Y020145D01*
X009774Y020148D02*
X009183Y020148D01*
X009183Y020150D02*
X009774Y020150D01*
X009774Y020153D02*
X009183Y020153D01*
X009183Y020155D02*
X009774Y020155D01*
X009774Y020158D02*
X009183Y020158D01*
X009183Y020160D02*
X009774Y020160D01*
X009774Y020163D02*
X009183Y020163D01*
X009183Y020165D02*
X009774Y020165D01*
X009774Y020168D02*
X009183Y020168D01*
X009183Y020170D02*
X009774Y020170D01*
X009774Y020173D02*
X009183Y020173D01*
X009183Y020175D02*
X009774Y020175D01*
X009774Y020178D02*
X009183Y020178D01*
X009183Y020180D02*
X009774Y020180D01*
X009774Y020183D02*
X009183Y020183D01*
X009183Y020185D02*
X009774Y020185D01*
X009774Y020188D02*
X009183Y020188D01*
X009183Y020190D02*
X009774Y020190D01*
X009774Y020192D02*
X009183Y020192D01*
X009183Y020195D02*
X009774Y020195D01*
X009774Y020197D02*
X009183Y020197D01*
X009183Y020200D02*
X009774Y020200D01*
X009774Y020202D02*
X009183Y020202D01*
X009183Y020205D02*
X009774Y020205D01*
X009774Y020207D02*
X009183Y020207D01*
X009183Y020210D02*
X009774Y020210D01*
X009774Y020212D02*
X009183Y020212D01*
X009183Y020215D02*
X009774Y020215D01*
X009774Y020217D02*
X009183Y020217D01*
X009183Y020220D02*
X009774Y020220D01*
X009774Y020222D02*
X009183Y020222D01*
X009183Y020225D02*
X009774Y020225D01*
X009774Y020227D02*
X009183Y020227D01*
X009183Y020230D02*
X009774Y020230D01*
X009774Y020232D02*
X009183Y020232D01*
X009183Y020235D02*
X009774Y020235D01*
X009774Y020237D02*
X009183Y020237D01*
X009183Y020240D02*
X009774Y020240D01*
X009774Y020242D02*
X009183Y020242D01*
X009183Y020245D02*
X009774Y020245D01*
X009774Y020247D02*
X009183Y020247D01*
X009183Y020250D02*
X009774Y020250D01*
X009774Y020252D02*
X009183Y020252D01*
X009183Y020254D02*
X009774Y020254D01*
X009774Y020257D02*
X009183Y020257D01*
X009183Y020259D02*
X009774Y020259D01*
X009774Y020262D02*
X009183Y020262D01*
X009183Y020264D02*
X009774Y020264D01*
X009774Y020267D02*
X009183Y020267D01*
X009183Y020269D02*
X009774Y020269D01*
X009774Y020272D02*
X009183Y020272D01*
X009183Y020274D02*
X009774Y020274D01*
X009774Y020277D02*
X009183Y020277D01*
X009183Y020279D02*
X009774Y020279D01*
X009774Y020282D02*
X009183Y020282D01*
X009183Y020284D02*
X009774Y020284D01*
X009774Y020287D02*
X009183Y020287D01*
X009183Y020289D02*
X009774Y020289D01*
X009774Y020292D02*
X009183Y020292D01*
X009183Y020294D02*
X009774Y020294D01*
X009774Y020297D02*
X009183Y020297D01*
X009183Y020299D02*
X009774Y020299D01*
X009774Y020302D02*
X009183Y020302D01*
X009183Y020304D02*
X009774Y020304D01*
X009774Y020307D02*
X009183Y020307D01*
X009183Y020309D02*
X009774Y020309D01*
X009774Y020312D02*
X009183Y020312D01*
X009183Y020314D02*
X009774Y020314D01*
X009774Y020316D02*
X009183Y020316D01*
X009183Y020319D02*
X009774Y020319D01*
X009774Y020321D02*
X009183Y020321D01*
X009183Y020324D02*
X009774Y020324D01*
X009774Y020326D02*
X009183Y020326D01*
X009183Y020329D02*
X009774Y020329D01*
X009774Y020331D02*
X009183Y020331D01*
X009183Y020334D02*
X009774Y020334D01*
X009774Y020336D02*
X009183Y020336D01*
X009183Y020339D02*
X009774Y020339D01*
X009774Y020341D02*
X009183Y020341D01*
X009183Y020344D02*
X009774Y020344D01*
X009774Y020346D02*
X009183Y020346D01*
X009183Y020349D02*
X009774Y020349D01*
X009774Y020351D02*
X009183Y020351D01*
X009183Y020354D02*
X009774Y020354D01*
X009774Y020356D02*
X009183Y020356D01*
X009183Y020359D02*
X009774Y020359D01*
X009774Y020361D02*
X009183Y020361D01*
X009183Y020364D02*
X009774Y020364D01*
X009774Y020366D02*
X009183Y020366D01*
X009183Y020369D02*
X009774Y020369D01*
X009774Y020371D02*
X009183Y020371D01*
X009183Y020374D02*
X009774Y020374D01*
X009774Y020376D02*
X009183Y020376D01*
X009183Y020379D02*
X009774Y020379D01*
X009774Y020381D02*
X009183Y020381D01*
X009183Y020383D02*
X009774Y020383D01*
X009774Y020386D02*
X009183Y020386D01*
X009183Y020388D02*
X009774Y020388D01*
X009774Y020391D02*
X009183Y020391D01*
X009183Y020393D02*
X009774Y020393D01*
X009774Y020396D02*
X009183Y020396D01*
X009183Y020398D02*
X009774Y020398D01*
X009774Y020401D02*
X009183Y020401D01*
X009183Y020403D02*
X009774Y020403D01*
X009774Y020406D02*
X009183Y020406D01*
X009183Y020408D02*
X009774Y020408D01*
X009774Y020411D02*
X009183Y020411D01*
X009183Y020413D02*
X009774Y020413D01*
X009774Y020416D02*
X009183Y020416D01*
X009183Y020418D02*
X009774Y020418D01*
X009774Y020421D02*
X009183Y020421D01*
X009183Y020423D02*
X009774Y020423D01*
X009774Y020426D02*
X009183Y020426D01*
X009183Y020428D02*
X009774Y020428D01*
X009774Y020431D02*
X009183Y020431D01*
X009183Y020433D02*
X009774Y020433D01*
X009774Y020436D02*
X009183Y020436D01*
X009183Y020438D02*
X009774Y020438D01*
X009774Y020441D02*
X009183Y020441D01*
X009183Y020443D02*
X009774Y020443D01*
X009774Y020445D02*
X009183Y020445D01*
X009183Y020448D02*
X009774Y020448D01*
X009774Y020450D02*
X009183Y020450D01*
X009183Y020453D02*
X009774Y020453D01*
X009774Y020455D02*
X009183Y020455D01*
X009183Y020458D02*
X009774Y020458D01*
X009774Y020460D02*
X009183Y020460D01*
X009183Y020463D02*
X009774Y020463D01*
X009774Y020465D02*
X009183Y020465D01*
X009183Y020468D02*
X009774Y020468D01*
X009774Y020470D02*
X009183Y020470D01*
X009183Y020473D02*
X009774Y020473D01*
X009774Y020475D02*
X009183Y020475D01*
X009183Y020478D02*
X009774Y020478D01*
X009774Y020480D02*
X009183Y020480D01*
X009183Y020483D02*
X009774Y020483D01*
X009774Y020485D02*
X009183Y020485D01*
X009183Y020488D02*
X009774Y020488D01*
X009774Y020490D02*
X009183Y020490D01*
X009183Y020493D02*
X009774Y020493D01*
X009774Y020495D02*
X009183Y020495D01*
X009183Y020498D02*
X009774Y020498D01*
X009774Y020500D02*
X009183Y020500D01*
X009183Y020503D02*
X009774Y020503D01*
X009774Y020505D02*
X009183Y020505D01*
X009183Y020507D02*
X009774Y020507D01*
X009774Y020510D02*
X009183Y020510D01*
X009183Y020512D02*
X009774Y020512D01*
X009774Y020515D02*
X009183Y020515D01*
X009183Y020517D02*
X009774Y020517D01*
X009774Y020520D02*
X009183Y020520D01*
X009183Y020522D02*
X009774Y020522D01*
X009774Y020525D02*
X009183Y020525D01*
X009183Y020527D02*
X009774Y020527D01*
X009774Y020530D02*
X009183Y020530D01*
X009183Y020532D02*
X009774Y020532D01*
X009774Y020535D02*
X009183Y020535D01*
X009183Y020537D02*
X009774Y020537D01*
X009774Y020540D02*
X009183Y020540D01*
X009183Y020542D02*
X009774Y020542D01*
X009774Y020545D02*
X009183Y020545D01*
X009183Y020547D02*
X009774Y020547D01*
X009774Y020550D02*
X009183Y020550D01*
X009183Y020552D02*
X009774Y020552D01*
X009774Y020555D02*
X009183Y020555D01*
X009183Y020557D02*
X009774Y020557D01*
X009774Y020560D02*
X009183Y020560D01*
X009183Y020562D02*
X009774Y020562D01*
X009774Y020565D02*
X009183Y020565D01*
X009183Y020567D02*
X009774Y020567D01*
X009774Y020569D02*
X009183Y020569D01*
X009180Y020572D02*
X009774Y020572D01*
X009774Y020574D02*
X009178Y020574D01*
X009176Y020577D02*
X009774Y020577D01*
X009774Y020579D02*
X009173Y020579D01*
X009171Y020582D02*
X009774Y020582D01*
X009774Y020584D02*
X009168Y020584D01*
X009166Y020587D02*
X009774Y020587D01*
X009774Y020589D02*
X009163Y020589D01*
X009161Y020592D02*
X009774Y020592D01*
X009774Y020594D02*
X009158Y020594D01*
X009156Y020597D02*
X009774Y020597D01*
X009774Y020599D02*
X009153Y020599D01*
X009151Y020602D02*
X009774Y020602D01*
X009774Y020604D02*
X009148Y020604D01*
X009146Y020607D02*
X009774Y020607D01*
X009774Y020609D02*
X009143Y020609D01*
X009141Y020612D02*
X009774Y020612D01*
X009774Y020614D02*
X009138Y020614D01*
X009136Y020617D02*
X009774Y020617D01*
X009774Y020619D02*
X009133Y020619D01*
X009131Y020622D02*
X009774Y020622D01*
X009774Y020624D02*
X009128Y020624D01*
X009126Y020627D02*
X009774Y020627D01*
X009774Y020629D02*
X009123Y020629D01*
X009121Y020631D02*
X009774Y020631D01*
X009774Y020634D02*
X009118Y020634D01*
X009116Y020636D02*
X009774Y020636D01*
X009774Y020639D02*
X009114Y020639D01*
X009111Y020641D02*
X009774Y020641D01*
X009774Y020644D02*
X009109Y020644D01*
X009106Y020646D02*
X009774Y020646D01*
X009774Y020649D02*
X009104Y020649D01*
X009101Y020651D02*
X009774Y020651D01*
X009774Y020654D02*
X009099Y020654D01*
X009096Y020656D02*
X009774Y020656D01*
X009774Y020659D02*
X009094Y020659D01*
X009091Y020661D02*
X009774Y020661D01*
X009774Y020664D02*
X009089Y020664D01*
X009086Y020666D02*
X009774Y020666D01*
X009774Y020669D02*
X009084Y020669D01*
X009081Y020671D02*
X009774Y020671D01*
X009774Y020674D02*
X009079Y020674D01*
X009076Y020676D02*
X009774Y020676D01*
X009774Y020679D02*
X009074Y020679D01*
X009071Y020681D02*
X009774Y020681D01*
X009774Y020684D02*
X009069Y020684D01*
X009066Y020686D02*
X009774Y020686D01*
X009774Y020689D02*
X008810Y020689D01*
X008811Y020691D02*
X009774Y020691D01*
X009774Y020694D02*
X008812Y020694D01*
X008813Y020696D02*
X009774Y020696D01*
X009774Y020698D02*
X008814Y020698D01*
X008815Y020701D02*
X009774Y020701D01*
X009774Y020703D02*
X008816Y020703D01*
X008817Y020706D02*
X009774Y020706D01*
X009774Y020708D02*
X008818Y020708D01*
X008819Y020711D02*
X009774Y020711D01*
X009774Y020713D02*
X008820Y020713D01*
X008821Y020716D02*
X009774Y020716D01*
X009774Y020718D02*
X008822Y020718D01*
X008823Y020721D02*
X009774Y020721D01*
X009774Y020723D02*
X008825Y020723D01*
X008826Y020726D02*
X009774Y020726D01*
X009774Y020728D02*
X008827Y020728D01*
X008828Y020731D02*
X009774Y020731D01*
X009774Y020733D02*
X008829Y020733D01*
X008830Y020736D02*
X009774Y020736D01*
X009774Y020738D02*
X008831Y020738D01*
X008832Y020741D02*
X009774Y020741D01*
X009774Y020743D02*
X008833Y020743D01*
X008834Y020746D02*
X009774Y020746D01*
X009774Y020748D02*
X008835Y020748D01*
X008836Y020751D02*
X009774Y020751D01*
X009774Y020753D02*
X008837Y020753D01*
X008838Y020756D02*
X009774Y020756D01*
X009774Y020758D02*
X008839Y020758D01*
X008840Y020760D02*
X009774Y020760D01*
X009774Y020763D02*
X008842Y020763D01*
X008843Y020765D02*
X009774Y020765D01*
X009774Y020768D02*
X008844Y020768D01*
X008845Y020770D02*
X009774Y020770D01*
X009774Y020773D02*
X008846Y020773D01*
X008847Y020775D02*
X009774Y020775D01*
X009774Y020778D02*
X008848Y020778D01*
X008849Y020780D02*
X009774Y020780D01*
X009774Y020783D02*
X008850Y020783D01*
X008851Y020785D02*
X009774Y020785D01*
X009774Y020788D02*
X008852Y020788D01*
X008853Y020790D02*
X009774Y020790D01*
X009774Y020793D02*
X008854Y020793D01*
X008855Y020795D02*
X009774Y020795D01*
X009774Y020798D02*
X008856Y020798D01*
X008857Y020800D02*
X009774Y020800D01*
X009774Y020803D02*
X008859Y020803D01*
X008860Y020805D02*
X009774Y020805D01*
X009774Y020808D02*
X008861Y020808D01*
X008862Y020810D02*
X009774Y020810D01*
X009774Y020813D02*
X008863Y020813D01*
X008864Y020815D02*
X009774Y020815D01*
X009774Y020818D02*
X008865Y020818D01*
X008866Y020820D02*
X009774Y020820D01*
X009774Y020822D02*
X008867Y020822D01*
X008870Y020830D02*
X009769Y020830D01*
X009766Y020832D02*
X008871Y020832D01*
X008872Y020835D02*
X009764Y020835D01*
X009762Y020837D02*
X008873Y020837D01*
X008874Y020840D02*
X009759Y020840D01*
X009757Y020842D02*
X008876Y020842D01*
X008877Y020845D02*
X009754Y020845D01*
X009752Y020847D02*
X008878Y020847D01*
X008879Y020850D02*
X009749Y020850D01*
X009747Y020852D02*
X008880Y020852D01*
X008881Y020855D02*
X009744Y020855D01*
X009742Y020857D02*
X008882Y020857D01*
X008883Y020860D02*
X009739Y020860D01*
X009737Y020862D02*
X008884Y020862D01*
X008885Y020865D02*
X009734Y020865D01*
X009732Y020867D02*
X008886Y020867D01*
X008887Y020870D02*
X009729Y020870D01*
X009727Y020872D02*
X008888Y020872D01*
X008889Y020875D02*
X009724Y020875D01*
X009722Y020877D02*
X008890Y020877D01*
X008891Y020880D02*
X009719Y020880D01*
X009717Y020882D02*
X008893Y020882D01*
X008894Y020884D02*
X009714Y020884D01*
X009712Y020887D02*
X008895Y020887D01*
X008896Y020889D02*
X009709Y020889D01*
X009707Y020892D02*
X008897Y020892D01*
X008898Y020894D02*
X009704Y020894D01*
X009702Y020897D02*
X008899Y020897D01*
X008900Y020899D02*
X009700Y020899D01*
X009697Y020902D02*
X008901Y020902D01*
X008902Y020904D02*
X009695Y020904D01*
X009692Y020907D02*
X008903Y020907D01*
X008904Y020909D02*
X009690Y020909D01*
X009687Y020912D02*
X008905Y020912D01*
X008906Y020914D02*
X009685Y020914D01*
X009682Y020917D02*
X008907Y020917D01*
X008909Y020919D02*
X009680Y020919D01*
X009677Y020922D02*
X008910Y020922D01*
X008911Y020924D02*
X009675Y020924D01*
X009672Y020927D02*
X008912Y020927D01*
X008913Y020929D02*
X009670Y020929D01*
X009667Y020932D02*
X008914Y020932D01*
X008915Y020934D02*
X009665Y020934D01*
X009662Y020937D02*
X008916Y020937D01*
X008917Y020939D02*
X009660Y020939D01*
X009657Y020942D02*
X008918Y020942D01*
X008919Y020944D02*
X009655Y020944D01*
X009652Y020946D02*
X008920Y020946D01*
X008921Y020949D02*
X009650Y020949D01*
X009647Y020951D02*
X008922Y020951D01*
X008923Y020954D02*
X009645Y020954D01*
X009642Y020956D02*
X008924Y020956D01*
X008926Y020959D02*
X009640Y020959D01*
X009638Y020961D02*
X008927Y020961D01*
X008927Y020964D02*
X009635Y020964D01*
X009633Y020966D02*
X008926Y020966D01*
X008925Y020969D02*
X009630Y020969D01*
X009628Y020971D02*
X008924Y020971D01*
X008923Y020974D02*
X009625Y020974D01*
X009623Y020976D02*
X008922Y020976D01*
X008920Y020979D02*
X009620Y020979D01*
X009618Y020981D02*
X008919Y020981D01*
X008918Y020984D02*
X009615Y020984D01*
X009613Y020986D02*
X008917Y020986D01*
X008916Y020989D02*
X009610Y020989D01*
X009608Y020991D02*
X008915Y020991D01*
X008914Y020994D02*
X009605Y020994D01*
X009603Y020996D02*
X008913Y020996D01*
X008912Y020999D02*
X009600Y020999D01*
X009598Y021001D02*
X008911Y021001D01*
X008910Y021004D02*
X009595Y021004D01*
X009593Y021006D02*
X008909Y021006D01*
X008908Y021009D02*
X009590Y021009D01*
X009588Y021011D02*
X008907Y021011D01*
X008906Y021013D02*
X009585Y021013D01*
X009583Y021016D02*
X008905Y021016D01*
X008903Y021018D02*
X009580Y021018D01*
X009578Y021021D02*
X008902Y021021D01*
X008901Y021023D02*
X009576Y021023D01*
X009573Y021026D02*
X008900Y021026D01*
X008899Y021028D02*
X009571Y021028D01*
X009568Y021031D02*
X008898Y021031D01*
X008897Y021033D02*
X009566Y021033D01*
X009563Y021036D02*
X008896Y021036D01*
X008895Y021038D02*
X009561Y021038D01*
X009558Y021041D02*
X008894Y021041D01*
X008893Y021043D02*
X009556Y021043D01*
X009553Y021046D02*
X008892Y021046D01*
X008891Y021048D02*
X009551Y021048D01*
X009548Y021051D02*
X008890Y021051D01*
X008889Y021053D02*
X009546Y021053D01*
X009543Y021056D02*
X008888Y021056D01*
X008886Y021058D02*
X009541Y021058D01*
X009538Y021061D02*
X008885Y021061D01*
X008884Y021063D02*
X009536Y021063D01*
X009533Y021066D02*
X008883Y021066D01*
X008882Y021068D02*
X009531Y021068D01*
X009528Y021071D02*
X008881Y021071D01*
X008880Y021073D02*
X009526Y021073D01*
X009523Y021075D02*
X008879Y021075D01*
X008878Y021078D02*
X009521Y021078D01*
X009518Y021080D02*
X008877Y021080D01*
X008876Y021083D02*
X009516Y021083D01*
X009514Y021085D02*
X008875Y021085D01*
X008874Y021088D02*
X009511Y021088D01*
X009509Y021090D02*
X008873Y021090D01*
X008872Y021093D02*
X009506Y021093D01*
X009504Y021095D02*
X008871Y021095D01*
X008869Y021098D02*
X009501Y021098D01*
X009499Y021100D02*
X008868Y021100D01*
X008867Y021103D02*
X009496Y021103D01*
X009494Y021105D02*
X008866Y021105D01*
X008865Y021108D02*
X009491Y021108D01*
X009489Y021110D02*
X008864Y021110D01*
X008863Y021113D02*
X009486Y021113D01*
X009484Y021115D02*
X008862Y021115D01*
X008861Y021118D02*
X009481Y021118D01*
X009479Y021120D02*
X008860Y021120D01*
X008859Y021123D02*
X009476Y021123D01*
X009474Y021125D02*
X008858Y021125D01*
X008857Y021128D02*
X009471Y021128D01*
X009469Y021130D02*
X008856Y021130D01*
X008855Y021133D02*
X009466Y021133D01*
X009464Y021135D02*
X008854Y021135D01*
X008852Y021137D02*
X009461Y021137D01*
X009459Y021140D02*
X008851Y021140D01*
X008850Y021142D02*
X009456Y021142D01*
X009454Y021145D02*
X008849Y021145D01*
X008848Y021147D02*
X009451Y021147D01*
X009449Y021150D02*
X008847Y021150D01*
X008846Y021152D02*
X009447Y021152D01*
X009444Y021155D02*
X008845Y021155D01*
X008844Y021157D02*
X009442Y021157D01*
X009439Y021160D02*
X008843Y021160D01*
X008842Y021162D02*
X009437Y021162D01*
X009434Y021165D02*
X008841Y021165D01*
X008840Y021167D02*
X009432Y021167D01*
X009429Y021170D02*
X008839Y021170D01*
X008838Y021172D02*
X009427Y021172D01*
X009424Y021175D02*
X008836Y021175D01*
X008835Y021177D02*
X009422Y021177D01*
X009419Y021180D02*
X008834Y021180D01*
X008833Y021182D02*
X009417Y021182D01*
X009414Y021185D02*
X008832Y021185D01*
X008831Y021187D02*
X009412Y021187D01*
X009409Y021190D02*
X008830Y021190D01*
X008829Y021192D02*
X009407Y021192D01*
X009404Y021195D02*
X008828Y021195D01*
X008827Y021197D02*
X009402Y021197D01*
X009399Y021199D02*
X008826Y021199D01*
X008825Y021202D02*
X009397Y021202D01*
X009394Y021204D02*
X008824Y021204D01*
X008823Y021207D02*
X009392Y021207D01*
X009389Y021209D02*
X008822Y021209D01*
X008821Y021212D02*
X009387Y021212D01*
X009385Y021214D02*
X008819Y021214D01*
X008818Y021217D02*
X009382Y021217D01*
X009380Y021219D02*
X008817Y021219D01*
X008816Y021222D02*
X009377Y021222D01*
X009375Y021224D02*
X008815Y021224D01*
X008814Y021227D02*
X009372Y021227D01*
X009370Y021229D02*
X008813Y021229D01*
X008812Y021232D02*
X009367Y021232D01*
X009365Y021234D02*
X008811Y021234D01*
X008810Y021237D02*
X009362Y021237D01*
X007979Y020684D02*
X007274Y020684D01*
X007274Y020681D02*
X007976Y020681D01*
X007974Y020679D02*
X007274Y020679D01*
X007274Y020676D02*
X007971Y020676D01*
X007969Y020674D02*
X007274Y020674D01*
X007274Y020671D02*
X007966Y020671D01*
X007964Y020669D02*
X007274Y020669D01*
X007274Y020666D02*
X007961Y020666D01*
X007959Y020664D02*
X007274Y020664D01*
X007274Y020661D02*
X007956Y020661D01*
X007954Y020659D02*
X007274Y020659D01*
X007274Y020656D02*
X007951Y020656D01*
X007949Y020654D02*
X007274Y020654D01*
X007274Y020651D02*
X007946Y020651D01*
X007944Y020649D02*
X007274Y020649D01*
X007274Y020646D02*
X007941Y020646D01*
X007939Y020644D02*
X007274Y020644D01*
X007274Y020641D02*
X007936Y020641D01*
X007934Y020639D02*
X007274Y020639D01*
X007274Y020636D02*
X007931Y020636D01*
X007929Y020634D02*
X007274Y020634D01*
X007274Y020631D02*
X007926Y020631D01*
X007924Y020629D02*
X007274Y020629D01*
X007274Y020627D02*
X007921Y020627D01*
X007919Y020624D02*
X007274Y020624D01*
X007274Y020622D02*
X007917Y020622D01*
X007914Y020619D02*
X007274Y020619D01*
X007274Y020617D02*
X007912Y020617D01*
X007909Y020614D02*
X007274Y020614D01*
X007274Y020612D02*
X007907Y020612D01*
X007904Y020609D02*
X007274Y020609D01*
X007274Y020607D02*
X007902Y020607D01*
X007899Y020604D02*
X007274Y020604D01*
X007274Y020602D02*
X007897Y020602D01*
X007894Y020599D02*
X007274Y020599D01*
X007274Y020597D02*
X007892Y020597D01*
X007889Y020594D02*
X007274Y020594D01*
X007274Y020592D02*
X007887Y020592D01*
X007884Y020589D02*
X007274Y020589D01*
X007274Y020587D02*
X007884Y020587D01*
X007884Y020584D02*
X007274Y020584D01*
X007274Y020582D02*
X007884Y020582D01*
X007884Y020579D02*
X007274Y020579D01*
X007274Y020577D02*
X007884Y020577D01*
X007884Y020574D02*
X007274Y020574D01*
X007274Y020572D02*
X007884Y020572D01*
X007884Y020569D02*
X007274Y020569D01*
X007274Y020567D02*
X007884Y020567D01*
X007884Y020565D02*
X007274Y020565D01*
X007274Y020562D02*
X007884Y020562D01*
X007884Y020560D02*
X007274Y020560D01*
X007274Y020557D02*
X007884Y020557D01*
X007884Y020555D02*
X007274Y020555D01*
X007274Y020552D02*
X007884Y020552D01*
X007884Y020550D02*
X007274Y020550D01*
X007274Y020547D02*
X007884Y020547D01*
X007884Y020545D02*
X007274Y020545D01*
X007274Y020542D02*
X007884Y020542D01*
X007884Y020540D02*
X007274Y020540D01*
X007274Y020537D02*
X007884Y020537D01*
X007884Y020535D02*
X007274Y020535D01*
X007274Y020532D02*
X007884Y020532D01*
X007884Y020530D02*
X007274Y020530D01*
X007274Y020527D02*
X007884Y020527D01*
X007884Y020525D02*
X007274Y020525D01*
X007274Y020522D02*
X007884Y020522D01*
X007884Y020520D02*
X007274Y020520D01*
X007274Y020517D02*
X007884Y020517D01*
X007884Y020515D02*
X007274Y020515D01*
X007274Y020512D02*
X007884Y020512D01*
X007884Y020510D02*
X007274Y020510D01*
X007274Y020507D02*
X007884Y020507D01*
X007884Y020505D02*
X007274Y020505D01*
X007274Y020503D02*
X007884Y020503D01*
X007884Y020500D02*
X007274Y020500D01*
X007274Y020498D02*
X007884Y020498D01*
X007884Y020495D02*
X007274Y020495D01*
X007274Y020493D02*
X007884Y020493D01*
X007884Y020490D02*
X007274Y020490D01*
X007274Y020488D02*
X007884Y020488D01*
X007884Y020485D02*
X007274Y020485D01*
X007274Y020483D02*
X007884Y020483D01*
X007884Y020480D02*
X007274Y020480D01*
X007274Y020478D02*
X007884Y020478D01*
X007884Y020475D02*
X007274Y020475D01*
X007274Y020473D02*
X007884Y020473D01*
X007884Y020470D02*
X007274Y020470D01*
X007274Y020468D02*
X007884Y020468D01*
X007884Y020465D02*
X007274Y020465D01*
X007274Y020463D02*
X007884Y020463D01*
X007884Y020460D02*
X007274Y020460D01*
X007274Y020458D02*
X007884Y020458D01*
X007884Y020455D02*
X007274Y020455D01*
X007274Y020453D02*
X007884Y020453D01*
X007884Y020450D02*
X007274Y020450D01*
X007274Y020448D02*
X007884Y020448D01*
X007884Y020445D02*
X007274Y020445D01*
X007274Y020443D02*
X007884Y020443D01*
X007884Y020441D02*
X007274Y020441D01*
X007274Y020438D02*
X007884Y020438D01*
X007884Y020436D02*
X007274Y020436D01*
X007274Y020433D02*
X007884Y020433D01*
X007884Y020431D02*
X007274Y020431D01*
X007274Y020428D02*
X007884Y020428D01*
X007884Y020426D02*
X007274Y020426D01*
X007274Y020423D02*
X007884Y020423D01*
X007884Y020421D02*
X007274Y020421D01*
X007274Y020418D02*
X007884Y020418D01*
X007884Y020416D02*
X007274Y020416D01*
X007274Y020413D02*
X007884Y020413D01*
X007884Y020411D02*
X007274Y020411D01*
X007274Y020408D02*
X007884Y020408D01*
X007884Y020406D02*
X007274Y020406D01*
X007274Y020403D02*
X007884Y020403D01*
X007884Y020401D02*
X007274Y020401D01*
X007274Y020398D02*
X007884Y020398D01*
X007884Y020396D02*
X007274Y020396D01*
X007274Y020393D02*
X007884Y020393D01*
X007884Y020391D02*
X007274Y020391D01*
X007274Y020388D02*
X007884Y020388D01*
X007884Y020386D02*
X007274Y020386D01*
X007274Y020383D02*
X007884Y020383D01*
X007884Y020381D02*
X007274Y020381D01*
X007274Y020379D02*
X007884Y020379D01*
X007884Y020376D02*
X007274Y020376D01*
X007274Y020374D02*
X007884Y020374D01*
X007884Y020371D02*
X007274Y020371D01*
X007274Y020369D02*
X007884Y020369D01*
X007884Y020366D02*
X007274Y020366D01*
X007274Y020364D02*
X007884Y020364D01*
X007884Y020361D02*
X007274Y020361D01*
X007274Y020359D02*
X007884Y020359D01*
X007884Y020356D02*
X007274Y020356D01*
X007274Y020354D02*
X007884Y020354D01*
X007884Y020351D02*
X007274Y020351D01*
X007274Y020349D02*
X007884Y020349D01*
X007884Y020346D02*
X007274Y020346D01*
X007274Y020344D02*
X007884Y020344D01*
X007884Y020341D02*
X007274Y020341D01*
X007274Y020339D02*
X007884Y020339D01*
X007884Y020336D02*
X007274Y020336D01*
X007274Y020334D02*
X007884Y020334D01*
X007884Y020331D02*
X007274Y020331D01*
X007274Y020329D02*
X007884Y020329D01*
X007884Y020326D02*
X007274Y020326D01*
X007274Y020324D02*
X007884Y020324D01*
X007884Y020321D02*
X007274Y020321D01*
X007274Y020319D02*
X007884Y020319D01*
X007884Y020316D02*
X007274Y020316D01*
X007274Y020314D02*
X007884Y020314D01*
X007884Y020312D02*
X007274Y020312D01*
X007274Y020309D02*
X007884Y020309D01*
X007884Y020307D02*
X007274Y020307D01*
X007274Y020304D02*
X007884Y020304D01*
X007884Y020302D02*
X007274Y020302D01*
X007274Y020299D02*
X007884Y020299D01*
X007884Y020297D02*
X007274Y020297D01*
X007274Y020294D02*
X007884Y020294D01*
X007884Y020292D02*
X007274Y020292D01*
X007274Y020289D02*
X007884Y020289D01*
X007884Y020287D02*
X007274Y020287D01*
X007274Y020284D02*
X007884Y020284D01*
X007884Y020282D02*
X007274Y020282D01*
X007274Y020279D02*
X007884Y020279D01*
X007884Y020277D02*
X007274Y020277D01*
X007274Y020274D02*
X007884Y020274D01*
X007884Y020272D02*
X007274Y020272D01*
X007274Y020269D02*
X007884Y020269D01*
X007884Y020267D02*
X007274Y020267D01*
X007274Y020264D02*
X007884Y020264D01*
X007884Y020262D02*
X007274Y020262D01*
X007274Y020259D02*
X007884Y020259D01*
X007884Y020257D02*
X007274Y020257D01*
X007274Y020254D02*
X007884Y020254D01*
X007884Y020252D02*
X007274Y020252D01*
X007274Y020250D02*
X007884Y020250D01*
X007884Y020247D02*
X007274Y020247D01*
X007274Y020245D02*
X007884Y020245D01*
X007884Y020242D02*
X007274Y020242D01*
X007274Y020240D02*
X007884Y020240D01*
X007884Y020237D02*
X007274Y020237D01*
X007274Y020235D02*
X007884Y020235D01*
X007884Y020232D02*
X007274Y020232D01*
X007274Y020230D02*
X007884Y020230D01*
X007884Y020227D02*
X007274Y020227D01*
X007274Y020225D02*
X007884Y020225D01*
X007884Y020222D02*
X007274Y020222D01*
X007274Y020220D02*
X007884Y020220D01*
X007884Y020217D02*
X007274Y020217D01*
X007274Y020215D02*
X007884Y020215D01*
X007884Y020212D02*
X007274Y020212D01*
X007274Y020210D02*
X007884Y020210D01*
X007884Y020207D02*
X007274Y020207D01*
X007274Y020205D02*
X007884Y020205D01*
X007884Y020202D02*
X007274Y020202D01*
X007274Y020200D02*
X007884Y020200D01*
X007884Y020197D02*
X007274Y020197D01*
X007274Y020195D02*
X007884Y020195D01*
X007884Y020192D02*
X007274Y020192D01*
X007274Y020190D02*
X007884Y020190D01*
X007884Y020188D02*
X007274Y020188D01*
X007274Y020185D02*
X007884Y020185D01*
X007884Y020183D02*
X007274Y020183D01*
X007274Y020180D02*
X007884Y020180D01*
X007884Y020178D02*
X007274Y020178D01*
X007274Y020175D02*
X007884Y020175D01*
X007884Y020173D02*
X007274Y020173D01*
X007274Y020170D02*
X007884Y020170D01*
X007884Y020168D02*
X007274Y020168D01*
X007274Y020165D02*
X007884Y020165D01*
X007884Y020163D02*
X007274Y020163D01*
X007274Y020160D02*
X007884Y020160D01*
X007884Y020158D02*
X007274Y020158D01*
X007274Y020155D02*
X007884Y020155D01*
X007884Y020153D02*
X007274Y020153D01*
X007274Y020150D02*
X007884Y020150D01*
X007884Y020148D02*
X007274Y020148D01*
X007274Y020145D02*
X007884Y020145D01*
X007884Y020143D02*
X007274Y020143D01*
X007274Y020140D02*
X007884Y020140D01*
X007884Y020138D02*
X007274Y020138D01*
X007274Y020135D02*
X007884Y020135D01*
X007884Y020133D02*
X007274Y020133D01*
X007274Y020130D02*
X007884Y020130D01*
X007884Y020128D02*
X007274Y020128D01*
X007274Y020126D02*
X007884Y020126D01*
X007884Y020123D02*
X007274Y020123D01*
X007274Y020121D02*
X007884Y020121D01*
X007884Y020118D02*
X007274Y020118D01*
X007274Y020116D02*
X007884Y020116D01*
X007884Y020113D02*
X007274Y020113D01*
X007274Y020111D02*
X007884Y020111D01*
X007884Y020108D02*
X007274Y020108D01*
X007274Y020106D02*
X007884Y020106D01*
X007884Y020103D02*
X007274Y020103D01*
X007274Y020101D02*
X007884Y020101D01*
X007884Y020098D02*
X007274Y020098D01*
X007274Y020096D02*
X007884Y020096D01*
X007884Y020093D02*
X007274Y020093D01*
X007274Y020091D02*
X007884Y020091D01*
X007884Y020088D02*
X007274Y020088D01*
X007274Y020086D02*
X007884Y020086D01*
X007884Y020083D02*
X007274Y020083D01*
X007274Y020081D02*
X007884Y020081D01*
X007884Y020078D02*
X007274Y020078D01*
X007274Y020076D02*
X007884Y020076D01*
X007884Y020073D02*
X007274Y020073D01*
X007274Y020071D02*
X007884Y020071D01*
X007884Y020068D02*
X007274Y020068D01*
X007274Y020066D02*
X007884Y020066D01*
X007884Y020064D02*
X007274Y020064D01*
X007274Y020061D02*
X007884Y020061D01*
X007884Y020059D02*
X007274Y020059D01*
X007274Y020056D02*
X007884Y020056D01*
X007884Y020054D02*
X007274Y020054D01*
X007274Y020051D02*
X007884Y020051D01*
X007884Y020049D02*
X007274Y020049D01*
X007274Y020046D02*
X007884Y020046D01*
X007884Y020044D02*
X007274Y020044D01*
X007274Y020041D02*
X007884Y020041D01*
X007884Y020039D02*
X007274Y020039D01*
X007274Y020036D02*
X007886Y020036D01*
X007888Y020034D02*
X007274Y020034D01*
X007274Y020031D02*
X007890Y020031D01*
X007893Y020029D02*
X007274Y020029D01*
X007274Y020026D02*
X007895Y020026D01*
X007898Y020024D02*
X007274Y020024D01*
X007274Y020021D02*
X007900Y020021D01*
X007903Y020019D02*
X007274Y020019D01*
X007274Y020016D02*
X007905Y020016D01*
X007908Y020014D02*
X007274Y020014D01*
X007274Y020011D02*
X007910Y020011D01*
X007913Y020009D02*
X007274Y020009D01*
X007274Y020006D02*
X007915Y020006D01*
X007918Y020004D02*
X007274Y020004D01*
X007274Y020001D02*
X007920Y020001D01*
X007923Y019999D02*
X007274Y019999D01*
X007274Y019997D02*
X007925Y019997D01*
X007928Y019994D02*
X007274Y019994D01*
X007274Y019992D02*
X007930Y019992D01*
X007933Y019989D02*
X007274Y019989D01*
X007274Y019987D02*
X007935Y019987D01*
X007938Y019984D02*
X007274Y019984D01*
X007274Y019982D02*
X007940Y019982D01*
X007943Y019979D02*
X007274Y019979D01*
X007274Y019977D02*
X007945Y019977D01*
X007948Y019974D02*
X007274Y019974D01*
X007274Y019972D02*
X007950Y019972D01*
X007952Y019969D02*
X007274Y019969D01*
X007274Y019967D02*
X007955Y019967D01*
X007957Y019964D02*
X007274Y019964D01*
X007274Y019962D02*
X007960Y019962D01*
X007962Y019959D02*
X007274Y019959D01*
X007274Y019957D02*
X007965Y019957D01*
X007967Y019954D02*
X007274Y019954D01*
X007274Y019952D02*
X007970Y019952D01*
X007972Y019949D02*
X007274Y019949D01*
X007274Y019947D02*
X007975Y019947D01*
X007977Y019944D02*
X007274Y019944D01*
X007274Y019942D02*
X007980Y019942D01*
X007982Y019939D02*
X007274Y019939D01*
M02*
