G75*
G70*
%OFA0B0*%
%FSLAX24Y24*%
%IPPOS*%
%LPD*%
%AMOC8*
5,1,8,0,0,1.08239X$1,22.5*
%
%ADD10C,0.0000*%
%ADD11C,0.0600*%
%ADD12R,0.0886X0.0169*%
%ADD13R,0.0433X0.0394*%
%ADD14R,0.0394X0.0433*%
%ADD15R,0.0512X0.0591*%
%ADD16R,0.0866X0.0236*%
%ADD17R,0.0197X0.0394*%
%ADD18R,0.0669X0.0984*%
%ADD19R,0.0551X0.0551*%
%ADD20R,0.0394X0.0591*%
%ADD21R,0.1299X0.0591*%
%ADD22R,0.0630X0.0709*%
%ADD23R,0.0591X0.0512*%
%ADD24R,0.3228X0.1299*%
%ADD25R,0.0709X0.0630*%
%ADD26R,0.0870X0.0472*%
%ADD27R,0.0890X0.0850*%
%ADD28R,0.0591X0.0217*%
%ADD29R,0.0248X0.0327*%
%ADD30R,0.1150X0.0500*%
%ADD31C,0.0600*%
%ADD32R,0.0500X0.0299*%
%ADD33C,0.0039*%
%ADD34C,0.0197*%
%ADD35C,0.0317*%
%ADD36C,0.0160*%
%ADD37C,0.0240*%
%ADD38C,0.0320*%
%ADD39C,0.0110*%
D10*
X006408Y002872D02*
X006408Y011140D01*
X010345Y011140D01*
X010345Y018227D01*
X006408Y018227D01*
X006408Y024369D01*
X030541Y024369D01*
X030541Y024368D02*
X030785Y024362D01*
X031027Y024345D01*
X031269Y024316D01*
X031510Y024276D01*
X031748Y024224D01*
X031983Y024161D01*
X032215Y024087D01*
X032443Y024001D01*
X032667Y023905D01*
X032886Y023799D01*
X033100Y023682D01*
X033308Y023556D01*
X033510Y023419D01*
X033705Y023273D01*
X033893Y023118D01*
X034073Y022954D01*
X034245Y022782D01*
X034409Y022602D01*
X034564Y022414D01*
X034710Y022219D01*
X034847Y022017D01*
X034973Y021809D01*
X035090Y021595D01*
X035196Y021376D01*
X035292Y021152D01*
X035378Y020924D01*
X035452Y020692D01*
X035515Y020457D01*
X035567Y020219D01*
X035607Y019978D01*
X035636Y019736D01*
X035653Y019494D01*
X035659Y019250D01*
X035660Y019250D02*
X035660Y007991D01*
X033295Y011517D02*
X033297Y011560D01*
X033303Y011603D01*
X033313Y011645D01*
X033326Y011686D01*
X033343Y011726D01*
X033364Y011764D01*
X033388Y011800D01*
X033416Y011833D01*
X033446Y011864D01*
X033479Y011892D01*
X033514Y011917D01*
X033551Y011939D01*
X033591Y011957D01*
X033631Y011971D01*
X033673Y011982D01*
X033716Y011989D01*
X033759Y011992D01*
X033802Y011991D01*
X033845Y011986D01*
X033888Y011977D01*
X033929Y011965D01*
X033969Y011948D01*
X034007Y011928D01*
X034044Y011905D01*
X034078Y011879D01*
X034110Y011849D01*
X034138Y011817D01*
X034164Y011782D01*
X034187Y011745D01*
X034206Y011706D01*
X034221Y011666D01*
X034233Y011624D01*
X034241Y011582D01*
X034245Y011539D01*
X034245Y011495D01*
X034241Y011452D01*
X034233Y011410D01*
X034221Y011368D01*
X034206Y011328D01*
X034187Y011289D01*
X034164Y011252D01*
X034138Y011217D01*
X034110Y011185D01*
X034078Y011155D01*
X034044Y011129D01*
X034008Y011106D01*
X033969Y011086D01*
X033929Y011069D01*
X033888Y011057D01*
X033845Y011048D01*
X033802Y011043D01*
X033759Y011042D01*
X033716Y011045D01*
X033673Y011052D01*
X033631Y011063D01*
X033591Y011077D01*
X033551Y011095D01*
X033514Y011117D01*
X033479Y011142D01*
X033446Y011170D01*
X033416Y011201D01*
X033388Y011234D01*
X033364Y011270D01*
X033343Y011308D01*
X033326Y011348D01*
X033313Y011389D01*
X033303Y011431D01*
X033297Y011474D01*
X033295Y011517D01*
X035659Y007991D02*
X035653Y007747D01*
X035636Y007505D01*
X035607Y007263D01*
X035567Y007022D01*
X035515Y006784D01*
X035452Y006549D01*
X035378Y006317D01*
X035292Y006089D01*
X035196Y005865D01*
X035090Y005646D01*
X034973Y005432D01*
X034847Y005224D01*
X034710Y005022D01*
X034564Y004827D01*
X034409Y004639D01*
X034245Y004459D01*
X034073Y004287D01*
X033893Y004123D01*
X033705Y003968D01*
X033510Y003822D01*
X033308Y003685D01*
X033100Y003559D01*
X032886Y003442D01*
X032667Y003336D01*
X032443Y003240D01*
X032215Y003154D01*
X031983Y003080D01*
X031748Y003017D01*
X031510Y002965D01*
X031269Y002925D01*
X031027Y002896D01*
X030785Y002879D01*
X030541Y002873D01*
X030541Y002872D02*
X006408Y002872D01*
X033295Y015567D02*
X033297Y015610D01*
X033303Y015653D01*
X033313Y015695D01*
X033326Y015736D01*
X033343Y015776D01*
X033364Y015814D01*
X033388Y015850D01*
X033416Y015883D01*
X033446Y015914D01*
X033479Y015942D01*
X033514Y015967D01*
X033551Y015989D01*
X033591Y016007D01*
X033631Y016021D01*
X033673Y016032D01*
X033716Y016039D01*
X033759Y016042D01*
X033802Y016041D01*
X033845Y016036D01*
X033888Y016027D01*
X033929Y016015D01*
X033969Y015998D01*
X034007Y015978D01*
X034044Y015955D01*
X034078Y015929D01*
X034110Y015899D01*
X034138Y015867D01*
X034164Y015832D01*
X034187Y015795D01*
X034206Y015756D01*
X034221Y015716D01*
X034233Y015674D01*
X034241Y015632D01*
X034245Y015589D01*
X034245Y015545D01*
X034241Y015502D01*
X034233Y015460D01*
X034221Y015418D01*
X034206Y015378D01*
X034187Y015339D01*
X034164Y015302D01*
X034138Y015267D01*
X034110Y015235D01*
X034078Y015205D01*
X034044Y015179D01*
X034008Y015156D01*
X033969Y015136D01*
X033929Y015119D01*
X033888Y015107D01*
X033845Y015098D01*
X033802Y015093D01*
X033759Y015092D01*
X033716Y015095D01*
X033673Y015102D01*
X033631Y015113D01*
X033591Y015127D01*
X033551Y015145D01*
X033514Y015167D01*
X033479Y015192D01*
X033446Y015220D01*
X033416Y015251D01*
X033388Y015284D01*
X033364Y015320D01*
X033343Y015358D01*
X033326Y015398D01*
X033313Y015439D01*
X033303Y015481D01*
X033297Y015524D01*
X033295Y015567D01*
X033522Y017609D02*
X033524Y017635D01*
X033530Y017661D01*
X033540Y017686D01*
X033553Y017709D01*
X033569Y017729D01*
X033589Y017747D01*
X033611Y017762D01*
X033634Y017774D01*
X033660Y017782D01*
X033686Y017786D01*
X033712Y017786D01*
X033738Y017782D01*
X033764Y017774D01*
X033788Y017762D01*
X033809Y017747D01*
X033829Y017729D01*
X033845Y017709D01*
X033858Y017686D01*
X033868Y017661D01*
X033874Y017635D01*
X033876Y017609D01*
X033874Y017583D01*
X033868Y017557D01*
X033858Y017532D01*
X033845Y017509D01*
X033829Y017489D01*
X033809Y017471D01*
X033787Y017456D01*
X033764Y017444D01*
X033738Y017436D01*
X033712Y017432D01*
X033686Y017432D01*
X033660Y017436D01*
X033634Y017444D01*
X033610Y017456D01*
X033589Y017471D01*
X033569Y017489D01*
X033553Y017509D01*
X033540Y017532D01*
X033530Y017557D01*
X033524Y017583D01*
X033522Y017609D01*
X033522Y019341D02*
X033524Y019367D01*
X033530Y019393D01*
X033540Y019418D01*
X033553Y019441D01*
X033569Y019461D01*
X033589Y019479D01*
X033611Y019494D01*
X033634Y019506D01*
X033660Y019514D01*
X033686Y019518D01*
X033712Y019518D01*
X033738Y019514D01*
X033764Y019506D01*
X033788Y019494D01*
X033809Y019479D01*
X033829Y019461D01*
X033845Y019441D01*
X033858Y019418D01*
X033868Y019393D01*
X033874Y019367D01*
X033876Y019341D01*
X033874Y019315D01*
X033868Y019289D01*
X033858Y019264D01*
X033845Y019241D01*
X033829Y019221D01*
X033809Y019203D01*
X033787Y019188D01*
X033764Y019176D01*
X033738Y019168D01*
X033712Y019164D01*
X033686Y019164D01*
X033660Y019168D01*
X033634Y019176D01*
X033610Y019188D01*
X033589Y019203D01*
X033569Y019221D01*
X033553Y019241D01*
X033540Y019264D01*
X033530Y019289D01*
X033524Y019315D01*
X033522Y019341D01*
D11*
X031433Y022622D03*
X030433Y022622D03*
X029433Y022622D03*
X028433Y022622D03*
X027433Y022622D03*
X026433Y022622D03*
X025433Y022622D03*
X024433Y022622D03*
X023433Y022622D03*
X022433Y022622D03*
X021433Y022622D03*
X020433Y022622D03*
X019433Y022622D03*
X018433Y022622D03*
X017433Y022622D03*
X016433Y022622D03*
X015433Y022622D03*
X014433Y022622D03*
X013433Y022622D03*
X012433Y022622D03*
X011433Y022622D03*
X010433Y022622D03*
X009433Y022622D03*
X009433Y023622D03*
X010433Y023622D03*
X011433Y023622D03*
X012433Y023622D03*
X013433Y023622D03*
X014433Y023622D03*
X015433Y023622D03*
X016433Y023622D03*
X017433Y023622D03*
X018433Y023622D03*
X019433Y023622D03*
X020433Y023622D03*
X021433Y023622D03*
X022433Y023622D03*
X023433Y023622D03*
X024433Y023622D03*
X025433Y023622D03*
X026433Y023622D03*
X027433Y023622D03*
X028433Y023622D03*
X029433Y023622D03*
X030433Y023622D03*
X031433Y023622D03*
X031433Y004622D03*
X030433Y004622D03*
X029433Y004622D03*
X028433Y004622D03*
X027433Y004622D03*
X026433Y004622D03*
X025433Y004622D03*
X024433Y004622D03*
X023433Y004622D03*
X022433Y004622D03*
X021433Y004622D03*
X020433Y004622D03*
X019433Y004622D03*
X018433Y004622D03*
X017433Y004622D03*
X016433Y004622D03*
X015433Y004622D03*
X014433Y004622D03*
X013433Y004622D03*
X012433Y004622D03*
X011433Y004622D03*
X010433Y004622D03*
X009433Y004622D03*
X009433Y003622D03*
X010433Y003622D03*
X011433Y003622D03*
X012433Y003622D03*
X013433Y003622D03*
X014433Y003622D03*
X015433Y003622D03*
X016433Y003622D03*
X017433Y003622D03*
X018433Y003622D03*
X019433Y003622D03*
X020433Y003622D03*
X021433Y003622D03*
X022433Y003622D03*
X023433Y003622D03*
X024433Y003622D03*
X025433Y003622D03*
X026433Y003622D03*
X027433Y003622D03*
X028433Y003622D03*
X029433Y003622D03*
X030433Y003622D03*
X031433Y003622D03*
D12*
X028992Y017622D03*
X028992Y017878D03*
X028992Y018134D03*
X028992Y018390D03*
X028992Y018646D03*
X028992Y018902D03*
X028992Y019158D03*
X028992Y019414D03*
X028992Y019670D03*
X028992Y019926D03*
X028992Y020181D03*
X028992Y020437D03*
X028992Y020693D03*
X028992Y020949D03*
X026433Y020949D03*
X026433Y020693D03*
X026433Y020437D03*
X026433Y020181D03*
X026433Y019926D03*
X026433Y019670D03*
X026433Y019414D03*
X026433Y019158D03*
X026433Y018902D03*
X026433Y018646D03*
X026433Y018390D03*
X026433Y018134D03*
X026433Y017878D03*
X026433Y017622D03*
D13*
X023474Y018050D03*
X022805Y018050D03*
X023085Y020372D03*
X023754Y020372D03*
X016368Y018369D03*
X015699Y018369D03*
X016250Y008991D03*
X016250Y008321D03*
X015325Y008294D03*
X015325Y008963D03*
X026833Y008329D03*
X027502Y008329D03*
D14*
X027494Y009739D03*
X026825Y009739D03*
X026821Y006518D03*
X027490Y006518D03*
X018006Y013113D03*
X018006Y013782D03*
X016226Y013518D03*
X015557Y013518D03*
X012766Y009097D03*
X012766Y008428D03*
X014073Y018329D03*
X014742Y018329D03*
X014746Y019227D03*
X014077Y019227D03*
X014112Y020132D03*
X014782Y020132D03*
X014786Y021046D03*
X014116Y021046D03*
X015695Y021038D03*
X016364Y021038D03*
X019321Y019431D03*
X019990Y019431D03*
X019986Y018487D03*
X019317Y018487D03*
X024974Y019876D03*
X024974Y020546D03*
D15*
X023762Y019152D03*
X023014Y019152D03*
D16*
X017935Y018941D03*
X017935Y019441D03*
X017935Y019941D03*
X017935Y020441D03*
X015888Y020441D03*
X015888Y019941D03*
X015888Y019441D03*
X015888Y018941D03*
D17*
X014286Y009128D03*
X013911Y009128D03*
X013537Y009128D03*
X013537Y008302D03*
X013911Y008302D03*
X014286Y008302D03*
D18*
X011589Y007774D03*
X011589Y009349D03*
D19*
X011183Y010727D03*
X012679Y010727D03*
D20*
X018317Y008506D03*
X018908Y008506D03*
X019498Y008506D03*
X020089Y008506D03*
D21*
X019203Y010987D03*
D22*
X020797Y008286D03*
X021900Y008286D03*
X015195Y010628D03*
X014093Y010628D03*
D23*
X014447Y007451D03*
X014447Y006703D03*
X013506Y006707D03*
X013506Y007455D03*
D24*
X009022Y007235D03*
X009022Y009085D03*
D25*
X019336Y007674D03*
X019336Y006572D03*
D26*
X022171Y013172D03*
X022171Y014156D03*
X025085Y014156D03*
X025085Y013172D03*
D27*
X024698Y011829D03*
X022778Y011829D03*
X022719Y015530D03*
X024639Y015530D03*
D28*
X020856Y014217D03*
X020856Y013717D03*
X020856Y013217D03*
X020856Y012717D03*
X018730Y012717D03*
X018730Y013217D03*
X018730Y013717D03*
X018730Y014217D03*
D29*
X016327Y014353D03*
X015449Y014353D03*
D30*
X029793Y014723D03*
X029793Y013542D03*
X029793Y012361D03*
X031616Y012361D03*
X031616Y013542D03*
X031616Y014723D03*
D31*
X025433Y006172D02*
X025433Y005572D01*
X024433Y005572D02*
X024433Y006172D01*
X023433Y006172D02*
X023433Y005572D01*
X022433Y005572D02*
X022433Y006172D01*
X021433Y006172D02*
X021433Y005572D01*
X020433Y005572D02*
X020433Y006172D01*
D32*
X028953Y008012D03*
X028953Y008512D03*
X031953Y008512D03*
X031953Y008012D03*
D33*
X027077Y008016D02*
X027077Y006839D01*
X027064Y006846D01*
X027034Y006854D01*
X026841Y006854D01*
X026841Y006538D01*
X026801Y006538D01*
X026801Y006854D01*
X026608Y006854D01*
X026578Y006846D01*
X026565Y006839D01*
X026565Y008024D01*
X026570Y008021D01*
X026600Y008013D01*
X026813Y008013D01*
X026813Y008309D01*
X026852Y008309D01*
X026852Y008013D01*
X027065Y008013D01*
X027077Y008016D01*
X027077Y007991D02*
X026565Y007991D01*
X026565Y007953D02*
X027077Y007953D01*
X027077Y007915D02*
X026565Y007915D01*
X026565Y007877D02*
X027077Y007877D01*
X027077Y007839D02*
X026565Y007839D01*
X026565Y007801D02*
X027077Y007801D01*
X027077Y007763D02*
X026565Y007763D01*
X026565Y007725D02*
X027077Y007725D01*
X027077Y007687D02*
X026565Y007687D01*
X026565Y007650D02*
X027077Y007650D01*
X027077Y007612D02*
X026565Y007612D01*
X026565Y007574D02*
X027077Y007574D01*
X027077Y007536D02*
X026565Y007536D01*
X026565Y007498D02*
X027077Y007498D01*
X027077Y007460D02*
X026565Y007460D01*
X026565Y007422D02*
X027077Y007422D01*
X027077Y007384D02*
X026565Y007384D01*
X026565Y007346D02*
X027077Y007346D01*
X027077Y007308D02*
X026565Y007308D01*
X026565Y007270D02*
X027077Y007270D01*
X027077Y007232D02*
X026565Y007232D01*
X026565Y007195D02*
X027077Y007195D01*
X027077Y007157D02*
X026565Y007157D01*
X026565Y007119D02*
X027077Y007119D01*
X027077Y007081D02*
X026565Y007081D01*
X026565Y007043D02*
X027077Y007043D01*
X027077Y007005D02*
X026565Y007005D01*
X026565Y006967D02*
X027077Y006967D01*
X027077Y006929D02*
X026565Y006929D01*
X026565Y006891D02*
X027077Y006891D01*
X027077Y006853D02*
X027037Y006853D01*
X026841Y006853D02*
X026801Y006853D01*
X026801Y006815D02*
X026841Y006815D01*
X026841Y006778D02*
X026801Y006778D01*
X026801Y006740D02*
X026841Y006740D01*
X026841Y006702D02*
X026801Y006702D01*
X026801Y006664D02*
X026841Y006664D01*
X026841Y006626D02*
X026801Y006626D01*
X026801Y006588D02*
X026841Y006588D01*
X026841Y006550D02*
X026801Y006550D01*
X026605Y006853D02*
X026565Y006853D01*
X026813Y008029D02*
X026852Y008029D01*
X026852Y008067D02*
X026813Y008067D01*
X026813Y008104D02*
X026852Y008104D01*
X026852Y008142D02*
X026813Y008142D01*
X026813Y008180D02*
X026852Y008180D01*
X026852Y008218D02*
X026813Y008218D01*
X026813Y008256D02*
X026852Y008256D01*
X026852Y008294D02*
X026813Y008294D01*
X026813Y008349D02*
X026813Y008646D01*
X026600Y008646D01*
X026570Y008637D01*
X026565Y008635D01*
X026566Y008635D01*
X026565Y008635D02*
X026565Y009420D01*
X026582Y009411D01*
X026612Y009402D01*
X026805Y009402D01*
X026805Y009719D01*
X026844Y009719D01*
X026844Y009402D01*
X027037Y009402D01*
X027068Y009411D01*
X027077Y009416D01*
X027077Y008642D01*
X027065Y008646D01*
X026852Y008646D01*
X026852Y008349D01*
X026813Y008349D01*
X026813Y008370D02*
X026852Y008370D01*
X026852Y008408D02*
X026813Y008408D01*
X026813Y008446D02*
X026852Y008446D01*
X026852Y008484D02*
X026813Y008484D01*
X026813Y008522D02*
X026852Y008522D01*
X026852Y008559D02*
X026813Y008559D01*
X026813Y008597D02*
X026852Y008597D01*
X026852Y008635D02*
X026813Y008635D01*
X026565Y008673D02*
X027077Y008673D01*
X027077Y008711D02*
X026565Y008711D01*
X026565Y008749D02*
X027077Y008749D01*
X027077Y008787D02*
X026565Y008787D01*
X026565Y008825D02*
X027077Y008825D01*
X027077Y008863D02*
X026565Y008863D01*
X026565Y008901D02*
X027077Y008901D01*
X027077Y008939D02*
X026565Y008939D01*
X026565Y008976D02*
X027077Y008976D01*
X027077Y009014D02*
X026565Y009014D01*
X026565Y009052D02*
X027077Y009052D01*
X027077Y009090D02*
X026565Y009090D01*
X026565Y009128D02*
X027077Y009128D01*
X027077Y009166D02*
X026565Y009166D01*
X026565Y009204D02*
X027077Y009204D01*
X027077Y009242D02*
X026565Y009242D01*
X026565Y009280D02*
X027077Y009280D01*
X027077Y009318D02*
X026565Y009318D01*
X026565Y009356D02*
X027077Y009356D01*
X027077Y009394D02*
X026565Y009394D01*
X026805Y009431D02*
X026844Y009431D01*
X026844Y009469D02*
X026805Y009469D01*
X026805Y009507D02*
X026844Y009507D01*
X026844Y009545D02*
X026805Y009545D01*
X026805Y009583D02*
X026844Y009583D01*
X026844Y009621D02*
X026805Y009621D01*
X026805Y009659D02*
X026844Y009659D01*
X026844Y009697D02*
X026805Y009697D01*
X016801Y008620D02*
X016801Y007715D01*
X014715Y006140D01*
X007195Y006140D01*
X007195Y007991D01*
X007352Y007991D01*
X007334Y007980D01*
X007312Y007958D01*
X007296Y007930D01*
X007288Y007900D01*
X007288Y007254D01*
X009002Y007254D01*
X009002Y007215D01*
X007288Y007215D01*
X007288Y006569D01*
X007296Y006539D01*
X007312Y006512D01*
X007334Y006489D01*
X007361Y006474D01*
X007392Y006465D01*
X009002Y006465D01*
X009002Y007215D01*
X009041Y007215D01*
X009041Y006465D01*
X010652Y006465D01*
X010682Y006474D01*
X010709Y006489D01*
X010732Y006512D01*
X013091Y006512D01*
X013091Y006474D02*
X010683Y006474D01*
X010732Y006512D02*
X010747Y006539D01*
X010756Y006569D01*
X010756Y007006D01*
X013098Y007006D01*
X013091Y006979D01*
X013091Y006727D01*
X013486Y006727D01*
X013486Y006687D01*
X013526Y006687D01*
X013526Y006727D01*
X013921Y006727D01*
X013921Y006979D01*
X013914Y007006D01*
X014041Y007006D01*
X014040Y007005D01*
X013914Y007005D01*
X013921Y006967D02*
X014032Y006967D01*
X014032Y006975D02*
X014032Y006723D01*
X014427Y006723D01*
X014427Y006684D01*
X014032Y006684D01*
X014032Y006431D01*
X014040Y006401D01*
X014056Y006374D01*
X014078Y006351D01*
X014105Y006336D01*
X014136Y006328D01*
X014427Y006328D01*
X014427Y006683D01*
X014466Y006683D01*
X014466Y006328D01*
X014758Y006328D01*
X014788Y006336D01*
X014816Y006351D01*
X014838Y006374D01*
X014854Y006401D01*
X014862Y006431D01*
X014862Y006684D01*
X014467Y006684D01*
X014467Y006723D01*
X014862Y006723D01*
X014862Y006975D01*
X014854Y007005D01*
X015861Y007005D01*
X015911Y007043D02*
X015296Y007043D01*
X015272Y007006D02*
X015856Y007891D01*
X015856Y008620D01*
X015971Y008620D01*
X015960Y008614D01*
X015938Y008592D01*
X015922Y008564D01*
X015914Y008534D01*
X015914Y008341D01*
X016230Y008341D01*
X016230Y008302D01*
X015914Y008302D01*
X015914Y008109D01*
X015922Y008078D01*
X015938Y008051D01*
X015960Y008029D01*
X015856Y008029D01*
X015856Y008067D02*
X015929Y008067D01*
X015915Y008104D02*
X015856Y008104D01*
X015856Y008142D02*
X015914Y008142D01*
X015914Y008180D02*
X015856Y008180D01*
X015856Y008218D02*
X015914Y008218D01*
X015914Y008256D02*
X015856Y008256D01*
X015856Y008294D02*
X015914Y008294D01*
X015856Y008332D02*
X016230Y008332D01*
X016230Y008301D02*
X016270Y008301D01*
X016270Y008005D01*
X016482Y008005D01*
X016513Y008013D01*
X016540Y008029D01*
X016801Y008029D01*
X016801Y008067D02*
X016571Y008067D01*
X016578Y008078D02*
X016586Y008109D01*
X016586Y008302D01*
X016270Y008302D01*
X016270Y008341D01*
X016586Y008341D01*
X016586Y008534D01*
X016578Y008564D01*
X016562Y008592D01*
X016540Y008614D01*
X016529Y008620D01*
X016801Y008620D01*
X016801Y008597D02*
X016557Y008597D01*
X016579Y008559D02*
X016801Y008559D01*
X016801Y008522D02*
X016586Y008522D01*
X016586Y008484D02*
X016801Y008484D01*
X016801Y008446D02*
X016586Y008446D01*
X016586Y008408D02*
X016801Y008408D01*
X016801Y008370D02*
X016586Y008370D01*
X016586Y008294D02*
X016801Y008294D01*
X016801Y008256D02*
X016586Y008256D01*
X016586Y008218D02*
X016801Y008218D01*
X016801Y008180D02*
X016586Y008180D01*
X016586Y008142D02*
X016801Y008142D01*
X016801Y008104D02*
X016585Y008104D01*
X016578Y008078D02*
X016562Y008051D01*
X016540Y008029D01*
X016801Y007991D02*
X015856Y007991D01*
X015856Y007953D02*
X016801Y007953D01*
X016801Y007915D02*
X015856Y007915D01*
X015847Y007877D02*
X016801Y007877D01*
X016801Y007839D02*
X015822Y007839D01*
X015797Y007801D02*
X016801Y007801D01*
X016801Y007763D02*
X015772Y007763D01*
X015747Y007725D02*
X016801Y007725D01*
X016765Y007687D02*
X015722Y007687D01*
X015697Y007650D02*
X016715Y007650D01*
X016664Y007612D02*
X015672Y007612D01*
X015647Y007574D02*
X016614Y007574D01*
X016564Y007536D02*
X015622Y007536D01*
X015597Y007498D02*
X016514Y007498D01*
X016463Y007460D02*
X015572Y007460D01*
X015547Y007422D02*
X016413Y007422D01*
X016363Y007384D02*
X015522Y007384D01*
X015497Y007346D02*
X016313Y007346D01*
X016262Y007308D02*
X015472Y007308D01*
X015447Y007270D02*
X016212Y007270D01*
X016162Y007232D02*
X015422Y007232D01*
X015396Y007195D02*
X016112Y007195D01*
X016062Y007157D02*
X015371Y007157D01*
X015346Y007119D02*
X016011Y007119D01*
X015961Y007081D02*
X015321Y007081D01*
X015272Y007006D02*
X014853Y007006D01*
X014854Y007005D01*
X014862Y006967D02*
X015810Y006967D01*
X015760Y006929D02*
X014862Y006929D01*
X014862Y006891D02*
X015710Y006891D01*
X015660Y006853D02*
X014862Y006853D01*
X014862Y006815D02*
X015609Y006815D01*
X015559Y006778D02*
X014862Y006778D01*
X014862Y006740D02*
X015509Y006740D01*
X015459Y006702D02*
X014467Y006702D01*
X014466Y006664D02*
X014427Y006664D01*
X014427Y006702D02*
X013526Y006702D01*
X013526Y006687D02*
X013921Y006687D01*
X013921Y006435D01*
X013913Y006405D01*
X013897Y006378D01*
X013875Y006355D01*
X013847Y006340D01*
X013817Y006331D01*
X013526Y006331D01*
X013526Y006687D01*
X013526Y006664D02*
X013486Y006664D01*
X013486Y006687D02*
X013486Y006331D01*
X013195Y006331D01*
X013164Y006340D01*
X013137Y006355D01*
X013115Y006378D01*
X013099Y006405D01*
X013091Y006435D01*
X013091Y006687D01*
X013486Y006687D01*
X013486Y006702D02*
X010756Y006702D01*
X010756Y006740D02*
X013091Y006740D01*
X013091Y006778D02*
X010756Y006778D01*
X010756Y006815D02*
X013091Y006815D01*
X013091Y006853D02*
X010756Y006853D01*
X010756Y006891D02*
X013091Y006891D01*
X013091Y006929D02*
X010756Y006929D01*
X010756Y006967D02*
X013091Y006967D01*
X013098Y007005D02*
X010756Y007005D01*
X010756Y007024D02*
X010756Y007215D01*
X009042Y007215D01*
X009042Y007254D01*
X010756Y007254D01*
X010756Y007900D01*
X010747Y007930D01*
X010732Y007958D01*
X010709Y007980D01*
X010691Y007991D01*
X010778Y007991D01*
X010778Y007046D01*
X010756Y007024D01*
X010756Y007043D02*
X010775Y007043D01*
X010778Y007081D02*
X010756Y007081D01*
X010756Y007119D02*
X010778Y007119D01*
X010778Y007157D02*
X010756Y007157D01*
X010756Y007195D02*
X010778Y007195D01*
X010778Y007232D02*
X009042Y007232D01*
X009041Y007195D02*
X009002Y007195D01*
X009002Y007232D02*
X007195Y007232D01*
X007195Y007195D02*
X007288Y007195D01*
X007288Y007157D02*
X007195Y007157D01*
X007195Y007119D02*
X007288Y007119D01*
X007288Y007081D02*
X007195Y007081D01*
X007195Y007043D02*
X007288Y007043D01*
X007288Y007005D02*
X007195Y007005D01*
X007195Y006967D02*
X007288Y006967D01*
X007288Y006929D02*
X007195Y006929D01*
X007195Y006891D02*
X007288Y006891D01*
X007288Y006853D02*
X007195Y006853D01*
X007195Y006815D02*
X007288Y006815D01*
X007288Y006778D02*
X007195Y006778D01*
X007195Y006740D02*
X007288Y006740D01*
X007288Y006702D02*
X007195Y006702D01*
X007195Y006664D02*
X007288Y006664D01*
X007288Y006626D02*
X007195Y006626D01*
X007195Y006588D02*
X007288Y006588D01*
X007293Y006550D02*
X007195Y006550D01*
X007195Y006512D02*
X007311Y006512D01*
X007360Y006474D02*
X007195Y006474D01*
X007195Y006436D02*
X013091Y006436D01*
X013103Y006398D02*
X007195Y006398D01*
X007195Y006360D02*
X013132Y006360D01*
X013091Y006550D02*
X010750Y006550D01*
X010756Y006588D02*
X013091Y006588D01*
X013091Y006626D02*
X010756Y006626D01*
X010756Y006664D02*
X013091Y006664D01*
X013486Y006626D02*
X013526Y006626D01*
X013526Y006588D02*
X013486Y006588D01*
X013486Y006550D02*
X013526Y006550D01*
X013526Y006512D02*
X013486Y006512D01*
X013486Y006474D02*
X013526Y006474D01*
X013526Y006436D02*
X013486Y006436D01*
X013486Y006398D02*
X013526Y006398D01*
X013526Y006360D02*
X013486Y006360D01*
X013880Y006360D02*
X014069Y006360D01*
X014042Y006398D02*
X013909Y006398D01*
X013921Y006436D02*
X014032Y006436D01*
X014032Y006474D02*
X013921Y006474D01*
X013921Y006512D02*
X014032Y006512D01*
X014032Y006550D02*
X013921Y006550D01*
X013921Y006588D02*
X014032Y006588D01*
X014032Y006626D02*
X013921Y006626D01*
X013921Y006664D02*
X014032Y006664D01*
X014032Y006740D02*
X013921Y006740D01*
X013921Y006778D02*
X014032Y006778D01*
X014032Y006815D02*
X013921Y006815D01*
X013921Y006853D02*
X014032Y006853D01*
X014032Y006891D02*
X013921Y006891D01*
X013921Y006929D02*
X014032Y006929D01*
X014032Y006975D02*
X014040Y007005D01*
X014054Y007126D02*
X013897Y007126D01*
X013913Y007153D01*
X013921Y007183D01*
X013921Y007435D01*
X013526Y007435D01*
X013526Y007475D01*
X013921Y007475D01*
X013921Y007727D01*
X013913Y007757D01*
X013897Y007784D01*
X013875Y007807D01*
X013847Y007823D01*
X013817Y007831D01*
X013526Y007831D01*
X013526Y007475D01*
X013486Y007475D01*
X013486Y007435D01*
X013091Y007435D01*
X013091Y007183D01*
X013099Y007153D01*
X013115Y007126D01*
X013115Y007126D01*
X011093Y007126D01*
X011093Y008187D01*
X011134Y008229D01*
X011134Y007794D01*
X011569Y007794D01*
X011569Y007754D01*
X011608Y007754D01*
X011608Y007162D01*
X011939Y007162D01*
X011969Y007170D01*
X011997Y007186D01*
X012019Y007208D01*
X012035Y007236D01*
X012043Y007266D01*
X012043Y007754D01*
X011608Y007754D01*
X011608Y007794D01*
X012043Y007794D01*
X012043Y007951D01*
X012381Y007951D01*
X012421Y007911D01*
X012520Y007911D01*
X013780Y007911D01*
X013850Y007980D01*
X013850Y007985D01*
X013892Y007985D01*
X013892Y008282D01*
X013931Y008282D01*
X013931Y007985D01*
X014026Y007985D01*
X014056Y007993D01*
X014083Y008009D01*
X014104Y008030D01*
X014121Y008030D01*
X014146Y008005D01*
X014425Y008005D01*
X014450Y008030D01*
X014990Y008030D01*
X014990Y008075D01*
X014997Y008051D01*
X015013Y008023D01*
X015035Y008001D01*
X015062Y007985D01*
X015093Y007977D01*
X015305Y007977D01*
X015305Y008274D01*
X015344Y008274D01*
X015344Y007977D01*
X015557Y007977D01*
X015588Y007985D01*
X015615Y008001D01*
X015620Y008006D01*
X015620Y007951D01*
X014862Y007193D01*
X014862Y007432D01*
X014467Y007432D01*
X014467Y007471D01*
X014862Y007471D01*
X014862Y007723D01*
X014854Y007753D01*
X014838Y007781D01*
X014816Y007803D01*
X014788Y007819D01*
X014758Y007827D01*
X014466Y007827D01*
X014466Y007471D01*
X014427Y007471D01*
X014427Y007432D01*
X014032Y007432D01*
X014032Y007179D01*
X014040Y007149D01*
X014054Y007126D01*
X014038Y007157D02*
X013914Y007157D01*
X013897Y007126D02*
X013897Y007126D01*
X013921Y007195D02*
X014032Y007195D01*
X014032Y007232D02*
X013921Y007232D01*
X013921Y007270D02*
X014032Y007270D01*
X014032Y007308D02*
X013921Y007308D01*
X013921Y007346D02*
X014032Y007346D01*
X014032Y007384D02*
X013921Y007384D01*
X013921Y007422D02*
X014032Y007422D01*
X014032Y007471D02*
X014427Y007471D01*
X014427Y007827D01*
X014136Y007827D01*
X014105Y007819D01*
X014078Y007803D01*
X014056Y007781D01*
X014040Y007753D01*
X014032Y007723D01*
X014032Y007471D01*
X014032Y007498D02*
X013921Y007498D01*
X013921Y007536D02*
X014032Y007536D01*
X014032Y007574D02*
X013921Y007574D01*
X013921Y007612D02*
X014032Y007612D01*
X014032Y007650D02*
X013921Y007650D01*
X013921Y007687D02*
X014032Y007687D01*
X014033Y007725D02*
X013921Y007725D01*
X013909Y007763D02*
X014046Y007763D01*
X014076Y007801D02*
X013880Y007801D01*
X013784Y007915D02*
X015584Y007915D01*
X015620Y007953D02*
X013822Y007953D01*
X013892Y007991D02*
X013931Y007991D01*
X013931Y008029D02*
X013892Y008029D01*
X013892Y008067D02*
X013931Y008067D01*
X013931Y008104D02*
X013892Y008104D01*
X013892Y008142D02*
X013931Y008142D01*
X013931Y008180D02*
X013892Y008180D01*
X013892Y008218D02*
X013931Y008218D01*
X013931Y008256D02*
X013892Y008256D01*
X013716Y008044D02*
X013730Y008030D01*
X013702Y008030D01*
X013716Y008044D01*
X013526Y007801D02*
X013486Y007801D01*
X013486Y007831D02*
X013195Y007831D01*
X013164Y007823D01*
X013137Y007807D01*
X013115Y007784D01*
X013099Y007757D01*
X013091Y007727D01*
X013091Y007475D01*
X013486Y007475D01*
X013486Y007831D01*
X013486Y007763D02*
X013526Y007763D01*
X013526Y007725D02*
X013486Y007725D01*
X013486Y007687D02*
X013526Y007687D01*
X013526Y007650D02*
X013486Y007650D01*
X013486Y007612D02*
X013526Y007612D01*
X013526Y007574D02*
X013486Y007574D01*
X013486Y007536D02*
X013526Y007536D01*
X013526Y007498D02*
X013486Y007498D01*
X013486Y007460D02*
X012043Y007460D01*
X012043Y007498D02*
X013091Y007498D01*
X013091Y007536D02*
X012043Y007536D01*
X012043Y007574D02*
X013091Y007574D01*
X013091Y007612D02*
X012043Y007612D01*
X012043Y007650D02*
X013091Y007650D01*
X013091Y007687D02*
X012043Y007687D01*
X012043Y007725D02*
X013091Y007725D01*
X013103Y007763D02*
X011608Y007763D01*
X011608Y007725D02*
X011569Y007725D01*
X011569Y007754D02*
X011569Y007162D01*
X011238Y007162D01*
X011208Y007170D01*
X011181Y007186D01*
X011158Y007208D01*
X011142Y007236D01*
X011134Y007266D01*
X011134Y007754D01*
X011569Y007754D01*
X011569Y007763D02*
X011093Y007763D01*
X011093Y007725D02*
X011134Y007725D01*
X011134Y007687D02*
X011093Y007687D01*
X011093Y007650D02*
X011134Y007650D01*
X011134Y007612D02*
X011093Y007612D01*
X011093Y007574D02*
X011134Y007574D01*
X011134Y007536D02*
X011093Y007536D01*
X011093Y007498D02*
X011134Y007498D01*
X011134Y007460D02*
X011093Y007460D01*
X011093Y007422D02*
X011134Y007422D01*
X011134Y007384D02*
X011093Y007384D01*
X011093Y007346D02*
X011134Y007346D01*
X011134Y007308D02*
X011093Y007308D01*
X011093Y007270D02*
X011134Y007270D01*
X011144Y007232D02*
X011093Y007232D01*
X011093Y007195D02*
X011172Y007195D01*
X011093Y007157D02*
X013098Y007157D01*
X013091Y007195D02*
X012005Y007195D01*
X012033Y007232D02*
X013091Y007232D01*
X013091Y007270D02*
X012043Y007270D01*
X012043Y007308D02*
X013091Y007308D01*
X013091Y007346D02*
X012043Y007346D01*
X012043Y007384D02*
X013091Y007384D01*
X013091Y007422D02*
X012043Y007422D01*
X012043Y007801D02*
X013132Y007801D01*
X013223Y008086D02*
X013339Y008086D01*
X013339Y008063D01*
X013373Y008030D01*
X012471Y008030D01*
X012471Y008169D01*
X012528Y008111D01*
X013004Y008111D01*
X013062Y008170D01*
X013062Y008247D01*
X013223Y008086D01*
X013205Y008104D02*
X012471Y008104D01*
X012471Y008067D02*
X013339Y008067D01*
X013167Y008142D02*
X013035Y008142D01*
X013062Y008180D02*
X013129Y008180D01*
X013091Y008218D02*
X013062Y008218D01*
X013334Y008484D02*
X013339Y008484D01*
X013339Y008478D02*
X013210Y008607D01*
X013062Y008607D01*
X013062Y008685D01*
X013008Y008739D01*
X013219Y008739D01*
X013337Y008581D01*
X013381Y008581D01*
X013339Y008540D01*
X013339Y008478D01*
X013339Y008522D02*
X013296Y008522D01*
X013258Y008559D02*
X013359Y008559D01*
X013325Y008597D02*
X013220Y008597D01*
X013296Y008635D02*
X013062Y008635D01*
X013062Y008673D02*
X013268Y008673D01*
X013240Y008711D02*
X013037Y008711D01*
X013081Y008859D02*
X013082Y008865D01*
X013082Y009077D01*
X012786Y009077D01*
X012786Y009116D01*
X013082Y009116D01*
X013082Y009329D01*
X013074Y009360D01*
X013058Y009387D01*
X013036Y009409D01*
X013009Y009425D01*
X012978Y009433D01*
X012785Y009433D01*
X012785Y009117D01*
X012746Y009117D01*
X012746Y009433D01*
X012553Y009433D01*
X012523Y009425D01*
X012495Y009409D01*
X012473Y009387D01*
X012457Y009360D01*
X012449Y009329D01*
X012449Y009116D01*
X012746Y009116D01*
X012746Y009077D01*
X012449Y009077D01*
X012449Y008865D01*
X012451Y008859D01*
X012421Y008859D01*
X012385Y008822D01*
X012038Y008821D01*
X012043Y008841D01*
X012043Y009329D01*
X011608Y009329D01*
X011608Y009368D01*
X012043Y009368D01*
X012043Y009857D01*
X012035Y009887D01*
X012019Y009914D01*
X011997Y009937D01*
X011969Y009952D01*
X011945Y009959D01*
X013219Y009959D01*
X013219Y009841D01*
X013615Y009445D01*
X013557Y009445D01*
X013557Y009148D01*
X013518Y009148D01*
X013518Y009445D01*
X013423Y009445D01*
X013393Y009437D01*
X013366Y009421D01*
X013343Y009399D01*
X013328Y009371D01*
X013319Y009341D01*
X013319Y009148D01*
X013518Y009148D01*
X013518Y009109D01*
X013319Y009109D01*
X013319Y008916D01*
X013328Y008885D01*
X013343Y008858D01*
X013366Y008836D01*
X013383Y008826D01*
X013303Y008826D01*
X013285Y008850D01*
X013275Y008852D01*
X013268Y008859D01*
X013227Y008859D01*
X013187Y008864D01*
X013179Y008859D01*
X013081Y008859D01*
X013082Y008863D02*
X013185Y008863D01*
X013198Y008863D02*
X013341Y008863D01*
X013323Y008901D02*
X013082Y008901D01*
X013082Y008939D02*
X013319Y008939D01*
X013319Y008976D02*
X013082Y008976D01*
X013082Y009014D02*
X013319Y009014D01*
X013319Y009052D02*
X013082Y009052D01*
X013082Y009128D02*
X013518Y009128D01*
X013518Y009166D02*
X013557Y009166D01*
X013557Y009204D02*
X013518Y009204D01*
X013518Y009242D02*
X013557Y009242D01*
X013557Y009280D02*
X013518Y009280D01*
X013518Y009318D02*
X013557Y009318D01*
X013557Y009356D02*
X013518Y009356D01*
X013518Y009394D02*
X013557Y009394D01*
X013557Y009431D02*
X013518Y009431D01*
X013590Y009469D02*
X012043Y009469D01*
X012043Y009431D02*
X012547Y009431D01*
X012480Y009394D02*
X012043Y009394D01*
X012043Y009318D02*
X012449Y009318D01*
X012449Y009280D02*
X012043Y009280D01*
X012043Y009242D02*
X012449Y009242D01*
X012449Y009204D02*
X012043Y009204D01*
X012043Y009166D02*
X012449Y009166D01*
X012449Y009128D02*
X012043Y009128D01*
X012043Y009090D02*
X012746Y009090D01*
X012746Y009128D02*
X012785Y009128D01*
X012786Y009090D02*
X013319Y009090D01*
X013319Y009166D02*
X013082Y009166D01*
X013082Y009204D02*
X013319Y009204D01*
X013319Y009242D02*
X013082Y009242D01*
X013082Y009280D02*
X013319Y009280D01*
X013319Y009318D02*
X013082Y009318D01*
X013075Y009356D02*
X013323Y009356D01*
X013340Y009394D02*
X013052Y009394D01*
X012984Y009431D02*
X013384Y009431D01*
X013514Y009545D02*
X012043Y009545D01*
X012043Y009507D02*
X013552Y009507D01*
X013476Y009583D02*
X012043Y009583D01*
X012043Y009621D02*
X013438Y009621D01*
X013401Y009659D02*
X012043Y009659D01*
X012043Y009697D02*
X013363Y009697D01*
X013325Y009735D02*
X012043Y009735D01*
X012043Y009773D02*
X013287Y009773D01*
X013249Y009811D02*
X012043Y009811D01*
X012043Y009849D02*
X013219Y009849D01*
X013219Y009886D02*
X012035Y009886D01*
X012009Y009924D02*
X013219Y009924D01*
X012785Y009431D02*
X012746Y009431D01*
X012746Y009394D02*
X012785Y009394D01*
X012785Y009356D02*
X012746Y009356D01*
X012746Y009318D02*
X012785Y009318D01*
X012785Y009280D02*
X012746Y009280D01*
X012746Y009242D02*
X012785Y009242D01*
X012785Y009204D02*
X012746Y009204D01*
X012746Y009166D02*
X012785Y009166D01*
X012449Y009052D02*
X012043Y009052D01*
X012043Y009014D02*
X012449Y009014D01*
X012449Y008976D02*
X012043Y008976D01*
X012043Y008939D02*
X012449Y008939D01*
X012449Y008901D02*
X012043Y008901D01*
X012043Y008863D02*
X012450Y008863D01*
X012387Y008825D02*
X012039Y008825D01*
X012471Y008739D02*
X012471Y008687D01*
X012523Y008739D01*
X012471Y008739D01*
X012471Y008711D02*
X012495Y008711D01*
X012471Y008142D02*
X012497Y008142D01*
X012417Y007915D02*
X012043Y007915D01*
X012043Y007877D02*
X015546Y007877D01*
X015508Y007839D02*
X012043Y007839D01*
X011608Y007687D02*
X011569Y007687D01*
X011569Y007650D02*
X011608Y007650D01*
X011608Y007612D02*
X011569Y007612D01*
X011569Y007574D02*
X011608Y007574D01*
X011608Y007536D02*
X011569Y007536D01*
X011569Y007498D02*
X011608Y007498D01*
X011608Y007460D02*
X011569Y007460D01*
X011569Y007422D02*
X011608Y007422D01*
X011608Y007384D02*
X011569Y007384D01*
X011569Y007346D02*
X011608Y007346D01*
X011608Y007308D02*
X011569Y007308D01*
X011569Y007270D02*
X011608Y007270D01*
X011608Y007232D02*
X011569Y007232D01*
X011569Y007195D02*
X011608Y007195D01*
X011134Y007801D02*
X011093Y007801D01*
X011093Y007839D02*
X011134Y007839D01*
X011134Y007877D02*
X011093Y007877D01*
X011093Y007915D02*
X011134Y007915D01*
X011134Y007953D02*
X011093Y007953D01*
X011093Y007991D02*
X011134Y007991D01*
X011134Y008029D02*
X011093Y008029D01*
X011093Y008067D02*
X011134Y008067D01*
X011134Y008104D02*
X011093Y008104D01*
X011093Y008142D02*
X011134Y008142D01*
X011134Y008180D02*
X011093Y008180D01*
X011123Y008218D02*
X011134Y008218D01*
X010778Y008384D02*
X010744Y008384D01*
X010747Y008389D01*
X010756Y008420D01*
X010756Y009065D01*
X009042Y009065D01*
X009042Y009105D01*
X010756Y009105D01*
X010756Y009750D01*
X010747Y009781D01*
X010732Y009808D01*
X010709Y009830D01*
X010682Y009846D01*
X010652Y009854D01*
X009041Y009854D01*
X009041Y009105D01*
X009002Y009105D01*
X009002Y009854D01*
X007392Y009854D01*
X007361Y009846D01*
X007334Y009830D01*
X007313Y009809D01*
X007313Y009959D01*
X011232Y009959D01*
X011208Y009952D01*
X011181Y009937D01*
X011158Y009914D01*
X011142Y009887D01*
X011134Y009857D01*
X011134Y009368D01*
X011569Y009368D01*
X011569Y009329D01*
X011134Y009329D01*
X011134Y008841D01*
X011140Y008818D01*
X010768Y008817D01*
X010778Y008384D01*
X010777Y008408D02*
X010752Y008408D01*
X010756Y008446D02*
X010776Y008446D01*
X010775Y008484D02*
X010756Y008484D01*
X010756Y008522D02*
X010774Y008522D01*
X010774Y008559D02*
X010756Y008559D01*
X010756Y008597D02*
X010773Y008597D01*
X010772Y008635D02*
X010756Y008635D01*
X010756Y008673D02*
X010771Y008673D01*
X010770Y008711D02*
X010756Y008711D01*
X010756Y008749D02*
X010769Y008749D01*
X010768Y008787D02*
X010756Y008787D01*
X010756Y008825D02*
X011139Y008825D01*
X011134Y008863D02*
X010756Y008863D01*
X010756Y008901D02*
X011134Y008901D01*
X011134Y008939D02*
X010756Y008939D01*
X010756Y008976D02*
X011134Y008976D01*
X011134Y009014D02*
X010756Y009014D01*
X010756Y009052D02*
X011134Y009052D01*
X011134Y009090D02*
X009042Y009090D01*
X009041Y009128D02*
X009002Y009128D01*
X009002Y009166D02*
X009041Y009166D01*
X009041Y009204D02*
X009002Y009204D01*
X009002Y009242D02*
X009041Y009242D01*
X009041Y009280D02*
X009002Y009280D01*
X009002Y009318D02*
X009041Y009318D01*
X009041Y009356D02*
X009002Y009356D01*
X009002Y009394D02*
X009041Y009394D01*
X009041Y009431D02*
X009002Y009431D01*
X009002Y009469D02*
X009041Y009469D01*
X009041Y009507D02*
X009002Y009507D01*
X009002Y009545D02*
X009041Y009545D01*
X009041Y009583D02*
X009002Y009583D01*
X009002Y009621D02*
X009041Y009621D01*
X009041Y009659D02*
X009002Y009659D01*
X009002Y009697D02*
X009041Y009697D01*
X009041Y009735D02*
X009002Y009735D01*
X009002Y009773D02*
X009041Y009773D01*
X009041Y009811D02*
X009002Y009811D01*
X009002Y009849D02*
X009041Y009849D01*
X007370Y009849D02*
X007313Y009849D01*
X007313Y009886D02*
X011142Y009886D01*
X011134Y009849D02*
X010673Y009849D01*
X010729Y009811D02*
X011134Y009811D01*
X011134Y009773D02*
X010750Y009773D01*
X010756Y009735D02*
X011134Y009735D01*
X011134Y009697D02*
X010756Y009697D01*
X010756Y009659D02*
X011134Y009659D01*
X011134Y009621D02*
X010756Y009621D01*
X010756Y009583D02*
X011134Y009583D01*
X011134Y009545D02*
X010756Y009545D01*
X010756Y009507D02*
X011134Y009507D01*
X011134Y009469D02*
X010756Y009469D01*
X010756Y009431D02*
X011134Y009431D01*
X011134Y009394D02*
X010756Y009394D01*
X010756Y009356D02*
X011569Y009356D01*
X011608Y009356D02*
X012456Y009356D01*
X011134Y009318D02*
X010756Y009318D01*
X010756Y009280D02*
X011134Y009280D01*
X011134Y009242D02*
X010756Y009242D01*
X010756Y009204D02*
X011134Y009204D01*
X011134Y009166D02*
X010756Y009166D01*
X010756Y009128D02*
X011134Y009128D01*
X011168Y009924D02*
X007313Y009924D01*
X007313Y009811D02*
X007314Y009811D01*
X007309Y007953D02*
X007195Y007953D01*
X007195Y007915D02*
X007292Y007915D01*
X007288Y007877D02*
X007195Y007877D01*
X007195Y007839D02*
X007288Y007839D01*
X007288Y007801D02*
X007195Y007801D01*
X007195Y007763D02*
X007288Y007763D01*
X007288Y007725D02*
X007195Y007725D01*
X007195Y007687D02*
X007288Y007687D01*
X007288Y007650D02*
X007195Y007650D01*
X007195Y007612D02*
X007288Y007612D01*
X007288Y007574D02*
X007195Y007574D01*
X007195Y007536D02*
X007288Y007536D01*
X007288Y007498D02*
X007195Y007498D01*
X007195Y007460D02*
X007288Y007460D01*
X007288Y007422D02*
X007195Y007422D01*
X007195Y007384D02*
X007288Y007384D01*
X007288Y007346D02*
X007195Y007346D01*
X007195Y007308D02*
X007288Y007308D01*
X007288Y007270D02*
X007195Y007270D01*
X007195Y006323D02*
X014956Y006323D01*
X014906Y006285D02*
X007195Y006285D01*
X007195Y006247D02*
X014856Y006247D01*
X014806Y006209D02*
X007195Y006209D01*
X007195Y006171D02*
X014755Y006171D01*
X014825Y006360D02*
X015007Y006360D01*
X015057Y006398D02*
X014852Y006398D01*
X014862Y006436D02*
X015107Y006436D01*
X015157Y006474D02*
X014862Y006474D01*
X014862Y006512D02*
X015208Y006512D01*
X015258Y006550D02*
X014862Y006550D01*
X014862Y006588D02*
X015308Y006588D01*
X015358Y006626D02*
X014862Y006626D01*
X014862Y006664D02*
X015408Y006664D01*
X014864Y007195D02*
X014862Y007195D01*
X014862Y007232D02*
X014901Y007232D01*
X014939Y007270D02*
X014862Y007270D01*
X014862Y007308D02*
X014977Y007308D01*
X015015Y007346D02*
X014862Y007346D01*
X014862Y007384D02*
X015053Y007384D01*
X015091Y007422D02*
X014862Y007422D01*
X014862Y007498D02*
X015167Y007498D01*
X015205Y007536D02*
X014862Y007536D01*
X014862Y007574D02*
X015243Y007574D01*
X015281Y007612D02*
X014862Y007612D01*
X014862Y007650D02*
X015319Y007650D01*
X015356Y007687D02*
X014862Y007687D01*
X014861Y007725D02*
X015394Y007725D01*
X015432Y007763D02*
X014848Y007763D01*
X014817Y007801D02*
X015470Y007801D01*
X015344Y007991D02*
X015305Y007991D01*
X015305Y008029D02*
X015344Y008029D01*
X015344Y008067D02*
X015305Y008067D01*
X015305Y008104D02*
X015344Y008104D01*
X015344Y008142D02*
X015305Y008142D01*
X015305Y008180D02*
X015344Y008180D01*
X015344Y008218D02*
X015305Y008218D01*
X015305Y008256D02*
X015344Y008256D01*
X015597Y007991D02*
X015620Y007991D01*
X015960Y008029D02*
X015987Y008013D01*
X016018Y008005D01*
X016230Y008005D01*
X016230Y008301D01*
X016230Y008294D02*
X016270Y008294D01*
X016270Y008256D02*
X016230Y008256D01*
X016230Y008218D02*
X016270Y008218D01*
X016270Y008180D02*
X016230Y008180D01*
X016230Y008142D02*
X016270Y008142D01*
X016270Y008104D02*
X016230Y008104D01*
X016230Y008067D02*
X016270Y008067D01*
X016270Y008029D02*
X016230Y008029D01*
X016270Y008332D02*
X016801Y008332D01*
X015914Y008370D02*
X015856Y008370D01*
X015856Y008408D02*
X015914Y008408D01*
X015914Y008446D02*
X015856Y008446D01*
X015856Y008484D02*
X015914Y008484D01*
X015914Y008522D02*
X015856Y008522D01*
X015856Y008559D02*
X015921Y008559D01*
X015944Y008597D02*
X015856Y008597D01*
X015053Y007991D02*
X014047Y007991D01*
X014103Y008029D02*
X014122Y008029D01*
X014449Y008029D02*
X015009Y008029D01*
X014993Y008067D02*
X014990Y008067D01*
X014466Y007801D02*
X014427Y007801D01*
X014427Y007763D02*
X014466Y007763D01*
X014466Y007725D02*
X014427Y007725D01*
X014427Y007687D02*
X014466Y007687D01*
X014466Y007650D02*
X014427Y007650D01*
X014427Y007612D02*
X014466Y007612D01*
X014466Y007574D02*
X014427Y007574D01*
X014427Y007536D02*
X014466Y007536D01*
X014466Y007498D02*
X014427Y007498D01*
X014427Y007460D02*
X013526Y007460D01*
X014467Y007460D02*
X015129Y007460D01*
X014466Y006626D02*
X014427Y006626D01*
X014427Y006588D02*
X014466Y006588D01*
X014466Y006550D02*
X014427Y006550D01*
X014427Y006512D02*
X014466Y006512D01*
X014466Y006474D02*
X014427Y006474D01*
X014427Y006436D02*
X014466Y006436D01*
X014466Y006398D02*
X014427Y006398D01*
X014427Y006360D02*
X014466Y006360D01*
X010778Y007270D02*
X010756Y007270D01*
X010756Y007308D02*
X010778Y007308D01*
X010778Y007346D02*
X010756Y007346D01*
X010756Y007384D02*
X010778Y007384D01*
X010778Y007422D02*
X010756Y007422D01*
X010756Y007460D02*
X010778Y007460D01*
X010778Y007498D02*
X010756Y007498D01*
X010756Y007536D02*
X010778Y007536D01*
X010778Y007574D02*
X010756Y007574D01*
X010756Y007612D02*
X010778Y007612D01*
X010778Y007650D02*
X010756Y007650D01*
X010756Y007687D02*
X010778Y007687D01*
X010778Y007725D02*
X010756Y007725D01*
X010756Y007763D02*
X010778Y007763D01*
X010778Y007801D02*
X010756Y007801D01*
X010756Y007839D02*
X010778Y007839D01*
X010778Y007877D02*
X010756Y007877D01*
X010752Y007915D02*
X010778Y007915D01*
X010778Y007953D02*
X010734Y007953D01*
X009041Y007157D02*
X009002Y007157D01*
X009002Y007119D02*
X009041Y007119D01*
X009041Y007081D02*
X009002Y007081D01*
X009002Y007043D02*
X009041Y007043D01*
X009041Y007005D02*
X009002Y007005D01*
X009002Y006967D02*
X009041Y006967D01*
X009041Y006929D02*
X009002Y006929D01*
X009002Y006891D02*
X009041Y006891D01*
X009041Y006853D02*
X009002Y006853D01*
X009002Y006815D02*
X009041Y006815D01*
X009041Y006778D02*
X009002Y006778D01*
X009002Y006740D02*
X009041Y006740D01*
X009041Y006702D02*
X009002Y006702D01*
X009002Y006664D02*
X009041Y006664D01*
X009041Y006626D02*
X009002Y006626D01*
X009002Y006588D02*
X009041Y006588D01*
X009041Y006550D02*
X009002Y006550D01*
X009002Y006512D02*
X009041Y006512D01*
X009041Y006474D02*
X009002Y006474D01*
X014439Y017991D02*
X014439Y018057D01*
X014450Y018039D01*
X014472Y018017D01*
X014499Y018001D01*
X014530Y017993D01*
X014723Y017993D01*
X014723Y018309D01*
X014762Y018309D01*
X014762Y017993D01*
X014874Y017993D01*
X014872Y017991D01*
X014439Y017991D01*
X014439Y018000D02*
X014504Y018000D01*
X014451Y018038D02*
X014439Y018038D01*
X014723Y018038D02*
X014762Y018038D01*
X014762Y018076D02*
X014723Y018076D01*
X014723Y018114D02*
X014762Y018114D01*
X014762Y018152D02*
X014723Y018152D01*
X014723Y018189D02*
X014762Y018189D01*
X014762Y018227D02*
X014723Y018227D01*
X014723Y018265D02*
X014762Y018265D01*
X014762Y018303D02*
X014723Y018303D01*
X014762Y018309D02*
X014762Y018349D01*
X014723Y018349D01*
X014723Y018665D01*
X014530Y018665D01*
X014499Y018657D01*
X014472Y018641D01*
X014450Y018619D01*
X014439Y018601D01*
X014439Y018962D01*
X014454Y018937D01*
X014476Y018914D01*
X014503Y018899D01*
X014534Y018891D01*
X014726Y018891D01*
X014726Y019207D01*
X014766Y019207D01*
X014766Y019246D01*
X015063Y019246D01*
X015063Y019459D01*
X015054Y019489D01*
X015039Y019517D01*
X015016Y019539D01*
X014989Y019555D01*
X014959Y019563D01*
X014766Y019563D01*
X014766Y019247D01*
X014726Y019247D01*
X014726Y019563D01*
X014534Y019563D01*
X014503Y019555D01*
X014476Y019539D01*
X014454Y019517D01*
X014439Y019492D01*
X014439Y019565D01*
X014833Y019565D01*
X014989Y019722D01*
X015000Y019722D01*
X015070Y019791D01*
X015070Y019792D01*
X015335Y020056D01*
X015335Y019961D01*
X015868Y019961D01*
X015868Y019922D01*
X015335Y019922D01*
X015335Y019807D01*
X015343Y019777D01*
X015359Y019750D01*
X015381Y019727D01*
X015409Y019712D01*
X015439Y019704D01*
X015868Y019704D01*
X015868Y019921D01*
X015907Y019921D01*
X015907Y019704D01*
X016310Y019704D01*
X016289Y019683D01*
X015305Y019683D01*
X015148Y019526D01*
X015148Y018266D01*
X015059Y018177D01*
X015059Y018309D01*
X014762Y018309D01*
X014762Y018341D02*
X015148Y018341D01*
X015148Y018303D02*
X015059Y018303D01*
X015059Y018265D02*
X015147Y018265D01*
X015109Y018227D02*
X015059Y018227D01*
X015059Y018189D02*
X015071Y018189D01*
X015059Y018349D02*
X015059Y018561D01*
X015051Y018592D01*
X015035Y018619D01*
X015013Y018641D01*
X014985Y018657D01*
X014955Y018665D01*
X014762Y018665D01*
X014762Y018349D01*
X015059Y018349D01*
X015059Y018379D02*
X015148Y018379D01*
X015148Y018417D02*
X015059Y018417D01*
X015059Y018455D02*
X015148Y018455D01*
X015148Y018493D02*
X015059Y018493D01*
X015059Y018531D02*
X015148Y018531D01*
X015148Y018569D02*
X015057Y018569D01*
X015042Y018606D02*
X015148Y018606D01*
X015148Y018644D02*
X015007Y018644D01*
X015148Y018682D02*
X014439Y018682D01*
X014439Y018644D02*
X014477Y018644D01*
X014442Y018606D02*
X014439Y018606D01*
X014439Y018720D02*
X015148Y018720D01*
X015148Y018758D02*
X014439Y018758D01*
X014439Y018796D02*
X015148Y018796D01*
X015148Y018834D02*
X014439Y018834D01*
X014439Y018872D02*
X015148Y018872D01*
X015148Y018910D02*
X015008Y018910D01*
X015016Y018914D02*
X015039Y018937D01*
X015054Y018964D01*
X015063Y018994D01*
X015063Y019207D01*
X014766Y019207D01*
X014766Y018891D01*
X014959Y018891D01*
X014989Y018899D01*
X015016Y018914D01*
X015045Y018948D02*
X015148Y018948D01*
X015148Y018986D02*
X015060Y018986D01*
X015063Y019024D02*
X015148Y019024D01*
X015148Y019061D02*
X015063Y019061D01*
X015063Y019099D02*
X015148Y019099D01*
X015148Y019137D02*
X015063Y019137D01*
X015063Y019175D02*
X015148Y019175D01*
X015148Y019213D02*
X014766Y019213D01*
X014766Y019175D02*
X014726Y019175D01*
X014726Y019137D02*
X014766Y019137D01*
X014766Y019099D02*
X014726Y019099D01*
X014726Y019061D02*
X014766Y019061D01*
X014766Y019024D02*
X014726Y019024D01*
X014726Y018986D02*
X014766Y018986D01*
X014766Y018948D02*
X014726Y018948D01*
X014726Y018910D02*
X014766Y018910D01*
X014762Y018644D02*
X014723Y018644D01*
X014723Y018606D02*
X014762Y018606D01*
X014762Y018569D02*
X014723Y018569D01*
X014723Y018531D02*
X014762Y018531D01*
X014762Y018493D02*
X014723Y018493D01*
X014723Y018455D02*
X014762Y018455D01*
X014762Y018417D02*
X014723Y018417D01*
X014723Y018379D02*
X014762Y018379D01*
X014762Y018000D02*
X014723Y018000D01*
X014484Y018910D02*
X014439Y018910D01*
X014439Y018948D02*
X014447Y018948D01*
X014726Y019251D02*
X014766Y019251D01*
X014766Y019289D02*
X014726Y019289D01*
X014726Y019327D02*
X014766Y019327D01*
X014766Y019365D02*
X014726Y019365D01*
X014726Y019403D02*
X014766Y019403D01*
X014766Y019441D02*
X014726Y019441D01*
X014726Y019479D02*
X014766Y019479D01*
X014766Y019516D02*
X014726Y019516D01*
X014726Y019554D02*
X014766Y019554D01*
X014860Y019592D02*
X015214Y019592D01*
X015176Y019554D02*
X014990Y019554D01*
X015039Y019516D02*
X015148Y019516D01*
X015148Y019479D02*
X015057Y019479D01*
X015063Y019441D02*
X015148Y019441D01*
X015148Y019403D02*
X015063Y019403D01*
X015063Y019365D02*
X015148Y019365D01*
X015148Y019327D02*
X015063Y019327D01*
X015063Y019289D02*
X015148Y019289D01*
X015148Y019251D02*
X015063Y019251D01*
X014898Y019630D02*
X015252Y019630D01*
X015290Y019668D02*
X014935Y019668D01*
X014973Y019706D02*
X015430Y019706D01*
X015365Y019744D02*
X015023Y019744D01*
X015061Y019782D02*
X015342Y019782D01*
X015335Y019820D02*
X015098Y019820D01*
X015136Y019858D02*
X015335Y019858D01*
X015335Y019896D02*
X015174Y019896D01*
X015212Y019933D02*
X015868Y019933D01*
X015868Y019896D02*
X015907Y019896D01*
X015907Y019858D02*
X015868Y019858D01*
X015868Y019820D02*
X015907Y019820D01*
X015907Y019782D02*
X015868Y019782D01*
X015868Y019744D02*
X015907Y019744D01*
X015907Y019706D02*
X015868Y019706D01*
X015335Y019971D02*
X015250Y019971D01*
X015288Y020009D02*
X015335Y020009D01*
X015335Y020047D02*
X015326Y020047D01*
X015233Y020123D02*
X014801Y020123D01*
X014801Y020113D02*
X014801Y020152D01*
X014762Y020152D01*
X014762Y020468D01*
X014569Y020468D01*
X014539Y020460D01*
X014518Y020448D01*
X014518Y020732D01*
X014542Y020718D01*
X014573Y020709D01*
X014766Y020709D01*
X014766Y021026D01*
X014805Y021026D01*
X014805Y020709D01*
X014998Y020709D01*
X015029Y020718D01*
X015056Y020733D01*
X015078Y020756D01*
X015094Y020783D01*
X015102Y020813D01*
X015102Y020871D01*
X015352Y020621D01*
X015343Y020606D01*
X015335Y020575D01*
X015335Y020461D01*
X015868Y020461D01*
X015868Y020422D01*
X015335Y020422D01*
X015335Y020307D01*
X015343Y020277D01*
X015359Y020250D01*
X015359Y020249D01*
X015098Y019988D01*
X015098Y020113D01*
X014801Y020113D01*
X014801Y020152D02*
X015098Y020152D01*
X015098Y020365D01*
X015090Y020395D01*
X015074Y020422D01*
X015052Y020445D01*
X015025Y020460D01*
X014994Y020468D01*
X014801Y020468D01*
X014801Y020152D01*
X014801Y020161D02*
X014762Y020161D01*
X014762Y020199D02*
X014801Y020199D01*
X014801Y020237D02*
X014762Y020237D01*
X014762Y020275D02*
X014801Y020275D01*
X014801Y020313D02*
X014762Y020313D01*
X014762Y020351D02*
X014801Y020351D01*
X014801Y020388D02*
X014762Y020388D01*
X014762Y020426D02*
X014801Y020426D01*
X014801Y020464D02*
X014762Y020464D01*
X014553Y020464D02*
X014518Y020464D01*
X014518Y020502D02*
X015335Y020502D01*
X015335Y020464D02*
X015010Y020464D01*
X015070Y020426D02*
X015868Y020426D01*
X015335Y020388D02*
X015092Y020388D01*
X015098Y020351D02*
X015335Y020351D01*
X015335Y020313D02*
X015098Y020313D01*
X015098Y020275D02*
X015345Y020275D01*
X015347Y020237D02*
X015098Y020237D01*
X015098Y020199D02*
X015309Y020199D01*
X015271Y020161D02*
X015098Y020161D01*
X015098Y020085D02*
X015195Y020085D01*
X015157Y020047D02*
X015098Y020047D01*
X015098Y020009D02*
X015119Y020009D01*
X015335Y020540D02*
X014518Y020540D01*
X014518Y020578D02*
X015336Y020578D01*
X015349Y020616D02*
X014518Y020616D01*
X014518Y020654D02*
X015319Y020654D01*
X015281Y020692D02*
X014518Y020692D01*
X014518Y020730D02*
X014522Y020730D01*
X014766Y020730D02*
X014805Y020730D01*
X014805Y020768D02*
X014766Y020768D01*
X014766Y020805D02*
X014805Y020805D01*
X014805Y020843D02*
X014766Y020843D01*
X014766Y020881D02*
X014805Y020881D01*
X014805Y020919D02*
X014766Y020919D01*
X014766Y020957D02*
X014805Y020957D01*
X014805Y020995D02*
X014766Y020995D01*
X015102Y020843D02*
X015129Y020843D01*
X015100Y020805D02*
X015167Y020805D01*
X015205Y020768D02*
X015085Y020768D01*
X015049Y020730D02*
X015243Y020730D01*
X014502Y019554D02*
X014439Y019554D01*
X014439Y019516D02*
X014453Y019516D01*
X017471Y018708D02*
X017486Y018704D01*
X017915Y018704D01*
X017915Y018921D01*
X017955Y018921D01*
X017955Y018704D01*
X018384Y018704D01*
X018414Y018712D01*
X018442Y018727D01*
X018464Y018750D01*
X018480Y018777D01*
X018488Y018807D01*
X018488Y018922D01*
X017955Y018922D01*
X017955Y018961D01*
X018488Y018961D01*
X018488Y019075D01*
X018483Y019093D01*
X018770Y019093D01*
X019057Y018805D01*
X019047Y018799D01*
X019024Y018777D01*
X019009Y018749D01*
X019000Y018719D01*
X019000Y018506D01*
X019297Y018506D01*
X019297Y018467D01*
X019000Y018467D01*
X019000Y018311D01*
X018612Y018699D01*
X017471Y018699D01*
X017471Y018708D01*
X017915Y018720D02*
X017955Y018720D01*
X017955Y018758D02*
X017915Y018758D01*
X017915Y018796D02*
X017955Y018796D01*
X017955Y018834D02*
X017915Y018834D01*
X017915Y018872D02*
X017955Y018872D01*
X017955Y018910D02*
X017915Y018910D01*
X017955Y018948D02*
X018915Y018948D01*
X018877Y018986D02*
X018488Y018986D01*
X018488Y019024D02*
X018839Y019024D01*
X018801Y019061D02*
X018488Y019061D01*
X018488Y018910D02*
X018953Y018910D01*
X018991Y018872D02*
X018488Y018872D01*
X018488Y018834D02*
X019029Y018834D01*
X019044Y018796D02*
X018485Y018796D01*
X018469Y018758D02*
X019014Y018758D01*
X019001Y018720D02*
X018429Y018720D01*
X018629Y018682D02*
X019000Y018682D01*
X019000Y018644D02*
X018667Y018644D01*
X018705Y018606D02*
X019000Y018606D01*
X019000Y018569D02*
X018743Y018569D01*
X018781Y018531D02*
X019000Y018531D01*
X019000Y018455D02*
X018857Y018455D01*
X018895Y018417D02*
X019000Y018417D01*
X019000Y018379D02*
X018932Y018379D01*
X018970Y018341D02*
X019000Y018341D01*
X018819Y018493D02*
X019297Y018493D01*
X019297Y018467D02*
X019337Y018467D01*
X019337Y018150D01*
X019530Y018150D01*
X019557Y018158D01*
X019557Y018148D01*
X019597Y018109D01*
X019203Y018109D01*
X019161Y018150D01*
X019297Y018150D01*
X019297Y018467D01*
X019297Y018455D02*
X019337Y018455D01*
X019337Y018417D02*
X019297Y018417D01*
X019297Y018379D02*
X019337Y018379D01*
X019337Y018341D02*
X019297Y018341D01*
X019297Y018303D02*
X019337Y018303D01*
X019337Y018265D02*
X019297Y018265D01*
X019297Y018227D02*
X019337Y018227D01*
X019337Y018189D02*
X019297Y018189D01*
X019297Y018152D02*
X019337Y018152D01*
X019198Y018114D02*
X019592Y018114D01*
X019557Y018152D02*
X019534Y018152D01*
X019012Y019172D02*
X018860Y019172D01*
X018819Y019212D01*
X018720Y019212D01*
X018415Y019212D01*
X018442Y019227D01*
X018464Y019250D01*
X018480Y019277D01*
X018488Y019307D01*
X018488Y019422D01*
X017955Y019422D01*
X017955Y019461D01*
X018488Y019461D01*
X018488Y019575D01*
X018480Y019606D01*
X018464Y019633D01*
X018453Y019644D01*
X019004Y019644D01*
X019004Y019451D01*
X019301Y019451D01*
X019301Y019412D01*
X019004Y019412D01*
X019004Y019199D01*
X019012Y019172D01*
X019011Y019175D02*
X018856Y019175D01*
X019004Y019213D02*
X018417Y019213D01*
X018465Y019251D02*
X019004Y019251D01*
X019004Y019289D02*
X018483Y019289D01*
X018488Y019327D02*
X019004Y019327D01*
X019004Y019365D02*
X018488Y019365D01*
X018488Y019403D02*
X019004Y019403D01*
X019004Y019479D02*
X018488Y019479D01*
X018488Y019516D02*
X019004Y019516D01*
X019004Y019554D02*
X018488Y019554D01*
X018483Y019592D02*
X019004Y019592D01*
X019004Y019630D02*
X018466Y019630D01*
X017955Y019441D02*
X019301Y019441D01*
D34*
X019670Y019850D02*
X019560Y019960D01*
X019550Y019960D01*
X019570Y019981D01*
X019622Y020105D01*
X019622Y020240D01*
X019570Y020364D01*
X019475Y020459D01*
X019350Y020511D01*
X019216Y020511D01*
X019091Y020459D01*
X018996Y020364D01*
X018945Y020240D01*
X018945Y020105D01*
X018996Y019981D01*
X019017Y019960D01*
X018963Y019960D01*
X018845Y019842D01*
X018567Y019842D01*
X018567Y019941D01*
X017936Y019941D01*
X017936Y019941D01*
X018567Y019941D01*
X018567Y020086D01*
X018553Y020136D01*
X018527Y020181D01*
X018503Y020205D01*
X018547Y020249D01*
X018547Y020633D01*
X018442Y020738D01*
X018320Y020738D01*
X018320Y020783D01*
X018359Y020876D01*
X018359Y021010D01*
X018308Y021134D01*
X018213Y021229D01*
X018089Y021280D01*
X017955Y021280D01*
X017831Y021229D01*
X017736Y021134D01*
X017685Y021010D01*
X017685Y020876D01*
X017723Y020783D01*
X017723Y020738D01*
X017428Y020738D01*
X017324Y020633D01*
X017324Y020249D01*
X017367Y020205D01*
X017343Y020181D01*
X017317Y020136D01*
X017304Y020086D01*
X017304Y019941D01*
X017304Y019797D01*
X017233Y019726D01*
X017233Y019562D01*
X017233Y019090D01*
X016518Y019090D01*
X016519Y019086D02*
X016506Y019136D01*
X016480Y019181D01*
X016478Y019183D01*
X016789Y019183D01*
X016892Y019183D01*
X016987Y019222D01*
X017060Y019295D01*
X017099Y019390D01*
X017099Y020892D01*
X017099Y020995D01*
X017060Y021090D01*
X016987Y021162D01*
X016892Y021202D01*
X016739Y021202D01*
X016739Y021328D01*
X016635Y021433D01*
X016093Y021433D01*
X016030Y021369D01*
X015978Y021421D01*
X015997Y021467D01*
X015997Y021601D01*
X015945Y021725D01*
X015851Y021820D01*
X015727Y021871D01*
X015592Y021871D01*
X015469Y021820D01*
X015374Y021725D01*
X015322Y021601D01*
X015322Y021467D01*
X015361Y021373D01*
X015361Y021370D01*
X015320Y021328D01*
X015320Y020933D01*
X015228Y021025D01*
X015228Y021380D01*
X015112Y021496D01*
X014948Y021496D01*
X014436Y021496D01*
X014388Y021448D01*
X014339Y021461D01*
X014116Y021461D01*
X013893Y021461D01*
X013843Y021447D01*
X013798Y021421D01*
X013761Y021384D01*
X013734Y021339D01*
X013721Y021288D01*
X013721Y021046D01*
X014116Y021046D01*
X014116Y021461D01*
X014116Y021046D01*
X014116Y021046D01*
X014116Y021045D01*
X014116Y021045D01*
X014116Y020631D01*
X013893Y020631D01*
X013843Y020644D01*
X013798Y020670D01*
X013761Y020707D01*
X013734Y020753D01*
X013721Y020803D01*
X013721Y021045D01*
X014116Y021045D01*
X014116Y020631D01*
X014320Y020631D01*
X014320Y020527D01*
X013841Y020527D01*
X013769Y020454D01*
X013655Y020454D01*
X013561Y020493D01*
X013427Y020493D01*
X013303Y020442D01*
X013208Y020347D01*
X013157Y020223D01*
X013157Y020089D01*
X013208Y019965D01*
X013303Y019870D01*
X013427Y019819D01*
X013561Y019819D01*
X013655Y019857D01*
X013737Y019857D01*
X013737Y019842D01*
X013841Y019737D01*
X014331Y019737D01*
X014241Y019647D01*
X014241Y019622D01*
X013806Y019622D01*
X013702Y019517D01*
X013702Y019470D01*
X013655Y019470D01*
X013561Y019509D01*
X013427Y019509D01*
X013303Y019457D01*
X013208Y019363D01*
X013157Y019239D01*
X013157Y019105D01*
X013208Y018981D01*
X013303Y018886D01*
X013427Y018834D01*
X013561Y018834D01*
X013655Y018873D01*
X013765Y018873D01*
X013806Y018832D01*
X014241Y018832D01*
X014241Y018744D01*
X014073Y018744D01*
X014073Y018330D01*
X014073Y018330D01*
X014073Y018744D01*
X013850Y018744D01*
X013799Y018731D01*
X013754Y018704D01*
X013717Y018667D01*
X013691Y018622D01*
X013678Y018572D01*
X013678Y018329D01*
X013678Y018086D01*
X013691Y018036D01*
X013717Y017991D01*
X013754Y017954D01*
X013799Y017928D01*
X013850Y017914D01*
X014073Y017914D01*
X014241Y017914D01*
X014241Y017908D01*
X014357Y017792D01*
X014521Y017792D01*
X014954Y017792D01*
X015070Y017908D01*
X015304Y018142D01*
X015304Y018098D01*
X015363Y018038D01*
X015322Y017939D01*
X015322Y017805D01*
X015374Y017681D01*
X015469Y017587D01*
X015592Y017535D01*
X015727Y017535D01*
X015851Y017587D01*
X015945Y017681D01*
X015997Y017805D01*
X015997Y017939D01*
X015974Y017993D01*
X015989Y017993D01*
X016019Y018023D01*
X016030Y018013D01*
X016075Y017987D01*
X016126Y017973D01*
X016368Y017973D01*
X016368Y018368D01*
X016368Y018368D01*
X016368Y017973D01*
X016611Y017973D01*
X016661Y017987D01*
X016707Y018013D01*
X016743Y018050D01*
X016770Y018095D01*
X016783Y018146D01*
X016783Y018368D01*
X016369Y018368D01*
X016369Y018369D01*
X016783Y018369D01*
X016783Y018591D01*
X016770Y018642D01*
X016743Y018687D01*
X016707Y018724D01*
X016661Y018750D01*
X016611Y018764D01*
X016510Y018764D01*
X016519Y018797D01*
X016519Y018941D01*
X015888Y018941D01*
X015888Y018941D01*
X016519Y018941D01*
X016519Y019086D01*
X016519Y018895D02*
X017272Y018895D01*
X017272Y019050D02*
X017272Y018617D01*
X017388Y018501D01*
X017550Y018501D01*
X017550Y018418D01*
X017496Y018364D01*
X017445Y018240D01*
X017445Y018105D01*
X017496Y017981D01*
X017591Y017886D01*
X017716Y017834D01*
X017850Y017834D01*
X017975Y017886D01*
X018070Y017981D01*
X018122Y018105D01*
X018122Y018240D01*
X018070Y018364D01*
X018017Y018418D01*
X018017Y018501D01*
X018530Y018501D01*
X019121Y017911D01*
X019285Y017911D01*
X019679Y017911D01*
X019795Y018027D01*
X019795Y018092D01*
X020257Y018092D01*
X020362Y018196D01*
X020362Y018283D01*
X020420Y018283D01*
X020514Y018244D01*
X020648Y018244D01*
X020772Y018295D01*
X020867Y018390D01*
X020918Y018514D01*
X020918Y018648D01*
X020867Y018772D01*
X020772Y018867D01*
X020648Y018918D01*
X020514Y018918D01*
X020420Y018879D01*
X020259Y018879D01*
X020257Y018882D01*
X019716Y018882D01*
X019705Y018871D01*
X019639Y018937D01*
X019602Y018974D01*
X019639Y018974D01*
X019711Y019045D01*
X019719Y019037D01*
X020261Y019037D01*
X020365Y019141D01*
X020365Y019722D01*
X020289Y019799D01*
X020327Y019892D01*
X020327Y020026D01*
X020276Y020150D01*
X020181Y020245D01*
X020057Y020296D01*
X019923Y020296D01*
X019799Y020245D01*
X019704Y020150D01*
X019653Y020026D01*
X019653Y019892D01*
X019670Y019850D01*
X019661Y019872D02*
X019649Y019872D01*
X019670Y020067D02*
X019606Y020067D01*
X019612Y020262D02*
X019842Y020262D01*
X020139Y020262D02*
X022690Y020262D01*
X022690Y020102D02*
X022780Y020011D01*
X022780Y019626D01*
X022684Y019626D01*
X022580Y019521D01*
X022580Y018783D01*
X022684Y018678D01*
X023344Y018678D01*
X023374Y018708D01*
X023384Y018698D01*
X023429Y018672D01*
X023480Y018658D01*
X023732Y018658D01*
X023732Y019122D01*
X023791Y019122D01*
X023791Y018658D01*
X024044Y018658D01*
X024094Y018672D01*
X024140Y018698D01*
X024177Y018735D01*
X024203Y018780D01*
X024216Y018831D01*
X024216Y019122D01*
X023792Y019122D01*
X023792Y019181D01*
X024216Y019181D01*
X024216Y019340D01*
X024626Y018930D01*
X024691Y018862D01*
X024694Y018862D01*
X024697Y018859D01*
X024791Y018859D01*
X025096Y018852D01*
X025099Y018849D01*
X025193Y018849D01*
X025286Y018847D01*
X025288Y018849D01*
X025292Y018849D01*
X025358Y018916D01*
X025426Y018980D01*
X025426Y018984D01*
X025792Y019349D01*
X025792Y019303D01*
X025805Y019253D01*
X025812Y019241D01*
X025812Y019061D01*
X025812Y018805D01*
X025812Y018563D01*
X025805Y018551D01*
X025792Y018501D01*
X025792Y018390D01*
X025792Y018279D01*
X025796Y018262D01*
X025792Y018245D01*
X025792Y018134D01*
X025792Y018023D01*
X025805Y017973D01*
X025812Y017962D01*
X025812Y017781D01*
X025812Y017464D01*
X025916Y017359D01*
X026950Y017359D01*
X027054Y017464D01*
X027054Y017781D01*
X027054Y017962D01*
X027061Y017973D01*
X027074Y018023D01*
X027074Y018134D01*
X026976Y018134D01*
X026977Y018134D01*
X027074Y018134D01*
X027074Y018245D01*
X027070Y018262D01*
X027074Y018279D01*
X027074Y018390D01*
X026977Y018390D01*
X026976Y018390D01*
X027074Y018390D01*
X027074Y018501D01*
X027061Y018551D01*
X027054Y018563D01*
X027054Y018805D01*
X027054Y019061D01*
X027054Y019241D01*
X027060Y019252D01*
X027276Y019036D01*
X027276Y017300D01*
X027276Y017106D01*
X027409Y016974D01*
X027409Y016900D01*
X027460Y016776D01*
X027555Y016681D01*
X027679Y016630D01*
X027813Y016630D01*
X027937Y016681D01*
X028032Y016776D01*
X028083Y016900D01*
X028083Y017034D01*
X028032Y017158D01*
X027937Y017253D01*
X027813Y017304D01*
X027743Y017304D01*
X027743Y019229D01*
X027607Y019366D01*
X027069Y019903D01*
X027054Y019903D01*
X027054Y020009D01*
X027061Y020020D01*
X027074Y020071D01*
X027074Y020181D01*
X026957Y020181D01*
X026957Y020181D01*
X026957Y020182D01*
X027074Y020182D01*
X027074Y020292D01*
X027061Y020343D01*
X027054Y020354D01*
X027054Y020435D01*
X027642Y020435D01*
X027744Y020435D01*
X027839Y020474D01*
X028371Y021006D01*
X028371Y020852D01*
X028371Y020596D01*
X028371Y020340D01*
X028371Y020084D01*
X028371Y019828D01*
X028371Y019572D01*
X028371Y019330D01*
X028364Y019319D01*
X028351Y019269D01*
X028351Y019158D01*
X028468Y019158D01*
X028468Y019158D01*
X028468Y019158D01*
X028351Y019158D01*
X028351Y019047D01*
X028364Y018997D01*
X028371Y018985D01*
X028371Y018805D01*
X028371Y018549D01*
X028371Y018293D01*
X028371Y018037D01*
X028371Y017781D01*
X028371Y017464D01*
X028475Y017359D01*
X028890Y017359D01*
X029796Y016453D01*
X029891Y016414D01*
X029994Y016414D01*
X030463Y016414D01*
X030491Y016386D01*
X030616Y016334D01*
X030750Y016334D01*
X030875Y016386D01*
X030970Y016481D01*
X030988Y016523D01*
X031072Y016413D01*
X031079Y016396D01*
X031103Y016372D01*
X031124Y016345D01*
X031139Y016336D01*
X031152Y016323D01*
X031183Y016310D01*
X031213Y016293D01*
X031230Y016291D01*
X031247Y016284D01*
X031281Y016284D01*
X031315Y016280D01*
X031332Y016284D01*
X031378Y016284D01*
X031406Y016256D01*
X031531Y016204D01*
X031665Y016204D01*
X031790Y016256D01*
X031885Y016351D01*
X031936Y016475D01*
X031936Y016610D01*
X031885Y016734D01*
X031790Y016829D01*
X031665Y016881D01*
X031531Y016881D01*
X031406Y016829D01*
X031405Y016828D01*
X030543Y017958D01*
X030546Y018186D01*
X030555Y018177D01*
X030589Y018143D01*
X030592Y018142D01*
X030595Y018139D01*
X030639Y018122D01*
X030684Y018104D01*
X030688Y018104D01*
X030691Y018103D01*
X030739Y018104D01*
X031485Y018104D01*
X031541Y018047D01*
X031665Y017996D01*
X031800Y017996D01*
X031924Y018047D01*
X032018Y018142D01*
X032070Y018266D01*
X032070Y018400D01*
X032018Y018524D01*
X031997Y018545D01*
X032038Y018586D01*
X032090Y018710D01*
X032090Y018844D01*
X032038Y018968D01*
X031944Y019063D01*
X031820Y019114D01*
X031685Y019114D01*
X031592Y019076D01*
X031327Y019354D01*
X031327Y021192D01*
X031288Y021287D01*
X031215Y021359D01*
X030743Y021832D01*
X030648Y021871D01*
X030545Y021871D01*
X028088Y021871D01*
X027993Y021832D01*
X027921Y021759D01*
X027369Y021208D01*
X026955Y021208D01*
X026950Y021212D01*
X025916Y021212D01*
X025812Y021108D01*
X025812Y020852D01*
X025812Y020804D01*
X025730Y020804D01*
X025350Y020804D01*
X025350Y020836D01*
X025245Y020941D01*
X024704Y020941D01*
X024599Y020836D01*
X024599Y020255D01*
X024629Y020225D01*
X024619Y020215D01*
X024593Y020169D01*
X024579Y020119D01*
X024579Y019877D01*
X024974Y019877D01*
X024974Y019876D01*
X024579Y019876D01*
X024579Y019637D01*
X024221Y019996D01*
X024056Y019996D01*
X024092Y020017D01*
X024129Y020054D01*
X024155Y020099D01*
X024169Y020149D01*
X024169Y020372D01*
X023754Y020372D01*
X023754Y020373D01*
X023754Y020373D01*
X023754Y020768D01*
X023997Y020768D01*
X024047Y020754D01*
X024092Y020728D01*
X024129Y020691D01*
X024155Y020646D01*
X024169Y020595D01*
X024169Y020373D01*
X023754Y020373D01*
X023754Y020768D01*
X023511Y020768D01*
X023461Y020754D01*
X023416Y020728D01*
X023405Y020718D01*
X023375Y020748D01*
X022794Y020748D01*
X022690Y020643D01*
X022690Y020102D01*
X022724Y020067D02*
X020310Y020067D01*
X020319Y019872D02*
X022780Y019872D01*
X022780Y019676D02*
X020365Y019676D01*
X020365Y019481D02*
X022580Y019481D01*
X022580Y019286D02*
X020365Y019286D01*
X020315Y019090D02*
X022580Y019090D01*
X022580Y018895D02*
X020705Y018895D01*
X020457Y018895D02*
X019681Y018895D01*
X018723Y018309D02*
X018093Y018309D01*
X018122Y018113D02*
X018918Y018113D01*
X019114Y017918D02*
X018007Y017918D01*
X017559Y017918D02*
X015997Y017918D01*
X015962Y017722D02*
X022438Y017722D01*
X022430Y017731D02*
X022467Y017694D01*
X022512Y017668D01*
X022563Y017654D01*
X022805Y017654D01*
X022805Y018049D01*
X022805Y018049D01*
X022805Y017654D01*
X023048Y017654D01*
X023098Y017668D01*
X023144Y017694D01*
X023154Y017704D01*
X023184Y017674D01*
X023765Y017674D01*
X023822Y017731D01*
X023964Y017731D01*
X024057Y017693D01*
X024191Y017693D01*
X024315Y017744D01*
X024410Y017839D01*
X024461Y017963D01*
X024461Y018097D01*
X024410Y018221D01*
X024315Y018316D01*
X024191Y018367D01*
X024057Y018367D01*
X023964Y018328D01*
X023861Y018328D01*
X023765Y018425D01*
X023184Y018425D01*
X023154Y018395D01*
X023144Y018405D01*
X023098Y018431D01*
X023048Y018445D01*
X022805Y018445D01*
X022563Y018445D01*
X022512Y018431D01*
X022467Y018405D01*
X022430Y018368D01*
X022404Y018323D01*
X022390Y018273D01*
X022390Y018050D01*
X022805Y018050D01*
X022805Y018445D01*
X022805Y018050D01*
X022805Y018050D01*
X022805Y018049D01*
X022390Y018049D01*
X022390Y017827D01*
X022404Y017776D01*
X022430Y017731D01*
X022390Y017918D02*
X019686Y017918D01*
X020279Y018113D02*
X022390Y018113D01*
X022400Y018309D02*
X020785Y018309D01*
X020914Y018504D02*
X025793Y018504D01*
X025792Y018390D02*
X025890Y018390D01*
X025792Y018390D01*
X025792Y018309D02*
X024322Y018309D01*
X024455Y018113D02*
X025792Y018113D01*
X025792Y018134D02*
X025890Y018134D01*
X025890Y018134D01*
X025792Y018134D01*
X025812Y017918D02*
X024443Y017918D01*
X024263Y017722D02*
X025812Y017722D01*
X025812Y017527D02*
X010843Y017527D01*
X010843Y017722D02*
X015357Y017722D01*
X015322Y017918D02*
X015079Y017918D01*
X015275Y018113D02*
X015304Y018113D01*
X015660Y018329D02*
X015660Y017872D01*
X015660Y018329D02*
X015699Y018369D01*
X016368Y018309D02*
X016368Y018309D01*
X016368Y018113D02*
X016368Y018113D01*
X016774Y018113D02*
X017445Y018113D01*
X017473Y018309D02*
X016783Y018309D01*
X016783Y018504D02*
X017386Y018504D01*
X017272Y018699D02*
X016731Y018699D01*
X017233Y019090D02*
X017272Y019050D01*
X017233Y019286D02*
X017050Y019286D01*
X017099Y019481D02*
X017233Y019481D01*
X017233Y019676D02*
X017099Y019676D01*
X017099Y019872D02*
X017304Y019872D01*
X017304Y019941D02*
X017935Y019941D01*
X017935Y019941D01*
X017304Y019941D01*
X017304Y020067D02*
X017099Y020067D01*
X017099Y020262D02*
X017324Y020262D01*
X017324Y020458D02*
X017099Y020458D01*
X017099Y020653D02*
X017344Y020653D01*
X017099Y020849D02*
X017696Y020849D01*
X017699Y021044D02*
X017079Y021044D01*
X016739Y021239D02*
X017856Y021239D01*
X018188Y021239D02*
X027401Y021239D01*
X027597Y021435D02*
X015983Y021435D01*
X015985Y021630D02*
X027792Y021630D01*
X027987Y021826D02*
X015836Y021826D01*
X015483Y021826D02*
X006906Y021826D01*
X006906Y022021D02*
X034221Y022021D01*
X034079Y022216D02*
X031703Y022216D01*
X031704Y022217D02*
X031839Y022351D01*
X031912Y022527D01*
X031912Y022718D01*
X031839Y022893D01*
X031704Y023028D01*
X031528Y023101D01*
X031338Y023101D01*
X031162Y023028D01*
X031028Y022893D01*
X030955Y022718D01*
X030955Y022527D01*
X031028Y022351D01*
X031162Y022217D01*
X031338Y022144D01*
X031528Y022144D01*
X031704Y022217D01*
X031864Y022412D02*
X033893Y022412D01*
X034054Y022251D02*
X033542Y022763D01*
X032955Y023189D01*
X032309Y023518D01*
X031912Y023648D01*
X031912Y023527D01*
X031839Y023351D01*
X031704Y023217D01*
X031528Y023144D01*
X031338Y023144D01*
X031162Y023217D01*
X031028Y023351D01*
X030955Y023527D01*
X030955Y023718D01*
X031005Y023840D01*
X030904Y023856D01*
X030853Y023858D01*
X030912Y023718D01*
X030912Y023527D01*
X030839Y023351D01*
X030704Y023217D01*
X030528Y023144D01*
X030338Y023144D01*
X030162Y023217D01*
X030028Y023351D01*
X029955Y023527D01*
X029955Y023718D01*
X030018Y023870D01*
X029848Y023870D01*
X029912Y023718D01*
X029912Y023527D01*
X029839Y023351D01*
X029704Y023217D01*
X029528Y023144D01*
X029338Y023144D01*
X029162Y023217D01*
X029028Y023351D01*
X028955Y023527D01*
X028955Y023718D01*
X029018Y023870D01*
X028848Y023870D01*
X028912Y023718D01*
X028912Y023527D01*
X028839Y023351D01*
X028704Y023217D01*
X028528Y023144D01*
X028338Y023144D01*
X028162Y023217D01*
X028028Y023351D01*
X027955Y023527D01*
X027955Y023718D01*
X028018Y023870D01*
X027848Y023870D01*
X027912Y023718D01*
X027912Y023527D01*
X027839Y023351D01*
X027704Y023217D01*
X027528Y023144D01*
X027338Y023144D01*
X027162Y023217D01*
X027028Y023351D01*
X026955Y023527D01*
X026955Y023718D01*
X027018Y023870D01*
X026848Y023870D01*
X026912Y023718D01*
X026912Y023527D01*
X026839Y023351D01*
X026704Y023217D01*
X026528Y023144D01*
X026338Y023144D01*
X026162Y023217D01*
X026028Y023351D01*
X025955Y023527D01*
X025955Y023718D01*
X026018Y023870D01*
X025848Y023870D01*
X025912Y023718D01*
X025912Y023527D01*
X025839Y023351D01*
X025704Y023217D01*
X025528Y023144D01*
X025338Y023144D01*
X025162Y023217D01*
X025028Y023351D01*
X024955Y023527D01*
X024955Y023718D01*
X025018Y023870D01*
X024848Y023870D01*
X024912Y023718D01*
X024912Y023527D01*
X024839Y023351D01*
X024704Y023217D01*
X024528Y023144D01*
X024338Y023144D01*
X024162Y023217D01*
X024028Y023351D01*
X023955Y023527D01*
X023955Y023718D01*
X024018Y023870D01*
X023848Y023870D01*
X023912Y023718D01*
X023912Y023527D01*
X023839Y023351D01*
X023704Y023217D01*
X023528Y023144D01*
X023338Y023144D01*
X023162Y023217D01*
X023028Y023351D01*
X022955Y023527D01*
X022955Y023718D01*
X023018Y023870D01*
X022848Y023870D01*
X022912Y023718D01*
X022912Y023527D01*
X022839Y023351D01*
X022704Y023217D01*
X022528Y023144D01*
X022338Y023144D01*
X022162Y023217D01*
X022028Y023351D01*
X021955Y023527D01*
X021955Y023718D01*
X022018Y023870D01*
X021848Y023870D01*
X021912Y023718D01*
X021912Y023527D01*
X021839Y023351D01*
X021704Y023217D01*
X021528Y023144D01*
X021338Y023144D01*
X021162Y023217D01*
X021028Y023351D01*
X020955Y023527D01*
X020955Y023718D01*
X021018Y023870D01*
X020848Y023870D01*
X020912Y023718D01*
X020912Y023527D01*
X020839Y023351D01*
X020704Y023217D01*
X020528Y023144D01*
X020338Y023144D01*
X020162Y023217D01*
X020028Y023351D01*
X019955Y023527D01*
X019955Y023718D01*
X020018Y023870D01*
X019848Y023870D01*
X019912Y023718D01*
X019912Y023527D01*
X019839Y023351D01*
X019704Y023217D01*
X019528Y023144D01*
X019338Y023144D01*
X019162Y023217D01*
X019028Y023351D01*
X018955Y023527D01*
X018955Y023718D01*
X019018Y023870D01*
X018848Y023870D01*
X018912Y023718D01*
X018912Y023527D01*
X018839Y023351D01*
X018704Y023217D01*
X018528Y023144D01*
X018338Y023144D01*
X018162Y023217D01*
X018028Y023351D01*
X017955Y023527D01*
X017955Y023718D01*
X018018Y023870D01*
X017848Y023870D01*
X017912Y023718D01*
X017912Y023527D01*
X017839Y023351D01*
X017704Y023217D01*
X017528Y023144D01*
X017338Y023144D01*
X017162Y023217D01*
X017028Y023351D01*
X016955Y023527D01*
X016955Y023718D01*
X017018Y023870D01*
X016848Y023870D01*
X016912Y023718D01*
X016912Y023527D01*
X016839Y023351D01*
X016704Y023217D01*
X016528Y023144D01*
X016338Y023144D01*
X016162Y023217D01*
X016028Y023351D01*
X015955Y023527D01*
X015955Y023718D01*
X016018Y023870D01*
X015848Y023870D01*
X015912Y023718D01*
X015912Y023527D01*
X015839Y023351D01*
X015704Y023217D01*
X015528Y023144D01*
X015338Y023144D01*
X015162Y023217D01*
X015028Y023351D01*
X014955Y023527D01*
X014955Y023718D01*
X015018Y023870D01*
X014848Y023870D01*
X014912Y023718D01*
X014912Y023527D01*
X014839Y023351D01*
X014704Y023217D01*
X014528Y023144D01*
X014338Y023144D01*
X014162Y023217D01*
X014028Y023351D01*
X013955Y023527D01*
X013955Y023718D01*
X014018Y023870D01*
X013848Y023870D01*
X013912Y023718D01*
X013912Y023527D01*
X013839Y023351D01*
X013704Y023217D01*
X013528Y023144D01*
X013338Y023144D01*
X013162Y023217D01*
X013028Y023351D01*
X012955Y023527D01*
X012955Y023718D01*
X013018Y023870D01*
X012848Y023870D01*
X012912Y023718D01*
X012912Y023527D01*
X012839Y023351D01*
X012704Y023217D01*
X012528Y023144D01*
X012338Y023144D01*
X012162Y023217D01*
X012028Y023351D01*
X011955Y023527D01*
X011955Y023718D01*
X012018Y023870D01*
X011848Y023870D01*
X011912Y023718D01*
X011912Y023527D01*
X011839Y023351D01*
X011704Y023217D01*
X011528Y023144D01*
X011338Y023144D01*
X011162Y023217D01*
X011028Y023351D01*
X010955Y023527D01*
X010955Y023718D01*
X011018Y023870D01*
X010848Y023870D01*
X010912Y023718D01*
X010912Y023527D01*
X010839Y023351D01*
X010704Y023217D01*
X010528Y023144D01*
X010338Y023144D01*
X010162Y023217D01*
X010028Y023351D01*
X009955Y023527D01*
X009955Y023718D01*
X010018Y023870D01*
X009866Y023870D01*
X009895Y023814D01*
X009919Y023739D01*
X009932Y023662D01*
X009932Y023624D01*
X009435Y023624D01*
X009435Y023621D01*
X009932Y023621D01*
X009932Y023583D01*
X009919Y023506D01*
X009895Y023431D01*
X009859Y023361D01*
X009813Y023298D01*
X009758Y023242D01*
X009694Y023196D01*
X009624Y023161D01*
X009550Y023136D01*
X009472Y023124D01*
X009435Y023124D01*
X009435Y023621D01*
X009431Y023621D01*
X008935Y023621D01*
X008935Y023583D01*
X008947Y023506D01*
X008971Y023431D01*
X009007Y023361D01*
X009053Y023298D01*
X009108Y023242D01*
X009172Y023196D01*
X009242Y023161D01*
X009316Y023136D01*
X009394Y023124D01*
X009431Y023124D01*
X009431Y023621D01*
X009431Y023624D01*
X008935Y023624D01*
X008935Y023662D01*
X008947Y023739D01*
X008971Y023814D01*
X009000Y023870D01*
X006906Y023870D01*
X006906Y018725D01*
X010245Y018725D01*
X010444Y018725D01*
X010627Y018649D01*
X010767Y018509D01*
X010843Y018326D01*
X010843Y016814D01*
X010849Y016829D01*
X010851Y016831D01*
X010852Y016834D01*
X010891Y016873D01*
X010932Y016914D01*
X010934Y016916D01*
X010936Y016917D01*
X010989Y016939D01*
X011041Y016961D01*
X011044Y016961D01*
X011046Y016962D01*
X011105Y016962D01*
X011160Y016963D01*
X011162Y016962D01*
X014280Y016950D01*
X026389Y016990D01*
X026429Y016995D01*
X026447Y016990D01*
X026466Y016990D01*
X026504Y016974D01*
X026544Y016963D01*
X026559Y016952D01*
X026576Y016945D01*
X026605Y016916D01*
X027573Y016163D01*
X030415Y016163D01*
X030534Y016163D01*
X030644Y016118D01*
X031610Y015151D01*
X032265Y015151D01*
X032370Y015047D01*
X032370Y014399D01*
X032265Y014294D01*
X030981Y014294D01*
X031036Y014239D01*
X031075Y014144D01*
X031075Y014041D01*
X031075Y013990D01*
X031590Y013990D01*
X031590Y013569D01*
X031643Y013569D01*
X031643Y013990D01*
X032217Y013990D01*
X032268Y013977D01*
X032313Y013950D01*
X032350Y013914D01*
X032376Y013868D01*
X032390Y013818D01*
X032390Y013568D01*
X031643Y013568D01*
X031643Y013515D01*
X032390Y013515D01*
X032390Y013266D01*
X032376Y013215D01*
X032350Y013170D01*
X032313Y013133D01*
X032268Y013107D01*
X032217Y013093D01*
X031643Y013093D01*
X031643Y013515D01*
X031590Y013515D01*
X031590Y013093D01*
X031075Y013093D01*
X031075Y012789D01*
X032265Y012789D01*
X032370Y012685D01*
X032370Y012037D01*
X032265Y011932D01*
X031075Y011932D01*
X031075Y010657D01*
X031121Y010611D01*
X032537Y010611D01*
X032640Y010611D01*
X032735Y010572D01*
X032808Y010499D01*
X032847Y010404D01*
X032847Y008229D01*
X032847Y008127D01*
X032808Y008032D01*
X032706Y007930D01*
X032692Y007896D01*
X032652Y007856D01*
X032580Y007783D01*
X032485Y007744D01*
X032337Y007744D01*
X032277Y007684D01*
X031629Y007684D01*
X031525Y007789D01*
X031525Y008236D01*
X031551Y008262D01*
X031525Y008289D01*
X031525Y008736D01*
X031629Y008840D01*
X031825Y008840D01*
X031825Y009245D01*
X031566Y009504D01*
X030434Y009504D01*
X030393Y009500D01*
X030383Y009504D01*
X030372Y009504D01*
X030334Y009519D01*
X030295Y009532D01*
X030287Y009539D01*
X030277Y009543D01*
X030248Y009572D01*
X027951Y011521D01*
X027944Y011523D01*
X027912Y011554D01*
X027878Y011583D01*
X027875Y011589D01*
X027870Y011594D01*
X027852Y011634D01*
X027831Y011674D01*
X027831Y011681D01*
X027828Y011688D01*
X027827Y011732D01*
X027823Y011777D01*
X027825Y011784D01*
X027822Y011916D01*
X027822Y011905D01*
X027770Y011781D01*
X027675Y011686D01*
X027550Y011634D01*
X027416Y011634D01*
X027291Y011686D01*
X027263Y011714D01*
X026790Y011714D01*
X026542Y011465D01*
X026542Y010196D01*
X026995Y010196D01*
X027159Y010196D01*
X027223Y010133D01*
X027223Y010134D01*
X027765Y010134D01*
X027869Y010029D01*
X027869Y009959D01*
X027873Y009958D01*
X028991Y008840D01*
X029277Y008840D01*
X029382Y008736D01*
X029382Y008289D01*
X029355Y008262D01*
X029382Y008236D01*
X029382Y007789D01*
X029277Y007684D01*
X028991Y007684D01*
X027865Y006559D01*
X027865Y006228D01*
X027761Y006123D01*
X027222Y006123D01*
X027159Y006060D01*
X026995Y006060D01*
X026647Y006060D01*
X026483Y006060D01*
X026367Y006176D01*
X026367Y009891D01*
X024692Y008215D01*
X024692Y006583D01*
X024704Y006578D01*
X024839Y006443D01*
X024912Y006268D01*
X024912Y005477D01*
X024839Y005301D01*
X024704Y005167D01*
X024536Y005097D01*
X024704Y005028D01*
X024839Y004893D01*
X024912Y004718D01*
X024912Y004527D01*
X024839Y004351D01*
X024704Y004217D01*
X024528Y004144D01*
X024338Y004144D01*
X024162Y004217D01*
X024028Y004351D01*
X023955Y004527D01*
X023955Y004718D01*
X024028Y004893D01*
X024162Y005028D01*
X024330Y005097D01*
X024162Y005167D01*
X024028Y005301D01*
X023955Y005477D01*
X023955Y006268D01*
X024028Y006443D01*
X024162Y006578D01*
X024175Y006583D01*
X024175Y008271D01*
X024175Y008374D01*
X024214Y008469D01*
X026025Y010279D01*
X026025Y011521D01*
X026025Y011624D01*
X026064Y011719D01*
X026464Y012119D01*
X026537Y012191D01*
X026632Y012231D01*
X027263Y012231D01*
X027291Y012259D01*
X027416Y012311D01*
X027550Y012311D01*
X027675Y012259D01*
X027770Y012164D01*
X027818Y012049D01*
X027794Y012913D01*
X025698Y012913D01*
X025698Y012861D01*
X025594Y012757D01*
X024576Y012757D01*
X024471Y012861D01*
X024471Y013482D01*
X024576Y013586D01*
X025594Y013586D01*
X025698Y013482D01*
X025698Y013430D01*
X028010Y013430D01*
X029040Y013715D01*
X029040Y013866D01*
X029144Y013970D01*
X030442Y013970D01*
X030547Y013866D01*
X030547Y013218D01*
X030442Y013113D01*
X029144Y013113D01*
X029071Y013187D01*
X028309Y012976D01*
X028340Y011869D01*
X030518Y010021D01*
X031622Y010021D01*
X031725Y010021D01*
X031820Y009981D01*
X032230Y009571D01*
X032302Y009499D01*
X032330Y009431D01*
X032330Y010094D01*
X031065Y010094D01*
X030962Y010094D01*
X030867Y010134D01*
X030671Y010331D01*
X030598Y010403D01*
X030559Y010498D01*
X030559Y012054D01*
X030553Y012034D01*
X030527Y011989D01*
X030490Y011952D01*
X030445Y011926D01*
X030394Y011912D01*
X029820Y011912D01*
X029820Y012334D01*
X029767Y012334D01*
X029767Y011912D01*
X029192Y011912D01*
X029142Y011926D01*
X029097Y011952D01*
X029060Y011989D01*
X029033Y012034D01*
X029020Y012084D01*
X029020Y012334D01*
X029767Y012334D01*
X029767Y012387D01*
X029020Y012387D01*
X029020Y012637D01*
X029033Y012687D01*
X029060Y012732D01*
X029097Y012769D01*
X029142Y012796D01*
X029192Y012809D01*
X029767Y012809D01*
X029767Y012387D01*
X029820Y012387D01*
X029820Y012809D01*
X030394Y012809D01*
X030445Y012796D01*
X030490Y012769D01*
X030527Y012732D01*
X030553Y012687D01*
X030559Y012667D01*
X030559Y013986D01*
X030250Y014294D01*
X029144Y014294D01*
X029040Y014399D01*
X029040Y014464D01*
X028208Y014464D01*
X028207Y014464D01*
X028199Y014461D01*
X027591Y013927D01*
X027558Y013895D01*
X027552Y013893D01*
X027547Y013888D01*
X027504Y013874D01*
X027462Y013857D01*
X027456Y013857D01*
X027450Y013855D01*
X027405Y013858D01*
X025698Y013887D01*
X025698Y013846D01*
X025594Y013741D01*
X024576Y013741D01*
X024471Y013846D01*
X024471Y014466D01*
X024576Y014571D01*
X025594Y014571D01*
X025698Y014466D01*
X025698Y014404D01*
X027320Y014377D01*
X027820Y014815D01*
X027842Y014869D01*
X027915Y014942D01*
X028010Y014981D01*
X029040Y014981D01*
X029040Y015047D01*
X029144Y015151D01*
X030442Y015151D01*
X030547Y015047D01*
X030547Y014729D01*
X030863Y014413D01*
X030863Y015047D01*
X030867Y015050D01*
X030351Y015566D01*
X027489Y015566D01*
X027449Y015561D01*
X027430Y015566D01*
X027411Y015566D01*
X027373Y015582D01*
X027334Y015593D01*
X027319Y015604D01*
X027301Y015612D01*
X027273Y015640D01*
X026306Y016393D01*
X014341Y016354D01*
X014340Y016353D01*
X014280Y016354D01*
X014223Y016353D01*
X014222Y016354D01*
X011407Y016364D01*
X011476Y011181D01*
X011533Y011181D01*
X011637Y011076D01*
X011637Y010377D01*
X011533Y010273D01*
X010834Y010273D01*
X010729Y010377D01*
X010729Y010820D01*
X010627Y010718D01*
X010444Y010642D01*
X006906Y010642D01*
X006906Y003371D01*
X009002Y003371D01*
X008971Y003431D01*
X008947Y003506D01*
X008935Y003583D01*
X008935Y003621D01*
X009431Y003621D01*
X009431Y003624D01*
X008935Y003624D01*
X008935Y003662D01*
X008947Y003739D01*
X008971Y003814D01*
X009007Y003884D01*
X009053Y003947D01*
X009108Y004003D01*
X009172Y004049D01*
X009242Y004084D01*
X009316Y004109D01*
X009394Y004121D01*
X009431Y004121D01*
X009431Y003624D01*
X009435Y003624D01*
X009932Y003624D01*
X009932Y003662D01*
X009919Y003739D01*
X009895Y003814D01*
X009859Y003884D01*
X009813Y003947D01*
X009758Y004003D01*
X009694Y004049D01*
X009624Y004084D01*
X009550Y004109D01*
X009472Y004121D01*
X009435Y004121D01*
X009435Y003624D01*
X009435Y003621D01*
X009932Y003621D01*
X009932Y003583D01*
X009919Y003506D01*
X009895Y003431D01*
X009864Y003371D01*
X010020Y003371D01*
X009955Y003527D01*
X009955Y003718D01*
X010028Y003893D01*
X010162Y004028D01*
X010338Y004101D01*
X010528Y004101D01*
X010704Y004028D01*
X010839Y003893D01*
X010912Y003718D01*
X010912Y003527D01*
X010847Y003371D01*
X011020Y003371D01*
X010955Y003527D01*
X010955Y003718D01*
X011028Y003893D01*
X011162Y004028D01*
X011175Y004033D01*
X011175Y004212D01*
X011162Y004217D01*
X011028Y004351D01*
X010955Y004527D01*
X010955Y004718D01*
X010961Y004733D01*
X010859Y004844D01*
X010912Y004718D01*
X010912Y004527D01*
X010839Y004351D01*
X010704Y004217D01*
X010528Y004144D01*
X010338Y004144D01*
X010162Y004217D01*
X010028Y004351D01*
X009955Y004527D01*
X009955Y004718D01*
X010028Y004893D01*
X010162Y005028D01*
X010338Y005101D01*
X010528Y005101D01*
X010683Y005037D01*
X009854Y005942D01*
X007277Y005942D01*
X007113Y005942D01*
X006997Y006058D01*
X006997Y007908D01*
X006997Y008073D01*
X007113Y008189D01*
X007229Y008189D01*
X007115Y008302D01*
X007115Y010041D01*
X007231Y010157D01*
X007395Y010157D01*
X013136Y010157D01*
X013301Y010157D01*
X013417Y010041D01*
X013417Y009923D01*
X013634Y009706D01*
X013669Y009790D01*
X013741Y009863D01*
X013834Y009956D01*
X013834Y010096D01*
X013704Y010096D01*
X013599Y010200D01*
X013599Y010468D01*
X013133Y010468D01*
X013133Y010377D01*
X013029Y010273D01*
X012330Y010273D01*
X012225Y010377D01*
X012225Y011076D01*
X012330Y011181D01*
X013029Y011181D01*
X013133Y011076D01*
X013133Y010985D01*
X013599Y010985D01*
X013599Y011057D01*
X013704Y011161D01*
X014481Y011161D01*
X014586Y011057D01*
X014586Y010200D01*
X014481Y010096D01*
X014351Y010096D01*
X014351Y009900D01*
X014351Y009797D01*
X014312Y009702D01*
X014146Y009537D01*
X014146Y009504D01*
X014458Y009504D01*
X014562Y009399D01*
X014562Y008858D01*
X014458Y008753D01*
X014113Y008753D01*
X014099Y008768D01*
X014084Y008753D01*
X013840Y008753D01*
X013840Y008745D01*
X013838Y008744D01*
X013838Y008741D01*
X013824Y008728D01*
X013855Y008697D01*
X013911Y008697D01*
X013911Y008302D01*
X013912Y008302D01*
X013912Y008697D01*
X014036Y008697D01*
X014086Y008683D01*
X014108Y008671D01*
X014113Y008677D01*
X014458Y008677D01*
X014562Y008572D01*
X014562Y008566D01*
X014930Y008934D01*
X014930Y009234D01*
X015034Y009338D01*
X015615Y009338D01*
X015720Y009234D01*
X015720Y009221D01*
X015855Y009221D01*
X015855Y009261D01*
X015960Y009366D01*
X016541Y009366D01*
X016645Y009261D01*
X016645Y008819D01*
X016719Y008819D01*
X016883Y008819D01*
X016999Y008703D01*
X016999Y008580D01*
X017525Y008580D01*
X017564Y008619D01*
X017637Y008691D01*
X017732Y008731D01*
X017942Y008731D01*
X017942Y008875D01*
X018039Y008973D01*
X018039Y009381D01*
X018078Y009476D01*
X018151Y009548D01*
X018246Y009588D01*
X018349Y009588D01*
X019489Y009588D01*
X020125Y010223D01*
X020125Y011265D01*
X020039Y011351D01*
X020051Y011308D01*
X020051Y011036D01*
X019252Y011036D01*
X019154Y011036D01*
X019154Y011480D01*
X019062Y011480D01*
X019075Y011486D01*
X019170Y011581D01*
X019222Y011705D01*
X019222Y011840D01*
X019170Y011964D01*
X019142Y011993D01*
X019142Y012121D01*
X019142Y012224D01*
X019102Y012319D01*
X019042Y012379D01*
X019042Y012430D01*
X019100Y012430D01*
X019204Y012535D01*
X019204Y012899D01*
X019150Y012953D01*
X019184Y012987D01*
X019211Y013032D01*
X019224Y013083D01*
X019224Y013217D01*
X019224Y013266D01*
X019225Y013265D01*
X019225Y012324D01*
X019225Y012221D01*
X019264Y012126D01*
X019921Y011469D01*
X019879Y011480D01*
X019252Y011480D01*
X019252Y011036D01*
X019252Y010937D01*
X019252Y010493D01*
X019879Y010493D01*
X019929Y010506D01*
X019974Y010533D01*
X020011Y010569D01*
X020037Y010615D01*
X020051Y010665D01*
X020051Y010937D01*
X019252Y010937D01*
X019154Y010937D01*
X019154Y010493D01*
X018527Y010493D01*
X018477Y010506D01*
X018431Y010533D01*
X018394Y010569D01*
X018368Y010615D01*
X018355Y010665D01*
X018355Y010937D01*
X019153Y010937D01*
X019153Y011036D01*
X018355Y011036D01*
X018355Y011308D01*
X018368Y011358D01*
X018394Y011404D01*
X018431Y011441D01*
X018477Y011467D01*
X018527Y011480D01*
X018704Y011480D01*
X018691Y011486D01*
X018596Y011581D01*
X018545Y011705D01*
X018545Y011840D01*
X018596Y011964D01*
X018625Y011993D01*
X018625Y012065D01*
X018564Y012126D01*
X018525Y012221D01*
X018525Y012430D01*
X018361Y012430D01*
X018257Y012535D01*
X018257Y012705D01*
X018229Y012698D01*
X018006Y012698D01*
X018006Y013112D01*
X018006Y013112D01*
X018006Y012698D01*
X017783Y012698D01*
X017733Y012711D01*
X017687Y012737D01*
X017650Y012774D01*
X017624Y012819D01*
X017611Y012870D01*
X017611Y013112D01*
X018006Y013112D01*
X018006Y013113D01*
X017611Y013113D01*
X017611Y013355D01*
X017624Y013406D01*
X017650Y013451D01*
X017661Y013461D01*
X017631Y013491D01*
X017631Y013913D01*
X016952Y013913D01*
X016602Y013540D01*
X016602Y013228D01*
X017611Y013228D01*
X017611Y013033D02*
X011451Y013033D01*
X011448Y013228D02*
X015182Y013228D01*
X015286Y013123D01*
X015828Y013123D01*
X015892Y013187D01*
X015956Y013123D01*
X016497Y013123D01*
X016602Y013228D01*
X016602Y013424D02*
X017635Y013424D01*
X017631Y013619D02*
X016676Y013619D01*
X016860Y013814D02*
X017631Y013814D01*
X018288Y014430D02*
X016888Y014430D01*
X016884Y014431D01*
X016837Y014430D01*
X016789Y014430D01*
X016785Y014428D01*
X016781Y014428D01*
X016757Y014417D01*
X017254Y014914D01*
X019863Y014914D01*
X019891Y014886D01*
X020016Y014834D01*
X020150Y014834D01*
X020275Y014886D01*
X020370Y014981D01*
X020422Y015105D01*
X020422Y015240D01*
X020370Y015364D01*
X020275Y015459D01*
X020150Y015511D01*
X020016Y015511D01*
X019891Y015459D01*
X019863Y015431D01*
X017198Y015431D01*
X017095Y015431D01*
X017000Y015391D01*
X016303Y014695D01*
X016129Y014695D01*
X016024Y014590D01*
X016024Y014351D01*
X015587Y013913D01*
X015286Y013913D01*
X015182Y013809D01*
X015182Y013228D01*
X015182Y013424D02*
X011446Y013424D01*
X011443Y013619D02*
X015182Y013619D01*
X015188Y013814D02*
X011441Y013814D01*
X011438Y014010D02*
X015239Y014010D01*
X015248Y014004D02*
X015299Y013991D01*
X015449Y013991D01*
X015599Y013991D01*
X015649Y014004D01*
X015695Y014031D01*
X015732Y014068D01*
X015758Y014113D01*
X015771Y014163D01*
X015771Y014353D01*
X015771Y014542D01*
X015758Y014593D01*
X015732Y014638D01*
X015695Y014675D01*
X015649Y014701D01*
X015599Y014715D01*
X015449Y014715D01*
X015449Y014353D01*
X015449Y014353D01*
X015771Y014353D01*
X015449Y014353D01*
X015449Y014353D01*
X015449Y014715D01*
X015299Y014715D01*
X015248Y014701D01*
X015203Y014675D01*
X015166Y014638D01*
X015140Y014593D01*
X015126Y014542D01*
X015126Y014353D01*
X015448Y014353D01*
X015448Y014353D01*
X015126Y014353D01*
X015126Y014163D01*
X015140Y014113D01*
X015166Y014068D01*
X015203Y014031D01*
X015248Y014004D01*
X015449Y014010D02*
X015449Y014010D01*
X015449Y013991D02*
X015449Y014352D01*
X015449Y014352D01*
X015449Y013991D01*
X015659Y014010D02*
X015684Y014010D01*
X015771Y014205D02*
X015879Y014205D01*
X015771Y014401D02*
X016024Y014401D01*
X016030Y014596D02*
X015756Y014596D01*
X015449Y014596D02*
X015449Y014596D01*
X015449Y014401D02*
X015449Y014401D01*
X015449Y014205D02*
X015449Y014205D01*
X015126Y014205D02*
X011435Y014205D01*
X011433Y014401D02*
X015126Y014401D01*
X015142Y014596D02*
X011430Y014596D01*
X011428Y014791D02*
X016400Y014791D01*
X016595Y014987D02*
X011425Y014987D01*
X011422Y015182D02*
X016791Y015182D01*
X016986Y015378D02*
X011420Y015378D01*
X011417Y015573D02*
X022096Y015573D01*
X022096Y015378D02*
X020356Y015378D01*
X020422Y015182D02*
X022096Y015182D01*
X022096Y015031D02*
X022117Y015010D01*
X022049Y014942D01*
X022049Y014942D01*
X021976Y014869D01*
X021937Y014774D01*
X021937Y014571D01*
X021662Y014571D01*
X021558Y014466D01*
X021558Y013975D01*
X021299Y013975D01*
X021310Y013987D01*
X021337Y014032D01*
X021350Y014083D01*
X021350Y014217D01*
X021350Y014351D01*
X021337Y014402D01*
X021310Y014447D01*
X021273Y014484D01*
X021228Y014510D01*
X021178Y014524D01*
X020857Y014524D01*
X020857Y014217D01*
X021350Y014217D01*
X020857Y014217D01*
X020857Y014217D01*
X020856Y014217D01*
X020856Y014217D01*
X020363Y014217D01*
X020363Y014351D01*
X020376Y014402D01*
X020402Y014447D01*
X020439Y014484D01*
X020484Y014510D01*
X020535Y014524D01*
X020856Y014524D01*
X020856Y014217D01*
X020363Y014217D01*
X020363Y014083D01*
X020376Y014032D01*
X020402Y013987D01*
X020436Y013953D01*
X020383Y013899D01*
X020383Y013535D01*
X020451Y013467D01*
X020383Y013399D01*
X020383Y013035D01*
X020451Y012967D01*
X020383Y012899D01*
X020383Y012535D01*
X020487Y012430D01*
X021226Y012430D01*
X021330Y012535D01*
X021330Y012899D01*
X021271Y012959D01*
X021558Y012959D01*
X021558Y012861D01*
X021662Y012757D01*
X021913Y012757D01*
X021913Y012487D01*
X021913Y012385D01*
X021952Y012290D01*
X022155Y012087D01*
X022155Y011330D01*
X022259Y011226D01*
X023297Y011226D01*
X023402Y011330D01*
X023402Y012328D01*
X023297Y012433D01*
X022540Y012433D01*
X022430Y012543D01*
X022430Y012757D01*
X022680Y012757D01*
X022785Y012861D01*
X022785Y013482D01*
X022680Y013586D01*
X021967Y013586D01*
X022122Y013741D01*
X022680Y013741D01*
X022785Y013846D01*
X022785Y014466D01*
X022680Y014571D01*
X022453Y014571D01*
X022453Y014616D01*
X022764Y014926D01*
X023238Y014926D01*
X023343Y015031D01*
X023343Y016029D01*
X023238Y016133D01*
X022200Y016133D01*
X022096Y016029D01*
X022096Y015031D01*
X022094Y014987D02*
X020373Y014987D01*
X020376Y014401D02*
X019202Y014401D01*
X019204Y014399D02*
X019100Y014504D01*
X018361Y014504D01*
X018288Y014430D01*
X019204Y014399D02*
X019204Y014035D01*
X019145Y013975D01*
X019190Y013975D01*
X019285Y013936D01*
X019630Y013591D01*
X019702Y013519D01*
X019742Y013424D01*
X019742Y012379D01*
X020530Y011591D01*
X020602Y011519D01*
X020642Y011424D01*
X020642Y010167D01*
X020642Y010064D01*
X020602Y009969D01*
X019962Y009329D01*
X020196Y009095D01*
X020298Y009095D01*
X020393Y009056D01*
X020630Y008819D01*
X020872Y008819D01*
X020864Y008826D01*
X020825Y008921D01*
X020825Y011652D01*
X020796Y011681D01*
X020745Y011805D01*
X020745Y011940D01*
X020796Y012064D01*
X020891Y012159D01*
X021016Y012211D01*
X021150Y012211D01*
X021275Y012159D01*
X021370Y012064D01*
X021422Y011940D01*
X021422Y011805D01*
X021370Y011681D01*
X021342Y011652D01*
X021342Y009231D01*
X022535Y009231D01*
X022630Y009191D01*
X022702Y009119D01*
X022742Y009024D01*
X022742Y008921D01*
X022742Y007471D01*
X022742Y007423D01*
X022742Y007422D01*
X022742Y007421D01*
X022722Y007374D01*
X022703Y007327D01*
X022703Y007327D01*
X022702Y007326D01*
X022665Y007289D01*
X022631Y007254D01*
X022630Y007254D01*
X022630Y007253D01*
X022582Y007234D01*
X022536Y007214D01*
X022535Y007214D01*
X022535Y007214D01*
X022481Y007214D01*
X021182Y007206D01*
X021182Y006586D01*
X021338Y006651D01*
X021528Y006651D01*
X021704Y006578D01*
X021839Y006443D01*
X021912Y006268D01*
X021912Y005477D01*
X021839Y005301D01*
X021704Y005167D01*
X021536Y005097D01*
X021704Y005028D01*
X021839Y004893D01*
X021912Y004718D01*
X021912Y004527D01*
X021839Y004351D01*
X021704Y004217D01*
X021528Y004144D01*
X021338Y004144D01*
X021162Y004217D01*
X021028Y004351D01*
X020955Y004527D01*
X020955Y004718D01*
X020980Y004778D01*
X020785Y004950D01*
X020780Y004952D01*
X020839Y004893D01*
X020912Y004718D01*
X020912Y004527D01*
X020839Y004351D01*
X020704Y004217D01*
X020528Y004144D01*
X020338Y004144D01*
X020162Y004217D01*
X020028Y004351D01*
X019955Y004527D01*
X019955Y004718D01*
X019960Y004730D01*
X019868Y004822D01*
X019912Y004718D01*
X019912Y004527D01*
X019839Y004351D01*
X019704Y004217D01*
X019528Y004144D01*
X019338Y004144D01*
X019162Y004217D01*
X019028Y004351D01*
X018955Y004527D01*
X018955Y004718D01*
X019028Y004893D01*
X019162Y005028D01*
X019338Y005101D01*
X019528Y005101D01*
X019632Y005058D01*
X019456Y005234D01*
X019416Y005234D01*
X019291Y005286D01*
X019196Y005381D01*
X019145Y005505D01*
X019145Y005640D01*
X019196Y005764D01*
X019291Y005859D01*
X019416Y005911D01*
X019550Y005911D01*
X019675Y005859D01*
X019770Y005764D01*
X019822Y005640D01*
X019822Y005599D01*
X019944Y005477D01*
X019935Y005533D01*
X019935Y005871D01*
X020431Y005871D01*
X020431Y005874D01*
X019935Y005874D01*
X019935Y006212D01*
X019947Y006289D01*
X019971Y006364D01*
X020007Y006434D01*
X020053Y006497D01*
X020108Y006553D01*
X020172Y006599D01*
X020242Y006634D01*
X020316Y006659D01*
X020394Y006671D01*
X020431Y006671D01*
X020431Y005874D01*
X020435Y005874D01*
X020435Y006671D01*
X020472Y006671D01*
X020550Y006659D01*
X020624Y006634D01*
X020665Y006614D01*
X020665Y007464D01*
X020664Y007512D01*
X020665Y007513D01*
X020665Y007514D01*
X020684Y007560D01*
X020703Y007607D01*
X020704Y007608D01*
X020704Y007609D01*
X020741Y007646D01*
X020775Y007681D01*
X020776Y007681D01*
X020777Y007681D01*
X020824Y007701D01*
X020870Y007720D01*
X020871Y007720D01*
X020872Y007721D01*
X020925Y007721D01*
X022225Y007729D01*
X022225Y007733D01*
X021959Y007733D01*
X021959Y008226D01*
X021841Y008226D01*
X021841Y007733D01*
X021559Y007733D01*
X021508Y007747D01*
X021463Y007773D01*
X021426Y007810D01*
X021400Y007855D01*
X021386Y007905D01*
X021386Y008227D01*
X021840Y008227D01*
X021840Y008345D01*
X021386Y008345D01*
X021386Y008666D01*
X021399Y008714D01*
X021291Y008714D01*
X021291Y007858D01*
X021186Y007753D01*
X020482Y007753D01*
X020482Y007432D01*
X020482Y007313D01*
X020436Y007203D01*
X020352Y007119D01*
X020243Y007074D01*
X019757Y007074D01*
X019767Y007071D01*
X019812Y007045D01*
X019849Y007008D01*
X019875Y006963D01*
X019889Y006913D01*
X019889Y006631D01*
X019395Y006631D01*
X019395Y006513D01*
X019889Y006513D01*
X019889Y006231D01*
X019875Y006180D01*
X019849Y006135D01*
X019812Y006098D01*
X019767Y006072D01*
X019716Y006058D01*
X019395Y006058D01*
X019395Y006512D01*
X019277Y006512D01*
X019277Y006058D01*
X018955Y006058D01*
X018905Y006072D01*
X018860Y006098D01*
X018823Y006135D01*
X018797Y006180D01*
X018783Y006231D01*
X018783Y006513D01*
X019277Y006513D01*
X019277Y006631D01*
X018783Y006631D01*
X018783Y006913D01*
X018797Y006963D01*
X018823Y007008D01*
X018860Y007045D01*
X018905Y007071D01*
X018920Y007076D01*
X018814Y007119D01*
X018730Y007203D01*
X018685Y007313D01*
X018685Y008032D01*
X018685Y008033D01*
X018637Y008033D01*
X018612Y008057D01*
X018588Y008033D01*
X018046Y008033D01*
X017942Y008137D01*
X017942Y008214D01*
X017890Y008214D01*
X017778Y008102D01*
X017683Y008063D01*
X017581Y008063D01*
X016999Y008063D01*
X016999Y007781D01*
X017009Y007769D01*
X016999Y007701D01*
X016999Y007633D01*
X016988Y007622D01*
X016986Y007606D01*
X016932Y007565D01*
X016883Y007517D01*
X016868Y007517D01*
X014845Y005990D01*
X014797Y005942D01*
X014781Y005942D01*
X014768Y005933D01*
X014701Y005942D01*
X010555Y005942D01*
X011328Y005097D01*
X011338Y005101D01*
X011528Y005101D01*
X011704Y005028D01*
X011839Y004893D01*
X011912Y004718D01*
X011912Y004527D01*
X011839Y004351D01*
X011704Y004217D01*
X011692Y004212D01*
X011692Y004033D01*
X011704Y004028D01*
X011839Y003893D01*
X011912Y003718D01*
X011912Y003527D01*
X011847Y003371D01*
X012020Y003371D01*
X011955Y003527D01*
X011955Y003718D01*
X012028Y003893D01*
X012162Y004028D01*
X012175Y004033D01*
X012175Y004212D01*
X012162Y004217D01*
X012028Y004351D01*
X011955Y004527D01*
X011955Y004718D01*
X012028Y004893D01*
X012162Y005028D01*
X012338Y005101D01*
X012528Y005101D01*
X012704Y005028D01*
X012839Y004893D01*
X012912Y004718D01*
X012912Y004527D01*
X012839Y004351D01*
X012704Y004217D01*
X012692Y004212D01*
X012692Y004033D01*
X012704Y004028D01*
X012839Y003893D01*
X012912Y003718D01*
X012912Y003527D01*
X012847Y003371D01*
X013020Y003371D01*
X012955Y003527D01*
X012955Y003718D01*
X013028Y003893D01*
X013162Y004028D01*
X013338Y004101D01*
X013528Y004101D01*
X013704Y004028D01*
X013839Y003893D01*
X013912Y003718D01*
X013912Y003527D01*
X013847Y003371D01*
X014020Y003371D01*
X013955Y003527D01*
X013955Y003718D01*
X014028Y003893D01*
X014162Y004028D01*
X014338Y004101D01*
X014528Y004101D01*
X014704Y004028D01*
X014839Y003893D01*
X014912Y003718D01*
X014912Y003527D01*
X014847Y003371D01*
X015020Y003371D01*
X014955Y003527D01*
X014955Y003718D01*
X015028Y003893D01*
X015162Y004028D01*
X015338Y004101D01*
X015528Y004101D01*
X015704Y004028D01*
X015839Y003893D01*
X015912Y003718D01*
X015912Y003527D01*
X015847Y003371D01*
X016020Y003371D01*
X015955Y003527D01*
X015955Y003718D01*
X016028Y003893D01*
X016162Y004028D01*
X016338Y004101D01*
X016528Y004101D01*
X016704Y004028D01*
X016839Y003893D01*
X016912Y003718D01*
X016912Y003527D01*
X016847Y003371D01*
X017020Y003371D01*
X016955Y003527D01*
X016955Y003718D01*
X017028Y003893D01*
X017162Y004028D01*
X017338Y004101D01*
X017528Y004101D01*
X017704Y004028D01*
X017748Y003984D01*
X017750Y003992D01*
X017750Y004262D01*
X017704Y004217D01*
X017528Y004144D01*
X017338Y004144D01*
X017162Y004217D01*
X017028Y004351D01*
X016955Y004527D01*
X016955Y004718D01*
X017028Y004893D01*
X017162Y005028D01*
X017338Y005101D01*
X017528Y005101D01*
X017704Y005028D01*
X017750Y004982D01*
X017750Y005863D01*
X017425Y006134D01*
X017316Y006134D01*
X017191Y006186D01*
X017096Y006281D01*
X017045Y006405D01*
X017045Y006540D01*
X017096Y006664D01*
X017191Y006759D01*
X017316Y006811D01*
X017450Y006811D01*
X017575Y006759D01*
X017645Y006689D01*
X017645Y006740D01*
X017696Y006864D01*
X017791Y006959D01*
X017916Y007011D01*
X018050Y007011D01*
X018175Y006959D01*
X018270Y006864D01*
X018322Y006740D01*
X018322Y006699D01*
X018652Y006369D01*
X018692Y006274D01*
X018692Y006171D01*
X018692Y005033D01*
X018704Y005028D01*
X018839Y004893D01*
X018912Y004718D01*
X018912Y004527D01*
X018839Y004351D01*
X018704Y004217D01*
X018528Y004144D01*
X018338Y004144D01*
X018217Y004194D01*
X018217Y004051D01*
X018338Y004101D01*
X018528Y004101D01*
X018704Y004028D01*
X018839Y003893D01*
X018912Y003718D01*
X018912Y003527D01*
X018847Y003371D01*
X019020Y003371D01*
X018955Y003527D01*
X018955Y003718D01*
X019028Y003893D01*
X019162Y004028D01*
X019338Y004101D01*
X019528Y004101D01*
X019704Y004028D01*
X019839Y003893D01*
X019912Y003718D01*
X019912Y003527D01*
X019847Y003371D01*
X020020Y003371D01*
X019955Y003527D01*
X019955Y003718D01*
X020028Y003893D01*
X020162Y004028D01*
X020338Y004101D01*
X020528Y004101D01*
X020704Y004028D01*
X020839Y003893D01*
X020912Y003718D01*
X020912Y003527D01*
X020847Y003371D01*
X021020Y003371D01*
X020955Y003527D01*
X020955Y003718D01*
X021028Y003893D01*
X021162Y004028D01*
X021338Y004101D01*
X021528Y004101D01*
X021704Y004028D01*
X021839Y003893D01*
X021912Y003718D01*
X021912Y003527D01*
X021847Y003371D01*
X022020Y003371D01*
X021955Y003527D01*
X021955Y003718D01*
X022028Y003893D01*
X022162Y004028D01*
X022338Y004101D01*
X022528Y004101D01*
X022704Y004028D01*
X022839Y003893D01*
X022912Y003718D01*
X022912Y003527D01*
X022847Y003371D01*
X023020Y003371D01*
X022955Y003527D01*
X022955Y003718D01*
X023028Y003893D01*
X023162Y004028D01*
X023338Y004101D01*
X023528Y004101D01*
X023704Y004028D01*
X023839Y003893D01*
X023912Y003718D01*
X023912Y003527D01*
X023847Y003371D01*
X024020Y003371D01*
X023955Y003527D01*
X023955Y003718D01*
X024028Y003893D01*
X024162Y004028D01*
X024338Y004101D01*
X024528Y004101D01*
X024704Y004028D01*
X024839Y003893D01*
X024912Y003718D01*
X024912Y003527D01*
X024847Y003371D01*
X025020Y003371D01*
X024955Y003527D01*
X024955Y003718D01*
X025028Y003893D01*
X025162Y004028D01*
X025338Y004101D01*
X025528Y004101D01*
X025704Y004028D01*
X025839Y003893D01*
X025912Y003718D01*
X025912Y003527D01*
X025847Y003371D01*
X026020Y003371D01*
X025955Y003527D01*
X025955Y003718D01*
X026028Y003893D01*
X026162Y004028D01*
X026338Y004101D01*
X026528Y004101D01*
X026704Y004028D01*
X026839Y003893D01*
X026912Y003718D01*
X026912Y003527D01*
X026847Y003371D01*
X027020Y003371D01*
X026955Y003527D01*
X026955Y003718D01*
X027028Y003893D01*
X027162Y004028D01*
X027338Y004101D01*
X027528Y004101D01*
X027704Y004028D01*
X027839Y003893D01*
X027912Y003718D01*
X027912Y003527D01*
X027847Y003371D01*
X028020Y003371D01*
X027955Y003527D01*
X027955Y003718D01*
X028028Y003893D01*
X028162Y004028D01*
X028338Y004101D01*
X028528Y004101D01*
X028704Y004028D01*
X028839Y003893D01*
X028912Y003718D01*
X028912Y003527D01*
X028847Y003371D01*
X029020Y003371D01*
X028955Y003527D01*
X028955Y003718D01*
X029028Y003893D01*
X029162Y004028D01*
X029338Y004101D01*
X029528Y004101D01*
X029704Y004028D01*
X029839Y003893D01*
X029912Y003718D01*
X029912Y003527D01*
X029847Y003371D01*
X030002Y003371D01*
X029971Y003431D01*
X029947Y003506D01*
X029935Y003583D01*
X029935Y003621D01*
X030431Y003621D01*
X030431Y003624D01*
X029935Y003624D01*
X029935Y003662D01*
X029947Y003739D01*
X029971Y003814D01*
X030007Y003884D01*
X030053Y003947D01*
X030108Y004003D01*
X030172Y004049D01*
X030242Y004084D01*
X030316Y004109D01*
X030394Y004121D01*
X030431Y004121D01*
X030431Y003624D01*
X030435Y003624D01*
X030932Y003624D01*
X030932Y003662D01*
X030919Y003739D01*
X030895Y003814D01*
X030859Y003884D01*
X030813Y003947D01*
X030758Y004003D01*
X030694Y004049D01*
X030624Y004084D01*
X030550Y004109D01*
X030472Y004121D01*
X030435Y004121D01*
X030435Y003624D01*
X030435Y003621D01*
X030932Y003621D01*
X030932Y003583D01*
X030919Y003506D01*
X030895Y003431D01*
X030871Y003384D01*
X030904Y003385D01*
X030988Y003398D01*
X030971Y003431D01*
X030947Y003506D01*
X030935Y003583D01*
X030935Y003621D01*
X031431Y003621D01*
X031431Y003624D01*
X030935Y003624D01*
X030935Y003662D01*
X030947Y003739D01*
X030971Y003814D01*
X031007Y003884D01*
X031053Y003947D01*
X031108Y004003D01*
X031172Y004049D01*
X031242Y004084D01*
X031316Y004109D01*
X031394Y004121D01*
X031431Y004121D01*
X031431Y003624D01*
X031435Y003624D01*
X031932Y003624D01*
X031932Y003662D01*
X031919Y003739D01*
X031895Y003814D01*
X031859Y003884D01*
X031813Y003947D01*
X031758Y004003D01*
X031694Y004049D01*
X031624Y004084D01*
X031550Y004109D01*
X031472Y004121D01*
X031435Y004121D01*
X031435Y003624D01*
X031435Y003621D01*
X031932Y003621D01*
X031932Y003600D01*
X032309Y003722D01*
X032955Y004052D01*
X033542Y004478D01*
X034054Y004990D01*
X034480Y005577D01*
X034809Y006223D01*
X035033Y006912D01*
X035147Y007628D01*
X035161Y007990D01*
X035161Y019151D01*
X035161Y019179D01*
X035161Y019250D01*
X035147Y019613D01*
X035033Y020329D01*
X034809Y021018D01*
X034480Y021664D01*
X034054Y022251D01*
X033698Y022607D02*
X031912Y022607D01*
X031876Y022803D02*
X033487Y022803D01*
X033219Y022998D02*
X031734Y022998D01*
X031647Y023193D02*
X032947Y023193D01*
X032564Y023389D02*
X031854Y023389D01*
X031912Y023584D02*
X032107Y023584D01*
X031219Y023193D02*
X030647Y023193D01*
X030528Y023101D02*
X030338Y023101D01*
X030162Y023028D01*
X030028Y022893D01*
X029955Y022718D01*
X029955Y022527D01*
X030028Y022351D01*
X030162Y022217D01*
X030338Y022144D01*
X030528Y022144D01*
X030704Y022217D01*
X030839Y022351D01*
X030912Y022527D01*
X030912Y022718D01*
X030839Y022893D01*
X030704Y023028D01*
X030528Y023101D01*
X030734Y022998D02*
X031132Y022998D01*
X030990Y022803D02*
X030876Y022803D01*
X030912Y022607D02*
X030955Y022607D01*
X031003Y022412D02*
X030864Y022412D01*
X030703Y022216D02*
X031163Y022216D01*
X030749Y021826D02*
X034363Y021826D01*
X034498Y021630D02*
X030944Y021630D01*
X031140Y021435D02*
X034597Y021435D01*
X034697Y021239D02*
X031308Y021239D01*
X031327Y021044D02*
X034796Y021044D01*
X034865Y020849D02*
X031327Y020849D01*
X031327Y020653D02*
X034928Y020653D01*
X034991Y020458D02*
X031327Y020458D01*
X031327Y020262D02*
X035044Y020262D01*
X035075Y020067D02*
X031327Y020067D01*
X031327Y019872D02*
X033274Y019872D01*
X033316Y019914D02*
X033126Y019724D01*
X033023Y019475D01*
X033023Y019207D01*
X033126Y018958D01*
X033316Y018768D01*
X033564Y018665D01*
X033833Y018665D01*
X034082Y018768D01*
X034272Y018958D01*
X034374Y019207D01*
X034374Y019475D01*
X034272Y019724D01*
X034082Y019914D01*
X033833Y020016D01*
X033564Y020016D01*
X033316Y019914D01*
X033107Y019676D02*
X031327Y019676D01*
X031327Y019481D02*
X033026Y019481D01*
X033023Y019286D02*
X031393Y019286D01*
X031579Y019090D02*
X031627Y019090D01*
X031878Y019090D02*
X033071Y019090D01*
X033190Y018895D02*
X032069Y018895D01*
X032085Y018699D02*
X033482Y018699D01*
X033915Y018699D02*
X035161Y018699D01*
X035161Y018504D02*
X032027Y018504D01*
X032070Y018309D02*
X035161Y018309D01*
X035161Y018113D02*
X034150Y018113D01*
X034082Y018181D02*
X034272Y017991D01*
X034374Y017743D01*
X034374Y017474D01*
X034272Y017226D01*
X034082Y017036D01*
X033833Y016933D01*
X033564Y016933D01*
X033316Y017036D01*
X033126Y017226D01*
X033023Y017474D01*
X033023Y017743D01*
X033126Y017991D01*
X033316Y018181D01*
X033564Y018284D01*
X033833Y018284D01*
X034082Y018181D01*
X034302Y017918D02*
X035161Y017918D01*
X035161Y017722D02*
X034374Y017722D01*
X034374Y017527D02*
X035161Y017527D01*
X035161Y017332D02*
X034315Y017332D01*
X034182Y017136D02*
X035161Y017136D01*
X035161Y016941D02*
X033852Y016941D01*
X033546Y016941D02*
X031319Y016941D01*
X031170Y017136D02*
X033216Y017136D01*
X033082Y017332D02*
X031021Y017332D01*
X030872Y017527D02*
X033023Y017527D01*
X033023Y017722D02*
X030723Y017722D01*
X030574Y017918D02*
X033096Y017918D01*
X033248Y018113D02*
X031989Y018113D01*
X030662Y018113D02*
X030545Y018113D01*
X029308Y016941D02*
X028083Y016941D01*
X028041Y017136D02*
X029113Y017136D01*
X028918Y017332D02*
X027743Y017332D01*
X027743Y017527D02*
X028371Y017527D01*
X028371Y017722D02*
X027743Y017722D01*
X027743Y017918D02*
X028371Y017918D01*
X028371Y018113D02*
X027743Y018113D01*
X027743Y018309D02*
X028371Y018309D01*
X028371Y018504D02*
X027743Y018504D01*
X027743Y018699D02*
X028371Y018699D01*
X028371Y018895D02*
X027743Y018895D01*
X027743Y019090D02*
X028351Y019090D01*
X028355Y019286D02*
X027687Y019286D01*
X027491Y019481D02*
X028371Y019481D01*
X028371Y019676D02*
X027296Y019676D01*
X027101Y019872D02*
X028371Y019872D01*
X028371Y020067D02*
X027073Y020067D01*
X027074Y020262D02*
X028371Y020262D01*
X028371Y020458D02*
X027800Y020458D01*
X028018Y020653D02*
X028371Y020653D01*
X028371Y020849D02*
X028214Y020849D01*
X028338Y022144D02*
X028528Y022144D01*
X028704Y022217D01*
X028839Y022351D01*
X028912Y022527D01*
X028912Y022718D01*
X028839Y022893D01*
X028704Y023028D01*
X028528Y023101D01*
X028338Y023101D01*
X028162Y023028D01*
X028028Y022893D01*
X027955Y022718D01*
X027955Y022527D01*
X028028Y022351D01*
X028162Y022217D01*
X028338Y022144D01*
X028163Y022216D02*
X027703Y022216D01*
X027704Y022217D02*
X027839Y022351D01*
X027912Y022527D01*
X027912Y022718D01*
X027839Y022893D01*
X027704Y023028D01*
X027528Y023101D01*
X027338Y023101D01*
X027162Y023028D01*
X027028Y022893D01*
X026955Y022718D01*
X026955Y022527D01*
X027028Y022351D01*
X027162Y022217D01*
X027338Y022144D01*
X027528Y022144D01*
X027704Y022217D01*
X027864Y022412D02*
X028003Y022412D01*
X027955Y022607D02*
X027912Y022607D01*
X027876Y022803D02*
X027990Y022803D01*
X028132Y022998D02*
X027734Y022998D01*
X027647Y023193D02*
X028219Y023193D01*
X028012Y023389D02*
X027854Y023389D01*
X027912Y023584D02*
X027955Y023584D01*
X027980Y023780D02*
X027886Y023780D01*
X027219Y023193D02*
X026647Y023193D01*
X026528Y023101D02*
X026338Y023101D01*
X026162Y023028D01*
X026028Y022893D01*
X025955Y022718D01*
X025955Y022527D01*
X026028Y022351D01*
X026162Y022217D01*
X026338Y022144D01*
X026528Y022144D01*
X026704Y022217D01*
X026839Y022351D01*
X026912Y022527D01*
X026912Y022718D01*
X026839Y022893D01*
X026704Y023028D01*
X026528Y023101D01*
X026734Y022998D02*
X027132Y022998D01*
X026990Y022803D02*
X026876Y022803D01*
X026912Y022607D02*
X026955Y022607D01*
X027003Y022412D02*
X026864Y022412D01*
X026703Y022216D02*
X027163Y022216D01*
X026163Y022216D02*
X025703Y022216D01*
X025704Y022217D02*
X025839Y022351D01*
X025912Y022527D01*
X025912Y022718D01*
X025839Y022893D01*
X025704Y023028D01*
X025528Y023101D01*
X025338Y023101D01*
X025162Y023028D01*
X025028Y022893D01*
X024955Y022718D01*
X024955Y022527D01*
X025028Y022351D01*
X025162Y022217D01*
X025338Y022144D01*
X025528Y022144D01*
X025704Y022217D01*
X025864Y022412D02*
X026003Y022412D01*
X025955Y022607D02*
X025912Y022607D01*
X025876Y022803D02*
X025990Y022803D01*
X026132Y022998D02*
X025734Y022998D01*
X025647Y023193D02*
X026219Y023193D01*
X026012Y023389D02*
X025854Y023389D01*
X025912Y023584D02*
X025955Y023584D01*
X025980Y023780D02*
X025886Y023780D01*
X025219Y023193D02*
X024647Y023193D01*
X024528Y023101D02*
X024338Y023101D01*
X024162Y023028D01*
X024028Y022893D01*
X023955Y022718D01*
X023955Y022527D01*
X024028Y022351D01*
X024162Y022217D01*
X024338Y022144D01*
X024528Y022144D01*
X024704Y022217D01*
X024839Y022351D01*
X024912Y022527D01*
X024912Y022718D01*
X024839Y022893D01*
X024704Y023028D01*
X024528Y023101D01*
X024734Y022998D02*
X025132Y022998D01*
X024990Y022803D02*
X024876Y022803D01*
X024912Y022607D02*
X024955Y022607D01*
X025003Y022412D02*
X024864Y022412D01*
X024703Y022216D02*
X025163Y022216D01*
X024163Y022216D02*
X023703Y022216D01*
X023704Y022217D02*
X023839Y022351D01*
X023912Y022527D01*
X023912Y022718D01*
X023839Y022893D01*
X023704Y023028D01*
X023528Y023101D01*
X023338Y023101D01*
X023162Y023028D01*
X023028Y022893D01*
X022955Y022718D01*
X022955Y022527D01*
X023028Y022351D01*
X023162Y022217D01*
X023338Y022144D01*
X023528Y022144D01*
X023704Y022217D01*
X023864Y022412D02*
X024003Y022412D01*
X023955Y022607D02*
X023912Y022607D01*
X023876Y022803D02*
X023990Y022803D01*
X024132Y022998D02*
X023734Y022998D01*
X023647Y023193D02*
X024219Y023193D01*
X024012Y023389D02*
X023854Y023389D01*
X023912Y023584D02*
X023955Y023584D01*
X023980Y023780D02*
X023886Y023780D01*
X023219Y023193D02*
X022647Y023193D01*
X022528Y023101D02*
X022704Y023028D01*
X022839Y022893D01*
X022912Y022718D01*
X022912Y022527D01*
X022839Y022351D01*
X022704Y022217D01*
X022528Y022144D01*
X022338Y022144D01*
X022162Y022217D01*
X022028Y022351D01*
X021955Y022527D01*
X021955Y022718D01*
X022028Y022893D01*
X022162Y023028D01*
X022338Y023101D01*
X022528Y023101D01*
X022734Y022998D02*
X023132Y022998D01*
X022990Y022803D02*
X022876Y022803D01*
X022912Y022607D02*
X022955Y022607D01*
X023003Y022412D02*
X022864Y022412D01*
X022703Y022216D02*
X023163Y022216D01*
X022163Y022216D02*
X021703Y022216D01*
X021704Y022217D02*
X021839Y022351D01*
X021912Y022527D01*
X021912Y022718D01*
X021839Y022893D01*
X021704Y023028D01*
X021528Y023101D01*
X021338Y023101D01*
X021162Y023028D01*
X021028Y022893D01*
X020955Y022718D01*
X020955Y022527D01*
X021028Y022351D01*
X021162Y022217D01*
X021338Y022144D01*
X021528Y022144D01*
X021704Y022217D01*
X021864Y022412D02*
X022003Y022412D01*
X021955Y022607D02*
X021912Y022607D01*
X021876Y022803D02*
X021990Y022803D01*
X022132Y022998D02*
X021734Y022998D01*
X021647Y023193D02*
X022219Y023193D01*
X022012Y023389D02*
X021854Y023389D01*
X021912Y023584D02*
X021955Y023584D01*
X021980Y023780D02*
X021886Y023780D01*
X021219Y023193D02*
X020647Y023193D01*
X020528Y023101D02*
X020338Y023101D01*
X020162Y023028D01*
X020028Y022893D01*
X019955Y022718D01*
X019955Y022527D01*
X020028Y022351D01*
X020162Y022217D01*
X020338Y022144D01*
X020528Y022144D01*
X020704Y022217D01*
X020839Y022351D01*
X020912Y022527D01*
X020912Y022718D01*
X020839Y022893D01*
X020704Y023028D01*
X020528Y023101D01*
X020734Y022998D02*
X021132Y022998D01*
X020990Y022803D02*
X020876Y022803D01*
X020912Y022607D02*
X020955Y022607D01*
X021003Y022412D02*
X020864Y022412D01*
X020703Y022216D02*
X021163Y022216D01*
X020163Y022216D02*
X019703Y022216D01*
X019704Y022217D02*
X019839Y022351D01*
X019912Y022527D01*
X019912Y022718D01*
X019839Y022893D01*
X019704Y023028D01*
X019528Y023101D01*
X019338Y023101D01*
X019162Y023028D01*
X019028Y022893D01*
X018955Y022718D01*
X018955Y022527D01*
X019028Y022351D01*
X019162Y022217D01*
X019338Y022144D01*
X019528Y022144D01*
X019704Y022217D01*
X019864Y022412D02*
X020003Y022412D01*
X019955Y022607D02*
X019912Y022607D01*
X019876Y022803D02*
X019990Y022803D01*
X020132Y022998D02*
X019734Y022998D01*
X019647Y023193D02*
X020219Y023193D01*
X020012Y023389D02*
X019854Y023389D01*
X019912Y023584D02*
X019955Y023584D01*
X019980Y023780D02*
X019886Y023780D01*
X019219Y023193D02*
X018647Y023193D01*
X018528Y023101D02*
X018704Y023028D01*
X018839Y022893D01*
X018912Y022718D01*
X018912Y022527D01*
X018839Y022351D01*
X018704Y022217D01*
X018528Y022144D01*
X018338Y022144D01*
X018162Y022217D01*
X018028Y022351D01*
X017955Y022527D01*
X017955Y022718D01*
X018028Y022893D01*
X018162Y023028D01*
X018338Y023101D01*
X018528Y023101D01*
X018734Y022998D02*
X019132Y022998D01*
X018990Y022803D02*
X018876Y022803D01*
X018912Y022607D02*
X018955Y022607D01*
X019003Y022412D02*
X018864Y022412D01*
X018703Y022216D02*
X019163Y022216D01*
X018163Y022216D02*
X017703Y022216D01*
X017704Y022217D02*
X017839Y022351D01*
X017912Y022527D01*
X017912Y022718D01*
X017839Y022893D01*
X017704Y023028D01*
X017528Y023101D01*
X017338Y023101D01*
X017162Y023028D01*
X017028Y022893D01*
X016955Y022718D01*
X016955Y022527D01*
X017028Y022351D01*
X017162Y022217D01*
X017338Y022144D01*
X017528Y022144D01*
X017704Y022217D01*
X017864Y022412D02*
X018003Y022412D01*
X017955Y022607D02*
X017912Y022607D01*
X017876Y022803D02*
X017990Y022803D01*
X018132Y022998D02*
X017734Y022998D01*
X017647Y023193D02*
X018219Y023193D01*
X018012Y023389D02*
X017854Y023389D01*
X017912Y023584D02*
X017955Y023584D01*
X017980Y023780D02*
X017886Y023780D01*
X017219Y023193D02*
X016647Y023193D01*
X016528Y023101D02*
X016338Y023101D01*
X016162Y023028D01*
X016028Y022893D01*
X015955Y022718D01*
X015955Y022527D01*
X016028Y022351D01*
X016162Y022217D01*
X016338Y022144D01*
X016528Y022144D01*
X016704Y022217D01*
X016839Y022351D01*
X016912Y022527D01*
X016912Y022718D01*
X016839Y022893D01*
X016704Y023028D01*
X016528Y023101D01*
X016734Y022998D02*
X017132Y022998D01*
X016990Y022803D02*
X016876Y022803D01*
X016912Y022607D02*
X016955Y022607D01*
X017003Y022412D02*
X016864Y022412D01*
X016703Y022216D02*
X017163Y022216D01*
X016163Y022216D02*
X015703Y022216D01*
X015704Y022217D02*
X015839Y022351D01*
X015912Y022527D01*
X015912Y022718D01*
X015839Y022893D01*
X015704Y023028D01*
X015528Y023101D01*
X015338Y023101D01*
X015162Y023028D01*
X015028Y022893D01*
X014955Y022718D01*
X014955Y022527D01*
X015028Y022351D01*
X015162Y022217D01*
X015338Y022144D01*
X015528Y022144D01*
X015704Y022217D01*
X015864Y022412D02*
X016003Y022412D01*
X015955Y022607D02*
X015912Y022607D01*
X015876Y022803D02*
X015990Y022803D01*
X016132Y022998D02*
X015734Y022998D01*
X015647Y023193D02*
X016219Y023193D01*
X016012Y023389D02*
X015854Y023389D01*
X015912Y023584D02*
X015955Y023584D01*
X015980Y023780D02*
X015886Y023780D01*
X015219Y023193D02*
X014647Y023193D01*
X014528Y023101D02*
X014704Y023028D01*
X014839Y022893D01*
X014912Y022718D01*
X014912Y022527D01*
X014839Y022351D01*
X014704Y022217D01*
X014528Y022144D01*
X014338Y022144D01*
X014162Y022217D01*
X014028Y022351D01*
X013955Y022527D01*
X013955Y022718D01*
X014028Y022893D01*
X014162Y023028D01*
X014338Y023101D01*
X014528Y023101D01*
X014734Y022998D02*
X015132Y022998D01*
X014990Y022803D02*
X014876Y022803D01*
X014912Y022607D02*
X014955Y022607D01*
X015003Y022412D02*
X014864Y022412D01*
X014703Y022216D02*
X015163Y022216D01*
X015335Y021630D02*
X006906Y021630D01*
X006906Y021435D02*
X013822Y021435D01*
X013721Y021239D02*
X006906Y021239D01*
X006906Y021044D02*
X013721Y021044D01*
X013721Y020849D02*
X006906Y020849D01*
X006906Y020653D02*
X013827Y020653D01*
X013772Y020458D02*
X013646Y020458D01*
X013342Y020458D02*
X006906Y020458D01*
X006906Y020262D02*
X013173Y020262D01*
X013166Y020067D02*
X006906Y020067D01*
X006906Y019872D02*
X013302Y019872D01*
X013360Y019481D02*
X006906Y019481D01*
X006906Y019676D02*
X014270Y019676D01*
X013702Y019481D02*
X013629Y019481D01*
X013176Y019286D02*
X006906Y019286D01*
X006906Y019090D02*
X013163Y019090D01*
X013294Y018895D02*
X006906Y018895D01*
X010506Y018699D02*
X013749Y018699D01*
X013678Y018504D02*
X010769Y018504D01*
X010843Y018309D02*
X013678Y018309D01*
X013678Y018329D02*
X014072Y018329D01*
X014072Y018329D01*
X013678Y018329D01*
X013678Y018113D02*
X010843Y018113D01*
X010843Y017918D02*
X013836Y017918D01*
X014073Y017914D02*
X014073Y018329D01*
X014073Y017914D01*
X014073Y017918D02*
X014073Y017918D01*
X014073Y018113D02*
X014073Y018113D01*
X014073Y018309D02*
X014073Y018309D01*
X014073Y018329D02*
X014073Y018329D01*
X014073Y018504D02*
X014073Y018504D01*
X014073Y018699D02*
X014073Y018699D01*
X014116Y020653D02*
X014116Y020653D01*
X014116Y020849D02*
X014116Y020849D01*
X014116Y021044D02*
X014116Y021044D01*
X014116Y021239D02*
X014116Y021239D01*
X014116Y021435D02*
X014116Y021435D01*
X014163Y022216D02*
X013703Y022216D01*
X013704Y022217D02*
X013839Y022351D01*
X013912Y022527D01*
X013912Y022718D01*
X013839Y022893D01*
X013704Y023028D01*
X013528Y023101D01*
X013338Y023101D01*
X013162Y023028D01*
X013028Y022893D01*
X012955Y022718D01*
X012955Y022527D01*
X013028Y022351D01*
X013162Y022217D01*
X013338Y022144D01*
X013528Y022144D01*
X013704Y022217D01*
X013864Y022412D02*
X014003Y022412D01*
X013955Y022607D02*
X013912Y022607D01*
X013876Y022803D02*
X013990Y022803D01*
X014132Y022998D02*
X013734Y022998D01*
X013647Y023193D02*
X014219Y023193D01*
X014012Y023389D02*
X013854Y023389D01*
X013912Y023584D02*
X013955Y023584D01*
X013980Y023780D02*
X013886Y023780D01*
X013219Y023193D02*
X012647Y023193D01*
X012528Y023101D02*
X012338Y023101D01*
X012162Y023028D01*
X012028Y022893D01*
X011955Y022718D01*
X011955Y022527D01*
X012028Y022351D01*
X012162Y022217D01*
X012338Y022144D01*
X012528Y022144D01*
X012704Y022217D01*
X012839Y022351D01*
X012912Y022527D01*
X012912Y022718D01*
X012839Y022893D01*
X012704Y023028D01*
X012528Y023101D01*
X012734Y022998D02*
X013132Y022998D01*
X012990Y022803D02*
X012876Y022803D01*
X012912Y022607D02*
X012955Y022607D01*
X013003Y022412D02*
X012864Y022412D01*
X012703Y022216D02*
X013163Y022216D01*
X012163Y022216D02*
X011703Y022216D01*
X011704Y022217D02*
X011839Y022351D01*
X011912Y022527D01*
X011912Y022718D01*
X011839Y022893D01*
X011704Y023028D01*
X011528Y023101D01*
X011338Y023101D01*
X011162Y023028D01*
X011028Y022893D01*
X010955Y022718D01*
X010955Y022527D01*
X011028Y022351D01*
X011162Y022217D01*
X011338Y022144D01*
X011528Y022144D01*
X011704Y022217D01*
X011864Y022412D02*
X012003Y022412D01*
X011955Y022607D02*
X011912Y022607D01*
X011876Y022803D02*
X011990Y022803D01*
X012132Y022998D02*
X011734Y022998D01*
X011647Y023193D02*
X012219Y023193D01*
X012012Y023389D02*
X011854Y023389D01*
X011912Y023584D02*
X011955Y023584D01*
X011980Y023780D02*
X011886Y023780D01*
X011219Y023193D02*
X010647Y023193D01*
X010528Y023101D02*
X010704Y023028D01*
X010839Y022893D01*
X010912Y022718D01*
X010912Y022527D01*
X010839Y022351D01*
X010704Y022217D01*
X010528Y022144D01*
X010338Y022144D01*
X010162Y022217D01*
X010028Y022351D01*
X009955Y022527D01*
X009955Y022718D01*
X010028Y022893D01*
X010162Y023028D01*
X010338Y023101D01*
X010528Y023101D01*
X010734Y022998D02*
X011132Y022998D01*
X010990Y022803D02*
X010876Y022803D01*
X010912Y022607D02*
X010955Y022607D01*
X011003Y022412D02*
X010864Y022412D01*
X010703Y022216D02*
X011163Y022216D01*
X010163Y022216D02*
X009722Y022216D01*
X009694Y022196D02*
X009758Y022242D01*
X009813Y022298D01*
X009859Y022361D01*
X009895Y022431D01*
X009919Y022506D01*
X009932Y022583D01*
X009932Y022621D01*
X009435Y022621D01*
X009435Y022624D01*
X009932Y022624D01*
X009932Y022662D01*
X009919Y022739D01*
X009895Y022814D01*
X009859Y022884D01*
X009813Y022947D01*
X009758Y023003D01*
X009694Y023049D01*
X009624Y023084D01*
X009550Y023109D01*
X009472Y023121D01*
X009435Y023121D01*
X009435Y022624D01*
X009431Y022624D01*
X009431Y022621D01*
X008935Y022621D01*
X008935Y022583D01*
X008947Y022506D01*
X008971Y022431D01*
X009007Y022361D01*
X009053Y022298D01*
X009108Y022242D01*
X009172Y022196D01*
X009242Y022161D01*
X009316Y022136D01*
X009394Y022124D01*
X009431Y022124D01*
X009431Y022621D01*
X009435Y022621D01*
X009435Y022124D01*
X009472Y022124D01*
X009550Y022136D01*
X009624Y022161D01*
X009694Y022196D01*
X009435Y022216D02*
X009431Y022216D01*
X009431Y022412D02*
X009435Y022412D01*
X009431Y022607D02*
X009435Y022607D01*
X009431Y022624D02*
X008935Y022624D01*
X008935Y022662D01*
X008947Y022739D01*
X008971Y022814D01*
X009007Y022884D01*
X009053Y022947D01*
X009108Y023003D01*
X009172Y023049D01*
X009242Y023084D01*
X009316Y023109D01*
X009394Y023121D01*
X009431Y023121D01*
X009431Y022624D01*
X009431Y022803D02*
X009435Y022803D01*
X009431Y022998D02*
X009435Y022998D01*
X009431Y023193D02*
X009435Y023193D01*
X009431Y023389D02*
X009435Y023389D01*
X009431Y023584D02*
X009435Y023584D01*
X008993Y023389D02*
X006906Y023389D01*
X006906Y023584D02*
X008935Y023584D01*
X008960Y023780D02*
X006906Y023780D01*
X006906Y023193D02*
X009177Y023193D01*
X009104Y022998D02*
X006906Y022998D01*
X006906Y022803D02*
X008968Y022803D01*
X008935Y022607D02*
X006906Y022607D01*
X006906Y022412D02*
X008981Y022412D01*
X009144Y022216D02*
X006906Y022216D01*
X009689Y023193D02*
X010219Y023193D01*
X010132Y022998D02*
X009762Y022998D01*
X009899Y022803D02*
X009990Y022803D01*
X009955Y022607D02*
X009932Y022607D01*
X009885Y022412D02*
X010003Y022412D01*
X010012Y023389D02*
X009873Y023389D01*
X009932Y023584D02*
X009955Y023584D01*
X009980Y023780D02*
X009906Y023780D01*
X010886Y023780D02*
X010980Y023780D01*
X010955Y023584D02*
X010912Y023584D01*
X010854Y023389D02*
X011012Y023389D01*
X012854Y023389D02*
X013012Y023389D01*
X012955Y023584D02*
X012912Y023584D01*
X012886Y023780D02*
X012980Y023780D01*
X014886Y023780D02*
X014980Y023780D01*
X014955Y023584D02*
X014912Y023584D01*
X014854Y023389D02*
X015012Y023389D01*
X016854Y023389D02*
X017012Y023389D01*
X016955Y023584D02*
X016912Y023584D01*
X016886Y023780D02*
X016980Y023780D01*
X018886Y023780D02*
X018980Y023780D01*
X018955Y023584D02*
X018912Y023584D01*
X018854Y023389D02*
X019012Y023389D01*
X020854Y023389D02*
X021012Y023389D01*
X020955Y023584D02*
X020912Y023584D01*
X020886Y023780D02*
X020980Y023780D01*
X022886Y023780D02*
X022980Y023780D01*
X022955Y023584D02*
X022912Y023584D01*
X022854Y023389D02*
X023012Y023389D01*
X024854Y023389D02*
X025012Y023389D01*
X024955Y023584D02*
X024912Y023584D01*
X024886Y023780D02*
X024980Y023780D01*
X026886Y023780D02*
X026980Y023780D01*
X026955Y023584D02*
X026912Y023584D01*
X026854Y023389D02*
X027012Y023389D01*
X028647Y023193D02*
X029219Y023193D01*
X029338Y023101D02*
X029162Y023028D01*
X029028Y022893D01*
X028955Y022718D01*
X028955Y022527D01*
X029028Y022351D01*
X029162Y022217D01*
X029338Y022144D01*
X029528Y022144D01*
X029704Y022217D01*
X029839Y022351D01*
X029912Y022527D01*
X029912Y022718D01*
X029839Y022893D01*
X029704Y023028D01*
X029528Y023101D01*
X029338Y023101D01*
X029132Y022998D02*
X028734Y022998D01*
X028876Y022803D02*
X028990Y022803D01*
X028955Y022607D02*
X028912Y022607D01*
X028864Y022412D02*
X029003Y022412D01*
X029163Y022216D02*
X028703Y022216D01*
X029703Y022216D02*
X030163Y022216D01*
X030003Y022412D02*
X029864Y022412D01*
X029912Y022607D02*
X029955Y022607D01*
X029990Y022803D02*
X029876Y022803D01*
X029734Y022998D02*
X030132Y022998D01*
X030219Y023193D02*
X029647Y023193D01*
X029854Y023389D02*
X030012Y023389D01*
X029955Y023584D02*
X029912Y023584D01*
X029886Y023780D02*
X029980Y023780D01*
X030886Y023780D02*
X030980Y023780D01*
X030955Y023584D02*
X030912Y023584D01*
X030854Y023389D02*
X031012Y023389D01*
X029012Y023389D02*
X028854Y023389D01*
X028912Y023584D02*
X028955Y023584D01*
X028980Y023780D02*
X028886Y023780D01*
X025812Y021044D02*
X018345Y021044D01*
X018347Y020849D02*
X024612Y020849D01*
X024599Y020653D02*
X024151Y020653D01*
X024169Y020458D02*
X024599Y020458D01*
X024599Y020262D02*
X024169Y020262D01*
X024137Y020067D02*
X024579Y020067D01*
X024579Y019872D02*
X024345Y019872D01*
X024540Y019676D02*
X024579Y019676D01*
X024755Y019461D02*
X024974Y019461D01*
X024974Y019876D01*
X024975Y019876D01*
X024975Y019877D01*
X025370Y019877D01*
X025370Y020119D01*
X025356Y020169D01*
X025330Y020215D01*
X025320Y020225D01*
X025350Y020255D01*
X025350Y020287D01*
X025674Y020287D01*
X025677Y020285D01*
X025749Y020212D01*
X025792Y020195D01*
X025792Y020182D01*
X025824Y020182D01*
X025825Y020181D01*
X025792Y020181D01*
X025792Y020071D01*
X025805Y020020D01*
X025812Y020009D01*
X025812Y019868D01*
X025745Y019867D01*
X025650Y019867D01*
X025648Y019866D01*
X025646Y019866D01*
X025579Y019797D01*
X025344Y019561D01*
X025356Y019583D01*
X025370Y019634D01*
X025370Y019876D01*
X024975Y019876D01*
X024975Y019461D01*
X025197Y019461D01*
X025248Y019475D01*
X025270Y019488D01*
X025101Y019319D01*
X024892Y019324D01*
X024755Y019461D01*
X024974Y019481D02*
X024975Y019481D01*
X024974Y019676D02*
X024975Y019676D01*
X024974Y019872D02*
X024975Y019872D01*
X025370Y019872D02*
X025812Y019872D01*
X025793Y020067D02*
X025370Y020067D01*
X025350Y020262D02*
X025699Y020262D01*
X025812Y020849D02*
X025337Y020849D01*
X025370Y019676D02*
X025459Y019676D01*
X025263Y019481D02*
X025258Y019481D01*
X025728Y019286D02*
X025796Y019286D01*
X025812Y019090D02*
X025532Y019090D01*
X025337Y018895D02*
X025812Y018895D01*
X025812Y018699D02*
X024141Y018699D01*
X024216Y018895D02*
X024660Y018895D01*
X024466Y019090D02*
X024216Y019090D01*
X024216Y019286D02*
X024271Y019286D01*
X023791Y019090D02*
X023732Y019090D01*
X023732Y018895D02*
X023791Y018895D01*
X023791Y018699D02*
X023732Y018699D01*
X023383Y018699D02*
X023365Y018699D01*
X022805Y018309D02*
X022805Y018309D01*
X022805Y018113D02*
X022805Y018113D01*
X022805Y017918D02*
X022805Y017918D01*
X022805Y017722D02*
X022805Y017722D01*
X023813Y017722D02*
X023986Y017722D01*
X022663Y018699D02*
X020897Y018699D01*
X018875Y019872D02*
X018567Y019872D01*
X018567Y020067D02*
X018960Y020067D01*
X018954Y020262D02*
X018547Y020262D01*
X018547Y020458D02*
X019090Y020458D01*
X019476Y020458D02*
X022690Y020458D01*
X022700Y020653D02*
X018527Y020653D01*
X017304Y019797D02*
X017304Y019797D01*
X015320Y021044D02*
X015228Y021044D01*
X015228Y021239D02*
X015320Y021239D01*
X015336Y021435D02*
X015173Y021435D01*
X010843Y017332D02*
X027276Y017332D01*
X027276Y017527D02*
X027054Y017527D01*
X027054Y017722D02*
X027276Y017722D01*
X027276Y017918D02*
X027054Y017918D01*
X027074Y018113D02*
X027276Y018113D01*
X027276Y018309D02*
X027074Y018309D01*
X027074Y018504D02*
X027276Y018504D01*
X027276Y018699D02*
X027054Y018699D01*
X027054Y018895D02*
X027276Y018895D01*
X027222Y019090D02*
X027054Y019090D01*
X026433Y018383D02*
X026433Y018141D01*
X026433Y018383D01*
X026433Y018383D01*
X026433Y018309D02*
X026433Y018309D01*
X026433Y018141D02*
X026433Y018141D01*
X025890Y018390D02*
X025890Y018390D01*
X026580Y016941D02*
X027409Y016941D01*
X027491Y016745D02*
X026824Y016745D01*
X027075Y016550D02*
X029699Y016550D01*
X029504Y016745D02*
X028001Y016745D01*
X027326Y016355D02*
X030566Y016355D01*
X030543Y016159D02*
X032986Y016159D01*
X032945Y016118D02*
X032796Y015760D01*
X032796Y015373D01*
X032945Y015015D01*
X033218Y014741D01*
X033576Y014593D01*
X033963Y014593D01*
X034321Y014741D01*
X034595Y015015D01*
X034743Y015373D01*
X034743Y015760D01*
X034595Y016118D01*
X034321Y016392D01*
X033963Y016540D01*
X033576Y016540D01*
X033218Y016392D01*
X032945Y016118D01*
X032881Y015964D02*
X030797Y015964D01*
X030993Y015768D02*
X032800Y015768D01*
X032796Y015573D02*
X031188Y015573D01*
X031383Y015378D02*
X032796Y015378D01*
X032875Y015182D02*
X031579Y015182D01*
X030863Y014987D02*
X030547Y014987D01*
X030547Y014791D02*
X030863Y014791D01*
X030863Y014596D02*
X030679Y014596D01*
X030339Y014205D02*
X027908Y014205D01*
X027686Y014010D02*
X030535Y014010D01*
X030547Y013814D02*
X030559Y013814D01*
X030547Y013619D02*
X030559Y013619D01*
X030547Y013424D02*
X030559Y013424D01*
X030547Y013228D02*
X030559Y013228D01*
X030559Y013033D02*
X028514Y013033D01*
X028313Y012838D02*
X030559Y012838D01*
X031075Y012838D02*
X035161Y012838D01*
X035161Y013033D02*
X031075Y013033D01*
X031590Y013228D02*
X031643Y013228D01*
X031643Y013424D02*
X031590Y013424D01*
X031590Y013619D02*
X031643Y013619D01*
X031643Y013814D02*
X031590Y013814D01*
X031075Y014010D02*
X035161Y014010D01*
X035161Y014205D02*
X031050Y014205D01*
X032370Y014401D02*
X035161Y014401D01*
X035161Y014596D02*
X033970Y014596D01*
X034371Y014791D02*
X035161Y014791D01*
X035161Y014987D02*
X034566Y014987D01*
X034664Y015182D02*
X035161Y015182D01*
X035161Y015378D02*
X034743Y015378D01*
X034743Y015573D02*
X035161Y015573D01*
X035161Y015768D02*
X034740Y015768D01*
X034659Y015964D02*
X035161Y015964D01*
X035161Y016159D02*
X034554Y016159D01*
X034358Y016355D02*
X035161Y016355D01*
X035161Y016550D02*
X031936Y016550D01*
X031887Y016355D02*
X033181Y016355D01*
X031874Y016745D02*
X035161Y016745D01*
X032973Y014987D02*
X032370Y014987D01*
X032370Y014791D02*
X033168Y014791D01*
X033569Y014596D02*
X032370Y014596D01*
X032390Y013814D02*
X035161Y013814D01*
X035161Y013619D02*
X032390Y013619D01*
X032390Y013424D02*
X035161Y013424D01*
X035161Y013228D02*
X032380Y013228D01*
X032370Y012642D02*
X035161Y012642D01*
X035161Y012447D02*
X034068Y012447D01*
X033963Y012490D02*
X033576Y012490D01*
X033218Y012342D01*
X032945Y012068D01*
X032796Y011710D01*
X032796Y011323D01*
X032945Y010965D01*
X033218Y010691D01*
X033576Y010543D01*
X033963Y010543D01*
X034321Y010691D01*
X034595Y010965D01*
X034743Y011323D01*
X034743Y011710D01*
X034595Y012068D01*
X034321Y012342D01*
X033963Y012490D01*
X034412Y012251D02*
X035161Y012251D01*
X035161Y012056D02*
X034600Y012056D01*
X034681Y011861D02*
X035161Y011861D01*
X035161Y011665D02*
X034743Y011665D01*
X034743Y011470D02*
X035161Y011470D01*
X035161Y011274D02*
X034723Y011274D01*
X034642Y011079D02*
X035161Y011079D01*
X035161Y010884D02*
X034513Y010884D01*
X034313Y010688D02*
X035161Y010688D01*
X035161Y010493D02*
X032810Y010493D01*
X032847Y010297D02*
X035161Y010297D01*
X035161Y010102D02*
X032847Y010102D01*
X032847Y009907D02*
X035161Y009907D01*
X035161Y009711D02*
X032847Y009711D01*
X032847Y009516D02*
X035161Y009516D01*
X035161Y009320D02*
X032847Y009320D01*
X032847Y009125D02*
X035161Y009125D01*
X035161Y008930D02*
X032847Y008930D01*
X032847Y008734D02*
X035161Y008734D01*
X035161Y008539D02*
X032847Y008539D01*
X032847Y008343D02*
X035161Y008343D01*
X035161Y008148D02*
X032847Y008148D01*
X032729Y007953D02*
X035160Y007953D01*
X035152Y007757D02*
X032517Y007757D01*
X031556Y007757D02*
X029350Y007757D01*
X029382Y007953D02*
X031525Y007953D01*
X031525Y008148D02*
X029382Y008148D01*
X029382Y008343D02*
X031525Y008343D01*
X031525Y008539D02*
X029382Y008539D01*
X029382Y008734D02*
X031525Y008734D01*
X031825Y008930D02*
X028901Y008930D01*
X028706Y009125D02*
X031825Y009125D01*
X031750Y009320D02*
X028511Y009320D01*
X028315Y009516D02*
X030343Y009516D01*
X030084Y009711D02*
X028120Y009711D01*
X027924Y009907D02*
X029854Y009907D01*
X029623Y010102D02*
X027796Y010102D01*
X027756Y009344D02*
X027275Y009344D01*
X027275Y008724D01*
X027502Y008724D01*
X027502Y008330D01*
X027502Y008330D01*
X027502Y008724D01*
X027745Y008724D01*
X027795Y008711D01*
X027840Y008685D01*
X027877Y008648D01*
X027903Y008603D01*
X027917Y008552D01*
X027917Y008329D01*
X027502Y008329D01*
X027502Y007934D01*
X027745Y007934D01*
X027795Y007947D01*
X027840Y007974D01*
X027877Y008010D01*
X027903Y008056D01*
X027917Y008106D01*
X027917Y008329D01*
X027502Y008329D01*
X027502Y008329D01*
X027502Y007934D01*
X027275Y007934D01*
X027275Y006913D01*
X027488Y006913D01*
X028525Y007949D01*
X028525Y008236D01*
X028551Y008262D01*
X028525Y008289D01*
X028525Y008575D01*
X027756Y009344D01*
X027780Y009320D02*
X027275Y009320D01*
X027275Y009125D02*
X027975Y009125D01*
X028170Y008930D02*
X027275Y008930D01*
X027275Y008734D02*
X028366Y008734D01*
X028525Y008539D02*
X027917Y008539D01*
X027917Y008343D02*
X028525Y008343D01*
X028525Y008148D02*
X027917Y008148D01*
X027804Y007953D02*
X028525Y007953D01*
X028333Y007757D02*
X027275Y007757D01*
X027275Y007562D02*
X028137Y007562D01*
X027942Y007366D02*
X027275Y007366D01*
X027275Y007171D02*
X027746Y007171D01*
X027551Y006976D02*
X027275Y006976D01*
X027891Y006585D02*
X034927Y006585D01*
X034991Y006780D02*
X028086Y006780D01*
X028282Y006976D02*
X035044Y006976D01*
X035074Y007171D02*
X028477Y007171D01*
X028673Y007366D02*
X035105Y007366D01*
X035136Y007562D02*
X028868Y007562D01*
X027502Y007953D02*
X027502Y007953D01*
X027502Y008148D02*
X027502Y008148D01*
X027502Y008329D02*
X027502Y008329D01*
X027502Y008343D02*
X027502Y008343D01*
X027502Y008539D02*
X027502Y008539D01*
X026367Y008539D02*
X025015Y008539D01*
X025210Y008734D02*
X026367Y008734D01*
X026367Y008930D02*
X025406Y008930D01*
X025601Y009125D02*
X026367Y009125D01*
X026367Y009320D02*
X025797Y009320D01*
X025992Y009516D02*
X026367Y009516D01*
X026367Y009711D02*
X026187Y009711D01*
X025652Y009907D02*
X025383Y009907D01*
X025456Y009711D02*
X025187Y009711D01*
X025261Y009516D02*
X024992Y009516D01*
X025066Y009320D02*
X024797Y009320D01*
X024870Y009125D02*
X024601Y009125D01*
X024675Y008930D02*
X024406Y008930D01*
X024479Y008734D02*
X024210Y008734D01*
X024284Y008539D02*
X024015Y008539D01*
X024175Y008343D02*
X023820Y008343D01*
X023692Y008215D02*
X025830Y010353D01*
X025902Y010426D01*
X025942Y010521D01*
X025942Y012065D01*
X026010Y012134D01*
X026050Y012134D01*
X026175Y012186D01*
X026270Y012281D01*
X026322Y012405D01*
X026322Y012540D01*
X026270Y012664D01*
X026175Y012759D01*
X026050Y012811D01*
X025916Y012811D01*
X025791Y012759D01*
X025696Y012664D01*
X025645Y012540D01*
X025645Y012499D01*
X025464Y012319D01*
X025425Y012224D01*
X025425Y012121D01*
X025425Y010679D01*
X023214Y008469D01*
X023175Y008374D01*
X023175Y008271D01*
X023175Y006583D01*
X023162Y006578D01*
X023028Y006443D01*
X022955Y006268D01*
X022955Y005477D01*
X023028Y005301D01*
X023162Y005167D01*
X023330Y005097D01*
X023162Y005028D01*
X023028Y004893D01*
X022955Y004718D01*
X022955Y004527D01*
X023028Y004351D01*
X023162Y004217D01*
X023338Y004144D01*
X023528Y004144D01*
X023704Y004217D01*
X023839Y004351D01*
X023912Y004527D01*
X023912Y004718D01*
X023839Y004893D01*
X023704Y005028D01*
X023536Y005097D01*
X023704Y005167D01*
X023839Y005301D01*
X023912Y005477D01*
X023912Y006268D01*
X023839Y006443D01*
X023704Y006578D01*
X023692Y006583D01*
X023692Y008215D01*
X023692Y008148D02*
X024175Y008148D01*
X024175Y007953D02*
X023692Y007953D01*
X023692Y007757D02*
X024175Y007757D01*
X024175Y007562D02*
X023692Y007562D01*
X023692Y007366D02*
X024175Y007366D01*
X024175Y007171D02*
X023692Y007171D01*
X023692Y006976D02*
X024175Y006976D01*
X024175Y006780D02*
X023692Y006780D01*
X023692Y006585D02*
X024175Y006585D01*
X024005Y006390D02*
X023861Y006390D01*
X023912Y006194D02*
X023955Y006194D01*
X023955Y005999D02*
X023912Y005999D01*
X023912Y005803D02*
X023955Y005803D01*
X023955Y005608D02*
X023912Y005608D01*
X023885Y005413D02*
X023981Y005413D01*
X024112Y005217D02*
X023754Y005217D01*
X023710Y005022D02*
X024156Y005022D01*
X024000Y004826D02*
X023866Y004826D01*
X023912Y004631D02*
X023955Y004631D01*
X023993Y004436D02*
X023874Y004436D01*
X023727Y004240D02*
X024139Y004240D01*
X024203Y004045D02*
X023664Y004045D01*
X023857Y003849D02*
X024009Y003849D01*
X023955Y003654D02*
X023912Y003654D01*
X023883Y003459D02*
X023983Y003459D01*
X024664Y004045D02*
X025203Y004045D01*
X025338Y004144D02*
X025528Y004144D01*
X025704Y004217D01*
X025839Y004351D01*
X025912Y004527D01*
X025912Y004718D01*
X025839Y004893D01*
X025704Y005028D01*
X025536Y005097D01*
X025704Y005167D01*
X025839Y005301D01*
X025912Y005477D01*
X025912Y006268D01*
X025839Y006443D01*
X025704Y006578D01*
X025528Y006651D01*
X025338Y006651D01*
X025162Y006578D01*
X025028Y006443D01*
X024955Y006268D01*
X024955Y005477D01*
X025028Y005301D01*
X025162Y005167D01*
X025330Y005097D01*
X025162Y005028D01*
X025028Y004893D01*
X024955Y004718D01*
X024955Y004527D01*
X025028Y004351D01*
X025162Y004217D01*
X025338Y004144D01*
X025139Y004240D02*
X024727Y004240D01*
X024874Y004436D02*
X024993Y004436D01*
X024955Y004631D02*
X024912Y004631D01*
X024866Y004826D02*
X025000Y004826D01*
X025156Y005022D02*
X024710Y005022D01*
X024754Y005217D02*
X025112Y005217D01*
X024981Y005413D02*
X024885Y005413D01*
X024912Y005608D02*
X024955Y005608D01*
X024955Y005803D02*
X024912Y005803D01*
X024912Y005999D02*
X024955Y005999D01*
X024955Y006194D02*
X024912Y006194D01*
X024861Y006390D02*
X025005Y006390D01*
X025179Y006585D02*
X024692Y006585D01*
X024692Y006780D02*
X026367Y006780D01*
X026367Y006585D02*
X025687Y006585D01*
X025861Y006390D02*
X026367Y006390D01*
X026367Y006194D02*
X025912Y006194D01*
X025912Y005999D02*
X034695Y005999D01*
X034795Y006194D02*
X027832Y006194D01*
X027865Y006390D02*
X034864Y006390D01*
X034596Y005803D02*
X025912Y005803D01*
X025912Y005608D02*
X034496Y005608D01*
X034361Y005413D02*
X025885Y005413D01*
X025754Y005217D02*
X034219Y005217D01*
X034077Y005022D02*
X031731Y005022D01*
X031758Y005003D02*
X031694Y005049D01*
X031624Y005084D01*
X031550Y005109D01*
X031472Y005121D01*
X031435Y005121D01*
X031435Y004624D01*
X031932Y004624D01*
X031932Y004662D01*
X031919Y004739D01*
X031895Y004814D01*
X031859Y004884D01*
X031813Y004947D01*
X031758Y005003D01*
X031889Y004826D02*
X033890Y004826D01*
X033695Y004631D02*
X031932Y004631D01*
X031932Y004621D02*
X031435Y004621D01*
X031435Y004624D01*
X031431Y004624D01*
X031431Y004621D01*
X030935Y004621D01*
X030935Y004583D01*
X030947Y004506D01*
X030971Y004431D01*
X031007Y004361D01*
X031053Y004298D01*
X031108Y004242D01*
X031172Y004196D01*
X031242Y004161D01*
X031316Y004136D01*
X031394Y004124D01*
X031431Y004124D01*
X031431Y004621D01*
X031435Y004621D01*
X031435Y004124D01*
X031472Y004124D01*
X031550Y004136D01*
X031624Y004161D01*
X031694Y004196D01*
X031758Y004242D01*
X031813Y004298D01*
X031859Y004361D01*
X031895Y004431D01*
X031919Y004506D01*
X031932Y004583D01*
X031932Y004621D01*
X031896Y004436D02*
X033484Y004436D01*
X033215Y004240D02*
X031755Y004240D01*
X031700Y004045D02*
X032942Y004045D01*
X032558Y003849D02*
X031877Y003849D01*
X031932Y003654D02*
X032099Y003654D01*
X031435Y003654D02*
X031431Y003654D01*
X031431Y003849D02*
X031435Y003849D01*
X031431Y004045D02*
X031435Y004045D01*
X031431Y004240D02*
X031435Y004240D01*
X031431Y004436D02*
X031435Y004436D01*
X031431Y004624D02*
X030935Y004624D01*
X030935Y004662D01*
X030947Y004739D01*
X030971Y004814D01*
X031007Y004884D01*
X031053Y004947D01*
X031108Y005003D01*
X031172Y005049D01*
X031242Y005084D01*
X031316Y005109D01*
X031394Y005121D01*
X031431Y005121D01*
X031431Y004624D01*
X031431Y004631D02*
X031435Y004631D01*
X031431Y004826D02*
X031435Y004826D01*
X031431Y005022D02*
X031435Y005022D01*
X031135Y005022D02*
X030731Y005022D01*
X030758Y005003D02*
X030694Y005049D01*
X030624Y005084D01*
X030550Y005109D01*
X030472Y005121D01*
X030435Y005121D01*
X030435Y004624D01*
X030932Y004624D01*
X030932Y004662D01*
X030919Y004739D01*
X030895Y004814D01*
X030859Y004884D01*
X030813Y004947D01*
X030758Y005003D01*
X030889Y004826D02*
X030978Y004826D01*
X030935Y004631D02*
X030932Y004631D01*
X030932Y004621D02*
X030435Y004621D01*
X030435Y004624D01*
X030431Y004624D01*
X030431Y004621D01*
X029935Y004621D01*
X029935Y004583D01*
X029947Y004506D01*
X029971Y004431D01*
X030007Y004361D01*
X030053Y004298D01*
X030108Y004242D01*
X030172Y004196D01*
X030242Y004161D01*
X030316Y004136D01*
X030394Y004124D01*
X030431Y004124D01*
X030431Y004621D01*
X030435Y004621D01*
X030435Y004124D01*
X030472Y004124D01*
X030550Y004136D01*
X030624Y004161D01*
X030694Y004196D01*
X030758Y004242D01*
X030813Y004298D01*
X030859Y004361D01*
X030895Y004431D01*
X030919Y004506D01*
X030932Y004583D01*
X030932Y004621D01*
X030896Y004436D02*
X030970Y004436D01*
X031111Y004240D02*
X030755Y004240D01*
X030700Y004045D02*
X031167Y004045D01*
X030989Y003849D02*
X030877Y003849D01*
X030932Y003654D02*
X030935Y003654D01*
X030962Y003459D02*
X030904Y003459D01*
X030435Y003654D02*
X030431Y003654D01*
X030431Y003849D02*
X030435Y003849D01*
X030431Y004045D02*
X030435Y004045D01*
X030431Y004240D02*
X030435Y004240D01*
X030431Y004436D02*
X030435Y004436D01*
X030431Y004624D02*
X029935Y004624D01*
X029935Y004662D01*
X029947Y004739D01*
X029971Y004814D01*
X030007Y004884D01*
X030053Y004947D01*
X030108Y005003D01*
X030172Y005049D01*
X030242Y005084D01*
X030316Y005109D01*
X030394Y005121D01*
X030431Y005121D01*
X030431Y004624D01*
X030431Y004631D02*
X030435Y004631D01*
X030431Y004826D02*
X030435Y004826D01*
X030431Y005022D02*
X030435Y005022D01*
X030135Y005022D02*
X029710Y005022D01*
X029704Y005028D02*
X029528Y005101D01*
X029338Y005101D01*
X029162Y005028D01*
X029028Y004893D01*
X028955Y004718D01*
X028955Y004527D01*
X029028Y004351D01*
X029162Y004217D01*
X029338Y004144D01*
X029528Y004144D01*
X029704Y004217D01*
X029839Y004351D01*
X029912Y004527D01*
X029912Y004718D01*
X029839Y004893D01*
X029704Y005028D01*
X029866Y004826D02*
X029978Y004826D01*
X029935Y004631D02*
X029912Y004631D01*
X029874Y004436D02*
X029970Y004436D01*
X030111Y004240D02*
X029727Y004240D01*
X029664Y004045D02*
X030167Y004045D01*
X029989Y003849D02*
X029857Y003849D01*
X029912Y003654D02*
X029935Y003654D01*
X029962Y003459D02*
X029883Y003459D01*
X029203Y004045D02*
X028664Y004045D01*
X028528Y004144D02*
X028704Y004217D01*
X028839Y004351D01*
X028912Y004527D01*
X028912Y004718D01*
X028839Y004893D01*
X028704Y005028D01*
X028528Y005101D01*
X028338Y005101D01*
X028162Y005028D01*
X028028Y004893D01*
X027955Y004718D01*
X027955Y004527D01*
X028028Y004351D01*
X028162Y004217D01*
X028338Y004144D01*
X028528Y004144D01*
X028727Y004240D02*
X029139Y004240D01*
X028993Y004436D02*
X028874Y004436D01*
X028912Y004631D02*
X028955Y004631D01*
X029000Y004826D02*
X028866Y004826D01*
X028710Y005022D02*
X029156Y005022D01*
X028156Y005022D02*
X027710Y005022D01*
X027704Y005028D02*
X027528Y005101D01*
X027338Y005101D01*
X027162Y005028D01*
X027028Y004893D01*
X026955Y004718D01*
X026955Y004527D01*
X027028Y004351D01*
X027162Y004217D01*
X027338Y004144D01*
X027528Y004144D01*
X027704Y004217D01*
X027839Y004351D01*
X027912Y004527D01*
X027912Y004718D01*
X027839Y004893D01*
X027704Y005028D01*
X027866Y004826D02*
X028000Y004826D01*
X027955Y004631D02*
X027912Y004631D01*
X027874Y004436D02*
X027993Y004436D01*
X028139Y004240D02*
X027727Y004240D01*
X027664Y004045D02*
X028203Y004045D01*
X028009Y003849D02*
X027857Y003849D01*
X027912Y003654D02*
X027955Y003654D01*
X027983Y003459D02*
X027883Y003459D01*
X027203Y004045D02*
X026664Y004045D01*
X026528Y004144D02*
X026704Y004217D01*
X026839Y004351D01*
X026912Y004527D01*
X026912Y004718D01*
X026839Y004893D01*
X026704Y005028D01*
X026528Y005101D01*
X026338Y005101D01*
X026162Y005028D01*
X026028Y004893D01*
X025955Y004718D01*
X025955Y004527D01*
X026028Y004351D01*
X026162Y004217D01*
X026338Y004144D01*
X026528Y004144D01*
X026727Y004240D02*
X027139Y004240D01*
X026993Y004436D02*
X026874Y004436D01*
X026912Y004631D02*
X026955Y004631D01*
X027000Y004826D02*
X026866Y004826D01*
X026710Y005022D02*
X027156Y005022D01*
X026156Y005022D02*
X025710Y005022D01*
X025866Y004826D02*
X026000Y004826D01*
X025955Y004631D02*
X025912Y004631D01*
X025874Y004436D02*
X025993Y004436D01*
X026139Y004240D02*
X025727Y004240D01*
X025664Y004045D02*
X026203Y004045D01*
X026009Y003849D02*
X025857Y003849D01*
X025912Y003654D02*
X025955Y003654D01*
X025983Y003459D02*
X025883Y003459D01*
X024983Y003459D02*
X024883Y003459D01*
X024912Y003654D02*
X024955Y003654D01*
X025009Y003849D02*
X024857Y003849D01*
X023203Y004045D02*
X022664Y004045D01*
X022528Y004144D02*
X022704Y004217D01*
X022839Y004351D01*
X022912Y004527D01*
X022912Y004718D01*
X022839Y004893D01*
X022704Y005028D01*
X022536Y005097D01*
X022704Y005167D01*
X022839Y005301D01*
X022912Y005477D01*
X022912Y006268D01*
X022839Y006443D01*
X022704Y006578D01*
X022528Y006651D01*
X022338Y006651D01*
X022162Y006578D01*
X022028Y006443D01*
X021955Y006268D01*
X021955Y005477D01*
X022028Y005301D01*
X022162Y005167D01*
X022330Y005097D01*
X022162Y005028D01*
X022028Y004893D01*
X021955Y004718D01*
X021955Y004527D01*
X022028Y004351D01*
X022162Y004217D01*
X022338Y004144D01*
X022528Y004144D01*
X022727Y004240D02*
X023139Y004240D01*
X022993Y004436D02*
X022874Y004436D01*
X022912Y004631D02*
X022955Y004631D01*
X023000Y004826D02*
X022866Y004826D01*
X022710Y005022D02*
X023156Y005022D01*
X023112Y005217D02*
X022754Y005217D01*
X022885Y005413D02*
X022981Y005413D01*
X022955Y005608D02*
X022912Y005608D01*
X022912Y005803D02*
X022955Y005803D01*
X022955Y005999D02*
X022912Y005999D01*
X022912Y006194D02*
X022955Y006194D01*
X023005Y006390D02*
X022861Y006390D01*
X022687Y006585D02*
X023175Y006585D01*
X023175Y006780D02*
X021182Y006780D01*
X021182Y006976D02*
X023175Y006976D01*
X023175Y007171D02*
X021182Y007171D01*
X020665Y007171D02*
X020404Y007171D01*
X020482Y007366D02*
X020665Y007366D01*
X020685Y007562D02*
X020482Y007562D01*
X020665Y006976D02*
X019868Y006976D01*
X019889Y006780D02*
X020665Y006780D01*
X020435Y006585D02*
X020431Y006585D01*
X020431Y006390D02*
X020435Y006390D01*
X020431Y006194D02*
X020435Y006194D01*
X020431Y005999D02*
X020435Y005999D01*
X019935Y005999D02*
X018692Y005999D01*
X018692Y006194D02*
X018793Y006194D01*
X018783Y006390D02*
X018631Y006390D01*
X018436Y006585D02*
X019277Y006585D01*
X019395Y006585D02*
X020153Y006585D01*
X019984Y006390D02*
X019889Y006390D01*
X019879Y006194D02*
X019935Y006194D01*
X019395Y006194D02*
X019277Y006194D01*
X019277Y006390D02*
X019395Y006390D01*
X018783Y006780D02*
X018305Y006780D01*
X018135Y006976D02*
X018804Y006976D01*
X018762Y007171D02*
X016409Y007171D01*
X016151Y006976D02*
X017831Y006976D01*
X017662Y006780D02*
X017524Y006780D01*
X017242Y006780D02*
X015892Y006780D01*
X015633Y006585D02*
X017063Y006585D01*
X017051Y006390D02*
X015374Y006390D01*
X015115Y006194D02*
X017183Y006194D01*
X017587Y005999D02*
X014856Y005999D01*
X014528Y005101D02*
X014338Y005101D01*
X014162Y005028D01*
X014028Y004893D01*
X013955Y004718D01*
X013955Y004527D01*
X014028Y004351D01*
X014162Y004217D01*
X014338Y004144D01*
X014528Y004144D01*
X014704Y004217D01*
X014839Y004351D01*
X014912Y004527D01*
X014912Y004718D01*
X014839Y004893D01*
X014704Y005028D01*
X014528Y005101D01*
X014710Y005022D02*
X015156Y005022D01*
X015162Y005028D02*
X015028Y004893D01*
X014955Y004718D01*
X014955Y004527D01*
X015028Y004351D01*
X015162Y004217D01*
X015338Y004144D01*
X015528Y004144D01*
X015704Y004217D01*
X015839Y004351D01*
X015912Y004527D01*
X015912Y004718D01*
X015839Y004893D01*
X015704Y005028D01*
X015528Y005101D01*
X015338Y005101D01*
X015162Y005028D01*
X015000Y004826D02*
X014866Y004826D01*
X014912Y004631D02*
X014955Y004631D01*
X014993Y004436D02*
X014874Y004436D01*
X014727Y004240D02*
X015139Y004240D01*
X015203Y004045D02*
X014664Y004045D01*
X014857Y003849D02*
X015009Y003849D01*
X014955Y003654D02*
X014912Y003654D01*
X014883Y003459D02*
X014983Y003459D01*
X015664Y004045D02*
X016203Y004045D01*
X016338Y004144D02*
X016528Y004144D01*
X016704Y004217D01*
X016839Y004351D01*
X016912Y004527D01*
X016912Y004718D01*
X016839Y004893D01*
X016704Y005028D01*
X016528Y005101D01*
X016338Y005101D01*
X016162Y005028D01*
X016028Y004893D01*
X015955Y004718D01*
X015955Y004527D01*
X016028Y004351D01*
X016162Y004217D01*
X016338Y004144D01*
X016139Y004240D02*
X015727Y004240D01*
X015874Y004436D02*
X015993Y004436D01*
X015955Y004631D02*
X015912Y004631D01*
X015866Y004826D02*
X016000Y004826D01*
X016156Y005022D02*
X015710Y005022D01*
X016710Y005022D02*
X017156Y005022D01*
X017000Y004826D02*
X016866Y004826D01*
X016912Y004631D02*
X016955Y004631D01*
X016993Y004436D02*
X016874Y004436D01*
X016727Y004240D02*
X017139Y004240D01*
X017203Y004045D02*
X016664Y004045D01*
X016857Y003849D02*
X017009Y003849D01*
X016955Y003654D02*
X016912Y003654D01*
X016883Y003459D02*
X016983Y003459D01*
X017664Y004045D02*
X017750Y004045D01*
X017750Y004240D02*
X017727Y004240D01*
X017710Y005022D02*
X017750Y005022D01*
X017750Y005217D02*
X011218Y005217D01*
X011039Y005413D02*
X017750Y005413D01*
X017750Y005608D02*
X010861Y005608D01*
X010682Y005803D02*
X017750Y005803D01*
X018692Y005803D02*
X019235Y005803D01*
X019145Y005608D02*
X018692Y005608D01*
X018692Y005413D02*
X019183Y005413D01*
X019473Y005217D02*
X018692Y005217D01*
X018710Y005022D02*
X019156Y005022D01*
X019000Y004826D02*
X018866Y004826D01*
X018912Y004631D02*
X018955Y004631D01*
X018993Y004436D02*
X018874Y004436D01*
X018727Y004240D02*
X019139Y004240D01*
X019203Y004045D02*
X018664Y004045D01*
X018857Y003849D02*
X019009Y003849D01*
X018955Y003654D02*
X018912Y003654D01*
X018883Y003459D02*
X018983Y003459D01*
X019664Y004045D02*
X020203Y004045D01*
X020139Y004240D02*
X019727Y004240D01*
X019874Y004436D02*
X019993Y004436D01*
X019955Y004631D02*
X019912Y004631D01*
X020727Y004240D02*
X021139Y004240D01*
X021203Y004045D02*
X020664Y004045D01*
X020857Y003849D02*
X021009Y003849D01*
X020955Y003654D02*
X020912Y003654D01*
X020883Y003459D02*
X020983Y003459D01*
X021664Y004045D02*
X022203Y004045D01*
X022139Y004240D02*
X021727Y004240D01*
X021874Y004436D02*
X021993Y004436D01*
X021955Y004631D02*
X021912Y004631D01*
X021866Y004826D02*
X022000Y004826D01*
X022156Y005022D02*
X021710Y005022D01*
X021754Y005217D02*
X022112Y005217D01*
X021981Y005413D02*
X021885Y005413D01*
X021912Y005608D02*
X021955Y005608D01*
X021955Y005803D02*
X021912Y005803D01*
X021912Y005999D02*
X021955Y005999D01*
X021955Y006194D02*
X021912Y006194D01*
X021861Y006390D02*
X022005Y006390D01*
X022179Y006585D02*
X021687Y006585D01*
X022719Y007366D02*
X023175Y007366D01*
X023175Y007562D02*
X022742Y007562D01*
X022742Y007757D02*
X023175Y007757D01*
X023175Y007953D02*
X022742Y007953D01*
X022742Y008148D02*
X023175Y008148D01*
X023175Y008343D02*
X022742Y008343D01*
X022742Y008539D02*
X023284Y008539D01*
X023479Y008734D02*
X022742Y008734D01*
X022742Y008930D02*
X023675Y008930D01*
X023870Y009125D02*
X022696Y009125D01*
X021840Y008343D02*
X021291Y008343D01*
X021291Y008148D02*
X021386Y008148D01*
X021386Y007953D02*
X021291Y007953D01*
X021190Y007757D02*
X021490Y007757D01*
X021841Y007757D02*
X021959Y007757D01*
X021959Y007953D02*
X021841Y007953D01*
X021841Y008148D02*
X021959Y008148D01*
X021386Y008539D02*
X021291Y008539D01*
X020825Y008930D02*
X020519Y008930D01*
X020825Y009125D02*
X020166Y009125D01*
X019971Y009320D02*
X020825Y009320D01*
X020825Y009516D02*
X020149Y009516D01*
X020344Y009711D02*
X020825Y009711D01*
X020825Y009907D02*
X020539Y009907D01*
X020642Y010102D02*
X020825Y010102D01*
X020825Y010297D02*
X020642Y010297D01*
X020642Y010493D02*
X020825Y010493D01*
X020825Y010688D02*
X020642Y010688D01*
X020642Y010884D02*
X020825Y010884D01*
X020825Y011079D02*
X020642Y011079D01*
X020642Y011274D02*
X020825Y011274D01*
X020825Y011470D02*
X020623Y011470D01*
X020456Y011665D02*
X020812Y011665D01*
X020745Y011861D02*
X020260Y011861D01*
X020065Y012056D02*
X020793Y012056D01*
X020471Y012447D02*
X019742Y012447D01*
X019742Y012642D02*
X020383Y012642D01*
X020383Y012838D02*
X019742Y012838D01*
X019742Y013033D02*
X020384Y013033D01*
X020383Y013228D02*
X019742Y013228D01*
X019742Y013424D02*
X020407Y013424D01*
X020383Y013619D02*
X019602Y013619D01*
X019407Y013814D02*
X020383Y013814D01*
X020389Y014010D02*
X019179Y014010D01*
X019204Y014205D02*
X020363Y014205D01*
X020856Y014401D02*
X020857Y014401D01*
X021337Y014401D02*
X021558Y014401D01*
X021558Y014205D02*
X021350Y014205D01*
X021324Y014010D02*
X021558Y014010D01*
X022000Y013619D02*
X028694Y013619D01*
X029040Y013814D02*
X025667Y013814D01*
X025892Y014401D02*
X027347Y014401D01*
X027570Y014596D02*
X022453Y014596D01*
X022629Y014791D02*
X027793Y014791D01*
X028131Y014401D02*
X029040Y014401D01*
X029040Y014987D02*
X025245Y014987D01*
X025243Y014983D02*
X025269Y015028D01*
X025283Y015079D01*
X025283Y015432D01*
X024738Y015432D01*
X024738Y015628D01*
X025283Y015628D01*
X025283Y015981D01*
X025269Y016031D01*
X025243Y016077D01*
X025206Y016114D01*
X025161Y016140D01*
X025110Y016153D01*
X024738Y016153D01*
X024738Y015628D01*
X024541Y015628D01*
X024541Y015432D01*
X023996Y015432D01*
X023996Y015079D01*
X024009Y015028D01*
X024035Y014983D01*
X024072Y014946D01*
X024118Y014920D01*
X024168Y014906D01*
X024541Y014906D01*
X024541Y015431D01*
X024738Y015431D01*
X024738Y014906D01*
X025110Y014906D01*
X025161Y014920D01*
X025206Y014946D01*
X025243Y014983D01*
X025283Y015182D02*
X030735Y015182D01*
X030539Y015378D02*
X025283Y015378D01*
X025283Y015768D02*
X027108Y015768D01*
X026857Y015964D02*
X025283Y015964D01*
X024738Y015964D02*
X024541Y015964D01*
X024541Y016153D02*
X024168Y016153D01*
X024118Y016140D01*
X024072Y016114D01*
X024035Y016077D01*
X024009Y016031D01*
X023996Y015981D01*
X023996Y015628D01*
X024541Y015628D01*
X024541Y016153D01*
X024541Y015768D02*
X024738Y015768D01*
X024738Y015573D02*
X027394Y015573D01*
X026606Y016159D02*
X011410Y016159D01*
X011412Y015964D02*
X022096Y015964D01*
X022096Y015768D02*
X011415Y015768D01*
X011407Y016355D02*
X014000Y016355D01*
X014607Y016355D02*
X026354Y016355D01*
X027276Y017136D02*
X010843Y017136D01*
X010843Y016941D02*
X010993Y016941D01*
X016936Y014596D02*
X021937Y014596D01*
X021944Y014791D02*
X017131Y014791D01*
X018006Y013033D02*
X018006Y013033D01*
X018006Y012838D02*
X018006Y012838D01*
X018257Y012642D02*
X011456Y012642D01*
X011459Y012447D02*
X018345Y012447D01*
X018525Y012251D02*
X011461Y012251D01*
X011464Y012056D02*
X018625Y012056D01*
X018553Y011861D02*
X011467Y011861D01*
X011469Y011665D02*
X018561Y011665D01*
X018488Y011470D02*
X011472Y011470D01*
X011474Y011274D02*
X018355Y011274D01*
X018355Y011079D02*
X015683Y011079D01*
X015695Y011059D02*
X015669Y011104D01*
X015632Y011141D01*
X015586Y011168D01*
X015536Y011181D01*
X015254Y011181D01*
X015254Y010688D01*
X015136Y010688D01*
X015136Y011181D01*
X014854Y011181D01*
X014803Y011168D01*
X014758Y011141D01*
X014721Y011104D01*
X014695Y011059D01*
X014682Y011009D01*
X014682Y010687D01*
X015136Y010687D01*
X015136Y010569D01*
X015254Y010569D01*
X015254Y010076D01*
X015536Y010076D01*
X015586Y010089D01*
X015632Y010115D01*
X015669Y010152D01*
X015695Y010197D01*
X015708Y010248D01*
X015708Y010569D01*
X015254Y010569D01*
X015254Y010687D01*
X015708Y010687D01*
X015708Y011009D01*
X015695Y011059D01*
X015708Y010884D02*
X018355Y010884D01*
X018355Y010688D02*
X015708Y010688D01*
X015708Y010493D02*
X020125Y010493D01*
X020125Y010688D02*
X020051Y010688D01*
X020051Y010884D02*
X020125Y010884D01*
X020125Y011079D02*
X020051Y011079D01*
X020051Y011274D02*
X020116Y011274D01*
X019920Y011470D02*
X019918Y011470D01*
X019725Y011665D02*
X019205Y011665D01*
X019213Y011861D02*
X019530Y011861D01*
X019334Y012056D02*
X019142Y012056D01*
X019130Y012251D02*
X019225Y012251D01*
X019225Y012447D02*
X019116Y012447D01*
X019204Y012642D02*
X019225Y012642D01*
X019225Y012838D02*
X019204Y012838D01*
X019211Y013033D02*
X019225Y013033D01*
X019224Y013217D02*
X018731Y013217D01*
X019224Y013217D01*
X019224Y013228D02*
X019225Y013228D01*
X018731Y013217D02*
X018731Y013217D01*
X017619Y012838D02*
X011454Y012838D01*
X011634Y011079D02*
X012228Y011079D01*
X012225Y010884D02*
X011637Y010884D01*
X011637Y010688D02*
X012225Y010688D01*
X012225Y010493D02*
X011637Y010493D01*
X011557Y010297D02*
X012305Y010297D01*
X013053Y010297D02*
X013599Y010297D01*
X013697Y010102D02*
X013356Y010102D01*
X013433Y009907D02*
X013785Y009907D01*
X013636Y009711D02*
X013628Y009711D01*
X014146Y009516D02*
X018119Y009516D01*
X018039Y009320D02*
X016586Y009320D01*
X016645Y009125D02*
X018039Y009125D01*
X017996Y008930D02*
X016645Y008930D01*
X016968Y008734D02*
X017942Y008734D01*
X017942Y008148D02*
X017824Y008148D01*
X016999Y007953D02*
X018685Y007953D01*
X018685Y007757D02*
X017007Y007757D01*
X016928Y007562D02*
X018685Y007562D01*
X018685Y007366D02*
X016668Y007366D01*
X015642Y007926D02*
X015166Y007204D01*
X014941Y007204D01*
X014941Y007422D01*
X014477Y007422D01*
X014477Y007481D01*
X014941Y007481D01*
X014941Y007733D01*
X014927Y007784D01*
X014901Y007829D01*
X014864Y007866D01*
X014819Y007892D01*
X014768Y007905D01*
X014476Y007905D01*
X014476Y007481D01*
X014417Y007481D01*
X014417Y007422D01*
X014000Y007422D01*
X014000Y007426D01*
X013536Y007426D01*
X013536Y007485D01*
X013953Y007485D01*
X013953Y007481D01*
X014417Y007481D01*
X014417Y007905D01*
X014126Y007905D01*
X014075Y007892D01*
X014030Y007866D01*
X013993Y007829D01*
X013978Y007802D01*
X013960Y007833D01*
X013923Y007870D01*
X013878Y007896D01*
X013877Y007896D01*
X013887Y007906D01*
X013911Y007906D01*
X013911Y007931D01*
X013912Y007931D01*
X013912Y007906D01*
X014036Y007906D01*
X014086Y007920D01*
X014108Y007932D01*
X014113Y007926D01*
X014458Y007926D01*
X014562Y008031D01*
X014562Y008043D01*
X014612Y008043D01*
X014715Y008043D01*
X014810Y008082D01*
X014910Y008183D01*
X014910Y008071D01*
X014923Y008020D01*
X014950Y007975D01*
X014986Y007938D01*
X015032Y007912D01*
X015082Y007898D01*
X015325Y007898D01*
X015568Y007898D01*
X015618Y007912D01*
X015642Y007926D01*
X015531Y007757D02*
X014934Y007757D01*
X014941Y007562D02*
X015402Y007562D01*
X015273Y007366D02*
X014941Y007366D01*
X014476Y007562D02*
X014417Y007562D01*
X014417Y007757D02*
X014476Y007757D01*
X014484Y007953D02*
X014972Y007953D01*
X014910Y008148D02*
X014875Y008148D01*
X015325Y008148D02*
X015325Y008148D01*
X015325Y008293D02*
X015325Y007898D01*
X015325Y008293D01*
X015325Y008293D01*
X015325Y007953D02*
X015325Y007953D01*
X014731Y008734D02*
X013831Y008734D01*
X013911Y008539D02*
X013912Y008539D01*
X013911Y008343D02*
X013912Y008343D01*
X014562Y008930D02*
X014926Y008930D01*
X014930Y009125D02*
X014562Y009125D01*
X014562Y009320D02*
X015017Y009320D01*
X015633Y009320D02*
X015914Y009320D01*
X015609Y010102D02*
X020004Y010102D01*
X020125Y010297D02*
X015708Y010297D01*
X015254Y010297D02*
X015136Y010297D01*
X015136Y010102D02*
X015254Y010102D01*
X015136Y010076D02*
X015136Y010569D01*
X014682Y010569D01*
X014682Y010248D01*
X014695Y010197D01*
X014721Y010152D01*
X014758Y010115D01*
X014803Y010089D01*
X014854Y010076D01*
X015136Y010076D01*
X014781Y010102D02*
X014488Y010102D01*
X014586Y010297D02*
X014682Y010297D01*
X014682Y010493D02*
X014586Y010493D01*
X014586Y010688D02*
X014682Y010688D01*
X014682Y010884D02*
X014586Y010884D01*
X014564Y011079D02*
X014706Y011079D01*
X015136Y011079D02*
X015254Y011079D01*
X015254Y010884D02*
X015136Y010884D01*
X015136Y010688D02*
X015254Y010688D01*
X015254Y010493D02*
X015136Y010493D01*
X014351Y009907D02*
X019809Y009907D01*
X019613Y009711D02*
X014315Y009711D01*
X013622Y011079D02*
X013130Y011079D01*
X010729Y010688D02*
X010556Y010688D01*
X010729Y010493D02*
X006906Y010493D01*
X006906Y010297D02*
X010809Y010297D01*
X010970Y008619D02*
X012272Y008624D01*
X012272Y008112D01*
X012272Y007948D01*
X012388Y007832D01*
X013051Y007832D01*
X013026Y007788D01*
X013012Y007737D01*
X013012Y007485D01*
X013476Y007485D01*
X013476Y007426D01*
X013012Y007426D01*
X013012Y007204D01*
X012108Y007204D01*
X012108Y007205D01*
X012122Y007256D01*
X012122Y007705D01*
X011658Y007705D01*
X011658Y007843D01*
X012122Y007843D01*
X012122Y008292D01*
X012108Y008343D01*
X012082Y008388D01*
X012045Y008425D01*
X012000Y008451D01*
X011949Y008465D01*
X011658Y008465D01*
X011658Y007843D01*
X011520Y007843D01*
X011520Y008465D01*
X011228Y008465D01*
X011177Y008451D01*
X011132Y008425D01*
X011095Y008388D01*
X011069Y008343D01*
X011056Y008292D01*
X011056Y007843D01*
X011519Y007843D01*
X011519Y007705D01*
X011056Y007705D01*
X011056Y007256D01*
X011069Y007205D01*
X011070Y007204D01*
X010976Y007204D01*
X010976Y007908D01*
X010976Y008073D01*
X010861Y008187D01*
X010862Y008188D01*
X010864Y008188D01*
X010919Y008246D01*
X010976Y008302D01*
X010976Y008305D01*
X010978Y008307D01*
X010976Y008387D01*
X010976Y008466D01*
X010974Y008468D01*
X010970Y008619D01*
X010972Y008539D02*
X012272Y008539D01*
X012272Y008343D02*
X012108Y008343D01*
X012122Y008148D02*
X012272Y008148D01*
X012272Y007953D02*
X012122Y007953D01*
X012122Y007562D02*
X013012Y007562D01*
X013018Y007757D02*
X011658Y007757D01*
X011519Y007757D02*
X010976Y007757D01*
X010976Y007562D02*
X011056Y007562D01*
X011056Y007366D02*
X010976Y007366D01*
X010976Y007953D02*
X011056Y007953D01*
X011056Y008148D02*
X010900Y008148D01*
X010977Y008343D02*
X011070Y008343D01*
X011520Y008343D02*
X011658Y008343D01*
X011658Y008148D02*
X011520Y008148D01*
X011520Y007953D02*
X011658Y007953D01*
X012122Y007366D02*
X013012Y007366D01*
X010339Y005413D02*
X006906Y005413D01*
X006906Y005608D02*
X010160Y005608D01*
X009981Y005803D02*
X006906Y005803D01*
X006906Y005999D02*
X007056Y005999D01*
X006997Y006194D02*
X006906Y006194D01*
X006906Y006390D02*
X006997Y006390D01*
X006997Y006585D02*
X006906Y006585D01*
X006906Y006780D02*
X006997Y006780D01*
X006997Y006976D02*
X006906Y006976D01*
X006906Y007171D02*
X006997Y007171D01*
X006997Y007366D02*
X006906Y007366D01*
X006906Y007562D02*
X006997Y007562D01*
X006997Y007757D02*
X006906Y007757D01*
X006906Y007953D02*
X006997Y007953D01*
X007072Y008148D02*
X006906Y008148D01*
X006906Y008343D02*
X007115Y008343D01*
X007115Y008539D02*
X006906Y008539D01*
X006906Y008734D02*
X007115Y008734D01*
X007115Y008930D02*
X006906Y008930D01*
X006906Y009125D02*
X007115Y009125D01*
X007115Y009320D02*
X006906Y009320D01*
X006906Y009516D02*
X007115Y009516D01*
X007115Y009711D02*
X006906Y009711D01*
X006906Y009907D02*
X007115Y009907D01*
X007176Y010102D02*
X006906Y010102D01*
X006906Y005217D02*
X010518Y005217D01*
X010156Y005022D02*
X009731Y005022D01*
X009758Y005003D02*
X009694Y005049D01*
X009624Y005084D01*
X009550Y005109D01*
X009472Y005121D01*
X009435Y005121D01*
X009435Y004624D01*
X009932Y004624D01*
X009932Y004662D01*
X009919Y004739D01*
X009895Y004814D01*
X009859Y004884D01*
X009813Y004947D01*
X009758Y005003D01*
X009889Y004826D02*
X010000Y004826D01*
X009955Y004631D02*
X009932Y004631D01*
X009932Y004621D02*
X009435Y004621D01*
X009435Y004624D01*
X009431Y004624D01*
X009431Y004621D01*
X008935Y004621D01*
X008935Y004583D01*
X008947Y004506D01*
X008971Y004431D01*
X009007Y004361D01*
X009053Y004298D01*
X009108Y004242D01*
X009172Y004196D01*
X009242Y004161D01*
X009316Y004136D01*
X009394Y004124D01*
X009431Y004124D01*
X009431Y004621D01*
X009435Y004621D01*
X009435Y004124D01*
X009472Y004124D01*
X009550Y004136D01*
X009624Y004161D01*
X009694Y004196D01*
X009758Y004242D01*
X009813Y004298D01*
X009859Y004361D01*
X009895Y004431D01*
X009919Y004506D01*
X009932Y004583D01*
X009932Y004621D01*
X009896Y004436D02*
X009993Y004436D01*
X010139Y004240D02*
X009755Y004240D01*
X009700Y004045D02*
X010203Y004045D01*
X010009Y003849D02*
X009877Y003849D01*
X009932Y003654D02*
X009955Y003654D01*
X009983Y003459D02*
X009904Y003459D01*
X009435Y003654D02*
X009431Y003654D01*
X009431Y003849D02*
X009435Y003849D01*
X009431Y004045D02*
X009435Y004045D01*
X009431Y004240D02*
X009435Y004240D01*
X009431Y004436D02*
X009435Y004436D01*
X009431Y004624D02*
X008935Y004624D01*
X008935Y004662D01*
X008947Y004739D01*
X008971Y004814D01*
X009007Y004884D01*
X009053Y004947D01*
X009108Y005003D01*
X009172Y005049D01*
X009242Y005084D01*
X009316Y005109D01*
X009394Y005121D01*
X009431Y005121D01*
X009431Y004624D01*
X009431Y004631D02*
X009435Y004631D01*
X009431Y004826D02*
X009435Y004826D01*
X009431Y005022D02*
X009435Y005022D01*
X009135Y005022D02*
X006906Y005022D01*
X006906Y004826D02*
X008978Y004826D01*
X008935Y004631D02*
X006906Y004631D01*
X006906Y004436D02*
X008970Y004436D01*
X009111Y004240D02*
X006906Y004240D01*
X006906Y004045D02*
X009167Y004045D01*
X008989Y003849D02*
X006906Y003849D01*
X006906Y003654D02*
X008935Y003654D01*
X008962Y003459D02*
X006906Y003459D01*
X010664Y004045D02*
X011175Y004045D01*
X011139Y004240D02*
X010727Y004240D01*
X010874Y004436D02*
X010993Y004436D01*
X010955Y004631D02*
X010912Y004631D01*
X010875Y004826D02*
X010866Y004826D01*
X011710Y005022D02*
X012156Y005022D01*
X012000Y004826D02*
X011866Y004826D01*
X011912Y004631D02*
X011955Y004631D01*
X011993Y004436D02*
X011874Y004436D01*
X011727Y004240D02*
X012139Y004240D01*
X012175Y004045D02*
X011692Y004045D01*
X011857Y003849D02*
X012009Y003849D01*
X011955Y003654D02*
X011912Y003654D01*
X011883Y003459D02*
X011983Y003459D01*
X012692Y004045D02*
X013203Y004045D01*
X013338Y004144D02*
X013528Y004144D01*
X013704Y004217D01*
X013839Y004351D01*
X013912Y004527D01*
X013912Y004718D01*
X013839Y004893D01*
X013704Y005028D01*
X013528Y005101D01*
X013338Y005101D01*
X013162Y005028D01*
X013028Y004893D01*
X012955Y004718D01*
X012955Y004527D01*
X013028Y004351D01*
X013162Y004217D01*
X013338Y004144D01*
X013139Y004240D02*
X012727Y004240D01*
X012874Y004436D02*
X012993Y004436D01*
X012955Y004631D02*
X012912Y004631D01*
X012866Y004826D02*
X013000Y004826D01*
X013156Y005022D02*
X012710Y005022D01*
X013710Y005022D02*
X014156Y005022D01*
X014000Y004826D02*
X013866Y004826D01*
X013912Y004631D02*
X013955Y004631D01*
X013993Y004436D02*
X013874Y004436D01*
X013727Y004240D02*
X014139Y004240D01*
X014203Y004045D02*
X013664Y004045D01*
X013857Y003849D02*
X014009Y003849D01*
X013955Y003654D02*
X013912Y003654D01*
X013883Y003459D02*
X013983Y003459D01*
X012983Y003459D02*
X012883Y003459D01*
X012912Y003654D02*
X012955Y003654D01*
X013009Y003849D02*
X012857Y003849D01*
X011009Y003849D02*
X010857Y003849D01*
X010912Y003654D02*
X010955Y003654D01*
X010983Y003459D02*
X010883Y003459D01*
X015857Y003849D02*
X016009Y003849D01*
X015955Y003654D02*
X015912Y003654D01*
X015883Y003459D02*
X015983Y003459D01*
X019857Y003849D02*
X020009Y003849D01*
X019955Y003654D02*
X019912Y003654D01*
X019883Y003459D02*
X019983Y003459D01*
X020874Y004436D02*
X020993Y004436D01*
X020955Y004631D02*
X020912Y004631D01*
X020925Y004826D02*
X020866Y004826D01*
X019935Y005608D02*
X019822Y005608D01*
X019731Y005803D02*
X019935Y005803D01*
X021857Y003849D02*
X022009Y003849D01*
X021955Y003654D02*
X021912Y003654D01*
X021883Y003459D02*
X021983Y003459D01*
X022883Y003459D02*
X022983Y003459D01*
X022955Y003654D02*
X022912Y003654D01*
X022857Y003849D02*
X023009Y003849D01*
X026857Y003849D02*
X027009Y003849D01*
X026955Y003654D02*
X026912Y003654D01*
X026883Y003459D02*
X026983Y003459D01*
X028883Y003459D02*
X028983Y003459D01*
X028955Y003654D02*
X028912Y003654D01*
X028857Y003849D02*
X029009Y003849D01*
X026367Y006976D02*
X024692Y006976D01*
X024692Y007171D02*
X026367Y007171D01*
X026367Y007366D02*
X024692Y007366D01*
X024692Y007562D02*
X026367Y007562D01*
X026367Y007757D02*
X024692Y007757D01*
X024692Y007953D02*
X026367Y007953D01*
X026367Y008148D02*
X024692Y008148D01*
X024820Y008343D02*
X026367Y008343D01*
X024652Y009907D02*
X021342Y009907D01*
X021342Y010102D02*
X024847Y010102D01*
X025043Y010297D02*
X021342Y010297D01*
X021342Y010493D02*
X025238Y010493D01*
X025425Y010688D02*
X021342Y010688D01*
X021342Y010884D02*
X025425Y010884D01*
X025425Y011079D02*
X021342Y011079D01*
X021342Y011274D02*
X022211Y011274D01*
X022155Y011470D02*
X021342Y011470D01*
X021354Y011665D02*
X022155Y011665D01*
X022155Y011861D02*
X021422Y011861D01*
X021373Y012056D02*
X022155Y012056D01*
X021991Y012251D02*
X019870Y012251D01*
X019252Y011470D02*
X019154Y011470D01*
X019154Y011274D02*
X019252Y011274D01*
X019252Y011079D02*
X019154Y011079D01*
X019154Y010884D02*
X019252Y010884D01*
X019252Y010688D02*
X019154Y010688D01*
X021342Y009711D02*
X024456Y009711D01*
X024261Y009516D02*
X021342Y009516D01*
X021342Y009320D02*
X024066Y009320D01*
X025578Y010102D02*
X025847Y010102D01*
X025774Y010297D02*
X026025Y010297D01*
X026025Y010493D02*
X025930Y010493D01*
X025942Y010688D02*
X026025Y010688D01*
X026025Y010884D02*
X025942Y010884D01*
X025942Y011079D02*
X026025Y011079D01*
X026025Y011274D02*
X025942Y011274D01*
X025942Y011470D02*
X026025Y011470D01*
X026042Y011665D02*
X025942Y011665D01*
X025942Y011861D02*
X026206Y011861D01*
X026401Y012056D02*
X025942Y012056D01*
X026241Y012251D02*
X027283Y012251D01*
X027683Y012251D02*
X027812Y012251D01*
X027815Y012056D02*
X027818Y012056D01*
X027803Y011861D02*
X027823Y011861D01*
X027836Y011665D02*
X027626Y011665D01*
X027341Y011665D02*
X026741Y011665D01*
X026546Y011470D02*
X028011Y011470D01*
X028242Y011274D02*
X026542Y011274D01*
X026542Y011079D02*
X028472Y011079D01*
X028702Y010884D02*
X026542Y010884D01*
X026542Y010688D02*
X028932Y010688D01*
X029163Y010493D02*
X026542Y010493D01*
X026542Y010297D02*
X029393Y010297D01*
X029731Y010688D02*
X030559Y010688D01*
X030561Y010493D02*
X029962Y010493D01*
X030192Y010297D02*
X030704Y010297D01*
X030944Y010102D02*
X030422Y010102D01*
X031075Y010688D02*
X033226Y010688D01*
X033026Y010884D02*
X031075Y010884D01*
X031075Y011079D02*
X032897Y011079D01*
X032816Y011274D02*
X031075Y011274D01*
X031075Y011470D02*
X032796Y011470D01*
X032796Y011665D02*
X031075Y011665D01*
X031075Y011861D02*
X032859Y011861D01*
X032940Y012056D02*
X032370Y012056D01*
X032370Y012251D02*
X033128Y012251D01*
X033471Y012447D02*
X032370Y012447D01*
X030559Y011861D02*
X028350Y011861D01*
X028335Y012056D02*
X029028Y012056D01*
X029020Y012251D02*
X028329Y012251D01*
X028324Y012447D02*
X029020Y012447D01*
X029021Y012642D02*
X028318Y012642D01*
X027801Y012642D02*
X026279Y012642D01*
X026322Y012447D02*
X027807Y012447D01*
X027796Y012838D02*
X025674Y012838D01*
X025687Y012642D02*
X022430Y012642D01*
X022526Y012447D02*
X024206Y012447D01*
X024227Y012453D02*
X024177Y012439D01*
X024131Y012413D01*
X024094Y012376D01*
X024068Y012331D01*
X024055Y012280D01*
X024055Y011927D01*
X024600Y011927D01*
X024600Y011731D01*
X024055Y011731D01*
X024055Y011378D01*
X024068Y011328D01*
X024094Y011282D01*
X024131Y011245D01*
X024177Y011219D01*
X024227Y011206D01*
X024600Y011206D01*
X024600Y011731D01*
X024797Y011731D01*
X024797Y011927D01*
X025342Y011927D01*
X025342Y012280D01*
X025328Y012331D01*
X025302Y012376D01*
X025265Y012413D01*
X025220Y012439D01*
X025169Y012453D01*
X024797Y012453D01*
X024797Y011928D01*
X024600Y011928D01*
X024600Y012453D01*
X024227Y012453D01*
X024055Y012251D02*
X023402Y012251D01*
X023402Y012056D02*
X024055Y012056D01*
X024600Y011861D02*
X023402Y011861D01*
X023402Y011665D02*
X024055Y011665D01*
X024055Y011470D02*
X023402Y011470D01*
X023346Y011274D02*
X024102Y011274D01*
X024600Y011274D02*
X024797Y011274D01*
X024797Y011206D02*
X025169Y011206D01*
X025220Y011219D01*
X025265Y011245D01*
X025302Y011282D01*
X025328Y011328D01*
X025342Y011378D01*
X025342Y011731D01*
X024797Y011731D01*
X024797Y011206D01*
X024797Y011470D02*
X024600Y011470D01*
X024600Y011665D02*
X024797Y011665D01*
X024797Y011861D02*
X025425Y011861D01*
X025425Y012056D02*
X025342Y012056D01*
X025342Y012251D02*
X025436Y012251D01*
X025592Y012447D02*
X025191Y012447D01*
X024797Y012447D02*
X024600Y012447D01*
X024600Y012251D02*
X024797Y012251D01*
X024797Y012056D02*
X024600Y012056D01*
X025342Y011665D02*
X025425Y011665D01*
X025425Y011470D02*
X025342Y011470D01*
X025294Y011274D02*
X025425Y011274D01*
X024495Y012838D02*
X022761Y012838D01*
X022785Y013033D02*
X024471Y013033D01*
X024471Y013228D02*
X022785Y013228D01*
X022785Y013424D02*
X024471Y013424D01*
X024503Y013814D02*
X022753Y013814D01*
X022785Y014010D02*
X024471Y014010D01*
X024471Y014205D02*
X022785Y014205D01*
X022785Y014401D02*
X024471Y014401D01*
X024541Y014987D02*
X024738Y014987D01*
X024738Y015182D02*
X024541Y015182D01*
X024541Y015378D02*
X024738Y015378D01*
X024541Y015573D02*
X023343Y015573D01*
X023343Y015378D02*
X023996Y015378D01*
X023996Y015182D02*
X023343Y015182D01*
X023298Y014987D02*
X024033Y014987D01*
X023996Y015768D02*
X023343Y015768D01*
X023343Y015964D02*
X023996Y015964D01*
X021582Y012838D02*
X021330Y012838D01*
X021330Y012642D02*
X021913Y012642D01*
X021913Y012447D02*
X021242Y012447D01*
X028580Y011665D02*
X030559Y011665D01*
X030559Y011470D02*
X028810Y011470D01*
X029041Y011274D02*
X030559Y011274D01*
X030559Y011079D02*
X029271Y011079D01*
X029501Y010884D02*
X030559Y010884D01*
X031894Y009907D02*
X032330Y009907D01*
X032330Y009711D02*
X032090Y009711D01*
X032285Y009516D02*
X032330Y009516D01*
X029820Y012056D02*
X029767Y012056D01*
X029767Y012251D02*
X029820Y012251D01*
X029820Y012447D02*
X029767Y012447D01*
X029767Y012642D02*
X029820Y012642D01*
X030800Y016355D02*
X031116Y016355D01*
X034208Y018895D02*
X035161Y018895D01*
X035161Y019090D02*
X034326Y019090D01*
X034374Y019286D02*
X035160Y019286D01*
X035152Y019481D02*
X034372Y019481D01*
X034291Y019676D02*
X035137Y019676D01*
X035106Y019872D02*
X034124Y019872D01*
X023754Y020458D02*
X023754Y020458D01*
X023754Y020653D02*
X023754Y020653D01*
D35*
X020581Y018581D03*
X019990Y019959D03*
X018022Y020943D03*
X015660Y021534D03*
X013494Y020156D03*
X013494Y019172D03*
X015660Y017872D03*
X024124Y018030D03*
X025384Y018384D03*
X027746Y016967D03*
X031733Y018333D03*
X031753Y018777D03*
X028100Y008345D03*
X026132Y008306D03*
D36*
X025834Y008286D01*
X024433Y008322D02*
X026283Y010172D01*
X026283Y011572D01*
X026683Y011972D01*
X027483Y011972D01*
X028085Y011746D02*
X030423Y009762D01*
X031673Y009762D01*
X032083Y009352D01*
X032083Y008642D01*
X031953Y008512D01*
X031953Y008012D02*
X031963Y008002D01*
X032433Y008002D01*
X032473Y008042D01*
X032473Y008062D01*
X032589Y008178D01*
X032589Y010353D01*
X031014Y010353D01*
X030817Y010550D01*
X030817Y014093D01*
X030226Y014683D01*
X029833Y014683D01*
X029793Y014723D01*
X028061Y014723D01*
X028061Y014683D01*
X027415Y014117D01*
X025085Y014156D01*
X025085Y013172D02*
X028045Y013172D01*
X028085Y011746D01*
X025983Y012472D02*
X025683Y012172D01*
X025683Y010572D01*
X023433Y008322D01*
X023433Y005872D01*
X024433Y005872D02*
X024433Y008322D01*
X022483Y008972D02*
X022483Y007472D01*
X020923Y007462D01*
X020923Y005172D01*
X021433Y004722D01*
X021433Y004622D01*
X020433Y004622D02*
X019483Y005572D01*
X018433Y006222D02*
X017983Y006672D01*
X018433Y006222D02*
X018433Y004622D01*
X017632Y008321D02*
X016250Y008321D01*
X016223Y008963D02*
X015325Y008963D01*
X014663Y008302D01*
X014286Y008302D01*
X013537Y008302D02*
X013502Y008266D01*
X013297Y008266D01*
X013136Y008428D01*
X012766Y008428D01*
X013888Y009152D02*
X013911Y009128D01*
X013888Y009152D02*
X013888Y009644D01*
X014093Y009849D01*
X014093Y010628D01*
X013994Y010727D01*
X012679Y010727D01*
X016223Y008963D02*
X016250Y008991D01*
X017632Y008321D02*
X017783Y008472D01*
X018283Y008472D01*
X018317Y008506D01*
X018297Y008526D01*
X018297Y009329D01*
X019597Y009329D01*
X020383Y010116D01*
X020383Y011372D01*
X019483Y012272D01*
X019483Y013372D01*
X019139Y013717D01*
X018730Y013717D01*
X018217Y013717D01*
X018006Y013782D01*
X018685Y014172D02*
X018730Y014217D01*
X018685Y014172D02*
X016841Y014172D01*
X016226Y013518D01*
X015557Y013518D02*
X016327Y014288D01*
X016327Y014353D01*
X017147Y015172D01*
X020083Y015172D01*
X022195Y014723D02*
X022195Y014180D01*
X022171Y014156D01*
X021732Y013717D01*
X020856Y013717D01*
X020856Y013217D02*
X022126Y013217D01*
X022171Y013172D01*
X022171Y012436D01*
X022778Y011829D01*
X021083Y011872D02*
X021083Y008972D01*
X022483Y008972D01*
X020797Y008286D02*
X020246Y008837D01*
X020089Y008837D01*
X019597Y009329D01*
X020089Y008837D02*
X020089Y008506D01*
X018883Y011772D02*
X018883Y012172D01*
X018783Y012272D01*
X018783Y012664D01*
X018730Y012717D01*
X018730Y013217D02*
X018110Y013217D01*
X018006Y013113D01*
X022195Y014723D02*
X022719Y015247D01*
X022719Y015530D01*
X025384Y018384D02*
X025738Y018739D01*
X025638Y019132D01*
X025920Y019414D01*
X026433Y019414D01*
X025846Y020186D02*
X025577Y019876D01*
X024974Y019876D01*
X024974Y020546D02*
X025782Y020546D01*
X025896Y020431D01*
X026427Y020431D01*
X026433Y020437D01*
X026433Y020181D02*
X026278Y020186D01*
X027183Y020186D01*
X028307Y019162D01*
X028937Y019162D01*
X028992Y019158D01*
X028992Y018646D02*
X029019Y018642D01*
X030293Y018642D01*
X030283Y017872D01*
X031298Y016543D01*
X031598Y016543D01*
X030683Y016672D02*
X029942Y016672D01*
X028992Y017622D01*
X029735Y018290D02*
X029753Y018272D01*
X030735Y018362D02*
X030715Y019093D01*
X030715Y021061D01*
X030478Y021298D01*
X028297Y021298D01*
X027693Y020693D01*
X026433Y020693D01*
X026433Y020949D02*
X027476Y020949D01*
X028140Y021613D01*
X030597Y021613D01*
X031069Y021140D01*
X031069Y019250D01*
X031483Y018817D01*
X031713Y018817D01*
X031753Y018777D01*
X031683Y018362D02*
X030735Y018362D01*
X031683Y018362D02*
X031733Y018333D01*
X026433Y018390D02*
X025390Y018390D01*
X025384Y018384D01*
X025846Y020186D02*
X026278Y020186D01*
X023085Y020290D02*
X023085Y020372D01*
X023014Y020302D01*
X019283Y020172D02*
X019283Y019469D01*
X019321Y019431D01*
X017935Y018941D02*
X017783Y018789D01*
X016841Y019441D02*
X016841Y020943D01*
X016364Y020943D01*
X016364Y021038D01*
X015888Y019441D02*
X016841Y019441D01*
X028045Y013172D02*
X029242Y013502D01*
X029439Y013502D01*
X029636Y013699D01*
X029793Y013542D01*
X027727Y009739D02*
X028953Y008512D01*
X028953Y008012D02*
X027490Y006550D01*
X027490Y006518D01*
X027494Y009739D02*
X027727Y009739D01*
X012433Y004622D02*
X012433Y003622D01*
X011433Y003622D02*
X011433Y004622D01*
X011187Y004869D01*
X009022Y007235D01*
D37*
X011183Y010727D02*
X011104Y016664D01*
X014282Y016652D01*
X026408Y016691D01*
X027471Y015865D01*
X030474Y015865D01*
X031616Y014723D01*
X024124Y018030D02*
X023494Y018030D01*
X023474Y018050D01*
X020581Y018581D02*
X020081Y018581D01*
X019986Y018487D01*
X019990Y019431D02*
X019990Y019959D01*
X018022Y020528D02*
X018022Y020943D01*
X018022Y020528D02*
X017935Y020441D01*
X015695Y021038D02*
X015660Y021073D01*
X015660Y021534D01*
X014112Y020132D02*
X014089Y020156D01*
X013494Y020156D01*
X013494Y019172D02*
X014022Y019172D01*
X014077Y019227D01*
X019498Y008506D02*
X019498Y007836D01*
X019336Y007674D01*
X019374Y007643D02*
X020183Y007643D01*
X020183Y007405D02*
X019910Y007405D01*
X019910Y007372D02*
X019910Y007636D01*
X019374Y007636D01*
X019374Y007711D01*
X019910Y007711D01*
X019910Y007972D01*
X020183Y007972D01*
X020183Y007372D01*
X019910Y007372D01*
X019910Y007882D02*
X020183Y007882D01*
D38*
X019983Y007872D03*
X019983Y007472D03*
X017983Y006672D03*
X017383Y006472D03*
X019483Y005572D03*
X018883Y011772D03*
X021083Y011872D03*
X020083Y015172D03*
X017783Y018172D03*
X019283Y020172D03*
X029753Y018272D03*
X030683Y016672D03*
X031598Y016543D03*
X025983Y012472D03*
X027483Y011972D03*
D39*
X027746Y016967D02*
X027510Y017203D01*
X027510Y019132D01*
X026973Y019670D01*
X026433Y019670D01*
X026408Y019644D01*
X025746Y019634D01*
X025195Y019083D01*
X024793Y019093D01*
X024124Y019762D01*
X023612Y019762D01*
X023085Y020290D01*
X023014Y020302D02*
X023014Y019152D01*
X017783Y018789D02*
X017783Y018172D01*
X028992Y018390D02*
X029000Y018382D01*
X029513Y018382D01*
X029605Y018290D01*
X029735Y018290D01*
X014286Y009128D02*
X013911Y009128D01*
X017383Y006472D02*
X017983Y005972D01*
X017983Y003972D01*
X018233Y003622D01*
X018433Y003622D01*
M02*
